<svg width="50" height="88" viewBox="0 0 50 88" fill="none" xmlns="http://www.w3.org/2000/svg">
<path d="M43.2643 13.4435H5.89648L6.90378 0H43.2645V13.4435H43.2643Z" fill="#EA4961"/>
<path d="M15.7559 37.6011L0.884346 10.0529C-0.95503 6.82818 0.167647 2.72296 3.39163 0.88341C6.61615 -0.954721 10.7214 0.168492 12.5611 3.3907L29.7829 35.0584C31.2417 37.6152 24.3486 42.808 22.1828 42.435C20.0169 42.0619 17.9706 41.6907 15.7559 37.6011Z" fill="#F5827D"/>
<path d="M24.4962 52.108C17.9923 52.108 12.7012 46.8167 12.7012 40.313C12.7012 33.8092 17.9923 28.5181 24.4962 28.5181C30.9999 28.5181 36.2911 33.8093 36.2911 40.313C36.2911 46.8167 30.9999 52.108 24.4962 52.108ZM24.4962 32.1844C20.014 32.1844 16.3676 35.8309 16.3676 40.313C16.3676 44.7952 20.0142 48.4416 24.4962 48.4416C28.9783 48.4416 32.6247 44.7952 32.6247 40.313C32.6247 35.8309 28.9783 32.1844 24.4962 32.1844Z" fill="#C6C6C6"/>
<path d="M45.2741 66.7069C45.2741 78.182 35.9716 87.4845 24.4964 87.4845C13.0212 87.4845 3.71875 78.182 3.71875 66.7069C3.71875 55.2317 13.0212 45.9292 24.4964 45.9292C35.9716 45.9292 45.2741 55.2317 45.2741 66.7069Z" fill="#FFD60D"/>
<path d="M23.7863 75.9311L17.5466 79.2115C16.4268 79.8002 15.1179 78.8494 15.3317 77.6024L16.5233 70.6544C16.5652 70.4105 16.5471 70.16 16.4706 69.9247C16.3941 69.6893 16.2615 69.476 16.0842 69.3033L11.0364 64.3827C10.1304 63.4996 10.6304 61.9609 11.8823 61.7789L18.8584 60.7652C19.1034 60.7296 19.336 60.635 19.5362 60.4896C19.7364 60.3441 19.8983 60.1521 20.0078 59.9301L23.1276 53.6088C23.6876 52.4742 25.3053 52.4742 25.8653 53.6088L28.9851 59.9301C29.0947 60.1521 29.2566 60.344 29.4568 60.4895C29.657 60.635 29.8896 60.7296 30.1345 60.7652L37.1106 61.7789C38.3628 61.9609 38.8626 63.4996 37.9566 64.3827L32.9087 69.3033C32.7315 69.4761 32.599 69.6893 32.5225 69.9247C32.446 70.1601 32.4279 70.4105 32.4696 70.6544L33.6612 77.6024C33.8751 78.8494 32.5663 79.8004 31.4463 79.2115L25.2067 75.9311C24.9877 75.8159 24.7439 75.7558 24.4965 75.7558C24.249 75.7558 24.0053 75.8159 23.7863 75.9311Z" fill="#FFE780"/>
<path d="M49.0085 10.207L31.7561 39.4246C31.2647 40.2266 30.6055 40.9126 29.8238 41.4355C29.0422 41.9585 28.1565 42.306 27.2278 42.4542H22.8957L21.5695 38.2489L21.6749 38.2341C19.8539 36.9104 18.6883 35.443 19.3895 34.2986L37.394 3.43073C39.2282 0.436977 43.0548 -0.895814 46.2093 0.645665C49.8277 2.41399 51.062 6.85574 49.0085 10.207Z" fill="#F5827D"/>
</svg>
