<svg width="8" height="15" viewBox="0 0 8 15" fill="none" xmlns="http://www.w3.org/2000/svg">
<path d="M7.99808 7.51144C7.99853 7.7451 7.91716 7.97153 7.76808 8.15144L2.76808 14.1514C2.59834 14.3557 2.35443 14.4841 2.09 14.5085C1.82558 14.5328 1.56229 14.4512 1.35808 14.2814C1.15386 14.1117 1.02544 13.8678 1.00106 13.6034C0.976678 13.3389 1.05834 13.0757 1.22808 12.8714L5.70808 7.51144L1.38808 2.15144C1.30501 2.04915 1.24298 1.93146 1.20555 1.80512C1.16812 1.67878 1.15602 1.54629 1.16996 1.41526C1.1839 1.28423 1.2236 1.15725 1.28677 1.04161C1.34995 0.925977 1.43535 0.823965 1.53808 0.741443C1.6409 0.649863 1.76153 0.580503 1.8924 0.537711C2.02327 0.494919 2.16157 0.479616 2.29864 0.492759C2.4357 0.505901 2.56857 0.547208 2.68893 0.614091C2.80929 0.680974 2.91453 0.771994 2.99808 0.881444L7.82808 6.88144C7.95359 7.06653 8.01345 7.28834 7.99808 7.51144Z" fill="white"/>
</svg>
