<svg width="8" height="15" viewBox="0 0 8 15" fill="none" xmlns="http://www.w3.org/2000/svg">
<path d="M0.00240993 7.48953C0.0019536 7.25588 0.0833282 7.02945 0.232409 6.84953L5.23241 0.849534C5.40215 0.645317 5.64606 0.516892 5.91049 0.492513C6.17491 0.468133 6.43819 0.549795 6.64241 0.719533C6.84663 0.889272 6.97505 1.13318 6.99943 1.39761C7.02381 1.66204 6.94215 1.92532 6.77241 2.12953L2.29241 7.48953L6.61241 12.8495C6.69548 12.9518 6.75751 13.0695 6.79494 13.1959C6.83237 13.3222 6.84446 13.4547 6.83053 13.5857C6.81659 13.7167 6.77689 13.8437 6.71372 13.9594C6.65054 14.075 6.56514 14.177 6.46241 14.2595C6.35959 14.3511 6.23896 14.4205 6.10809 14.4633C5.97721 14.5061 5.83891 14.5214 5.70185 14.5082C5.56479 14.4951 5.43192 14.4538 5.31156 14.3869C5.1912 14.32 5.08595 14.229 5.00241 14.1195L0.17241 8.11953C0.0468941 7.93445 -0.0129609 7.71263 0.00240993 7.48953Z" fill="#E1E1E1"/>
</svg>
