<svg width="13" height="26" viewBox="0 0 13 26" fill="none" xmlns="http://www.w3.org/2000/svg">
<path d="M2.157 25.9999C2.4345 26.0008 2.70868 25.9396 2.9594 25.8207C3.21012 25.7018 3.43101 25.5282 3.60583 25.3128L12.5774 14.171C12.8506 13.8387 13 13.4219 13 12.9918C13 12.5617 12.8506 12.1449 12.5774 11.8126L3.29006 0.670834C2.97477 0.29161 2.52172 0.0531301 2.03055 0.00785776C1.53938 -0.0374146 1.05034 0.114229 0.671017 0.429428C0.291689 0.744627 0.0531445 1.19756 0.00785923 1.68859C-0.037425 2.17962 0.114259 2.66853 0.429544 3.04775L8.73247 13.0011L0.708167 22.9544C0.48103 23.227 0.336745 23.5589 0.29239 23.9109C0.248034 24.2629 0.305462 24.6202 0.457879 24.9406C0.610295 25.261 0.851322 25.531 1.15244 25.7187C1.45355 25.9065 1.80216 26.004 2.157 25.9999Z" fill="#0FC1A1"/>
</svg>
