<svg width="10" height="20" viewBox="0 0 10 20" fill="none" xmlns="http://www.w3.org/2000/svg">
<path d="M1.41908 19.9974C1.08809 19.9981 0.767322 19.8821 0.512462 19.6696C0.369021 19.5499 0.250451 19.403 0.163541 19.2371C0.0766308 19.0713 0.0230893 18.8898 0.00598283 18.7031C-0.0111236 18.5164 0.00854139 18.3282 0.0638511 18.1491C0.119161 17.9701 0.209027 17.8038 0.328306 17.6597L6.67459 10.0195L0.554961 2.36509C0.437291 2.21929 0.349418 2.05153 0.296393 1.87144C0.243368 1.69136 0.226236 1.5025 0.245982 1.31573C0.265728 1.12896 0.321962 0.947962 0.411452 0.783132C0.500943 0.618303 0.621927 0.472894 0.767447 0.355266C0.914015 0.225501 1.08566 0.127622 1.2716 0.0677701C1.45754 0.00791853 1.65378 -0.0126127 1.84798 0.00746409C2.04218 0.0275408 2.23017 0.0877926 2.40013 0.184438C2.5701 0.281083 2.71837 0.412036 2.83566 0.569077L9.67775 9.12154C9.8861 9.37659 10 9.69652 10 10.0267C10 10.3568 9.8861 10.6768 9.67775 10.9318L2.59484 19.4843C2.45273 19.6568 2.27221 19.7931 2.06792 19.8823C1.86364 19.9714 1.64135 20.0109 1.41908 19.9974Z" fill="#0FC1A1"/>
</svg>
