<svg width="8" height="15" viewBox="0 0 8 15" fill="none" xmlns="http://www.w3.org/2000/svg">
<path d="M7.00125 7.02325C7.00171 7.25691 6.92033 7.48334 6.77125 7.66325L1.77125 13.6633C1.60151 13.8675 1.3576 13.9959 1.09318 14.0203C0.82875 14.0447 0.565469 13.963 0.361252 13.7933C0.157035 13.6235 0.0286112 13.3796 0.00423152 13.1152C-0.0201482 12.8508 0.0615132 12.5875 0.231252 12.3833L4.71125 7.02325L0.391253 1.66325C0.308187 1.56096 0.246155 1.44327 0.208723 1.31693C0.171291 1.19059 0.159198 1.0581 0.173137 0.927072C0.187076 0.796043 0.226773 0.669061 0.289947 0.553424C0.35312 0.437787 0.438526 0.335776 0.541252 0.253253C0.644074 0.161673 0.7647 0.0923141 0.895574 0.0495214C1.02645 0.00672879 1.16475 -0.00857401 1.30181 0.00456905C1.43887 0.0177121 1.57175 0.059018 1.6921 0.125901C1.81246 0.192784 1.91771 0.283804 2.00125 0.393254L6.83125 6.39325C6.95677 6.57834 7.01662 6.80015 7.00125 7.02325V7.02325Z" fill="#919BB3"/>
</svg>
