<svg width="8" height="15" viewBox="0 0 8 15" fill="none" xmlns="http://www.w3.org/2000/svg">
<path d="M0.0394754 7.48953C0.0390189 7.25588 0.120394 7.02945 0.269475 6.84953L5.26947 0.849534C5.43921 0.645317 5.68313 0.516892 5.94755 0.492513C6.21198 0.468133 6.47526 0.549795 6.67948 0.719533C6.88369 0.889272 7.01212 1.13318 7.0365 1.39761C7.06088 1.66204 6.97921 1.92532 6.80948 2.12953L2.32948 7.48953L6.64948 12.8495C6.73254 12.9518 6.79457 13.0695 6.832 13.1959C6.86944 13.3222 6.88153 13.4547 6.86759 13.5857C6.85365 13.7167 6.81395 13.8437 6.75078 13.9594C6.68761 14.075 6.6022 14.177 6.49948 14.2595C6.39665 14.3511 6.27603 14.4205 6.14515 14.4633C6.01428 14.5061 5.87598 14.5214 5.73892 14.5082C5.60185 14.4951 5.46898 14.4538 5.34862 14.3869C5.22827 14.32 5.12302 14.229 5.03948 14.1195L0.209476 8.11953C0.0839595 7.93445 0.0241046 7.71263 0.0394754 7.48953V7.48953Z" fill="#919BB3"/>
</svg>
