<svg width="12" height="23" viewBox="0 0 12 23" fill="none" xmlns="http://www.w3.org/2000/svg">
<path d="M9.32124 22.2918C9.09092 22.2926 8.86336 22.2418 8.65526 22.143C8.44717 22.0443 8.26384 21.9003 8.11874 21.7214L0.672488 12.4714C0.445737 12.1955 0.321777 11.8495 0.321777 11.4924C0.321777 11.1353 0.445737 10.7893 0.672488 10.5135L8.38082 1.26347C8.6425 0.94864 9.01853 0.750652 9.42619 0.713067C9.83385 0.675481 10.2397 0.801377 10.5546 1.06306C10.8694 1.32474 11.0674 1.70077 11.105 2.10842C11.1426 2.51608 11.0167 2.92197 10.755 3.23681L3.86374 11.5001L10.5237 19.7635C10.7123 19.9898 10.832 20.2653 10.8688 20.5575C10.9056 20.8498 10.858 21.1464 10.7315 21.4124C10.605 21.6784 10.4049 21.9026 10.155 22.0584C9.90508 22.2143 9.61575 22.2952 9.32124 22.2918Z" fill="#106EE8"/>
</svg>
