<svg width="46" height="46" viewBox="0 0 46 46" fill="none" xmlns="http://www.w3.org/2000/svg">
<path fill-rule="evenodd" clip-rule="evenodd" d="M23 46C35.7025 46 46 35.7025 46 23C46 10.2975 35.7025 0 23 0C10.2975 0 0 10.2975 0 23C0 35.7025 10.2975 46 23 46Z" fill="#CBFFCE"/>
<path d="M26.1911 30.4592C25.9405 30.7359 25.5233 30.7359 25.2638 30.4592C25.0132 30.1918 25.0132 29.7468 25.2638 29.4801L29.9658 24.4648H14.45C14.0883 24.4642 13.8008 24.1575 13.8008 23.7717C13.8008 23.3859 14.0883 23.0693 14.45 23.0693H29.9658L25.2638 18.0634C25.0132 17.7867 25.0132 17.341 25.2638 17.0743C25.5233 16.7976 25.941 16.7976 26.1911 17.0743L32.0062 23.2769C32.2656 23.5442 32.2656 23.9892 32.0062 24.256L26.1911 30.4592Z" fill="#0FC1A1" stroke="#0FC1A1"/>
</svg>
