<svg width="220" height="62" viewBox="0 0 220 62" fill="none" xmlns="http://www.w3.org/2000/svg">
<mask id="mask0" mask-type="alpha" maskUnits="userSpaceOnUse" x="0" y="0" width="220" height="62">
<rect width="220" height="62" fill="#C4C4C4"/>
</mask>
<g mask="url(#mask0)">
<path d="M40.43 43.8555C38.5513 39.0685 36.1603 36.8294 32.5168 36.7522C28.4178 36.675 26.0268 33.1233 24.4328 28.3362C23.8635 26.5604 23.3511 24.7846 22.7249 23.0859C22.3833 22.1594 21.9848 21.2329 21.4155 20.6152C20.163 19.071 18.6829 19.457 17.8859 21.4645C17.5443 22.391 17.4304 23.3948 17.2027 24.3985C16.7473 26.0971 16.3487 27.7958 15.8364 29.4172C15.0394 31.8879 13.5592 33.0461 11.5097 33.0461C8.66324 33.0461 5.81676 33.0461 2.97028 33.0461C2.28713 33.0461 1.54704 33.2777 0.180732 33.4321C1.03468 34.2042 1.37626 34.8219 1.71784 34.8219C5.41827 34.8991 9.11869 34.8991 12.8191 34.8219C14.5839 34.8219 15.9502 33.5866 16.7473 31.5019C17.4304 29.726 17.9428 27.7958 18.5121 25.8655C18.8537 24.5529 19.0814 23.2403 19.4229 21.6961C20.96 22.3138 21.2447 23.858 21.7001 25.1706C22.611 27.5641 23.3511 30.1121 24.3189 32.4284C26.0837 36.5978 28.7594 38.528 32.289 38.6824C35.8756 38.8369 38.3805 41.462 39.2914 46.0946C39.6899 48.0249 39.8038 50.1096 39.9176 52.1943C40.0315 54.8966 40.0315 57.599 40.0315 60.3014C40.0315 60.533 40.1453 60.7646 40.43 61.7684C41.5686 48.5654 42.6502 36.1345 43.7319 23.6264C44.6428 26.0199 44.3581 28.4907 44.4151 30.9614C44.5289 33.3549 44.5289 35.7484 44.5858 38.2192C48.3432 37.9875 50.3357 33.741 53.6946 32.4284C58.249 35.2852 63.2588 34.8219 68.2686 34.8219C71.5705 34.8219 74.8724 34.7447 78.1743 34.8991C80.6792 34.9763 82.3302 33.4321 83.3549 30.4981C83.9812 28.7995 84.3797 26.9465 84.892 25.0934C85.1767 24.0125 85.4044 22.9315 85.746 21.3101C86.4291 22.2366 86.9984 22.6999 87.2261 23.3176C87.9093 25.0162 88.4217 26.792 88.991 28.5679C89.8449 31.3474 91.0404 33.8182 92.7483 35.7484C94.3424 37.6015 96.1072 38.4508 98.2136 38.6052C102.825 38.9141 105.671 42.7746 106.013 49.0286C106.127 50.9589 106.07 52.8892 106.07 54.8194C106.07 56.5953 106.07 58.3711 106.298 60.2242C107.892 53.7385 107.949 47.0212 108.632 40.3811C109.315 33.741 109.713 27.1009 110.283 20.4608C110.738 26.2516 110.34 32.1968 110.795 38.0648C113.129 37.9103 114.723 36.5978 116.203 34.9763C118.139 32.8144 120.188 32.4284 122.579 33.6638C124.06 34.3587 125.711 34.6675 127.305 34.7447C133.055 34.8219 138.861 34.5903 144.611 34.7447C147.401 34.8219 149.109 32.9689 150.133 29.8032C150.703 27.9502 151.101 25.9427 151.614 23.9352C151.784 23.2403 151.955 22.5455 152.183 21.6961C153.606 22.2366 153.834 23.7808 154.346 25.0934C155.428 27.9502 156.396 30.8842 157.648 33.5866C159.185 36.8294 161.519 38.3736 164.366 38.6052C169.489 39.1457 172.279 43.0062 172.621 49.9552C172.734 52.2715 172.678 54.5878 172.678 56.9041C172.678 58.2939 172.678 59.6837 172.678 61.0735C172.848 61.0735 173.076 61.0735 173.247 61.0735C174.385 48.1021 175.524 35.1308 176.663 22.2366C176.833 22.2366 177.004 22.2366 177.175 22.2366C177.175 27.4869 177.175 32.7372 177.175 38.2192C179.054 38.142 180.477 37.4471 181.615 36.1345C184.234 33.0461 187.024 32.1196 190.269 34.2814C190.838 34.6675 191.578 34.7447 192.204 34.8219C198.467 34.8991 204.729 34.8219 210.934 34.8991C213.781 34.8991 215.602 33.2005 216.513 29.5716C216.912 27.873 217.31 26.1743 217.709 24.4757C217.937 23.5492 218.278 22.6999 218.734 21.4645C219.36 22.4682 219.872 23.0859 220.157 23.7808C221.125 26.3288 221.922 28.9539 222.889 31.4247C224.654 35.9029 227.273 38.6824 231.258 38.8369C235.243 38.9913 238.204 42.543 238.659 48.1021C239.001 52.0399 239.057 55.9776 239.399 59.9925C240.367 53.8929 240.765 47.6389 241.335 41.462C241.961 35.1308 242.359 28.7223 243.099 22.391C243.27 27.7186 243.441 32.9689 243.612 38.3736C245.832 38.2192 247.426 37.061 248.792 35.5168C250.842 33.2005 252.891 32.8144 255.396 34.0498C256.933 34.8219 258.698 34.8991 260.406 35.0536C262 35.208 263.651 35.208 265.245 35.1308C265.701 35.1308 266.156 34.7447 267.181 34.2814C266.27 33.741 265.928 33.2777 265.53 33.2777C264.277 33.2005 263.082 33.2005 261.829 33.2777C259.723 33.4321 257.673 33.0461 255.738 31.8879C253.119 30.3437 250.785 30.807 248.565 33.2005C247.654 34.2042 246.515 34.8991 245.263 35.9801C244.58 23.858 244.58 12.2765 243.441 0.694894C242.189 14.9788 240.879 29.2628 239.57 43.7011C238.659 42.1569 237.919 40.6899 236.951 39.4545C235.699 37.8331 234.162 36.9066 232.34 36.9838C228.81 36.9838 226.078 35.0536 224.427 30.807C223.402 28.1818 222.434 25.5567 221.523 22.8543C220.897 20.924 219.986 19.6887 218.221 19.8431C216.855 21.2329 216.513 23.3948 216.001 25.4022C215.659 26.6376 215.546 27.9502 215.204 29.1083C214.293 31.7335 212.927 33.4321 210.593 33.3549C205.298 33.2777 199.947 33.3549 194.652 33.2005C192.774 33.1233 190.895 32.5828 189.13 31.7335C186.625 30.4981 184.519 31.0386 182.469 33.0461C181.502 33.9726 180.42 34.8219 178.997 36.1345C178.37 24.0125 178.143 12.4309 177.63 0.926526C176.606 5.48194 176.378 10.1918 176.036 14.8244C175.638 19.5342 175.069 24.2441 174.67 28.9539C174.215 33.8182 173.816 38.6052 173.304 44.0872C172.734 42.8518 172.393 42.0797 171.994 41.3076C170.628 38.8369 168.806 37.1382 166.472 37.1382C161.576 37.1382 158.787 33.5093 157.022 27.873C156.51 26.2516 155.997 24.5529 155.371 22.9315C155.086 22.1594 154.688 21.3873 154.232 20.7696C152.98 19.2254 151.386 19.6115 150.76 21.7734C150.247 23.3948 150.02 25.2478 149.564 26.8692C148.141 32.274 147.173 33.2777 142.903 33.2777C138.349 33.2777 133.795 33.2777 129.24 33.2777C126.963 33.2777 124.686 32.8917 122.579 31.6563C120.473 30.4209 118.537 30.807 116.659 32.5828C115.52 33.6638 114.325 34.6675 112.844 35.9801C111.592 23.7036 112.332 11.8132 110.966 0C109.656 14.2839 108.347 28.6451 107.038 43.5467C106.355 42.4658 105.842 41.6164 105.33 40.7671C103.963 38.3736 102.199 37.061 99.9784 37.061C95.5379 37.061 92.6914 34.127 90.9266 28.7995C90.3003 26.9465 89.7311 25.0162 89.1048 23.1631C88.8202 22.391 88.4786 21.5417 88.0232 20.924C86.7138 19.2254 85.1197 19.6115 84.3227 21.8506C83.9242 23.0087 83.7534 24.3213 83.4119 25.4795C83.0703 26.792 82.7287 28.1818 82.3302 29.4172C81.5332 31.9651 80.053 33.2005 78.1174 33.2005C72.4244 33.2777 66.7315 33.3549 61.0385 33.2777C59.5583 33.2777 58.0212 32.5828 56.6549 31.8107C54.207 30.4209 52.0436 31.1158 49.9372 32.9689C48.8556 33.8954 47.717 34.7447 46.1799 35.9801C45.7244 29.6488 45.9522 23.7808 45.7244 17.9128C45.4398 12.0448 45.3259 6.09963 44.8705 0.0772105C44.6428 1.15816 44.3012 2.16189 44.2443 3.24284C43.3903 12.8941 42.5933 22.6227 41.7963 32.3512C41.2839 35.8257 40.8854 39.4545 40.43 43.8555Z" fill="white"/>
</g>
</svg>
