<svg width="27" height="79" viewBox="0 0 27 79" fill="none" xmlns="http://www.w3.org/2000/svg">
<path d="M0.350025 56.1731C0.350025 61.1255 0.330714 66.0973 0.350025 71.0497C0.350025 72.9215 0.852129 74.6372 2.04945 76.0996C3.22745 77.5229 4.69513 78.3223 6.56835 78.3028C11.1838 78.3028 15.8186 78.2443 20.4341 78.3223C23.6205 78.3808 26.0537 76.0801 26.7683 72.9995C26.9228 72.2781 26.9807 71.5177 26.9807 70.7767C27 60.9695 26.9807 51.1427 27 41.316C27 40.2631 26.6717 39.4052 25.9765 38.5863C23.8522 36.1102 23.3887 32.4056 25.204 29.442C25.8027 28.4671 25.9958 27.5118 25.8413 26.4004C25.262 22.3644 24.7212 18.3284 24.1612 14.2924C24.0646 13.649 23.9488 13.0056 23.9874 12.3622C24.1033 10.4904 23.3308 8.77464 22.9446 7.00037C22.0369 2.71091 18.6188 0.0397533 14.293 0.000758298C11.937 -0.0187392 9.67752 0.332216 7.66911 1.69704C5.54484 3.13986 4.61788 5.28459 4.17372 7.72178C4.01922 8.56017 3.71024 9.37906 3.57506 10.237C3.34332 11.8942 3.20814 13.5905 2.99571 15.2478C2.59017 18.3674 2.146 21.4675 1.74046 24.5676C1.62459 25.5035 1.43148 26.4394 1.43148 27.3558C1.43148 27.9407 1.62459 28.5841 1.91426 29.0716C3.61368 31.8792 3.65231 34.6868 2.08807 37.553C1.85633 37.9819 1.58597 38.3914 1.23836 38.7228C0.543143 39.4052 0.311403 40.2436 0.311403 41.199C0.350026 46.1904 0.350025 51.1817 0.350025 56.1731ZM5.56415 9.1256C5.66071 8.42369 5.69933 7.89725 5.8152 7.35132C6.37524 4.60217 7.90085 2.76941 10.6238 1.97001C11.879 1.61905 13.1536 1.56056 14.4282 1.59955C18.2325 1.69704 20.8203 3.91976 21.5541 7.68278C21.6507 8.13122 21.67 8.59916 21.7279 9.1061C19.8161 9.1061 18.0587 9.1061 16.1855 9.1061C16.1855 8.36519 16.2048 7.68278 16.1855 7.01987C16.1469 5.83052 15.3937 4.73866 14.2544 4.4072C13.8488 4.29021 13.3274 4.29021 12.9605 4.46569C11.8211 5.01162 11.0293 5.85001 11.1066 7.25384C11.1452 7.85826 11.1066 8.46268 11.1066 9.1061C9.23335 9.1256 7.49531 9.1256 5.56415 9.1256ZM12.7481 9.1256C12.7481 8.3067 12.7287 7.60479 12.7481 6.90288C12.7674 6.43494 13.2888 5.9475 13.6557 5.928C14.0419 5.90851 14.544 6.37645 14.5827 6.86389C14.6213 7.58529 14.602 8.3262 14.602 9.1256C13.9454 9.1256 13.424 9.1256 12.7481 9.1256ZM20.6658 10.8609C21.2645 10.8609 21.7473 10.8609 22.288 10.8609C22.3652 11.7383 22.4425 12.5377 22.5004 13.3956C21.7859 13.3956 21.2452 13.3956 20.6465 13.3956C20.6658 12.4987 20.6658 11.6993 20.6658 10.8609ZM4.77238 13.4151C4.88825 12.4597 4.9848 11.6408 5.08136 10.7634C5.68002 10.7829 6.1435 10.8024 6.60698 10.8414C6.60698 11.7578 6.60698 12.5377 6.60698 13.4151C6.02763 13.4151 5.50622 13.4151 4.77238 13.4151ZM11.2997 13.4345C11.2997 12.5182 11.2997 11.6993 11.2997 10.8609C11.8211 10.8609 12.2846 10.8609 12.7674 10.8609C12.7674 11.7383 12.7674 12.5572 12.7674 13.4345C12.2846 13.4345 11.8404 13.4345 11.2997 13.4345ZM9.69683 10.8414C9.69683 11.7578 9.69683 12.5377 9.69683 13.4151C9.19473 13.4151 8.73125 13.4151 8.22915 13.4151C8.22915 12.5377 8.22915 11.6993 8.22915 10.8414C8.75056 10.8414 9.19473 10.8414 9.69683 10.8414ZM18.9471 10.8609C18.9471 11.7383 18.9471 12.5572 18.9471 13.4735C18.445 13.454 18.0394 13.4345 17.5953 13.4151C17.5953 12.4792 17.5953 11.6798 17.5953 10.8609C18.0974 10.8609 18.5029 10.8609 18.9471 10.8609ZM14.4861 10.8609C15.0268 10.8609 15.4324 10.8609 15.8572 10.8609C15.8572 11.7383 15.8572 12.5572 15.8572 13.4735C15.3551 13.454 14.9496 13.4345 14.4861 13.3956C14.4861 12.4987 14.4861 11.7188 14.4861 10.8609Z" fill="black"/>
</svg>
