<svg width="45" height="94" viewBox="0 0 45 94" fill="none" xmlns="http://www.w3.org/2000/svg">
<path d="M0 80.7777C0 64.2986 0 47.9078 0 31.4463C0.655467 31.4463 1.30219 31.4463 1.98388 31.4463C1.99262 31.2255 2.0101 31.0665 2.0101 30.9076C2.0101 26.7392 2.0101 22.5797 1.99262 18.4113C1.98388 16.3183 2.31598 14.3136 3.2249 12.4149C4.51835 9.70369 6.65955 8.14939 9.59604 7.69016C9.79705 7.65484 9.98932 7.62835 10.2253 7.58419C10.2253 5.04078 10.2253 2.5327 10.2253 -0.0195312C16.5178 -0.0195312 22.7753 -0.0195312 29.0765 -0.0195312C29.0853 0.157094 29.1027 0.324888 29.1027 0.492682C29.1027 2.71816 29.1027 4.93481 29.1027 7.16029C29.1027 7.59302 29.1115 7.61068 29.5222 7.66367C32.9307 8.11407 35.2117 10.0128 36.4614 13.2274C37.1431 14.9936 37.3529 16.8394 37.3441 18.7204C37.3267 22.8446 37.3354 26.96 37.3354 31.0842C37.3354 31.1725 37.3529 31.2608 37.3616 31.4021C37.9996 31.4021 38.6289 31.4021 39.3193 31.4021C39.3193 34.3694 39.3193 37.2926 39.3193 40.2864C39.6339 40.2864 39.8874 40.2687 40.1408 40.2864C40.7001 40.3305 41.2857 40.3217 41.8275 40.4718C43.7502 41.0194 44.9913 42.7061 44.9913 44.7373C45 50.6366 44.9913 56.5447 44.9913 62.444C44.9913 63.7952 45 65.1552 44.9913 66.5064C44.9738 68.776 43.3919 70.6041 41.1808 70.9044C40.7613 70.9574 40.3418 70.9309 39.9136 70.9309C39.7388 70.9309 39.5727 70.9309 39.3542 70.9309C39.3542 74.2161 39.3542 77.4395 39.3542 80.7247C38.6726 80.7247 38.0433 80.7247 37.3616 80.7247C37.3616 85.1669 37.3616 89.556 37.3616 93.9893C25.572 93.9893 13.826 93.9893 2.03632 93.9893C2.03632 89.6002 2.03632 85.211 2.03632 80.7601C1.32841 80.7777 0.681686 80.7777 0 80.7777ZM37.1082 78.5169C37.1082 63.5479 37.1082 48.6143 37.1082 33.6541C25.4583 33.6541 13.8522 33.6541 2.21985 33.6541C2.21985 48.6408 2.21985 63.5656 2.21985 78.5169C13.8609 78.5169 25.4671 78.5169 37.1082 78.5169ZM35.1156 20.001C24.7854 20.001 14.5164 20.001 4.24743 20.001C4.24743 23.8249 4.24743 27.6135 4.24743 31.4021C14.5601 31.4021 24.8291 31.4021 35.1156 31.4021C35.1156 27.587 35.1156 23.8072 35.1156 20.001ZM35.0981 91.7991C35.0981 88.0812 35.0981 84.4427 35.0981 80.7866C24.7854 80.7866 14.5164 80.7866 4.23869 80.7866C4.23869 84.4604 4.23869 88.0988 4.23869 91.7991C14.5426 91.7991 24.8116 91.7991 35.0981 91.7991ZM4.22121 17.7048C14.5514 17.7048 24.8204 17.7048 35.0981 17.7048C35.1068 17.5988 35.1243 17.5282 35.1243 17.4575C35.0282 16.2388 34.8097 15.0378 34.3465 13.8985C33.6298 12.1411 32.4675 10.8341 30.6496 10.2071C29.7582 9.89798 28.8318 9.80084 27.8967 9.80084C22.5131 9.80084 17.1208 9.80084 11.7372 9.80084C11.3265 9.80084 10.9245 9.80084 10.5137 9.83616C8.89687 9.96863 7.44611 10.5073 6.3187 11.7349C5.41853 12.7063 4.89415 13.8721 4.57079 15.1438C4.36978 15.9651 4.22121 16.804 4.22121 17.7048ZM39.3805 42.556C39.3805 51.299 39.3805 59.9978 39.3805 68.7142C39.8961 68.7142 40.3855 68.7584 40.8574 68.7054C41.9324 68.5906 42.8151 67.681 42.8064 66.3386C42.7889 60.0154 42.7976 53.6922 42.7976 47.3691C42.7976 46.4859 42.8064 45.6028 42.7889 44.7197C42.7627 43.5893 42.0198 42.715 40.9186 42.5648C40.4292 42.4942 39.9136 42.556 39.3805 42.556ZM26.8741 7.54886C26.8829 7.39873 26.9004 7.28393 26.9004 7.16912C26.9004 5.6678 26.9004 4.16649 26.9004 2.66517C26.9004 2.20595 26.8916 2.19712 26.4372 2.19712C21.98 2.19712 17.5228 2.19712 13.0656 2.19712C12.8646 2.19712 12.6724 2.22361 12.4539 2.23244C12.4539 4.01636 12.4539 5.76495 12.4539 7.54886C17.2519 7.54886 22.0412 7.54886 26.8741 7.54886Z" fill="black"/>
</svg>
