<svg width="51" height="120" viewBox="0 0 51 120" fill="none" xmlns="http://www.w3.org/2000/svg">
<path d="M10.4065 119.999C8.33896 118.526 5.99572 117.348 4.20383 115.581C0.895721 112.416 0.206532 107.999 0.137613 103.508C0.0686941 89.5201 -0.138063 75.5324 0.137613 61.6183C0.413289 47.7042 5.65112 36.2931 16.0579 27.7533C16.4025 27.4588 16.8849 27.3115 17.2295 27.1643C16.7471 26.4281 16.6782 26.1336 16.4714 26.06C12.4052 24.8085 12.1295 24.6612 11.9227 20.4649C11.716 16.5631 11.9227 12.6612 12.0606 8.75938C12.1984 4.3422 14.6106 1.91276 18.4011 0.734842C18.9525 0.587603 19.4349 0.293125 19.9863 0.0722656C23.639 0.0722656 27.3606 0.0722656 31.0133 0.0722656C31.8403 0.440364 32.7363 0.734842 33.5633 1.10294C36.8025 2.57533 38.8011 5.00478 38.8011 8.90662C38.8011 12.5876 38.8011 16.2686 38.8011 19.9496C38.8011 24.7348 38.6633 24.8821 33.839 26.3545C34.5971 27.0907 35.1484 27.7532 35.7687 28.3422C46.0376 37.1029 50.8619 48.5876 50.8619 62.5753C50.8619 76.0477 50.9998 89.5201 51.0687 103.066C51.0687 108.146 50.0349 112.858 46.2444 116.318C44.5903 117.79 42.5917 118.747 40.7309 119.999C30.5998 119.999 20.4687 119.999 10.4065 119.999ZM3.30788 90.8453C3.17004 91.8023 3.03221 92.7594 2.96329 93.6428C2.89437 97.1766 2.96329 100.71 2.96329 104.318C3.03221 112.416 7.78761 117.496 15.5065 117.569C21.7092 117.569 27.9119 117.643 34.0457 117.569C35.493 117.569 37.0092 117.422 38.4565 117.127C44.4525 115.95 47.8984 111.753 48.0363 105.201C48.1052 101.299 48.1052 97.3974 48.0363 93.422C48.0363 92.6121 47.8295 91.8023 47.6917 90.9189C32.943 90.8453 18.2633 90.8453 3.30788 90.8453ZM47.8984 87.6796C47.8984 79.8023 47.8984 72.1459 47.8984 64.5631C42.7295 63.8269 5.51329 64.1213 2.96329 64.9312C2.96329 68.6858 2.96329 72.4404 2.96329 76.2686C2.96329 80.0968 2.96329 83.9986 3.03221 87.7533C18.2633 87.6796 33.0808 87.6796 47.8984 87.6796ZM3.17004 61.3238C18.2633 61.3238 33.0119 61.3238 48.1741 61.3238C47.8984 58.8944 47.7606 56.7594 47.4849 54.6244C46.3822 47.3361 43.4876 40.9312 38.87 35.3361C37.9741 34.2318 37.0782 33.2011 35.4241 33.2747C28.8079 33.3483 22.1227 33.2747 15.5065 33.3483C14.6795 33.3483 13.7146 33.8637 13.1633 34.4526C6.54707 41.8882 3.17004 50.7226 3.17004 61.3238ZM17.0917 22.4526C17.1606 21.2011 17.1606 20.3177 17.2295 19.5078C17.5052 16.1213 18.8836 14.7226 22.0538 14.649C24.3282 14.5753 26.6714 14.5753 28.9457 14.649C32.3917 14.7962 33.5633 16.0477 33.839 19.8023C33.9079 20.6121 33.9768 21.422 34.1146 22.3054C35.8376 22.7471 36.389 22.0109 36.389 20.4649C36.389 16.5631 36.4579 12.5876 36.32 8.68576C36.2511 7.50785 35.4241 6.40355 35.0795 5.59374C28.3944 6.84527 22.2606 7.43423 15.7822 5.00478C13.9214 10.6735 15.0241 16.4894 14.8863 22.3054C15.7133 22.4526 16.2646 22.4526 17.0917 22.4526ZM20.3998 17.9618C20.6065 20.3913 20.6065 20.5385 21.7092 20.5385C24.6727 20.6121 27.5673 20.5385 30.6687 20.5385C30.6687 19.4342 30.6687 18.7717 30.6687 17.9618C27.2227 17.9618 23.9836 17.9618 20.3998 17.9618ZM31.289 24.1459C26.3268 23.3361 22.4673 23.5569 20.1241 24.5876C20.3998 24.9557 20.6754 25.5447 20.9511 25.6183C23.9146 25.7655 26.8782 25.9128 29.7727 25.9128C30.1863 25.9128 30.5309 25.0293 31.289 24.1459ZM17.9187 29.9618C23.2944 29.9618 27.843 29.9618 33.0119 29.9618C29.9795 28.5631 21.3646 28.5631 17.9187 29.9618ZM30.8065 3.45877C30.8065 3.31153 30.7376 3.09067 30.7376 2.94343C27.2227 2.94343 23.7079 2.94343 20.2619 2.94343C20.2619 3.09067 20.2619 3.31153 20.2619 3.45877C23.7079 3.45877 27.2227 3.45877 30.8065 3.45877Z" fill="black"/>
<path d="M35.2861 113.889C35.4929 112.269 36.7334 112.416 37.6294 112.122C42.0402 110.723 43.901 108.22 43.9699 103.361C44.0388 100.932 43.9699 98.4286 43.9699 95.9992C43.9699 94.9685 43.8321 93.717 45.624 93.4961C45.8996 94.0114 46.3821 94.6004 46.3821 95.1893C46.451 98.7231 46.5888 102.33 46.3821 105.864C46.1753 110.134 42.7294 114.11 38.8699 114.846C37.5605 115.14 36.1132 115.582 35.2861 113.889Z" fill="black"/>
<path d="M38.5256 38.8711C39.1459 39.1656 39.904 39.3128 40.2486 39.8281C43.2121 44.3926 45.3486 49.3987 46.1756 54.9202C46.4513 56.687 47.4851 58.9693 44.6594 60.6625C44.2459 59.2637 43.8324 58.1594 43.6946 57.0551C42.9365 51.7545 41.2824 46.8956 38.5946 42.3312C37.8365 41.0797 37.9054 41.0061 38.5256 38.8711Z" fill="black"/>
</svg>
