<svg width="45" height="94" viewBox="0 0 45 94" fill="none" xmlns="http://www.w3.org/2000/svg">
<path d="M0 80.7777C0 64.2986 0 47.9078 0 31.4463C0.655467 31.4463 1.30219 31.4463 1.98388 31.4463C1.99262 31.2255 2.0101 31.0665 2.0101 30.9076C2.0101 26.7392 2.0101 22.5797 1.99262 18.4113C1.98388 16.3183 2.31598 14.3136 3.2249 12.4149C4.51835 9.70369 6.65955 8.14939 9.59604 7.69016C9.79705 7.65484 9.98932 7.62835 10.2253 7.58419C10.2253 5.04078 10.2253 2.5327 10.2253 -0.0195312C16.5178 -0.0195312 22.7753 -0.0195312 29.0765 -0.0195312C29.0853 0.157094 29.1027 0.324888 29.1027 0.492682C29.1027 2.71816 29.1027 4.93481 29.1027 7.16029C29.1027 7.59302 29.1115 7.61068 29.5222 7.66367C32.9307 8.11407 35.2117 10.0128 36.4614 13.2274C37.1431 14.9936 37.3529 16.8394 37.3441 18.7204C37.3267 22.8446 37.3354 26.96 37.3354 31.0842C37.3354 31.1725 37.3529 31.2608 37.3616 31.4021C37.9996 31.4021 38.6289 31.4021 39.3193 31.4021C39.3193 34.3694 39.3193 37.2926 39.3193 40.2864C39.6339 40.2864 39.8874 40.2687 40.1408 40.2864C40.7001 40.3305 41.2857 40.3217 41.8275 40.4718C43.7502 41.0194 44.9913 42.7061 44.9913 44.7373C45 50.6366 44.9913 56.5447 44.9913 62.444C44.9913 63.7952 45 65.1552 44.9913 66.5064C44.9738 68.776 43.3919 70.6041 41.1808 70.9044C40.7613 70.9574 40.3418 70.9309 39.9136 70.9309C39.7388 70.9309 39.5727 70.9309 39.3542 70.9309C39.3542 74.2161 39.3542 77.4395 39.3542 80.7247C38.6726 80.7247 38.0433 80.7247 37.3616 80.7247C37.3616 85.1669 37.3616 89.556 37.3616 93.9893C25.572 93.9893 13.826 93.9893 2.03632 93.9893C2.03632 89.6002 2.03632 85.211 2.03632 80.7601C1.32841 80.7777 0.681686 80.7777 0 80.7777ZM4.22121 17.7048C14.5514 17.7048 24.8204 17.7048 35.0981 17.7048C35.1068 17.5988 35.1243 17.5282 35.1243 17.4575C35.0282 16.2388 34.8097 15.0378 34.3465 13.8985C33.6298 12.1411 32.4675 10.8341 30.6496 10.2071C29.7582 9.89798 28.8318 9.80084 27.8967 9.80084C22.5131 9.80084 17.1208 9.80084 11.7372 9.80084C11.3265 9.80084 10.9245 9.80084 10.5137 9.83616C8.89687 9.96863 7.44611 10.5073 6.3187 11.7349C5.41853 12.7063 4.89415 13.8721 4.57079 15.1438C4.36978 15.9651 4.22121 16.804 4.22121 17.7048ZM39.3805 42.556C39.3805 51.299 39.3805 59.9978 39.3805 68.7142C39.8961 68.7142 40.3855 68.7584 40.8574 68.7054C41.9324 68.5906 42.8151 67.681 42.8064 66.3386C42.7889 60.0154 42.7976 53.6922 42.7976 47.3691C42.7976 46.4859 42.8064 45.6028 42.7889 44.7197C42.7627 43.5893 42.0198 42.715 40.9186 42.5648C40.4292 42.4942 39.9136 42.556 39.3805 42.556Z" fill="#C4C4C4"/>
</svg>
