<svg width="29" height="29" viewBox="0 0 29 29" fill="none" xmlns="http://www.w3.org/2000/svg">
<g clip-path="url(#clip0)">
<path d="M0.0322169 19.6701C0.560561 24.3582 7.45169 26.1013 15.4217 23.5543C23.3922 21.0118 29.4255 15.1439 28.8972 10.4572C28.3688 5.77006 21.4791 4.03278 13.5086 6.57255C5.53678 9.11866 -0.496127 14.9821 0.0322169 19.6701Z" fill="#FBB041"/>
<path d="M18.3411 17.6017C13.5122 19.3562 5.01791 24.0243 0.0126953 19.3925C0.0181328 19.4845 0.0222109 19.5764 0.0321797 19.6684C0.560523 24.3574 7.45165 26.1001 15.4217 23.5531C21.5484 21.5987 26.5264 17.6851 28.2646 13.8467C24.8698 15.3859 21.4179 16.4825 18.3411 17.6017Z" fill="#E8A043"/>
<path d="M12.134 15.7162C11.95 15.6211 5.7857 12.4252 4.83867 11.9313C4.4517 11.7324 4.44626 10.9022 4.76345 10.5728C7.65756 7.5319 11.2771 9.40874 12.6533 14.6645C12.8032 15.2386 12.5214 15.9174 12.1344 15.7185" fill="#E8A043"/>
<path d="M18.1074 11.5362C17.9502 11.456 12.6609 8.71365 11.8502 8.29405C11.5199 8.12187 11.5154 7.40774 11.7845 7.12499C14.2667 4.51907 17.3725 6.1254 18.551 10.6313C18.6824 11.1225 18.4391 11.7097 18.1074 11.5362Z" fill="#E8A043"/>
<path d="M23.8707 9.62715C23.767 9.53788 20.3051 6.48926 19.7745 6.02254C19.5579 5.83178 19.61 5.33787 19.8207 5.20103C21.7401 3.9282 23.7724 5.71532 24.2482 9.09835C24.2985 9.46629 24.086 9.81792 23.8703 9.62715" fill="#E8A043"/>
<path d="M12.075 15.2042C11.892 15.1054 5.72675 11.9113 4.77972 11.421C4.39275 11.2212 4.38822 10.3915 4.7045 10.0571C7.59679 7.01982 11.2182 8.8944 12.5934 14.1488C12.7443 14.7211 12.4606 15.4031 12.0755 15.2037" fill="#F0CA94"/>
<path d="M17.9905 10.5034C17.8332 10.4232 12.5439 7.68002 11.7337 7.26043C11.4016 7.08914 11.397 6.37774 11.6694 6.09227C14.1498 3.4868 17.255 5.0963 18.4354 9.60218C18.5664 10.092 18.323 10.6756 17.9905 10.5034Z" fill="#F0CA94"/>
<path d="M23.8114 9.11683C23.7077 9.02485 20.2481 5.97894 19.7152 5.51132C19.4995 5.32055 19.5521 4.8271 19.76 4.68754C21.6822 3.41516 23.7154 5.20183 24.1884 8.58487C24.2424 8.95643 24.0271 9.30805 23.8119 9.11683" fill="#F0CA94"/>
</g>
<defs>
<clipPath id="clip0">
<rect width="29" height="29" fill="white"/>
</clipPath>
</defs>
</svg>
