<svg width="38" height="32" viewBox="0 0 38 32" fill="none" xmlns="http://www.w3.org/2000/svg">
<path d="M9.5928 2.22831C9.55785 1.93022 9.49961 1.65536 9.49572 1.38437C9.48407 0.652697 9.93065 0.126203 10.6607 0.0294209C11.8568 -0.129301 12.7655 0.362351 13.4644 1.30694C13.511 1.36888 13.5499 1.4347 13.5848 1.49276C13.6042 1.49276 13.612 1.49664 13.6159 1.49276C14.2838 1.10564 14.9013 1.29533 15.4876 1.67859C15.7828 1.87215 16.0624 2.09281 16.3381 2.31735C16.4468 2.40639 16.5284 2.41413 16.6177 2.31348C16.8623 2.02313 17.1147 1.73665 17.34 1.43082C18.1904 0.281054 19.3632 -0.00542056 20.6951 0.230727C21.5417 0.381707 21.93 1.0437 21.7397 1.88763C21.6427 2.32896 21.7281 2.73157 22.0388 3.05289C22.1708 3.18838 22.3883 3.24645 22.5785 3.31227C22.6329 3.33162 22.7339 3.26968 22.796 3.22323C23.0057 3.07225 23.2115 2.91739 23.4134 2.7548C23.4639 2.71609 23.4989 2.64641 23.5144 2.58447C23.5727 2.37929 23.5998 2.16637 23.6736 1.96893C23.9765 1.19468 24.6872 0.900459 25.4949 1.20629C26.0774 1.42695 26.5861 1.75988 27.0599 2.15862C27.0948 2.18572 27.1297 2.21282 27.1686 2.24766C27.32 2.12765 27.4598 2.00377 27.6113 1.89151C28.2947 1.39211 29.2578 1.46954 29.7782 2.06958C30.0539 2.38703 30.1199 2.78577 30.1898 3.17677C30.2014 3.23484 30.2092 3.29291 30.217 3.34711C30.2558 3.62197 30.3024 3.88134 30.5936 4.03619C30.7373 4.10975 30.8344 4.2646 30.9548 4.38461C30.9936 4.42332 31.0363 4.46591 31.0868 4.48913C31.413 4.6285 31.6538 4.86852 31.8479 5.15499C31.945 5.29436 32.0421 5.42985 32.1275 5.57309C32.279 5.8286 32.4965 5.90215 32.7877 5.85957C33.1372 5.80924 33.4945 5.76666 33.8478 5.75891C34.6323 5.7473 35.172 6.18475 35.3468 6.9474C35.4012 7.17967 35.4361 7.41582 35.4672 7.65197C35.4982 7.89586 35.6225 8.04684 35.8361 8.18233C36.1273 8.36428 36.4341 8.56172 36.6516 8.81722C37.0787 9.31275 37.0671 9.90118 36.8807 10.4974C36.8186 10.6948 36.7564 10.8922 36.6749 11.0781C36.3797 11.7323 36.403 12.433 36.337 13.1221C36.1739 14.7674 35.805 16.3585 35.2186 17.907C34.3371 20.2452 33.0479 22.3396 31.3121 24.1397C30.6635 24.8056 29.9413 25.394 29.2461 26.0134C29.1529 26.0986 29.0986 26.1722 29.1025 26.3038C29.1141 26.5283 29.0908 26.7567 29.1102 26.9813C29.1607 27.6162 28.9005 28.1388 28.5122 28.6072C27.8482 29.4086 26.99 29.9544 26.0657 30.4112C24.7609 31.0538 23.3746 31.4487 21.9417 31.7004C19.8913 32.0565 17.837 32.0759 15.775 31.8591C14.3498 31.7081 12.9557 31.4139 11.616 30.9029C10.486 30.4732 9.42582 29.9118 8.56762 29.033C7.98124 28.433 7.61233 27.74 7.66669 26.869C7.68223 26.6212 7.72882 26.3348 7.63174 26.1257C7.53466 25.9244 7.2706 25.8083 7.08032 25.6495C5.35225 24.2056 3.92708 22.5099 2.81646 20.5549C1.91942 18.9755 1.26314 17.3031 0.851516 15.5378C0.618518 14.539 0.47872 13.5247 0.393288 12.5027C0.362221 12.1272 0.210773 11.7671 0.152524 11.3916C-0.0416411 10.1993 -0.080474 9.00692 0.214656 7.82231C0.307855 7.44292 0.45542 7.08676 0.766084 6.82352C1.21266 6.44413 1.72914 6.47123 2.25727 6.57962C2.35047 6.59898 2.45143 6.61447 2.53686 6.65705C2.7388 6.76545 2.86694 6.67254 2.93684 6.5022C3.02616 6.27766 3.09606 6.04152 3.15819 5.80924C3.22809 5.54986 3.27081 5.27887 3.34459 5.0195C3.67467 3.86586 4.82801 3.40518 5.86873 4.00522C6.13668 4.16008 6.39297 4.33815 6.66092 4.48913C6.95217 4.65173 7.0143 4.6285 7.15798 4.32267C7.37156 3.86586 7.71329 3.57164 8.21812 3.47486C8.2686 3.46712 8.33462 3.4284 8.35015 3.38969C8.55208 2.77029 8.97536 2.38703 9.5928 2.22831ZM1.81457 14.4577C1.85341 14.6551 1.88447 14.7945 1.91165 14.9377C2.39318 17.2024 3.27857 19.2929 4.59113 21.2014C6.22211 23.5784 8.30744 25.4444 10.8704 26.7761C11.9577 27.3413 13.0955 27.771 14.2799 28.0768C16.4623 28.642 18.6681 28.7504 20.8971 28.4059C23.4406 28.011 25.7706 27.0742 27.8715 25.5915C29.817 24.2172 31.413 22.5177 32.6596 20.4853C33.6731 18.8322 34.3915 17.063 34.8226 15.1777C34.873 14.9532 34.9196 14.7248 34.9662 14.4964C34.3216 15.0461 33.6381 15.5068 32.9081 15.9017C31.3198 16.765 29.6228 17.3302 27.8753 17.7599C26.0269 18.2128 24.1513 18.4954 22.2523 18.658C20.3612 18.8167 18.47 18.8593 16.575 18.7858C14.61 18.7122 12.6567 18.5109 10.719 18.1509C9.00254 17.8296 7.3172 17.3921 5.6901 16.7495C4.45521 16.2578 3.27469 15.6616 2.23785 14.8177C2.11359 14.7093 1.98932 14.6009 1.81457 14.4577ZM11.2782 8.46881C11.1772 8.41848 11.0918 8.3759 11.0063 8.33718C10.8005 8.24427 10.5869 8.16685 10.3889 8.05845C9.74814 7.70617 9.53844 7.14483 9.7792 6.45574C9.81804 6.34735 9.86852 6.24282 9.90347 6.13056C9.99278 5.87118 9.97337 5.8286 9.72484 5.71246C9.51514 5.61568 9.30156 5.52277 9.09186 5.42211C8.8278 5.29049 8.67246 5.06983 8.58315 4.79497C8.56373 4.72915 8.5016 4.67108 8.45888 4.60914C8.38122 4.66334 8.28414 4.70593 8.22589 4.77948C8.1521 4.87626 8.11715 4.99627 8.06279 5.10467C7.88416 5.45308 7.58514 5.63503 7.21235 5.71246C6.8046 5.79763 6.42792 5.6931 6.07843 5.4918C5.79495 5.3292 5.52312 5.13951 5.23575 4.98079C4.89402 4.79496 4.61443 4.90723 4.48239 5.275C4.40861 5.48018 4.36201 5.69697 4.32706 5.90989C4.21445 6.58737 4.00087 7.20677 3.44944 7.66358C3.25527 7.82618 3.04558 7.92296 2.79316 7.88037C2.46308 7.82231 2.13689 7.74101 1.81069 7.6752C1.58546 7.63261 1.48449 7.67907 1.40294 7.89586C1.33693 8.07394 1.28644 8.26363 1.25538 8.45332C1.11558 9.32436 1.14665 10.1993 1.26314 11.0742C1.32528 11.5349 1.37964 12.011 1.64371 12.402C2.01262 12.9479 2.41648 13.4666 2.93296 13.8886C3.85718 14.6435 4.90567 15.1816 6.00464 15.6268C7.40263 16.1959 8.8511 16.5869 10.3267 16.8966C10.6724 16.9701 11.0219 17.0282 11.3947 17.0979C10.9209 16.8656 10.4665 16.6604 10.0316 16.4282C9.28991 16.0372 8.58315 15.5997 8.1055 14.8796C8.07832 14.8371 7.98901 14.8216 7.92687 14.8177C7.67058 14.8061 7.40651 14.8293 7.1541 14.7906C5.09595 14.477 3.86495 12.3207 4.63384 10.389C5.5037 8.19782 8.3851 7.64423 10.0122 9.35146C10.5636 9.93215 10.8549 10.6212 10.917 11.4149C10.9209 11.4768 10.9675 11.5774 11.0102 11.5891C11.2121 11.6278 11.418 11.6626 11.6199 11.651C11.7131 11.6471 11.8568 11.5503 11.8801 11.469C11.9733 11.1439 12.0237 10.8109 12.0859 10.5012C11.8218 10.3154 11.5345 10.1567 11.2976 9.94377C10.9209 9.61084 10.8626 9.18887 11.0918 8.75528C11.15 8.67012 11.2083 8.58108 11.2782 8.46881ZM13.2819 6.66479C13.612 6.54478 13.8994 6.44413 14.1829 6.34348C15.1032 6.01442 15.8954 6.24282 16.4235 7.00547C16.5672 7.21839 16.6876 7.44679 16.8002 7.67907C16.9245 7.93844 17.0215 8.20943 17.1109 8.42235C17.5885 8.42235 18.0312 8.40687 18.4739 8.42622C18.8001 8.44171 19.1302 8.49978 19.4525 8.56172C19.6932 8.60817 19.8292 8.55785 19.9573 8.32944C20.2058 7.88425 20.5515 7.52809 21.0835 7.43518C21.2699 7.40421 21.464 7.41195 21.6349 7.40421C21.7553 5.57696 22.695 4.49301 24.5008 4.16008C24.493 4.09426 24.4891 4.04007 24.4813 3.982C24.4736 3.93167 24.458 3.88134 24.4425 3.83102C24.3804 3.62584 24.3338 3.591 24.1396 3.69939C23.9338 3.81553 23.7435 3.96264 23.5571 4.10975C23.3474 4.27621 23.1377 4.44268 22.862 4.46591C22.1125 4.52398 21.4757 4.28396 21.0407 3.65681C20.6214 3.07225 20.4388 2.42187 20.5942 1.70181C20.6563 1.4076 20.633 1.36114 20.3301 1.33404C19.4913 1.25275 18.7535 1.41534 18.237 2.16637C18.0079 2.4993 17.7516 2.82061 17.4681 3.10709C16.8468 3.73036 16.2721 3.73811 15.5886 3.19226C15.3207 2.97934 15.0488 2.77029 14.7615 2.58834C14.412 2.3638 14.2217 2.37154 13.9499 2.79351C13.6897 3.2 13.6159 3.66842 13.5654 4.13685C13.4994 4.79497 13.4373 5.45695 13.3712 6.11507C13.3518 6.28541 13.3169 6.45574 13.2819 6.66479ZM22.3222 17.3031C22.3261 17.3263 22.33 17.3534 22.3339 17.3766C22.761 17.3224 23.1882 17.2876 23.6076 17.2063C24.1318 17.1018 24.4231 16.7379 24.5512 16.2385C24.5901 16.0875 24.6173 15.9365 24.6406 15.7855C24.7299 15.1584 25.1143 14.69 25.5065 14.2409C26.0502 13.6137 26.3492 12.9092 26.2444 12.0807C26.1589 11.3916 25.8754 11.1632 25.3201 11.1439C25.0444 11.1322 24.8192 11.0587 24.7066 10.7954C24.594 10.5322 24.6755 10.2999 24.8736 10.1102C24.9901 10.0018 24.959 9.92054 24.8464 9.84698C24.6794 9.73859 24.5124 9.62245 24.3338 9.54115C23.4795 9.14241 22.6096 8.78238 21.6776 8.59656C21.2699 8.51526 21.1534 8.56172 20.9398 8.91013C20.8544 9.04563 20.7845 9.19274 20.7262 9.33985C20.6175 9.60309 20.4194 9.74246 20.1437 9.73859C19.8097 9.73472 19.4719 9.71149 19.1379 9.68439C18.6797 9.64568 18.2254 9.58374 17.771 9.55664C17.4604 9.53728 17.1963 9.66891 17.041 9.94764C16.9361 10.1412 16.839 10.3541 16.7885 10.567C16.6759 11.0355 16.808 11.4884 16.9167 11.9375C16.9788 12.2007 17.0604 12.4562 17.138 12.735C18.6215 11.2252 20.7184 11.3529 21.996 12.4988C23.3474 13.7028 23.596 15.77 22.3222 17.3031ZM15.6391 11.6084C15.3401 11.74 15.0449 11.8871 14.7382 12.0033C14.2062 12.2007 13.6974 12.1775 13.2509 11.7788C13.1926 11.7246 13.1227 11.6858 13.0451 11.6278C13.0334 11.682 13.0256 11.7129 13.0179 11.7439C12.8625 12.3362 12.3655 12.735 11.7558 12.8085C11.1811 12.8782 10.6607 12.7233 10.1365 12.522C9.79085 12.3865 9.42971 12.2743 9.06856 12.1969C8.76566 12.131 8.59868 12.2704 8.6181 12.5608C8.66858 13.3737 8.83556 14.1518 9.49961 14.7132C9.72872 14.9067 9.98502 15.0732 10.2452 15.2319C11.0529 15.7275 11.9383 16.0449 12.8392 16.3391C13.5421 16.5675 14.2178 16.8695 14.777 17.3689C14.9284 17.5044 15.0838 17.5586 15.2779 17.5663C15.6702 17.5818 16.0663 17.6166 16.4585 17.6283C16.7652 17.6399 17.0681 17.6321 17.3749 17.6321C17.3866 17.6166 17.3982 17.6012 17.4099 17.5895C17.3672 17.5624 17.3167 17.5431 17.2817 17.5082C16.4973 16.7108 16.1517 15.7584 16.2759 14.6396C16.3031 14.4112 16.3031 14.1712 16.2526 13.9505C16.0624 13.1647 15.8488 12.3904 15.6391 11.6084ZM33.7197 13.9931C33.9876 13.7957 34.2439 13.5634 34.4226 13.2421C34.9352 12.3246 35.3856 11.3839 35.6924 10.3696C35.9138 9.64181 35.8982 9.52567 35.2342 9.16951C34.7682 8.91788 34.4653 8.54623 34.3527 8.03135C34.2983 7.77972 34.2711 7.52422 34.2245 7.26871C34.1624 6.95514 34.0808 6.88158 33.7663 6.90481C33.4556 6.92417 33.1489 6.97062 32.8421 7.00934C32.2518 7.08676 31.7547 6.9203 31.3703 6.46349C31.1839 6.24282 31.0286 5.99506 30.8577 5.76278C30.6635 5.50341 30.516 5.49567 30.349 5.77827C30.2286 5.98345 30.1548 6.22347 30.0849 6.45574C29.8481 7.25323 29.3471 7.77198 28.5161 7.93457C28.3258 7.97329 28.1316 7.96167 27.9375 7.98103C27.887 7.9849 27.8054 8.00813 27.7938 8.0391C27.72 8.22492 27.6618 8.41848 27.5919 8.62753C27.72 8.61592 27.821 8.60043 27.9219 8.59269C28.652 8.53075 29.3549 8.6314 29.9956 9.00692C30.1315 9.08821 30.2364 9.09596 30.3839 9.0495C31.0558 8.84819 31.6732 8.92562 32.1974 9.43663C32.5392 9.76956 32.745 10.1838 32.9236 10.6135C33.2149 11.3142 33.4906 12.0149 33.3158 12.8008C33.3081 12.8279 33.3197 12.8627 33.3314 12.8937C33.4517 13.2615 33.5838 13.6176 33.7197 13.9931ZM8.84721 26.989C8.81226 27.4071 8.92099 27.7091 9.23166 28.0768C9.8724 28.8317 10.7267 29.2808 11.6121 29.6602C12.6645 30.1093 13.7751 30.388 14.9051 30.5738C16.1711 30.779 17.4487 30.8603 18.7302 30.8409C20.4583 30.8138 22.1553 30.597 23.8095 30.0822C24.9163 29.7376 25.9648 29.2769 26.8773 28.5569C27.2191 28.2898 27.5025 27.9491 27.7899 27.62C27.9452 27.4419 27.9763 27.2097 27.9336 26.9929C21.5689 30.7054 15.2197 30.6977 8.84721 26.989ZM19.7049 17.3418C20.9592 17.3379 21.9999 16.3043 21.996 15.0655C21.9922 13.8073 20.9514 12.7698 19.6971 12.7775C18.4195 12.7853 17.406 13.8112 17.4099 15.0926C17.4138 16.3198 18.4584 17.3457 19.7049 17.3418ZM26.4657 10.2767C26.555 10.3503 26.6521 10.4199 26.7337 10.5012C26.823 10.5864 26.9123 10.6754 26.9783 10.7761C27.5763 11.6975 27.5375 12.6769 27.1996 13.6679C26.9861 14.2951 26.5317 14.779 26.1473 15.3055C26.0191 15.4797 25.891 15.6694 25.825 15.8707C25.7046 16.2617 25.6269 16.6682 25.5337 17.0669C25.5609 17.063 25.6191 17.063 25.6735 17.0553C27.2346 16.7611 28.784 16.4088 30.2675 15.8242C31.0208 15.5261 31.7509 15.1584 32.4848 14.8177C32.5469 14.7906 32.6207 14.6938 32.6168 14.6396C32.5974 14.4112 32.5469 14.1906 32.5042 13.9389C32.4188 13.9854 32.3683 14.0164 32.3178 14.0396C31.8246 14.2796 31.3392 14.5428 30.8344 14.748C30.116 15.0422 29.4092 14.899 28.9937 14.1712C28.4695 13.246 27.9375 12.3246 27.4365 11.3878C27.1259 10.7993 27.3472 10.2341 27.9491 9.93989C28.0695 9.88183 28.1899 9.82763 28.353 9.75407C27.6967 9.72697 26.8657 9.96699 26.4657 10.2767ZM22.8115 7.29581C22.8115 7.31517 22.8193 7.37324 22.8193 7.43131C22.8193 7.62874 22.9086 7.72939 23.1067 7.79134C23.4562 7.89973 23.8057 8.02361 24.1357 8.18233C24.6134 8.40687 25.0755 8.6585 25.5337 8.91788C25.6347 8.97595 25.6929 8.98756 25.7861 8.92562C26.4696 8.46881 26.7997 7.83779 26.6909 7.01321C26.5589 5.99119 25.6619 5.25952 24.6444 5.3292C23.627 5.40276 22.8232 6.24282 22.8115 7.29581ZM29.6617 4.78335C29.285 4.47365 29.1491 4.07491 29.0869 3.63745C29.052 3.4013 28.9937 3.1729 28.9432 2.94062C28.9161 2.809 28.819 2.75867 28.6947 2.73544C28.4967 2.7006 28.3452 2.78964 28.2015 2.90578C28.0151 3.06063 27.8365 3.23484 27.6346 3.37421C27.3161 3.59487 26.8773 3.65681 26.5356 3.2813C26.2871 3.00643 25.9725 2.78964 25.6658 2.57285C25.491 2.44897 25.2852 2.35219 25.0833 2.27476C24.8464 2.18572 24.7571 2.26315 24.7532 2.5264C25.1454 2.7006 25.3862 3.00643 25.5027 3.40905C25.5764 3.65294 25.623 3.90844 25.6619 4.16395C25.6774 4.27621 25.7201 4.32267 25.825 4.36138C26.6832 4.67883 27.2928 5.25565 27.6462 6.09571C27.7433 6.32412 27.7977 6.57188 27.8792 6.82739C27.9685 6.82351 28.0617 6.81964 28.1588 6.8119C28.5938 6.78093 28.8423 6.57962 28.9549 6.15766C29.083 5.65439 29.2617 5.17435 29.6617 4.78335ZM11.0801 1.15209C11.0335 1.15209 10.9908 1.14822 10.9442 1.15209C10.684 1.16758 10.6296 1.21403 10.6646 1.47341C10.6918 1.66697 10.7345 1.87215 10.816 2.04636C10.9791 2.39477 11.1772 2.73157 11.3519 3.07225C11.515 3.38582 11.4568 3.69939 11.2199 3.8736C10.9791 4.04781 10.6724 4.00522 10.4083 3.78069C10.253 3.64907 10.0782 3.53293 9.90735 3.42453C9.78697 3.34711 9.67047 3.40905 9.60445 3.5097C9.53844 3.61035 9.44136 3.75359 9.47242 3.84263C9.64329 4.38461 9.68989 4.41945 10.2141 4.66334C10.2491 4.67883 10.284 4.69431 10.319 4.7098C10.9481 5.03886 11.2238 5.57309 11.084 6.2196C11.0374 6.42477 10.9636 6.62608 10.8821 6.82352C10.8355 6.93965 10.8626 7.00934 10.9675 7.05579C11.1694 7.14483 11.3675 7.23387 11.5733 7.31517C11.6043 7.32678 11.6471 7.32291 11.6781 7.30743C11.9228 7.19903 12.1325 7.06741 12.0975 6.74996C12.0936 6.69963 12.1092 6.64931 12.1169 6.59511C12.2024 5.91376 12.3033 5.23242 12.3732 4.5472C12.4315 3.95103 12.4431 3.34324 12.68 2.78577C12.7849 2.54188 12.7383 2.35219 12.6179 2.13927C12.2762 1.53535 11.7713 1.19855 11.0801 1.15209ZM7.60068 13.6718C7.58514 13.5944 7.56961 13.5324 7.56184 13.4705C7.52689 13.1569 7.46088 12.8434 7.46864 12.5298C7.49194 11.5116 8.21812 10.9116 9.23166 11.0393C9.37922 11.0587 9.52679 11.0858 9.68212 11.109C9.50737 10.1451 8.48607 9.42114 7.46476 9.51405C6.36191 9.61471 5.53477 10.5593 5.56583 11.682C5.5969 12.7388 6.4784 13.6137 7.60068 13.6718ZM14.1207 10.9735C14.21 10.9542 14.2644 10.9542 14.311 10.9309C14.7382 10.7335 15.1653 10.5322 15.5886 10.327C15.6313 10.3077 15.6507 10.2419 15.674 10.1915C15.8022 9.90505 15.9342 9.61858 16.0546 9.3321C16.0818 9.27016 16.109 9.19661 16.0934 9.13854C15.9498 8.60043 15.7478 8.08555 15.4294 7.62487C15.2624 7.38098 15.0294 7.28033 14.7382 7.38485C14.0159 7.64036 13.2897 7.89586 12.5713 8.15911C12.5363 8.17072 12.5014 8.28299 12.5169 8.33331C12.5985 8.56946 12.7072 8.79787 12.7849 9.03789C13.0218 9.73859 13.3596 10.3735 13.9421 10.8535C14.0081 10.9 14.0741 10.9426 14.1207 10.9735ZM28.5433 10.9271C28.5549 10.9851 28.5549 11.0084 28.5627 11.0239C29.0481 11.8833 29.5296 12.7427 30.015 13.6021C30.0927 13.7415 30.1976 13.7492 30.3257 13.6873C30.8422 13.4357 31.3625 13.1918 31.8712 12.9285C32.1237 12.7969 32.2324 12.553 32.2013 12.2781C32.1198 11.5929 31.8596 10.9697 31.479 10.4006C31.2771 10.0986 31.0752 10.0483 30.7218 10.1644C30.3529 10.2844 29.9879 10.4122 29.6228 10.5399C29.2617 10.6638 28.9083 10.7954 28.5433 10.9271Z" fill="#90E0AB"/>
</svg>
