<svg width="28" height="24" viewBox="0 0 28 24" fill="none" xmlns="http://www.w3.org/2000/svg">
<path fill-rule="evenodd" clip-rule="evenodd" d="M0 1.95C0 1.43283 0.205446 0.936838 0.571142 0.571142C0.936838 0.205446 1.43283 0 1.95 0H25.35C25.8672 0 26.3632 0.205446 26.7289 0.571142C27.0946 0.936838 27.3 1.43283 27.3 1.95C27.3 2.46717 27.0946 2.96316 26.7289 3.32886C26.3632 3.69455 25.8672 3.9 25.35 3.9H1.95C1.43283 3.9 0.936838 3.69455 0.571142 3.32886C0.205446 2.96316 0 2.46717 0 1.95ZM0 11.7C0 11.1828 0.205446 10.6868 0.571142 10.3211C0.936838 9.95545 1.43283 9.75 1.95 9.75H25.35C25.8672 9.75 26.3632 9.95545 26.7289 10.3211C27.0946 10.6868 27.3 11.1828 27.3 11.7C27.3 12.2172 27.0946 12.7132 26.7289 13.0789C26.3632 13.4446 25.8672 13.65 25.35 13.65H1.95C1.43283 13.65 0.936838 13.4446 0.571142 13.0789C0.205446 12.7132 0 12.2172 0 11.7ZM11.7 21.45C11.7 20.9328 11.9054 20.4368 12.2711 20.0711C12.6368 19.7054 13.1328 19.5 13.65 19.5H25.35C25.8672 19.5 26.3632 19.7054 26.7289 20.0711C27.0946 20.4368 27.3 20.9328 27.3 21.45C27.3 21.9672 27.0946 22.4632 26.7289 22.8289C26.3632 23.1946 25.8672 23.4 25.35 23.4H13.65C13.1328 23.4 12.6368 23.1946 12.2711 22.8289C11.9054 22.4632 11.7 21.9672 11.7 21.45Z" fill="white"/>
</svg>
