<svg width="29" height="26" viewBox="0 0 29 26" fill="none" xmlns="http://www.w3.org/2000/svg">
<path d="M0 2.65332C0 2.18919 0.184375 1.74407 0.512563 1.41588C0.840752 1.0877 1.28587 0.90332 1.75 0.90332H26.25C26.7141 0.90332 27.1593 1.0877 27.4874 1.41588C27.8156 1.74407 28 2.18919 28 2.65332C28 3.11745 27.8156 3.56257 27.4874 3.89076C27.1593 4.21895 26.7141 4.40332 26.25 4.40332H1.75C1.28587 4.40332 0.840752 4.21895 0.512563 3.89076C0.184375 3.56257 0 3.11745 0 2.65332Z" fill="#0FC1A1"/>
<path d="M0 23.6533C0 23.1892 0.184375 22.7441 0.512563 22.4159C0.840752 22.0877 1.28587 21.9033 1.75 21.9033H26.25C26.7141 21.9033 27.1593 22.0877 27.4874 22.4159C27.8156 22.7441 28 23.1892 28 23.6533C28 24.1174 27.8156 24.5626 27.4874 24.8908C27.1593 25.2189 26.7141 25.4033 26.25 25.4033H1.75C1.28587 25.4033 0.840752 25.2189 0.512563 24.8908C0.184375 24.5626 0 24.1174 0 23.6533Z" fill="#0FC1A1"/>
<path d="M12.75 11C12.2859 11 11.8408 11.1844 11.5126 11.5126C11.1844 11.8408 11 12.2859 11 12.75C11 13.2141 11.1844 13.6592 11.5126 13.9874C11.8408 14.3156 12.2859 14.5 12.75 14.5H26.75C27.2141 14.5 27.6593 14.3156 27.9874 13.9874C28.3156 13.6592 28.5 13.2141 28.5 12.75C28.5 12.2859 28.3156 11.8408 27.9874 11.5126C27.6593 11.1844 27.2141 11 26.75 11H12.75Z" fill="#0FC1A1"/>
</svg>
