<svg width="29" height="27" viewBox="0 0 29 27" fill="none" xmlns="http://www.w3.org/2000/svg">
<path d="M28.8672 4.19578C28.8672 4.19578 28.978 7.94298 28.3292 10.1674C28.3292 10.1674 17.7507 24.1397 14.9198 26.4615C14.9198 26.4615 11.0228 21.5359 11.0703 21.2991C11.1159 21.0614 14.2244 13.1991 14.2244 13.1991C14.2244 13.1991 26.7331 3.5334 28.8672 4.1967" fill="#FBEB9C"/>
<path d="M14.1431 25.6414C14.4695 26.0448 14.7236 26.3541 14.8376 26.4962C14.9393 26.4598 15.0379 26.4238 15.1382 26.3836C18.268 23.6621 28.3138 10.876 28.3138 10.876C28.4608 10.3918 28.5693 9.83049 28.6488 9.25488C27.169 11.0463 17.7657 22.3931 14.144 25.6414" fill="#AB7851"/>
<path d="M28.8371 6.44006C28.8371 6.44006 13.2425 17.0936 13.0196 19.1449C12.9685 19.6065 13.5875 21.7903 13.5875 21.7903C13.5875 21.7903 26.7631 10.0414 28.719 7.82253L28.8371 6.44006Z" fill="#D8204B"/>
<path d="M0.644834 7.69796C0.826597 8.68991 1.73089 9.35368 2.51808 9.85128C3.60577 10.5389 4.74797 11.1322 5.93269 11.6252C8.50224 12.6993 11.2549 13.2107 14.0126 13.4328C14.1857 13.448 14.1848 13.1706 14.0126 13.1586C11.4068 12.9467 8.82282 12.4662 6.3758 11.5084C5.18575 11.0422 4.06804 10.4518 2.9657 9.80096C2.13918 9.31491 1.09834 8.65991 0.90527 7.62595C0.872264 7.44962 0.612731 7.52486 0.644834 7.69796Z" fill="#F391AA"/>
<path d="M0.645047 7.66198C0.144972 9.54111 -0.0309133 11.4927 0.00435415 13.4369C0.0219879 14.4081 0.0988529 15.3775 0.213698 16.3413C0.270669 16.8121 0.340299 17.2815 0.417617 17.7487C0.489056 18.1909 0.549643 18.6631 0.729598 19.0748C0.801037 19.2368 1.03435 19.0947 0.964262 18.9326C0.781595 18.5191 0.734119 18.021 0.66042 17.5779C0.583145 17.1008 0.516511 16.622 0.460571 16.1419C0.352738 15.2106 0.289964 14.2744 0.272477 13.3368C0.239471 11.4512 0.420782 9.55773 0.905483 7.73583C0.95115 7.56181 0.690713 7.4898 0.645047 7.66198Z" fill="#F391AA"/>
<path d="M14.5681 23.2366C14.5803 23.6769 14.6102 24.1085 14.5862 24.5489C14.5623 24.9542 14.5351 25.3571 14.5532 25.7633C14.5641 26.0098 14.5844 26.3297 14.7635 26.5171C14.8489 26.488 14.9321 26.4594 15.0167 26.4289C15.0161 26.4122 15.012 26.3958 15.0048 26.3807C14.9975 26.3657 14.9872 26.3524 14.9746 26.3417C14.7847 26.1658 14.8195 25.7523 14.8168 25.5164C14.8141 25.136 14.8453 24.7566 14.8647 24.3767C14.8869 23.9257 14.8444 23.4757 14.8326 23.0275C14.8168 22.3923 14.8136 21.7544 14.7996 21.1206C14.744 18.5297 14.2987 15.9656 14.2923 13.3682C14.2923 13.1896 14.0215 13.1896 14.0215 13.3682C14.0269 16.0358 14.4831 18.6696 14.5347 21.333C14.5478 21.9677 14.5505 22.6024 14.5681 23.2366Z" fill="#F391AA"/>
<path d="M0.680918 19.1146C1.07293 20.2325 1.97994 21.026 2.89825 21.7013C3.40103 22.0724 3.92688 22.4089 4.44504 22.7588C4.93472 23.0893 5.38641 23.4558 5.85258 23.8182C6.9938 24.7067 8.32492 25.28 9.70396 25.6691C11.1074 26.0675 12.5326 26.1926 13.9645 26.4178C14.1341 26.4446 14.3077 26.4654 14.4827 26.4709C14.6559 26.4737 14.655 26.1977 14.4827 26.1921C14.1522 26.1866 13.8239 26.1192 13.4975 26.0837C13.1408 26.0432 12.7848 25.9972 12.4295 25.9456C11.7086 25.8455 10.9931 25.709 10.2854 25.5367C8.88739 25.1965 7.52597 24.6712 6.33683 23.8389C5.85619 23.5024 5.41852 23.1018 4.93517 22.7625C4.43057 22.408 3.91151 22.078 3.4042 21.7239C2.41988 21.0422 1.35823 20.2261 0.939999 19.0402C0.88348 18.8741 0.622139 18.9461 0.680918 19.1141" fill="#F391AA"/>
<path d="M0.759097 7.70077C0.759097 7.70077 19.5051 2.9173 28.8646 4.19406C28.8646 4.19406 29.1688 4.31684 28.8646 4.59472C28.8646 4.59472 15.7744 11.8842 14.0183 13.7481C14.0183 13.7481 10.0964 14.9237 9.83685 14.9237C9.57642 14.9237 5.0251 13.5911 4.6358 13.2883C4.24425 12.9869 1.73031 10.9573 1.51463 10.5414C1.29715 10.1269 0.756836 7.70077 0.756836 7.70077" fill="#BE5674"/>
<path d="M14.1384 26.4168L14.61 25.7932V22.0488L14.5173 18.5486L14.1402 14.6666L14.1321 13.3534L13.1717 13.1216L11.1054 12.7967H10.2735L7.85582 12.3069C7.85582 12.3069 6.89908 11.8453 6.81815 11.8453C6.73902 11.8453 5.06472 11.1673 5.06472 11.1673L3.68296 10.4781L2.19494 9.42892L1.13059 8.50758L0.75802 7.9906L0.486732 8.58744L0.248903 9.55124V11.1382L0.119588 13.2343C0.119588 13.2343 0.0680437 14.2872 0.119588 14.3684C0.173846 14.4492 0.427048 16.3214 0.427048 16.3214L0.486732 17.6235L0.817704 19.4519C0.817704 19.4519 5.68733 26.3591 13.9616 26.4173C14.0213 26.4173 14.0792 26.4187 14.1371 26.4187" fill="#E1809C"/>
<path d="M14.6132 26.5693C14.7516 26.5263 14.8886 26.4802 15.0242 26.428C14.9261 26.428 14.8257 26.4262 14.7177 26.4243C14.5359 26.422 14.3424 26.422 14.1394 26.4202L14.02 26.5771C14.02 26.5771 14.2583 26.5753 14.6132 26.5693Z" fill="#E1809C"/>
<path d="M0.904277 15.6646L0.921459 16.0449C1.4672 15.2657 2.07398 14.5549 2.81234 13.9451C3.61987 13.2772 4.53411 12.7575 5.50306 12.3725C5.69658 12.2968 5.89372 12.2243 6.0904 12.1588C6.05177 12.1405 6.01149 12.1261 5.97013 12.1158C5.90593 12.1158 4.57933 11.5781 4.57933 11.5781L3.48378 11.033L2.30412 10.2021L1.46177 9.47047L1.16562 9.06104L0.950848 9.53601L0.762755 10.2976V11.5573L0.660118 13.2186C0.660118 13.2186 0.616259 14.0522 0.660118 14.1168C0.703072 14.181 0.904277 15.6646 0.904277 15.6646Z" fill="#EEA2BB"/>
<path d="M14.473 21.921L14.3803 18.4189L14.0787 15.3082C13.5 15.7991 12.8963 16.2586 12.2701 16.6847C9.93797 18.2624 7.12516 19.2673 4.32592 18.5223C2.86458 18.1318 1.55064 17.4172 0.308594 16.5693L0.351548 17.4971L0.682972 19.3245C0.682972 19.3245 5.55169 26.2327 13.8269 26.2899C13.8866 26.2909 13.9472 26.2909 14.0046 26.2909L14.4762 25.6663V21.9219" fill="#D27996"/>
<path d="M12.0191 5.99059C11.4358 5.69194 10.9199 5.8101 10.4348 6.22323C10.2779 6.35709 10.1603 6.49372 10.0256 6.57265C9.86418 6.66728 9.69282 6.75913 9.56802 6.90315C9.17239 7.37305 9.38355 8.02989 9.69643 8.48502C10.0871 9.05139 10.7477 9.23511 11.3377 8.85984C11.8378 8.54318 11.5095 7.61677 10.9195 7.85034C10.1992 8.13698 9.49839 8.85891 9.78822 9.71793C9.92386 10.1158 10.2404 10.3822 10.6532 10.4177C11.0696 10.4514 11.4494 10.1828 11.7184 9.88826C12.1321 9.43959 11.6018 8.68535 11.0633 9.02093C10.6523 9.27942 10.319 9.70501 10.343 10.2215C10.367 10.8004 10.877 11.2343 11.4128 11.3118C12.4256 11.4558 13.2707 10.6711 13.9376 9.99304C13.6532 9.77009 13.3697 9.54714 13.0871 9.3242C12.9424 9.62469 12.8257 9.99304 12.9614 10.3217C13.0925 10.6457 13.3502 10.8844 13.697 10.9425C14.4173 11.0616 15.044 10.6323 15.3026 9.95888C15.4943 9.46452 14.8875 9.14602 14.5091 9.33389C14.1356 9.52222 13.787 9.89611 13.9245 10.3568C14.0352 10.7251 14.4006 10.9301 14.7483 11.0002C15.1249 11.0741 15.5133 11.0445 15.8538 10.8608C16.2824 10.6296 16.3986 10.1518 16.3281 9.70039C16.2905 9.46083 16.0269 9.29373 15.8077 9.29373C15.4911 9.29373 15.2922 9.54761 15.2646 9.84625C15.1588 10.9928 16.6206 11.0685 17.3703 10.8802C17.8306 10.7648 18.2574 10.5206 18.5336 10.1237C18.866 9.64315 18.663 9.06524 18.3392 8.65535C18.2578 8.96323 18.1783 9.27065 18.0996 9.57853C18.828 9.33573 19.6233 9.22449 20.2333 8.71397C20.6058 8.40101 20.7252 7.97681 20.6574 7.50091C20.5647 6.85653 19.7802 6.68713 19.2788 6.87638C19.418 7.21288 19.556 7.54984 19.6952 7.88634C20.4209 7.40582 20.7356 6.58604 20.3748 5.7621C20.0135 4.93539 19.0401 4.86938 18.3297 5.1888C18.5956 5.39929 18.861 5.60747 19.1242 5.8138C19.2001 5.29681 19.0025 4.8283 18.4735 4.68982C18.0259 4.57166 17.5231 4.70967 17.0972 4.85738C16.6051 5.02953 16.134 5.25891 15.6933 5.541C15.3365 5.77041 14.9165 6.06906 14.7257 6.46879C15.0074 6.43141 15.2918 6.39402 15.5752 6.35755C15.1661 5.82164 14.4259 5.61577 13.7965 5.541C13.1183 5.46391 12.3745 5.67763 11.9956 6.29339C12.2434 6.22784 12.4902 6.1623 12.7367 6.09583C12.176 5.82995 11.5367 5.70532 10.9882 6.07921C10.4963 6.41433 10.2535 7.00701 10.1341 7.57569C10.0505 7.96343 10.3855 8.39363 10.7983 8.25469C11.1175 8.14991 11.3314 7.92973 11.4625 7.61769C11.1275 7.52491 10.792 7.43121 10.4542 7.33889C10.4239 7.70032 10.4551 8.05805 10.6871 8.34747C10.8856 8.59765 11.2102 8.63781 11.5 8.57503C12.0517 8.45133 12.5074 7.87895 12.8276 7.44367C13.1753 6.96962 12.5246 6.4471 12.0878 6.68713C11.0538 7.25673 10.1861 8.3627 9.67789 9.42944C9.41384 9.97181 10.0789 10.57 10.5266 10.0974C10.8716 9.73224 11.1302 9.29835 11.3965 8.87045C11.0597 8.77952 10.7224 8.68489 10.3864 8.59211C10.386 8.95261 10.3294 9.30942 10.3534 9.67131C10.3765 10.0281 10.6808 10.3028 11.038 10.2044C11.7618 10.005 12.3682 9.55914 13.0441 9.24342L12.2294 8.76567C12.2203 8.97939 12.0779 9.17787 11.9698 9.35928C11.8084 9.63485 11.6524 9.91088 11.5665 10.2211C11.5354 10.3386 11.5428 10.4633 11.5877 10.5761C11.6326 10.6889 11.7125 10.7836 11.8152 10.8456C12.0435 10.9822 12.2768 10.9148 12.4704 10.7593C13.1522 10.2123 13.7875 9.58407 14.26 8.83583C14.4792 8.49056 14.1939 7.98558 13.7947 8.00497C13.1196 8.03682 12.4568 8.5081 12.0128 9.00154C11.6687 9.38466 11.935 9.88964 12.3953 9.94503C13.3294 10.06 14.2826 9.94227 15.2063 9.78394C16.1748 9.61823 17.1519 9.38236 17.9282 8.73798C17.6271 8.55934 17.3255 8.37932 17.0239 8.20068C16.8991 8.52934 16.8182 8.89492 16.6771 9.19449C16.6676 9.21526 16.5573 9.39943 16.6134 9.3265C16.5668 9.37266 16.5704 9.37451 16.6238 9.33204C16.5483 9.39113 16.6134 9.36112 16.5153 9.3902C16.3032 9.4539 16.0776 9.45021 15.866 9.5213C15.2063 9.74147 15.488 10.8082 16.154 10.5871C16.8092 10.3688 17.4756 10.2275 18.03 9.78348C18.4125 9.47652 18.0842 8.82983 17.6461 8.84045C15.9953 8.88245 14.3567 9.21526 12.6991 9.11833C12.88 9.30389 13.06 9.48575 13.2431 9.67085C13.2919 8.97893 13.7092 8.30131 14.1713 7.80141C14.7098 7.21888 15.4401 6.98485 16.1703 6.74206C16.5501 6.61558 16.9475 6.49741 17.3436 6.44525C17.6244 6.40786 17.9201 6.36309 18.2474 6.43787C18.3673 6.46695 18.4355 6.49557 18.4943 6.55511C18.4608 6.52234 18.4527 6.50341 18.4599 6.45587C18.4464 6.53896 18.4297 6.56896 18.3998 6.62897C18.2596 6.90592 18.0345 7.1261 17.8455 7.36428C17.6881 7.55999 17.628 7.8051 17.7605 8.03497C17.9015 8.28192 18.256 8.40194 18.5006 8.23253C19.2259 7.73124 19.8616 7.13302 20.3657 6.39771C20.0551 6.21215 19.7422 6.02613 19.4325 5.84057C19.3086 6.07183 19.23 6.31924 19.1648 6.57404C19.1133 6.77067 19.0835 7.01809 18.956 7.18564C18.6978 7.51614 18.1529 7.46029 17.7835 7.48152C17.9576 7.71463 18.1317 7.94865 18.304 8.18176C18.2515 8.31885 18.2899 8.2233 18.3668 8.15822C18.304 8.21268 18.4807 8.07328 18.5101 8.05251C18.7 7.90942 18.8619 7.76863 18.989 7.56369C19.2716 7.1141 19.1052 6.51772 18.6851 6.24031C18.3487 6.0192 17.8717 6.04459 17.4919 6.09583C17.0836 6.15122 16.6921 6.24031 16.3159 6.40786C15.847 6.61743 16.0536 7.27889 16.4452 7.41829C16.9104 7.58169 17.3865 7.36243 17.6022 6.92023C17.7297 6.66174 17.6818 6.30862 17.4087 6.16276C16.272 5.56731 14.8921 6.22369 13.8489 6.73606C13.3828 6.96639 12.9189 7.25581 12.45 7.44414C11.8509 7.68509 11.1618 7.87388 10.7133 8.37655C10.9692 8.63689 11.2233 8.89676 11.4792 9.15802C11.5575 9.06063 11.6574 8.996 11.7519 8.9143C11.4508 8.83168 11.1487 8.75136 10.849 8.67058C10.8919 8.80721 10.9326 8.94431 10.9701 9.08278C10.995 9.17372 11.0167 9.26557 11.0343 9.35789C11.0538 9.4636 11.0456 9.34035 11.0325 9.4636L11.1058 9.18618C11.0791 9.2508 11.0343 9.28081 10.9507 9.35051C10.8179 9.45626 10.7168 9.59796 10.6591 9.75948C10.593 9.95057 10.6084 10.2137 10.7332 10.3794C11.0262 10.7717 11.448 10.7561 11.8839 10.696C12.6069 10.5977 13.2955 10.2935 13.9869 10.0734C14.5236 9.90303 15.0648 9.76225 15.5974 9.57438C15.9424 9.45252 16.2851 9.30296 16.6405 9.21757C17.0194 9.12848 17.4168 9.13263 17.798 9.04816C18.4396 8.90369 18.9948 8.4144 19.3801 7.89326C19.7789 7.35366 19.8847 6.66266 19.7716 6.00766C19.7219 5.71271 19.3701 5.54884 19.1065 5.6227C18.8031 5.70948 18.6774 6.00674 18.7281 6.30262C18.8095 6.76421 18.5938 7.19349 18.2818 7.51845C17.8599 7.95327 17.3468 8.01835 16.7798 8.08529C16.0713 8.17345 15.4143 8.48225 14.7388 8.7052C14.3296 8.84183 13.9091 8.93554 13.5003 9.07494C13.1653 9.18895 12.8325 9.30619 12.4957 9.41005C12.323 9.4636 12.1498 9.51114 11.9743 9.55545C11.8943 9.57484 11.8138 9.59284 11.7329 9.609C11.6872 9.61638 11.642 9.62469 11.5973 9.63069C11.7374 9.609 11.6036 9.62885 11.5769 9.62977C11.5194 9.63316 11.4617 9.63285 11.4042 9.62885C11.4978 9.64362 11.5163 9.64546 11.4612 9.63254C11.3879 9.61638 11.5841 9.71562 11.5968 9.72439C11.7465 9.84164 11.727 10.0941 11.6262 10.2114C11.7085 10.1186 11.817 10.053 11.8997 9.95934C12.2931 9.51345 12.053 8.87645 11.8916 8.37655C11.7591 7.96389 11.3025 7.8568 10.9873 8.13237C10.9059 8.2053 10.7938 8.281 10.7142 8.37655C10.527 8.60734 10.4922 8.93092 10.7142 9.15802C10.9159 9.36297 11.2812 9.37912 11.4802 9.15802C11.793 8.8086 12.36 8.66504 12.8049 8.48364C13.2684 8.29808 13.7016 8.04697 14.1447 7.81849C14.6244 7.572 15.1118 7.34535 15.6272 7.18426C15.8814 7.10487 16.1133 7.05317 16.3498 7.03886C16.4112 7.03655 16.4728 7.03655 16.5343 7.03886C16.5311 7.03794 16.7214 7.06148 16.6247 7.04624C16.7409 7.06563 16.8245 7.09979 16.8639 7.12102C16.7979 6.86807 16.7327 6.61697 16.669 6.3654L16.6346 6.43279C16.6943 6.36263 16.8901 6.41017 16.7327 6.35478C16.7766 6.69128 16.8191 7.02732 16.8639 7.36474C16.7065 7.43398 16.8272 7.38228 16.8602 7.3652C17.0556 7.2957 17.2565 7.24365 17.4607 7.20965C17.5814 7.18426 17.6705 7.17503 17.8419 7.16764C17.9147 7.16395 17.9888 7.16764 18.0616 7.17318C17.9495 7.16487 18.1276 7.1898 18.1525 7.19765C18.1168 7.18703 18.0874 7.14964 18.1168 7.17872C18.0589 7.11964 18.0422 7.07302 18.0544 6.99732C18.034 7.05917 18.0349 7.06378 18.0553 7.00378C18.0214 7.0564 18.0187 7.05963 18.0548 7.01024C18.0417 7.02732 17.8952 7.14918 17.9657 7.09563C17.6628 7.32781 17.4096 7.5143 17.2658 7.88403C17.1383 8.21268 17.4602 8.60411 17.7872 8.58519C18.4125 8.54872 19.0505 8.53857 19.5632 8.11898C19.8345 7.89419 19.9927 7.59185 20.1062 7.25811C20.2016 6.97516 20.2301 6.66174 20.3694 6.39632C20.7053 5.76256 19.8309 5.26035 19.4361 5.83918C19.0428 6.41156 18.5228 6.88746 17.9576 7.2775L18.6137 8.14483C19.1228 7.50784 20.0755 6.45448 19.1761 5.69378C18.4021 5.03879 17.1953 5.3042 16.3285 5.54192C15.3338 5.80964 14.2835 6.1743 13.522 6.90454C12.7792 7.61539 12.2402 8.62996 12.1656 9.66947C12.1416 9.9815 12.4288 10.2063 12.705 10.2229C14.3626 10.3175 16.0012 9.98704 17.652 9.94365C17.5267 9.62977 17.3988 9.31496 17.2713 9.00016C16.8914 9.30342 16.3168 9.3722 15.8714 9.52083L16.1594 10.5866C16.4131 10.5022 16.6866 10.5096 16.9389 10.4094C17.2125 10.3018 17.4069 10.1117 17.5593 9.86056C17.812 9.44375 17.9029 8.94523 18.0729 8.49472C18.1579 8.26623 18.0177 7.9865 17.8224 7.87018C17.5968 7.73355 17.359 7.79818 17.1682 7.95558C16.5609 8.45964 15.6707 8.58427 14.9233 8.71905C14.0958 8.86445 13.2358 8.942 12.3994 8.83999C12.526 9.15479 12.6544 9.46775 12.781 9.78302C12.9211 9.62838 13.0753 9.49452 13.2426 9.37728C13.4122 9.25911 13.6654 9.11509 13.7988 9.10863C13.6422 8.83247 13.4866 8.55582 13.3317 8.27869C12.908 8.942 12.3153 9.48991 11.7089 9.97596C12.0096 10.156 12.3126 10.3365 12.6132 10.5128C12.6887 10.2441 12.8538 10.0124 12.993 9.77378C13.1748 9.46083 13.2987 9.13125 13.315 8.76429C13.3344 8.30916 12.8488 8.12637 12.502 8.28838C11.9147 8.56119 11.3852 8.96554 10.7558 9.13679C10.9828 9.31496 11.208 9.49268 11.4386 9.66993C11.4155 9.30758 11.467 8.95077 11.4734 8.59073C11.4833 8.02436 10.745 7.86049 10.4651 8.31193C10.2494 8.6595 10.0468 9.01631 9.76606 9.31496C10.0487 9.53884 10.3322 9.76086 10.6147 9.98473C11.0497 9.07817 11.7542 8.12452 12.6386 7.64031C12.3917 7.38644 12.1448 7.13533 11.8984 6.88284C11.954 6.80991 11.826 6.97285 11.8138 6.98947C11.7516 7.06128 11.687 7.13102 11.6203 7.19857C11.5665 7.25165 11.5123 7.3052 11.4553 7.35597C11.4051 7.39798 11.4006 7.40167 11.4399 7.36982C11.4007 7.40067 11.3599 7.42948 11.3178 7.45614C11.2884 7.47599 11.1171 7.54707 11.2527 7.4963C11.1921 7.51291 11.2048 7.51291 11.2903 7.49999C11.2021 7.51291 11.3893 7.53184 11.415 7.54384C11.4583 7.5692 11.4949 7.60483 11.5217 7.6477C11.6031 7.77879 11.5208 7.59046 11.5353 7.6957C11.5199 7.57846 11.5349 7.45614 11.5416 7.33705C11.5873 6.80576 10.7445 6.55696 10.5325 7.05778C10.4958 7.14595 10.3995 7.22534 10.5153 7.18703C10.7373 7.41459 10.9593 7.64031 11.1795 7.86695C11.255 7.51845 11.349 7.2198 11.5629 7.01439C11.5077 7.06702 11.6529 6.96039 11.6768 6.94977C11.5742 7.00147 11.8328 6.93223 11.7234 6.94239C11.893 6.92577 12.0254 6.96777 12.1941 7.04855C12.4685 7.17595 12.7656 7.12333 12.9343 6.85007C12.956 6.81111 12.9865 6.77803 13.0233 6.7536C13.0297 6.75175 13.1784 6.67605 13.083 6.71621C13.1327 6.69543 13.1847 6.67882 13.239 6.66543C13.3548 6.63451 13.6572 6.62343 13.7793 6.64004C13.9032 6.65851 14.0226 6.68805 14.1433 6.72267C14.2545 6.7536 14.3481 6.79191 14.4019 6.81545C14.5009 6.86207 14.5936 6.92208 14.6836 6.9867C14.5982 6.923 14.7157 7.02132 14.7234 7.03055C14.7573 7.0624 14.7858 7.09979 14.8134 7.13533C15.0209 7.40721 15.5223 7.31812 15.6639 7.02409C15.686 6.97654 15.7127 6.93408 15.7421 6.89207C15.6449 7.03009 15.7977 6.83991 15.8303 6.80991C15.8828 6.75954 15.9372 6.71134 15.9935 6.66543C15.8972 6.74436 16.0224 6.64466 16.0355 6.63727C16.0758 6.60727 16.1156 6.57727 16.1576 6.54911C16.319 6.43925 16.489 6.33955 16.6622 6.24677C16.7445 6.20246 16.8281 6.16045 16.9122 6.11937C17.0158 6.06859 17.0963 6.03305 17.1374 6.01644C17.3151 5.9435 17.4978 5.8798 17.6804 5.82811C17.7582 5.80826 17.8346 5.78887 17.9115 5.77272C17.9373 5.76718 18.0856 5.74363 17.94 5.76533C17.9789 5.75887 18.0209 5.7561 18.0602 5.75287C18.119 5.7501 18.1801 5.75102 18.2402 5.75333C18.0815 5.73948 18.1769 5.74594 18.2185 5.7561C18.322 5.78333 18.0991 5.69517 18.1905 5.74364C18.2253 5.76256 18.0978 5.63978 18.1154 5.67163C18.0453 5.54238 18.0896 5.67163 18.0761 5.52576C18.0788 5.56592 18.063 5.67163 18.0869 5.51515C18.0146 6.0132 18.422 6.34601 18.8804 6.13691C19.0595 6.05705 19.1522 6.07506 19.2743 6.11337C19.163 6.07875 19.4221 6.22969 19.3294 6.15076C19.3421 6.15999 19.4402 6.28 19.3724 6.18815C19.4018 6.22738 19.423 6.27123 19.4456 6.3137C19.3846 6.19553 19.4732 6.51588 19.4605 6.37463C19.461 6.42633 19.4624 6.47941 19.4605 6.53019C19.461 6.41386 19.4438 6.57634 19.4393 6.59388C19.4257 6.63958 19.4054 6.67189 19.3439 6.76698C19.3855 6.70144 19.253 6.85422 19.2643 6.84361C19.2146 6.89253 19.2128 6.887 19.1535 6.92715C18.6625 7.25211 18.9695 8.16329 19.5709 7.93665C19.5605 7.94035 19.7422 7.8868 19.7038 7.88865C19.8064 7.88126 19.7459 7.91219 19.6477 7.8351C19.6345 7.81886 19.6217 7.80223 19.6093 7.78525C19.6084 7.71509 19.5469 7.91265 19.6093 7.78894C19.5469 7.91265 19.6807 7.71786 19.5835 7.82633C19.5616 7.85052 19.5377 7.87275 19.5121 7.8928C19.555 7.8628 19.5496 7.86511 19.4972 7.90434C19.385 7.97893 19.2669 8.04378 19.144 8.09821C18.7859 8.263 18.2447 8.36593 17.8156 8.50764C17.4019 8.64612 17.3187 9.1054 17.5778 9.43082C17.51 9.34727 17.6208 9.51483 17.6375 9.54576C17.5615 9.39113 17.6402 9.71701 17.6262 9.50837C17.6357 9.65977 17.6601 9.40636 17.619 9.54945C17.6601 9.41005 17.6429 9.49037 17.6199 9.53376C17.5615 9.63485 17.7026 9.43728 17.6262 9.5273C17.6018 9.55822 17.4539 9.67916 17.5805 9.58546C17.5285 9.62283 17.4743 9.65689 17.4182 9.68747C17.3942 9.69716 17.3716 9.71193 17.3481 9.72393C17.2242 9.78579 17.4584 9.68239 17.3264 9.73317C17.2483 9.76321 17.1686 9.78879 17.0877 9.80979C17.0194 9.82825 16.9475 9.84164 16.8783 9.85549C16.8173 9.86518 16.8232 9.86472 16.896 9.85364C16.8539 9.8541 16.8119 9.86103 16.7725 9.86287C16.7047 9.86333 16.6369 9.86333 16.5691 9.86564C16.5288 9.86472 16.4895 9.86518 16.4515 9.85641C16.6057 9.87303 16.4832 9.85918 16.4506 9.85364C16.3948 9.84153 16.3399 9.82517 16.2865 9.80471C16.4298 9.85826 16.3371 9.82548 16.3014 9.80471C16.2078 9.74978 16.4 9.89287 16.3195 9.82087C16.2408 9.75163 16.3353 9.86103 16.3534 9.90672C16.3353 9.86287 16.3326 9.77009 16.3493 9.9395C16.3489 9.90672 16.3493 9.87395 16.3525 9.8421C15.9985 9.89195 15.6426 9.94134 15.2886 9.98935C15.2678 9.8541 15.2814 9.97596 15.2804 10.0069C15.2945 9.92057 15.2954 9.90765 15.2814 9.96488C15.3184 9.88687 15.3252 9.87395 15.2972 9.92519C15.2474 10.0254 15.3835 9.83241 15.3053 9.91226C15.2474 9.97412 15.4111 9.84949 15.2841 9.9178C15.4613 9.82133 15.0584 9.94873 15.2569 9.92519C15.2087 9.93043 15.1603 9.9329 15.1118 9.93257C15.077 9.93257 14.9065 9.9118 15.077 9.93303C14.9989 9.92057 14.9223 9.90016 14.8482 9.8721C14.9942 9.92472 14.9061 9.89749 14.8694 9.8758C14.7501 9.81117 14.9346 9.9395 14.8785 9.88503C14.9766 9.98427 15.001 10.2211 14.9445 10.3148C14.8496 10.4749 15.0101 10.294 14.8948 10.3757C14.9473 10.3393 15.0028 10.3077 15.0607 10.2811C14.7948 10.0743 14.5312 9.8661 14.2663 9.65839C14.3074 9.54991 14.1664 9.79317 14.2473 9.69208L14.1786 9.76686C14.0696 9.87257 14.2559 9.71701 14.1306 9.79963C14.1049 9.81487 14.0764 9.82964 14.0465 9.84395C14.1044 9.81948 14.1044 9.81764 14.0456 9.83841C14.0162 9.84672 13.9869 9.85503 13.9566 9.86103C14.085 9.83102 13.9593 9.85549 13.9285 9.85549C13.8331 9.85733 14.0185 9.88826 13.8752 9.84349C13.9557 9.86841 13.9231 9.84718 13.9715 9.92103C13.9982 9.99812 14.0018 10.0074 13.9841 9.94919C13.9923 10.0281 13.9932 10.036 13.9923 9.96996C13.9923 10.0646 14.0104 9.90718 14.0271 9.87349C14.2875 9.32466 13.6297 8.74213 13.1757 9.20557C12.8199 9.56792 12.4288 9.98196 11.9472 10.1629C11.7722 10.2303 11.5823 10.282 11.4327 10.1481C11.4458 10.1601 11.4006 10.0572 11.4191 10.1255C11.4295 10.1629 11.4055 10.2418 11.4372 10.1292C11.4191 10.1984 11.4851 10.0646 11.4553 10.102C11.5004 10.0477 11.5546 10.0021 11.6153 9.96719C11.3951 9.6787 11.1777 9.38928 10.9593 9.10079C10.8851 9.17833 10.8345 9.23188 10.7866 9.26373C10.7694 9.27665 10.6251 9.34174 10.7427 9.29742C10.7061 9.31081 10.584 9.32004 10.7314 9.30712C10.6084 9.31773 10.8481 9.33989 10.735 9.30896C10.8734 9.34543 10.7233 9.28542 10.8313 9.37082C10.7992 9.34543 10.7499 9.26142 10.8304 9.38051C10.7626 9.27942 10.867 9.4996 10.83 9.38328C10.8164 9.34681 10.8078 9.22957 10.8218 9.37774C10.8194 9.3374 10.8206 9.29692 10.8254 9.2568C10.8141 9.3999 10.8309 9.26603 10.839 9.23418C10.8802 9.09571 10.7893 9.32696 10.8594 9.19403C10.8648 9.18433 10.9566 9.06016 10.8906 9.13956C10.9254 9.09755 10.9661 9.06063 11.0081 9.02462C10.9466 9.07909 11.1062 8.96462 11.0972 8.97016C11.1349 8.94554 11.1748 8.92482 11.2166 8.9083C11.0764 8.5718 10.9385 8.23576 10.8001 7.89973C10.6934 7.96804 10.7305 7.97681 10.6541 7.92973C10.5691 7.87803 10.513 7.70586 10.4741 7.62185C10.4502 7.572 10.4402 7.51014 10.4276 7.45706C10.4402 7.51014 10.4294 7.54984 10.4036 7.60015C10.3493 7.71417 10.4474 7.58677 10.3597 7.64816C10.4009 7.61908 10.4447 7.59554 10.4872 7.57153C10.7219 7.43537 10.9159 7.27381 11.113 7.08363C11.2681 6.93362 11.3332 6.85976 11.4811 6.93639C12.1041 7.25581 12.653 6.30216 12.0291 5.98089" fill="#F1F1F2"/>
<path d="M10.0105 4.16352C10.1289 3.65208 11.6278 3.24034 11.9674 3.3225C12.3051 3.4042 11.6911 4.31261 11.4135 4.85221C11.1273 5.41166 10.8623 5.99188 10.5255 5.9088C10.185 5.82894 9.89112 4.67542 10.0105 4.16352Z" fill="#0B7D70"/>
<path d="M15.8038 0.402007C17.8927 1.81309 19.6733 5.90463 18.5944 7.56774C17.5174 9.23039 12.9901 9.37903 10.8989 7.97025C8.81178 6.55917 11.1602 4.93852 12.2368 3.2768C13.317 1.61368 13.7135 -1.00769 15.8024 0.402007" fill="#BE202E"/>
<path d="M18.1582 7.26362C16.5589 7.19899 14.9362 7.06883 13.3505 6.82695C12.1387 6.64139 11.2394 6.03717 10.7434 5.18323C10.0064 6.16411 9.62255 7.10806 10.9003 7.97124C12.9901 9.38001 17.5175 9.23138 18.5959 7.56873C18.6528 7.48056 18.6999 7.38317 18.7419 7.28116C18.5461 7.27931 18.3512 7.271 18.1595 7.26454" fill="#991B2B"/>
<path d="M9.74645 1.35427C9.78623 1.34365 9.9897 1.5029 10.0015 1.52367C10.2895 2.05727 11.622 2.59502 11.8146 2.66149C12.2586 2.8152 12.6235 3.23202 12.4557 3.39865C12.2961 3.55883 11.3303 3.35573 11.1363 3.32157C10.6327 3.22752 10.1603 3.00596 9.76227 2.67719C9.36935 2.34161 9.11977 1.54721 9.74645 1.35427Z" fill="#2BB573"/>
<path d="M11.6761 1.39392C11.8339 0.830317 13.5241 0.450427 13.8989 0.557516C14.2733 0.66599 13.5458 1.64595 13.2089 2.23771C12.859 2.84424 12.5375 3.47754 12.1626 3.36814C11.7901 3.25967 11.5183 1.96029 11.6761 1.39392Z" fill="#2BB573"/>
<path d="M16.291 2.24056C16.6423 2.41089 16.6834 3.64472 16.5654 3.89629C16.4497 4.15016 15.8953 3.53301 15.549 3.23206C15.1945 2.92418 14.8192 2.6306 14.935 2.37627C15.053 2.12516 15.941 2.07023 16.291 2.24056Z" fill="#E7E6E6"/>
<path d="M17.0744 5.65267C17.4619 5.6139 18.1184 6.64832 18.1478 6.92528C18.1732 7.20546 17.3882 6.96821 16.9406 6.89251C16.479 6.81542 16.0096 6.76141 15.9816 6.48492C15.9563 6.2052 16.6865 5.69191 17.0744 5.65267Z" fill="#E7E6E6"/>
<path d="M13.1616 6.11883C13.5482 6.08052 14.207 7.11541 14.235 7.39283C14.2626 7.67209 13.4772 7.43483 13.0287 7.36005C12.5671 7.28297 12.0987 7.22896 12.0711 6.95154C12.0435 6.67136 12.7755 6.15807 13.1616 6.11883Z" fill="#E7E6E6"/>
<path d="M13.1302 4.14735C13.2459 4.52863 14.4382 4.74188 14.7 4.65787C14.9596 4.57294 14.4378 3.92948 14.1954 3.53667C13.9476 3.13508 13.713 2.71365 13.4525 2.79766C13.1917 2.88213 13.0149 3.77069 13.1302 4.14735Z" fill="#E7E6E6"/>
<path d="M10.7187 4.69351C10.6717 4.22408 11.8197 3.42645 12.1294 3.39414C12.4396 3.36136 12.1827 4.31316 12.1023 4.85322C12.0213 5.41267 11.9671 5.98181 11.6564 6.01366C11.3472 6.04597 10.7666 5.16157 10.7187 4.69351Z" fill="#04A69C"/>
</svg>
