<svg width="16" height="17" viewBox="0 0 16 17" fill="none" xmlns="http://www.w3.org/2000/svg">
<path d="M12.6317 13.0867C13.0784 13.0867 13.5068 13.2641 13.8226 13.58C14.1385 13.8958 14.3159 14.3242 14.3159 14.7709C14.3159 15.2175 14.1385 15.6459 13.8226 15.9618C13.5068 16.2776 13.0784 16.4551 12.6317 16.4551C12.185 16.4551 11.7566 16.2776 11.4408 15.9618C11.1249 15.6459 10.9475 15.2175 10.9475 14.7709C10.9475 14.3242 11.1249 13.8958 11.4408 13.58C11.7566 13.2641 12.185 13.0867 12.6317 13.0867ZM12.6317 13.9288C12.4084 13.9288 12.1942 14.0175 12.0362 14.1754C11.8783 14.3333 11.7896 14.5475 11.7896 14.7709C11.7896 14.9942 11.8783 15.2084 12.0362 15.3663C12.1942 15.5243 12.4084 15.613 12.6317 15.613C12.855 15.613 13.0692 15.5243 13.2272 15.3663C13.3851 15.2084 13.4738 14.9942 13.4738 14.7709C13.4738 14.5475 13.3851 14.3333 13.2272 14.1754C13.0692 14.0175 12.855 13.9288 12.6317 13.9288ZM5.05268 13.0867C5.49937 13.0867 5.92776 13.2641 6.24361 13.58C6.55946 13.8958 6.73691 14.3242 6.73691 14.7709C6.73691 15.2175 6.55946 15.6459 6.24361 15.9618C5.92776 16.2776 5.49937 16.4551 5.05268 16.4551C4.606 16.4551 4.17761 16.2776 3.86175 15.9618C3.5459 15.6459 3.36845 15.2175 3.36845 14.7709C3.36845 14.3242 3.5459 13.8958 3.86175 13.58C4.17761 13.2641 4.606 13.0867 5.05268 13.0867ZM5.05268 13.9288C4.82934 13.9288 4.61514 14.0175 4.45722 14.1754C4.29929 14.3333 4.21057 14.5475 4.21057 14.7709C4.21057 14.9942 4.29929 15.2084 4.45722 15.3663C4.61514 15.5243 4.82934 15.613 5.05268 15.613C5.27602 15.613 5.49022 15.5243 5.64815 15.3663C5.80607 15.2084 5.8948 14.9942 5.8948 14.7709C5.8948 14.5475 5.80607 14.3333 5.64815 14.1754C5.49022 14.0175 5.27602 13.9288 5.05268 13.9288ZM14.3159 2.98139H2.75624L4.9011 8.03403H11.7896C11.9205 8.03423 12.0497 8.0037 12.1667 7.94491C12.2837 7.88611 12.3853 7.80069 12.4633 7.6955L14.9896 4.32708H14.9905C15.0839 4.2019 15.1406 4.05323 15.1544 3.89766C15.1681 3.74209 15.1383 3.58576 15.0683 3.44614C14.9984 3.30653 14.8909 3.18912 14.7581 3.10705C14.6252 3.02498 14.4721 2.98147 14.3159 2.98139ZM11.7896 8.87613H4.93984L4.29478 10.1898L4.21057 10.5603C4.21057 10.7837 4.29929 10.9979 4.45722 11.1558C4.61514 11.3137 4.82934 11.4024 5.05268 11.4024H14.3159V12.2446H5.05268C4.75943 12.2447 4.47122 12.1683 4.21658 12.0228C3.96193 11.8774 3.74967 11.668 3.6008 11.4153C3.45193 11.1627 3.37161 10.8755 3.36778 10.5823C3.36395 10.2891 3.43676 9.99995 3.57898 9.7435L4.1853 8.50224L1.12675 1.29718H0V0.455078H1.68423L2.39918 2.13929H14.3159C14.6341 2.13932 14.9458 2.2295 15.2149 2.39938C15.484 2.56926 15.6994 2.81189 15.8363 3.09917C15.9731 3.38644 16.0258 3.70661 15.9882 4.02259C15.9506 4.33857 15.8242 4.63743 15.6237 4.88455L13.1698 8.15697C13.0147 8.37913 12.8082 8.56052 12.5679 8.68573C12.3275 8.81094 12.0606 8.87626 11.7896 8.87613Z" fill="black"/>
</svg>
