<svg width="59" height="58" viewBox="0 0 59 58" fill="none" xmlns="http://www.w3.org/2000/svg">
<path d="M17.6994 46.4C14.4545 46.4 11.8291 49.01 11.8291 52.2C11.8291 55.39 14.4545 58 17.6994 58C20.9443 58 23.5992 55.39 23.5992 52.2C23.5992 49.01 20.9443 46.4 17.6994 46.4ZM0 0V5.8H5.8998L16.5194 27.811L12.5371 34.916C12.0651 35.728 11.7996 36.685 11.7996 37.7C11.7996 40.89 14.4545 43.5 17.6994 43.5H53.0982V37.7H18.9384C18.5254 37.7 18.2009 37.381 18.2009 36.975L18.2894 36.627L20.9443 31.9H42.921C45.1334 31.9 47.0804 30.711 48.0833 28.913L58.644 10.092C58.8874 9.64942 59.0098 9.15235 58.9994 8.64933C58.9889 8.14632 58.846 7.65457 58.5844 7.22213C58.3228 6.78968 57.9517 6.43132 57.5071 6.18206C57.0626 5.9328 56.5598 5.80116 56.0481 5.8H12.4191L9.64617 0H0ZM47.1984 46.4C43.9535 46.4 41.3281 49.01 41.3281 52.2C41.3281 55.39 43.9535 58 47.1984 58C50.4433 58 53.0982 55.39 53.0982 52.2C53.0982 49.01 50.4433 46.4 47.1984 46.4Z" fill="white"/>
</svg>
