<svg width="23" height="23" viewBox="0 0 23 23" fill="none" xmlns="http://www.w3.org/2000/svg">
<circle cx="11.5" cy="11.5" r="11.5" fill="#1CC637"/>
<path fill-rule="evenodd" clip-rule="evenodd" d="M16.0637 6.31771C16.2683 6.11493 16.5444 6.0008 16.8325 6C17.1205 5.99921 17.3973 6.11181 17.603 6.31346C17.8087 6.51512 17.9268 6.78962 17.9317 7.07763C17.9366 7.36563 17.8279 7.644 17.6292 7.85255L11.7939 15.1467C11.6937 15.2547 11.5726 15.3414 11.4381 15.4015C11.3035 15.4617 11.1582 15.4941 11.0108 15.4969C10.8634 15.4996 10.717 15.4726 10.5803 15.4174C10.4436 15.3623 10.3195 15.2801 10.2153 15.1759L6.34893 11.3081C6.24122 11.2078 6.15483 11.0867 6.09491 10.9522C6.03499 10.8178 6.00277 10.6726 6.00017 10.5254C5.99757 10.3782 6.02465 10.232 6.07979 10.0955C6.13493 9.95895 6.217 9.83494 6.3211 9.73084C6.42521 9.62673 6.54921 9.54466 6.68572 9.48952C6.82223 9.43439 6.96845 9.40731 7.11565 9.4099C7.26285 9.4125 7.40802 9.44472 7.5425 9.50464C7.67698 9.56456 7.79802 9.65095 7.89838 9.75867L10.9593 12.8181L16.0359 6.34987C16.045 6.33855 16.0548 6.32781 16.0652 6.31771H16.0637Z" fill="white"/>
</svg>
