<svg width="26" height="19" viewBox="0 0 26 19" fill="none" xmlns="http://www.w3.org/2000/svg">
<path fill-rule="evenodd" clip-rule="evenodd" d="M21.9293 0.63562C22.3751 0.229923 22.9768 0.00159829 23.6045 8.35923e-06C24.2322 -0.00158158 24.8353 0.223691 25.2835 0.627124C25.7317 1.03056 25.989 1.57973 25.9997 2.15592C26.0103 2.73211 25.7736 3.28902 25.3407 3.70624L12.6253 18.299C12.4067 18.5151 12.143 18.6885 11.8498 18.8089C11.5566 18.9293 11.2399 18.9942 10.9188 18.9996C10.5977 19.0051 10.2786 18.951 9.98077 18.8407C9.68291 18.7304 9.41234 18.566 9.18524 18.3575L0.760338 10.6195C0.52563 10.4187 0.337376 10.1766 0.206808 9.90755C0.0762398 9.6385 0.00603122 9.34807 0.000371778 9.05358C-0.00528767 8.75908 0.0537181 8.46656 0.173868 8.19345C0.294017 7.92035 0.47285 7.67226 0.699697 7.46399C0.926544 7.25571 1.19676 7.09152 1.49422 6.98121C1.79168 6.8709 2.1103 6.81673 2.43106 6.82192C2.75182 6.82712 3.06815 6.89158 3.36119 7.01146C3.65423 7.13133 3.91796 7.30417 4.13667 7.51966L10.8065 13.6404L21.8688 0.699958C21.8885 0.677304 21.9098 0.655815 21.9325 0.63562H21.9293Z" fill="white"/>
</svg>
