<svg width="26" height="23" viewBox="0 0 26 23" fill="none" xmlns="http://www.w3.org/2000/svg">
<path fill-rule="evenodd" clip-rule="evenodd" d="M21.6101 0.769435C22.0302 0.278328 22.5973 0.00193478 23.1888 1.01191e-05C23.7803 -0.00191454 24.3487 0.270784 24.7711 0.75915C25.1935 1.24752 25.436 1.91231 25.4461 2.6098C25.4561 3.3073 25.2331 3.98145 24.825 4.4865L12.8417 22.1514C12.6358 22.413 12.3872 22.623 12.1109 22.7687C11.8345 22.9144 11.5361 22.9929 11.2335 22.9995C10.9309 23.0062 10.6302 22.9407 10.3495 22.8072C10.0688 22.6736 9.81377 22.4747 9.59975 22.2222L1.65992 12.8552C1.43873 12.6121 1.26131 12.319 1.13826 11.9933C1.01521 11.6677 0.949043 11.3161 0.94371 10.9596C0.938376 10.6031 0.993985 10.249 1.10722 9.91839C1.22045 9.58779 1.38898 9.28747 1.60277 9.03535C1.81656 8.78323 2.07121 8.58448 2.35155 8.45094C2.63188 8.31741 2.93215 8.25183 3.23445 8.25812C3.53674 8.26441 3.83486 8.34244 4.11103 8.48755C4.38719 8.63267 4.63574 8.84189 4.84186 9.10275L11.1277 16.5121L21.553 0.847317C21.5716 0.819895 21.5917 0.793881 21.6131 0.769435H21.6101Z" fill="#106EE8"/>
</svg>
