<svg width="20" height="16" viewBox="0 0 20 16" fill="none" xmlns="http://www.w3.org/2000/svg">
<path fill-rule="evenodd" clip-rule="evenodd" d="M16.6815 1.24713C17.0073 0.924217 17.447 0.742483 17.9057 0.741218C18.3644 0.739952 18.8051 0.919256 19.1327 1.24037C19.4602 1.56148 19.6482 1.99859 19.656 2.45721C19.6638 2.91582 19.4908 3.35909 19.1744 3.69117L9.88241 15.3062C9.72271 15.4782 9.52997 15.6162 9.3157 15.7121C9.10143 15.8079 8.87004 15.8595 8.63537 15.8638C8.4007 15.8682 8.16756 15.8252 7.94989 15.7373C7.73222 15.6495 7.5345 15.5187 7.36854 15.3527L1.21188 9.19376C1.04036 9.03394 0.902794 8.8412 0.807379 8.62706C0.711964 8.41292 0.660657 8.18175 0.656522 7.94735C0.652386 7.71295 0.695506 7.48011 0.783307 7.26274C0.871109 7.04536 1.00179 6.8479 1.16757 6.68212C1.33334 6.51635 1.5308 6.38567 1.74818 6.29786C1.96556 6.21006 2.19839 6.16694 2.43279 6.17108C2.66719 6.17521 2.89836 6.22652 3.1125 6.32194C3.32665 6.41735 3.51938 6.55492 3.6792 6.72644L8.55332 11.5982L16.6373 1.29834C16.6517 1.28031 16.6672 1.2632 16.6838 1.24713H16.6815Z" fill="white"/>
</svg>
