<svg width="16" height="12" viewBox="0 0 16 12" fill="none" xmlns="http://www.w3.org/2000/svg">
<path fill-rule="evenodd" clip-rule="evenodd" d="M12.8339 0.779289C13.0788 0.536515 13.4094 0.399882 13.7543 0.398931C14.0991 0.397979 14.4305 0.532785 14.6767 0.774205C14.923 1.01562 15.0643 1.34426 15.0702 1.68906C15.0761 2.03386 14.946 2.36712 14.7081 2.61679L7.72213 11.3493C7.60207 11.4786 7.45716 11.5824 7.29607 11.6544C7.13497 11.7265 6.96101 11.7653 6.78457 11.7686C6.60814 11.7718 6.43286 11.7395 6.26921 11.6734C6.10556 11.6074 5.95691 11.5091 5.83213 11.3843L1.20338 6.75379C1.07443 6.63363 0.971004 6.48873 0.899268 6.32773C0.827532 6.16673 0.788958 5.99294 0.785849 5.81671C0.782739 5.64048 0.815158 5.46542 0.88117 5.30199C0.947181 5.13857 1.04543 4.99011 1.17007 4.86547C1.2947 4.74084 1.44316 4.64259 1.60659 4.57658C1.77002 4.51056 1.94507 4.47815 2.1213 4.48125C2.29753 4.48436 2.47133 4.52294 2.63233 4.59467C2.79332 4.66641 2.93823 4.76984 3.05838 4.89879L6.72288 8.56154L12.8006 0.81779C12.8115 0.804234 12.8232 0.791374 12.8356 0.779289H12.8339Z" fill="white"/>
</svg>
