<svg width="39" height="33" viewBox="0 0 39 33" fill="none" xmlns="http://www.w3.org/2000/svg">
<g clip-path="url(#clip0)">
<path d="M11.4064 3.30169C14.4734 1.57011 17.5332 1.55637 20.6074 3.30169C22.9731 2.45308 25.3133 2.51492 27.5809 3.63838C29.5105 4.5935 30.8441 6.06396 31.5527 8.01198C33.1007 12.286 30.5025 16.8897 25.8293 18.075C25.8293 21.2393 25.8293 24.407 25.8293 27.5953C25.9238 27.6021 26.0038 27.6021 26.0873 27.609C26.3744 27.6331 26.5815 27.8186 26.5815 28.0866C26.5888 29.5639 26.5888 31.0412 26.5852 32.5186C26.5852 32.7969 26.3453 32.9961 26.0328 32.9961C25.2225 32.9961 24.4085 32.9961 23.5981 32.9961C18.3254 32.9961 13.049 32.9961 7.77619 32.9961C7.1875 32.9961 6.60244 32.9961 6.01376 32.9961C5.6431 32.9961 5.4287 32.7934 5.4287 32.443C5.4287 31.0412 5.4287 29.6361 5.4287 28.2343C5.4287 27.7808 5.59222 27.6193 6.07553 27.6021C6.1046 27.6021 6.13367 27.5953 6.18091 27.5884C6.18091 24.4173 6.18091 21.2496 6.18091 18.0785C3.62266 17.3536 1.73667 15.89 0.668311 13.5606C-0.171116 11.7225 -0.207455 9.83632 0.479349 7.94671C1.84932 4.16404 6.58064 1.49109 11.4064 3.30169ZM7.29652 18.2743C7.29652 21.3905 7.29652 24.486 7.29652 27.5953C13.1071 27.5953 18.9031 27.5953 24.7137 27.5953C24.7137 24.4791 24.7137 21.3836 24.7137 18.2743C24.5502 18.2846 24.4048 18.2949 24.2595 18.3018C24.1069 18.3121 23.9579 18.3258 23.8053 18.3258C23.431 18.3293 23.1875 18.1266 23.1839 17.8174C23.1802 17.5047 23.4201 17.2986 23.7907 17.2951C24.7174 17.2814 25.6149 17.1165 26.4725 16.7798C29.1652 15.7182 30.9059 13.2686 30.895 10.5063C30.8877 8.5342 30.1137 6.84729 28.5547 5.54861C26.2836 3.659 23.6962 3.26733 20.88 4.32895C20.5856 4.44233 20.3458 4.42515 20.0842 4.25337C18.5797 3.2742 16.919 2.8791 15.0985 3.09898C13.3506 3.31199 11.8825 4.04379 10.7015 5.26345C9.47321 6.53121 8.85545 8.03603 8.82638 9.7573C8.81911 10.094 8.59381 10.3242 8.27403 10.3173C7.95425 10.3104 7.71805 10.0528 7.73258 9.72638C7.74712 9.4584 7.76165 9.19042 7.79072 8.92243C7.96515 7.48976 8.52114 6.20139 9.45504 5.06418C9.73485 4.72405 10.0546 4.40797 10.3562 4.08158C10.3562 4.08158 10.3526 4.07128 10.3417 4.06784C10.3126 4.05753 10.2872 4.04723 10.2581 4.04036C8.17955 3.48378 6.21362 3.7552 4.39668 4.8443C3.12482 5.60702 2.19091 6.6652 1.62402 7.99824C1.09348 9.24882 0.959022 10.5372 1.24246 11.8565C1.59859 13.5022 2.49252 14.8386 3.88793 15.8762C4.62198 16.4225 5.44324 16.8004 6.33717 17.0409C6.9622 17.2093 7.60176 17.2917 8.25586 17.2986C8.58655 17.302 8.81911 17.5116 8.82275 17.8071C8.82638 18.1094 8.59745 18.3224 8.25586 18.3327C8.18318 18.3362 8.11051 18.3327 8.03783 18.3258C7.79436 18.3087 7.55452 18.2915 7.29652 18.2743ZM25.4986 28.6466C19.1648 28.6466 12.8455 28.6466 6.51523 28.6466C6.51523 29.7597 6.51523 30.8592 6.51523 31.9586C12.8527 31.9586 19.1721 31.9586 25.4986 31.9586C25.4986 30.8454 25.4986 29.7494 25.4986 28.6466Z" fill="#878787"/>
<path d="M11.9046 22.968C11.9046 23.7067 11.9046 24.4453 11.9046 25.184C11.9046 25.5001 11.6902 25.72 11.3813 25.7234C11.0579 25.7268 10.8326 25.5104 10.8326 25.184C10.829 23.7067 10.829 22.2293 10.8326 20.7554C10.8326 20.429 11.0579 20.2126 11.3777 20.2195C11.6902 20.2229 11.9046 20.4394 11.9046 20.7554C11.9046 21.4907 11.9046 22.2293 11.9046 22.968Z" fill="#878787"/>
<path d="M21.1783 22.9647C21.1783 23.7033 21.1783 24.442 21.1783 25.1807C21.1783 25.4452 21.0547 25.6101 20.8076 25.6891C20.5751 25.7613 20.3461 25.7063 20.2117 25.5208C20.1499 25.4349 20.1099 25.3215 20.1099 25.2219C20.1027 23.7239 20.1063 22.2226 20.1063 20.7246C20.1063 20.436 20.328 20.2264 20.6296 20.2196C20.9385 20.2127 21.1747 20.4223 21.1783 20.7212C21.1819 21.4667 21.1783 22.2157 21.1783 22.9647Z" fill="#878787"/>
<path d="M15.4622 23.1912C15.4622 22.5315 15.4622 21.8753 15.4622 21.2157C15.4622 20.8756 15.6766 20.6522 16.0036 20.6522C16.3307 20.6522 16.5487 20.8721 16.5487 21.2123C16.5487 22.535 16.5487 23.8577 16.5487 25.177C16.5487 25.4965 16.3162 25.7198 15.9964 25.7164C15.6875 25.713 15.4622 25.4896 15.4622 25.1804C15.4622 24.5174 15.4622 23.8543 15.4622 23.1912Z" fill="#878787"/>
</g>
<path d="M38.6613 2.66409C38.4441 2.14276 38.1309 1.67033 37.7392 1.27326C37.3472 0.875002 36.8851 0.558512 36.3779 0.341001C35.852 0.114559 35.288 -0.0013468 34.7185 1.18067e-05C33.9195 1.18067e-05 33.1401 0.226778 32.4627 0.655113C32.3006 0.757578 32.1467 0.870121 32.0008 0.992743C31.855 0.870121 31.701 0.757578 31.5389 0.655113C30.8616 0.226778 30.0821 1.18067e-05 29.2831 1.18067e-05C28.7078 1.18067e-05 28.1504 0.114235 27.6237 0.341001C27.1148 0.559368 26.6562 0.873481 26.2624 1.27326C25.8702 1.66989 25.5569 2.14242 25.3403 2.66409C25.1151 3.20665 25 3.7828 25 4.37575C25 4.93511 25.1102 5.51798 25.329 6.11093C25.5121 6.60646 25.7746 7.12046 26.1101 7.6395C26.6416 8.4609 27.3725 9.31757 28.28 10.186C29.7839 11.6255 31.2732 12.62 31.3364 12.6603L31.7204 12.9156C31.8906 13.0281 32.1094 13.0281 32.2795 12.9156L32.6636 12.6603C32.7268 12.6183 34.2145 11.6255 35.72 10.186C36.6275 9.31757 37.3584 8.4609 37.8899 7.6395C38.2254 7.12046 38.4895 6.60646 38.671 6.11093C38.8898 5.51798 39 4.93511 39 4.37575C39.0016 3.7828 38.8865 3.20665 38.6613 2.66409Z" fill="#F5827D"/>
<defs>
<clipPath id="clip0">
<rect width="32" height="31" fill="white" transform="translate(0 2)"/>
</clipPath>
</defs>
</svg>
