<svg width="32" height="30" viewBox="0 0 32 30" fill="none" xmlns="http://www.w3.org/2000/svg">
<path fill-rule="evenodd" clip-rule="evenodd" d="M14.9571 0.0917969C22.6751 0.0917969 28.5951 6.4758 29.2891 14.0618H31.9371L28.1531 17.9658L24.0231 14.0618H26.6991C26.0391 7.6038 21.2071 2.1458 14.8271 2.1458C8.00314 2.1458 2.44914 7.9218 2.44914 15.0198C2.44914 22.1178 8.00314 27.8958 14.8271 27.8958C18.2171 27.8958 21.2891 26.4698 23.5271 24.1658L25.1711 25.8178C22.4284 28.4631 18.7677 29.9433 14.9571 29.9478C6.77314 29.9478 0.119141 23.2498 0.119141 15.0198C0.119141 6.7898 6.77314 0.0917969 14.9571 0.0917969Z" fill="black"/>
<path fill-rule="evenodd" clip-rule="evenodd" d="M14.116 6.06055L14 15.9065L22 16.0005V14.0005L15.936 14.1245V6.06255H14.116V6.06055Z" fill="black"/>
</svg>
