<svg width="21" height="21" viewBox="0 0 21 21" fill="none" xmlns="http://www.w3.org/2000/svg">
<path fill-rule="evenodd" clip-rule="evenodd" d="M11.1061 1.32867C10.8826 1.31218 10.6586 1.30391 10.4346 1.3039V0C10.6908 0.00012495 10.947 0.00969338 11.2026 0.0286858L11.1061 1.32867ZM13.7191 1.91543C13.3011 1.75414 12.8719 1.62384 12.4348 1.52556L12.7203 0.252957C13.2197 0.365092 13.7113 0.513737 14.1885 0.698891L13.7191 1.91543ZM15.5054 2.8412C15.319 2.71687 15.1281 2.59944 14.933 2.48915L15.5758 1.35475C16.0217 1.60736 16.4483 1.89238 16.8524 2.2075L16.0505 3.23628C15.8737 3.09837 15.6919 2.96702 15.5054 2.8425V2.8412ZM17.8968 5.17518C17.6389 4.80875 17.3543 4.46184 17.0453 4.13728L17.9894 3.23758C18.3414 3.6092 18.6674 4.00689 18.9634 4.42413L17.8968 5.17518ZM18.8669 6.93805C18.7813 6.73133 18.6882 6.52779 18.5879 6.32783L19.7522 5.74107C19.9825 6.19885 20.1786 6.67303 20.339 7.15972L19.1003 7.56784C19.0302 7.35513 18.9524 7.14506 18.8669 6.93805ZM19.558 10.2069C19.5474 9.75883 19.5038 9.31212 19.4276 8.87043L20.7119 8.64877C20.7993 9.15208 20.8501 9.66321 20.8632 10.1743L19.5593 10.2069H19.558ZM19.3871 12.2123C19.4302 11.9907 19.4654 11.7703 19.4928 11.5473L20.7875 11.7077C20.7249 12.2164 20.6247 12.7198 20.4876 13.2137L19.2307 12.8656C19.2907 12.6504 19.3428 12.4327 19.3871 12.2123ZM18.1458 15.3143C18.3858 14.9362 18.597 14.5398 18.7795 14.1304L19.9713 14.6584C19.7627 15.1279 19.5215 15.579 19.2476 16.0119L18.1458 15.3143ZM16.8889 16.8855C17.048 16.7264 17.2005 16.5621 17.3452 16.3926L18.3336 17.2441C18.1662 17.4381 17.9918 17.626 17.8107 17.8074L16.8889 16.8855Z" fill="white"/>
<path fill-rule="evenodd" clip-rule="evenodd" d="M10.4353 1.3039C8.93433 1.30401 7.45657 1.67427 6.1329 2.38189C4.80922 3.0895 3.68048 4.11263 2.84665 5.36066C2.01282 6.60868 1.49964 8.04308 1.35256 9.53681C1.20548 11.0305 1.42904 12.5375 2.00344 13.9242C2.57785 15.3108 3.48536 16.5345 4.6456 17.4867C5.80584 18.4389 7.18301 19.0902 8.65511 19.3831C10.1272 19.6759 11.6488 19.6012 13.0851 19.1656C14.5215 18.7299 15.8282 17.9468 16.8896 16.8855L17.8114 17.8074C16.5985 19.021 15.1049 19.9167 13.463 20.4152C11.8211 20.9136 10.0816 20.9994 8.39867 20.6648C6.71571 20.3303 5.14125 19.5859 3.81479 18.4974C2.48832 17.409 1.4508 16.0102 0.794151 14.4249C0.137506 12.8396 -0.11799 11.1169 0.0503017 9.4093C0.218593 7.70169 0.805476 6.06196 1.75895 4.63539C2.71242 3.20882 4.00305 2.03944 5.51648 1.23089C7.0299 0.422327 8.7194 -0.000454712 10.4353 3.66993e-07V1.3039Z" fill="white"/>
<path fill-rule="evenodd" clip-rule="evenodd" d="M9.78281 3.91113C9.95572 3.91113 10.1215 3.97982 10.2438 4.10208C10.3661 4.22435 10.4348 4.39018 10.4348 4.56308V11.3564L14.6698 13.7764C14.8156 13.8644 14.9212 14.0058 14.964 14.1706C15.0069 14.3354 14.9836 14.5103 14.8991 14.6581C14.8147 14.8059 14.6757 14.9149 14.512 14.9616C14.3483 15.0083 14.1729 14.9892 14.0231 14.9082L9.45944 12.3004C9.35966 12.2434 9.27671 12.1611 9.21901 12.0617C9.16131 11.9623 9.1309 11.8495 9.13086 11.7345V4.56308C9.13086 4.39018 9.19955 4.22435 9.32181 4.10208C9.44408 3.97982 9.6099 3.91113 9.78281 3.91113Z" fill="white"/>
</svg>
