<svg width="8" height="7" viewBox="0 0 8 7" fill="none" xmlns="http://www.w3.org/2000/svg">
<path d="M4.95982 3.56374L7.40369 1.12556C7.51071 1.01854 7.57084 0.873385 7.57084 0.722034C7.57084 0.570684 7.51071 0.425533 7.40369 0.318512C7.29667 0.211491 7.15152 0.151367 7.00017 0.151367C6.84882 0.151367 6.70367 0.211491 6.59665 0.318512L4.15846 2.76238L1.72028 0.318512C1.61326 0.211491 1.4681 0.151367 1.31675 0.151367C1.1654 0.151367 1.02025 0.211491 0.913232 0.318512C0.806211 0.425533 0.746087 0.570684 0.746087 0.722034C0.746087 0.873385 0.806211 1.01854 0.913232 1.12556L3.3571 3.56374L0.913232 6.00193C0.859962 6.05476 0.817681 6.11762 0.788827 6.18688C0.759973 6.25614 0.745117 6.33042 0.745117 6.40545C0.745117 6.48048 0.759973 6.55476 0.788827 6.62402C0.817681 6.69328 0.859962 6.75614 0.913232 6.80897C0.966066 6.86224 1.02893 6.90453 1.09818 6.93338C1.16744 6.96223 1.24173 6.97709 1.31675 6.97709C1.39178 6.97709 1.46607 6.96223 1.53533 6.93338C1.60458 6.90453 1.66744 6.86224 1.72028 6.80897L4.15846 4.3651L6.59665 6.80897C6.64948 6.86224 6.71234 6.90453 6.7816 6.93338C6.85086 6.96223 6.92514 6.97709 7.00017 6.97709C7.0752 6.97709 7.14948 6.96223 7.21874 6.93338C7.288 6.90453 7.35086 6.86224 7.40369 6.80897C7.45696 6.75614 7.49925 6.69328 7.5281 6.62402C7.55695 6.55476 7.57181 6.48048 7.57181 6.40545C7.57181 6.33042 7.55695 6.25614 7.5281 6.18688C7.49925 6.11762 7.45696 6.05476 7.40369 6.00193L4.95982 3.56374Z" fill="#9A9A9A"/>
</svg>
