<svg width="59" height="84" viewBox="0 0 59 84" fill="none" xmlns="http://www.w3.org/2000/svg">
<path d="M15.2101 29.4307C13.7022 32.5471 12.8359 36.2002 12.8359 40.1071C12.8359 51.523 20.2384 60.7761 29.3705 60.7761C38.5026 60.7761 45.908 51.523 45.908 40.1071C45.908 36.2002 45.0403 32.5471 43.5339 29.4321" stroke="white" stroke-width="2" stroke-miterlimit="10" stroke-linecap="round" stroke-linejoin="round"/>
<path d="M57.0781 83.3307C56.6914 83.3307 56.3204 83.1771 56.0469 82.9036C55.7734 82.6301 55.6198 82.2592 55.6198 81.8724V77.4974C55.6198 71.0064 49.0631 66.1078 43.0037 65.8424C33.9548 73.1516 24.7863 73.1516 15.7373 65.8424C9.67792 66.1078 3.11979 71.0049 3.11979 77.4974V81.8724C3.11979 82.2592 2.96615 82.6301 2.69266 82.9036C2.41917 83.1771 2.04823 83.3307 1.66146 83.3307C1.27468 83.3307 0.90375 83.1771 0.63026 82.9036C0.356769 82.6301 0.203125 82.2592 0.203125 81.8724V77.4974C0.203125 69.7332 7.69896 62.9184 16.2448 62.9141C16.5859 62.9142 16.9162 63.0339 17.1781 63.2524C25.3813 70.0891 33.3583 70.0891 41.5615 63.2524C41.8234 63.0339 42.1537 62.9142 42.4948 62.9141C51.0406 62.9184 58.5365 69.7332 58.5365 77.4974V81.8724C58.5365 82.2592 58.3828 82.6301 58.1093 82.9036C57.8358 83.1771 57.4649 83.3307 57.0781 83.3307Z" fill="white"/>
<path d="M38.1199 38.122C38.1198 38.5051 38.0443 38.8844 37.8976 39.2384C37.7509 39.5923 37.5359 39.9138 37.2649 40.1847C36.994 40.4555 36.6723 40.6703 36.3183 40.8169C35.9643 40.9634 35.5849 41.0387 35.2018 41.0386C34.8187 41.0386 34.4394 40.963 34.0854 40.8163C33.7315 40.6696 33.41 40.4546 33.1391 40.1836C32.8683 39.9127 32.6535 39.591 32.507 39.237C32.3604 38.883 32.2851 38.5036 32.2852 38.1205C32.2853 37.7373 32.3608 37.3579 32.5076 37.0039C32.6543 36.6499 32.8693 36.3282 33.1404 36.0573C33.4114 35.7864 33.7332 35.5715 34.0872 35.425C34.4413 35.2784 34.8208 35.203 35.204 35.2031C35.5872 35.2032 35.9667 35.2788 36.3207 35.4255C36.6747 35.5723 36.9963 35.7873 37.2672 36.0583C37.5381 36.3294 37.753 36.6511 37.8996 37.0052C38.0461 37.3593 38.1215 37.7388 38.1214 38.122" fill="white"/>
<path d="M26.452 38.122C26.4519 38.5051 26.3763 38.8844 26.2296 39.2384C26.0829 39.5923 25.868 39.9138 25.597 40.1847C25.326 40.4555 25.0043 40.6703 24.6503 40.8169C24.2964 40.9634 23.917 41.0387 23.5339 41.0386C23.1507 41.0386 22.7714 40.963 22.4175 40.8163C22.0636 40.6696 21.742 40.4546 21.4712 40.1836C21.2003 39.9127 20.9855 39.591 20.839 39.237C20.6925 38.883 20.6171 38.5036 20.6172 38.1205C20.6174 37.3466 20.925 36.6044 21.4724 36.0573C22.0198 35.5102 22.7621 35.2029 23.536 35.2031C24.31 35.2033 25.0521 35.5109 25.5993 36.0583C26.1464 36.6057 26.4536 37.348 26.4534 38.122" fill="white"/>
<path d="M15.7383 65.8418C15.7383 65.8418 21.0831 81.6764 45.1485 73.2749V81.8426" stroke="white" stroke-width="2" stroke-miterlimit="10" stroke-linecap="round" stroke-linejoin="round"/>
<path d="M18.4336 82.6016C19.6417 82.6016 20.6211 81.6222 20.6211 80.4141C20.6211 79.2059 19.6417 78.2266 18.4336 78.2266C17.2255 78.2266 16.2461 79.2059 16.2461 80.4141C16.2461 81.6222 17.2255 82.6016 18.4336 82.6016Z" fill="white"/>
<path d="M40.3086 82.6016C41.5167 82.6016 42.4961 81.6222 42.4961 80.4141C42.4961 79.2059 41.5167 78.2266 40.3086 78.2266C39.1005 78.2266 38.1211 79.2059 38.1211 80.4141C38.1211 81.6222 39.1005 82.6016 40.3086 82.6016Z" fill="white"/>
<path d="M15.198 29.4307C14.215 31.4823 13.5314 33.6643 13.168 35.91L13.2613 35.385C13.2613 35.385 18.0592 36.2877 25.5944 29.8973" stroke="white" stroke-width="2" stroke-miterlimit="10" stroke-linecap="round" stroke-linejoin="round"/>
<path d="M43.2451 29.4307C44.2291 31.4821 44.9137 33.6641 45.278 35.91L45.1847 35.385C45.1847 35.385 40.3868 36.2877 32.8516 29.8973" stroke="white" stroke-width="2" stroke-miterlimit="10" stroke-linecap="round" stroke-linejoin="round"/>
<path d="M15.3203 20.6514V29.4845" stroke="white" stroke-width="2" stroke-miterlimit="10" stroke-linecap="round" stroke-linejoin="round"/>
<path d="M15.3177 29.4846H43.4213V20.6515C44.9684 20.6515 46.4521 20.0369 47.546 18.943C48.64 17.849 49.2546 16.3653 49.2546 14.8182C49.2546 13.2711 48.64 11.7873 47.546 10.6934C46.4521 9.59941 44.9684 8.98483 43.4213 8.98483C42.1438 8.98483 40.9727 9.40775 40.0117 10.1019C40.5081 9.23805 40.7724 8.26034 40.7788 7.264C40.7788 5.7169 40.1642 4.23317 39.0702 3.13921C37.9762 2.04525 36.4925 1.43066 34.9454 1.43066C32.2913 1.43066 30.0746 3.21566 29.3688 5.64233C28.6629 3.21566 26.4477 1.43212 23.7935 1.43212C22.2464 1.43212 20.7627 2.0467 19.6688 3.14067C18.5748 4.23463 17.9602 5.71836 17.9602 7.26546C17.9602 8.30087 18.2519 9.259 18.7258 10.1019C17.7368 9.37801 16.5434 8.98686 15.3177 8.98483C13.7706 8.98483 12.2869 9.59941 11.1929 10.6934C10.099 11.7873 9.48438 13.2711 9.48438 14.8182C9.48438 16.3653 10.099 17.849 11.1929 18.943C12.2869 20.0369 13.7706 20.6515 15.3177 20.6515" stroke="white" stroke-width="2" stroke-miterlimit="10" stroke-linecap="round" stroke-linejoin="round"/>
</svg>
