<svg width="71" height="95" viewBox="0 0 71 95" fill="none" xmlns="http://www.w3.org/2000/svg">
<g clip-path="url(#clip0)">
<path d="M21.5242 94.985C21.1386 94.7124 21.0243 94.368 21.0243 93.9519C21.0243 92.7897 21.0243 91.6131 21.0243 90.4509C21.0243 90.3218 21.0243 90.1926 21.0243 90.0779C20.9672 90.0348 20.9529 90.0061 20.9386 90.0061C20.8387 89.9631 20.7387 89.92 20.6387 89.877C18.4249 89.0161 16.3396 87.9113 14.3685 86.6056C12.2975 85.2281 10.4122 83.6211 8.71253 81.8133C6.79863 79.7758 5.1561 77.5375 3.79923 75.0839C1.9139 71.6403 0.628445 67.9959 0.085697 64.0931C0.0714142 64.007 0.0285657 63.9353 0 63.8635C0 63.6627 0 63.4761 0 63.2753C0.085697 63.1605 0.171394 63.0457 0.257091 62.9309C0.385636 62.7587 0.55703 62.687 0.75699 62.687C0.95695 62.687 1.14263 62.687 1.34259 62.687C6.68437 62.687 12.0404 62.687 17.3822 62.687C17.4965 62.687 17.625 62.687 17.7678 62.687C18.0963 61.697 18.5391 60.7787 19.1676 59.9608C19.7817 59.1573 20.5101 58.4686 21.3243 57.9234C20.3102 56.9046 19.2961 55.8859 18.282 54.8672C17.3965 57.1916 15.7682 58.8273 13.3259 59.5734C11.8262 60.0326 10.3122 59.9895 8.82679 59.473C5.85596 58.4542 3.81352 55.6276 3.79923 52.514C3.78495 50.5914 4.39911 48.8983 5.64172 47.4491C6.89861 46.0143 8.49829 45.1964 10.3836 44.9382C10.4122 44.809 10.455 44.7229 10.4693 44.6225C10.6264 43.8333 10.9978 43.159 11.6262 42.6424C12.9117 41.5663 14.1971 40.4902 15.4683 39.4141C16.9252 38.1945 18.3677 36.9749 19.8246 35.7696C21.2957 34.5356 22.7668 33.316 24.238 32.0821C25.7519 30.8194 27.2802 29.5568 28.7942 28.2798C29.4941 27.6915 30.2796 27.3615 31.1794 27.3615C32.0507 27.3615 32.8505 27.6628 33.4932 28.2654C33.936 28.6672 34.3359 29.0976 34.7644 29.5281C35.2357 30.0016 35.7071 30.4751 36.207 30.9916C41.0774 25.8406 45.9336 20.7182 50.7898 15.5816C50.7898 15.5098 50.7898 15.4524 50.7898 15.3807C50.7469 15.0507 50.8612 14.7924 51.0897 14.5485C51.9324 13.6589 52.7751 12.7693 53.6178 11.8797C56.4172 8.90961 59.2309 5.95386 62.0303 2.98377C62.5017 2.48158 62.9873 1.97939 63.4586 1.4772C64.1299 0.731086 64.9583 0.257593 65.9438 0.071065C65.9867 0.0567167 66.0295 0.0280202 66.0724 0.0136719C66.4866 0.0136719 66.9008 0.0136719 67.315 0.0136719C67.4007 0.0423684 67.4721 0.071065 67.5578 0.0854133C69.0575 0.415424 70.1144 1.29067 70.7143 2.71115C70.8571 3.04116 70.9286 3.39987 71.0285 3.74423C71.0285 4.13163 71.0285 4.51903 71.0285 4.90644C71 4.96383 70.9714 5.02122 70.9714 5.06427C70.8 6.03995 70.3429 6.84346 69.6288 7.51783C67.7435 9.31136 65.8724 11.1049 63.9871 12.8984C62.216 14.5915 60.4592 16.2703 58.7024 17.9634C57.9883 18.6377 57.2742 19.3121 56.56 20.0008C56.3315 20.2161 56.0744 20.3739 55.7459 20.3165C55.5602 20.2878 55.446 20.3739 55.3317 20.4887C54.8746 20.9335 54.4033 21.3783 53.932 21.8231C51.661 24.004 49.39 26.1706 47.1191 28.3515C44.8624 30.5038 42.6057 32.656 40.349 34.8226C40.3204 34.8513 40.2633 34.88 40.1919 34.9374C40.3204 35.0809 40.4204 35.1957 40.5204 35.2961C41.2631 36.0422 41.9915 36.774 42.7342 37.5201C43.6626 38.4671 43.9483 39.6006 43.6769 40.8776C43.5769 41.3654 43.377 41.8102 43.0627 42.1833C42.1486 43.3025 41.2203 44.4216 40.3062 45.5264C39.135 46.9469 37.9495 48.3674 36.7783 49.7879C36.7354 49.8309 36.7069 49.8883 36.6355 49.9744C38.078 50.5196 39.3206 51.3518 40.3204 52.4997C41.3345 53.6619 41.9772 55.0107 42.3058 56.5029C45.9336 57.1485 48.3617 59.2004 49.6186 62.687C49.7614 62.687 49.9042 62.687 50.047 62.687C54.7318 62.687 59.4309 62.687 64.1156 62.687C64.3442 62.687 64.5727 62.6726 64.7726 62.8305C65.0869 63.0744 65.1869 63.3901 65.1154 63.7631C64.9726 64.5523 64.8583 65.3414 64.687 66.1306C64.2299 68.2828 63.5586 70.3633 62.6731 72.3721C61.459 75.17 59.8736 77.7383 57.9455 80.0915C55.4602 83.1189 52.5323 85.6299 49.1615 87.61C47.619 88.5139 46.0193 89.2887 44.3625 89.9344C44.2911 89.9631 44.2054 90.0061 44.1054 90.0492C44.1054 90.1783 44.1054 90.3074 44.1054 90.4366C44.1054 91.5557 44.1054 92.6749 44.1054 93.7941C44.1054 94.2676 44.0483 94.698 43.5198 94.985C43.8197 94.985 44.0197 94.985 44.2339 94.985H21.5242ZM1.85677 64.3944C1.87105 64.4805 1.87105 64.5236 1.87105 64.5666C2.11386 65.9871 2.45665 67.3789 2.89942 68.742C3.99919 72.1569 5.64172 75.2848 7.81271 78.1257C9.45524 80.278 11.3549 82.2007 13.4973 83.8507C14.24 84.4246 15.0113 84.9986 15.7968 85.5151C16.5538 86.003 17.3679 86.4334 18.1678 86.8639C19.3247 87.4808 20.5244 88.0117 21.7528 88.4565C21.9241 88.5139 22.1098 88.557 22.2812 88.557C29.1227 88.557 35.9499 88.557 42.7914 88.557C42.977 88.557 43.177 88.5283 43.3627 88.4565C44.9481 87.8682 46.4763 87.1652 47.9332 86.3186C50.904 84.6112 53.5321 82.4876 55.803 79.9193C57.5455 77.9536 59.0167 75.8013 60.2307 73.4769C61.5162 70.9803 62.4588 68.3546 63.0301 65.5997C63.1158 65.2123 63.1873 64.8249 63.2587 64.3944C42.7771 64.3944 22.3241 64.3944 1.85677 64.3944ZM34.7073 49.544C34.8787 49.3574 35.0358 49.1566 35.2072 48.97C36.2784 47.6643 37.3496 46.3586 38.4351 45.0673C39.492 43.7903 40.5632 42.5133 41.6202 41.2219C42.2629 40.4328 42.2058 39.4428 41.4916 38.711C38.4922 35.6979 35.4928 32.6847 32.4934 29.6716C32.3078 29.4851 32.0507 29.3129 31.8079 29.2124C31.0794 28.9398 30.4367 29.1263 29.8511 29.6285C28.3371 30.9199 26.8089 32.1825 25.2806 33.4739C23.3096 35.1239 21.3243 36.774 19.3532 38.424C17.6679 39.8302 15.9825 41.2363 14.2971 42.6568C13.7972 43.0729 13.283 43.489 12.7831 43.9194C12.4689 44.192 12.2261 44.5077 12.1547 44.9812C13.6258 45.1821 14.9113 45.756 16.0396 46.6743C16.0682 46.3443 16.0682 46.0573 16.111 45.7704C16.211 45.2108 16.5824 44.8234 16.968 44.4503C19.239 42.1833 21.4957 39.9019 23.7524 37.6349C24.9235 36.4583 26.0805 35.2961 27.2516 34.1195C27.7944 33.5743 28.4657 33.3734 29.2227 33.5169C30.0511 33.6748 30.6081 34.1913 30.8509 35.0091C31.0937 35.7983 30.9223 36.5301 30.351 37.147C30.0654 37.4483 29.7511 37.721 29.4655 38.0079C28.5799 38.9119 27.6944 39.8158 26.8089 40.7054C24.4665 43.0585 22.1241 45.3973 19.796 47.7648C19.4389 48.1235 19.0247 48.353 18.5248 48.4104C18.2106 48.4535 17.8821 48.4248 17.5536 48.4248C17.5822 48.4822 17.6107 48.5396 17.6393 48.597C18.3534 49.8022 18.6819 51.1079 18.6819 52.4997C18.6819 52.7149 18.7819 52.8297 18.9105 52.9732C19.8674 53.9345 20.8387 54.8959 21.7956 55.8572C22.1955 56.259 22.5954 56.6607 22.9668 57.0338C23.6952 56.8472 24.3665 56.6751 25.0664 56.5029C25.1806 56.0868 25.3092 55.6563 25.4377 55.2115C25.2521 55.2115 25.0807 55.2115 24.9093 55.2115C23.9952 55.1828 23.3382 54.7524 22.9668 53.9202C22.5954 53.088 22.7526 52.2988 23.3239 51.6101C23.4524 51.4666 23.5952 51.3231 23.7238 51.194C26.5804 48.3243 29.4369 45.4547 32.2792 42.5994C32.8505 42.0255 33.4218 41.4372 34.0074 40.8776C35.0501 39.8732 36.7354 40.1458 37.421 41.4085C37.8924 42.2694 37.721 43.2881 36.9925 44.0199C35.4214 45.5982 33.8503 47.1765 32.2935 48.7405C31.9507 49.0848 31.5936 49.4435 31.1937 49.8453C32.4077 49.5009 33.5361 49.3861 34.7073 49.544ZM47.7332 62.6583C47.6618 62.4861 47.619 62.3713 47.5761 62.2709C46.3335 59.803 44.3482 58.4255 41.5916 58.1816C41.0203 58.1242 40.7489 57.8803 40.6632 57.3064C40.449 55.8142 39.8348 54.5085 38.8065 53.4323C37.0068 51.5671 34.8073 50.864 32.2792 51.3518C29.4941 51.8684 27.3231 54.0924 26.7517 56.9046C26.6946 57.1485 26.6375 57.4068 26.5804 57.6507C26.5089 57.9234 26.3375 58.0955 26.0519 58.1386C25.7091 58.1816 25.352 58.2247 25.0092 58.2964C22.5954 58.7699 20.8529 60.1043 19.7674 62.3283C19.7103 62.4287 19.6817 62.5435 19.6389 62.7013C24.0523 62.7013 28.4086 62.7013 32.8219 62.7013C32.8219 62.5578 32.8219 62.4287 32.8219 62.2996C32.8219 61.2952 32.8219 60.3052 32.8219 59.3008C32.8219 59.186 32.8219 59.0856 32.8362 58.9708C32.8934 58.5403 33.2362 58.2247 33.6361 58.2103C34.0788 58.196 34.4216 58.4686 34.5073 58.9277C34.5359 59.0856 34.5359 59.2434 34.5359 59.4012C34.5359 60.3769 34.5359 61.3526 34.5359 62.3283C34.5359 62.4574 34.5502 62.5865 34.5645 62.7157C38.9636 62.6583 43.3198 62.6583 47.7332 62.6583ZM55.8887 18.2216C55.9601 18.1643 56.0601 18.0925 56.1601 17.9921C58.1597 16.0838 60.145 14.1898 62.1446 12.2815C63.5015 10.9758 64.8726 9.68442 66.2295 8.37872C67.0008 7.64696 67.7863 6.9152 68.5433 6.15474C69.8716 4.82035 69.4146 2.58202 67.7006 1.8933C66.7008 1.49155 65.6153 1.70677 64.8583 2.49593C63.9585 3.42856 63.0873 4.3612 62.2017 5.30819C60.7306 6.82911 59.2738 8.36438 57.8312 9.89964C56.3172 11.5066 54.7889 13.0993 53.2607 14.7063C53.1179 14.8641 52.9607 15.022 52.8322 15.1655C53.8606 16.1985 54.8604 17.2029 55.8887 18.2216ZM16.968 52.3706C17.0109 49.257 14.3971 46.6026 11.1977 46.6169C8.25548 46.6313 5.48461 48.9844 5.48461 52.3993C5.48461 55.6276 8.0698 58.1529 11.2263 58.1529C14.5256 58.1673 17.0251 55.4124 16.968 52.3706ZM22.7668 93.2632C23.3381 93.3349 42.0629 93.3206 42.32 93.2488C42.3914 92.761 42.3629 90.5944 42.2915 90.3505C41.8201 90.2644 23.0525 90.2931 22.7811 90.3792C22.7668 91.3405 22.7668 92.2875 22.7668 93.2632ZM38.9779 33.7178C44.0768 28.8394 49.1615 23.9897 54.2176 19.1543C53.4464 18.3651 52.6894 17.6047 51.9324 16.8442C51.3896 17.4038 50.8183 17.9777 50.2756 18.5517C49.2615 19.6134 48.2617 20.7039 47.2619 21.7657C45.4908 23.6453 43.7198 25.5106 41.9487 27.3759C40.8061 28.5811 39.6777 29.772 38.5351 30.9773C38.1637 31.3647 37.7924 31.7664 37.4496 32.1395C37.9638 32.6704 38.4494 33.1869 38.9779 33.7178ZM25.0092 53.4897C25.0521 53.4754 25.1521 53.4323 25.2378 53.3749C25.3377 53.2889 25.4377 53.1884 25.5234 53.1023C28.9227 49.7018 32.3078 46.2869 35.6928 42.8863C35.7499 42.829 35.8213 42.7716 35.8642 42.6998C36.0213 42.4846 36.007 42.2694 35.8356 42.0972C35.6785 41.925 35.4357 41.9107 35.2357 42.0541C35.1501 42.1115 35.0644 42.1976 34.9929 42.2694C31.5793 45.6986 28.1515 49.1422 24.7379 52.5714C24.6522 52.6575 24.5665 52.7436 24.5093 52.8584C24.3951 53.1454 24.6236 53.4897 25.0092 53.4897ZM29.237 35.7122C29.2227 35.4396 29.1513 35.2961 28.9799 35.21C28.8085 35.1239 28.6371 35.1526 28.5085 35.2674C28.3371 35.4109 28.18 35.5831 28.0086 35.7553C24.7807 38.998 21.5528 42.2407 18.3106 45.4834C18.1392 45.6556 17.9678 45.8277 17.825 46.0286C17.6964 46.2008 17.725 46.4017 17.8678 46.5595C17.9964 46.6886 18.1963 46.746 18.3677 46.6456C18.4963 46.5739 18.6248 46.5021 18.7248 46.4017C19.0533 46.0717 19.3675 45.7417 19.6817 45.4116C22.1955 42.8864 24.7236 40.3467 27.2374 37.8214C27.823 37.2331 28.4086 36.6592 28.9799 36.0566C29.1084 35.9418 29.1941 35.7983 29.237 35.7122Z" fill="white"/>
<path d="M44.8626 46.6024C46.8193 46.5881 48.6047 47.0759 50.3186 47.8794C52.361 48.8264 54.1607 50.1321 55.7889 51.6961C56.4602 52.3274 57.0744 53.0161 57.7028 53.6905C57.7314 53.7192 57.7743 53.7622 57.8028 53.8053C58.2027 54.2931 58.1599 54.7666 57.7028 55.1827C57.103 55.7136 56.5031 56.2445 55.9032 56.7753C55.5176 57.1197 55.1462 57.4497 54.7606 57.7941C54.6749 57.8658 54.6035 57.9376 54.5035 57.995C54.0893 58.2819 53.6751 58.2532 53.3323 57.8802C53.0466 57.5788 52.7753 57.2775 52.4896 56.9762C50.3472 54.7092 47.9191 52.8152 45.1625 51.3374C43.6199 50.5052 42.0203 49.8164 40.3206 49.3716C39.7921 49.2282 39.5493 48.8408 39.635 48.3386C39.6922 48.0516 39.8636 47.8651 40.1206 47.7359C41.6346 47.0042 43.22 46.5737 44.8626 46.6024ZM56.0175 54.3648C55.9175 54.2501 55.8461 54.164 55.7604 54.0779C55.2176 53.547 54.6749 53.0018 54.1036 52.4852C52.8181 51.323 51.4184 50.333 49.8616 49.5582C48.1333 48.7116 46.3337 48.2094 44.3912 48.3099C44.0056 48.3242 43.6057 48.3673 43.1486 48.4964C47.3906 50.2469 50.947 52.8152 54.0321 56.1153C54.7177 55.527 55.3605 54.9531 56.0175 54.3648Z" fill="white"/>
<path d="M51.5896 45.0252C49.59 45.0252 48.0046 43.4038 48.0046 41.3951C48.0046 39.4007 49.6043 37.7793 51.6039 37.7793C53.6178 37.7793 55.2318 39.415 55.2175 41.4381C55.2032 43.4469 53.5892 45.0395 51.5896 45.0252ZM51.6039 43.3321C52.6037 43.3177 53.4893 42.586 53.5036 41.3951C53.5178 40.3763 52.6323 39.4867 51.6325 39.5011C50.4327 39.5154 49.69 40.4624 49.69 41.4381C49.7043 42.4712 50.5756 43.3321 51.6039 43.3321Z" fill="white"/>
<path d="M32.4078 67.3073C41.0203 67.3073 49.6471 67.3073 58.2597 67.3073C58.5311 67.3073 58.7882 67.3216 59.0453 67.379C59.1881 67.4077 59.3166 67.5225 59.4309 67.6373C59.7165 67.9243 59.6166 68.283 59.5023 68.5986C59.388 68.8856 59.1024 69.0004 58.8167 69.0148C58.4739 69.0291 58.1169 68.9861 57.7741 69.0004C57.4884 69.0004 57.2028 69.0434 56.9028 69.0434C43.0056 69.0434 29.1227 69.0434 15.2255 69.0434C12.3689 69.0434 9.49808 69.0434 6.64151 69.0434C6.49868 69.0434 6.35585 69.0434 6.21302 69.0148C5.75597 68.943 5.44175 68.57 5.45603 68.1252C5.47032 67.7377 5.78454 67.3934 6.21302 67.3216C6.38442 67.293 6.55581 67.3073 6.72721 67.3073C15.2969 67.3073 23.8523 67.3073 32.4078 67.3073Z" fill="white"/>
<path d="M21.4384 51.8254C20.6671 51.7823 19.9958 51.3806 19.6102 50.5484C19.2389 49.7449 19.3388 48.9701 19.8959 48.2957C20.3101 47.8078 20.7814 47.363 21.2385 46.9039C22.3097 45.8134 23.3952 44.7373 24.4807 43.6468C26.1803 41.9394 27.8943 40.2176 29.5939 38.5101C29.9081 38.1945 30.2224 37.8645 30.5366 37.5488C30.8937 37.2045 31.2936 36.9605 31.7935 36.8744C32.6647 36.7166 33.5645 37.1327 34.0216 37.9075C34.4644 38.668 34.393 39.7011 33.8359 40.3754C33.636 40.6193 33.4074 40.8346 33.1789 41.0641C31.7506 42.499 30.3223 43.9481 28.8941 45.383C27.2801 47.0043 25.6519 48.6257 24.0379 50.2614C23.7237 50.5771 23.4237 50.8927 23.1095 51.194C22.6953 51.5814 22.1811 51.8254 21.4384 51.8254ZM32.5933 39.1128C32.5933 38.668 32.2362 38.4528 31.9363 38.6249C31.8363 38.6823 31.7506 38.7684 31.6649 38.8545C31.1793 39.328 30.708 39.8158 30.2224 40.3037C28.7369 41.7959 27.2658 43.2738 25.7804 44.766C24.4664 46.086 23.1381 47.4061 21.8241 48.7405C21.6098 48.9557 21.3956 49.1709 21.2099 49.4005C21.0671 49.587 21.1099 49.8023 21.267 49.9601C21.4241 50.1179 21.6384 50.1466 21.8241 50.0175C21.9097 49.9601 21.9669 49.8883 22.0383 49.8309C22.7239 49.1422 23.4094 48.4535 24.095 47.7648C26.0089 45.8421 27.9085 43.9195 29.8224 42.0111C30.6651 41.1646 31.5221 40.3037 32.3648 39.4571C32.4791 39.3423 32.5505 39.1845 32.5933 39.1128Z" fill="white"/>
<path d="M28.6658 57.9817C28.7372 57.4651 28.8657 56.9773 29.08 56.4894C29.2942 55.9873 29.6084 55.5568 29.9512 55.1551C30.2512 54.8107 30.5654 54.4663 30.9653 54.2368C31.1796 54.1076 31.3795 53.9355 31.5938 53.8207C31.908 53.6628 32.3508 53.7633 32.565 53.9928C32.8078 54.2511 32.9078 54.6529 32.7078 54.9398C32.565 55.1551 32.3508 55.3272 32.1365 55.4707C31.5509 55.8725 31.0367 56.3603 30.7225 57.006C30.5511 57.379 30.4368 57.7808 30.3226 58.1682C30.2226 58.5412 30.0655 58.8282 29.6799 58.943C29.1228 59.1152 28.5944 58.6847 28.6372 58.0964C28.6658 58.0534 28.6658 58.0247 28.6658 57.9817Z" fill="white"/>
<path d="M11.2123 56.001C9.26979 56.0297 7.58442 54.3653 7.62726 52.3278C7.65583 50.3621 9.26979 48.7407 11.2408 48.7407C13.2404 48.7407 14.8687 50.3908 14.8544 52.3995C14.8258 54.3796 13.2119 56.044 11.2123 56.001ZM11.2551 50.4912C10.2696 50.4338 9.3412 51.2804 9.32692 52.3565C9.31264 53.4183 10.1553 54.2792 11.2123 54.3079C12.0549 54.3222 13.0976 53.7052 13.1404 52.3995C13.169 51.3521 12.2977 50.4912 11.2551 50.4912Z" fill="white"/>
</g>
<defs>
<clipPath id="clip0">
<rect width="71" height="95" fill="white"/>
</clipPath>
</defs>
</svg>
