<svg width="33" height="33" viewBox="0 0 33 33" fill="none" xmlns="http://www.w3.org/2000/svg">
<path d="M12.0428 9.581H20.8753V6.80487C21.3616 6.80487 21.8279 6.61172 22.1717 6.2679C22.5155 5.92408 22.7087 5.45777 22.7087 4.97154C22.7087 4.48531 22.5155 4.01899 22.1717 3.67518C21.8279 3.33136 21.3616 3.1382 20.8753 3.1382C20.4738 3.1382 20.1058 3.27112 19.8038 3.48929C19.9598 3.21779 20.0429 2.91051 20.0448 2.59737C20.0448 2.11114 19.8517 1.64483 19.5079 1.30101C19.1641 0.957192 18.6977 0.764038 18.2115 0.764038C17.3773 0.764038 16.6807 1.32504 16.4588 2.0877C16.237 1.32504 15.5408 0.764496 14.7066 0.764496C14.2204 0.764496 13.7541 0.957651 13.4103 1.30147C13.0665 1.64528 12.8733 2.1116 12.8733 2.59783C12.8733 2.92325 12.965 3.22437 13.1139 3.48929C12.8031 3.26178 12.428 3.13884 12.0428 3.1382C11.5566 3.1382 11.0903 3.33136 10.7464 3.67518C10.4026 4.01899 10.2095 4.48531 10.2095 4.97154C10.2095 5.45777 10.4026 5.92408 10.7464 6.2679C11.0903 6.61172 11.5566 6.80487 12.0428 6.80487" fill="white"/>
<path d="M25.1383 26.4871C25.1383 26.4871 26.055 20.6195 20.555 20.6195C19.092 21.5948 17.8389 22.269 16.43 22.2658H16.4873C15.0784 22.269 13.8253 21.5948 12.3623 20.6195C6.8623 20.6195 7.77897 26.4871 7.77897 26.4871" fill="white"/>
<path d="M21.8939 3.24546C21.4416 2.93654 20.0336 3.41871 20.0336 3.41871C20.7201 1.69629 19.1471 0.835083 19.1471 0.835083C19.1471 0.835083 19.5138 2.54421 18.4289 3.46958C18.3125 3.56904 18.2305 3.7015 18.2305 3.85458V9.49346H18.522L18.6654 9.50996H21.1051V6.73429C21.5213 6.73444 21.9251 6.59302 22.2502 6.33328C22.5753 6.07354 22.8023 5.71092 22.894 5.30503C22.9858 4.89914 22.9367 4.47412 22.7548 4.09983C22.573 3.72554 22.2692 3.42424 21.8935 3.24546L21.8857 3.42742" fill="#D0CFCE"/>
<path d="M20.2828 20.6892C18.8299 21.6576 16.123 23.5638 12.3335 20.6892C12.51 23.2261 16.767 25.5654 21.1848 23.3906L21.3773 26.4784H25.1265C25.1265 26.4784 25.7828 20.6887 20.2828 20.6887V20.6892Z" fill="#D0CFCE"/>
<path d="M20.8198 9.56409C21.129 10.2088 21.3442 10.8946 21.4587 11.6005L21.4293 11.4355C21.4293 11.4355 19.9214 11.7192 17.5532 9.71075" fill="#FCEA2B"/>
<path d="M12.0047 9.56409C11.6958 10.2089 11.4809 10.8947 11.3667 11.6005L11.396 11.4355C11.396 11.4355 12.9039 11.7192 15.2722 9.71075" fill="#FCEA2B"/>
<path d="M11.4089 11.38C11.3108 11.8875 11.2617 12.4032 11.2622 12.92C11.2622 16.5074 13.5887 19.4155 16.4588 19.4155C19.3289 19.4155 21.6563 16.5074 21.6563 12.9195C21.6563 12.442 21.615 11.9768 21.5371 11.5285C19.9467 11.424 18.6542 10.6943 17.5542 9.56409H15.5421C14.356 10.5083 13.0011 11.1536 11.4084 11.38H11.4089Z" fill="#DEBB90"/>
<path d="M12.0084 9.56409C11.5345 10.5435 11.2622 11.6917 11.2622 12.9195C11.2622 16.5074 13.5887 19.4155 16.4588 19.4155C19.3289 19.4155 21.6563 16.5074 21.6563 12.9195C21.6563 11.6917 21.3836 10.5435 20.9101 9.56454" stroke="black" stroke-miterlimit="10" stroke-linecap="round" stroke-linejoin="round"/>
<path d="M25.167 26.5041C25.0454 26.5041 24.9289 26.4558 24.8429 26.3698C24.7569 26.2839 24.7087 26.1673 24.7087 26.0457V24.6707C24.7087 22.6307 22.648 21.0912 20.7436 21.0077C17.8997 23.3049 15.0181 23.3049 12.1742 21.0077C10.2698 21.0912 8.20866 22.6302 8.20866 24.6707V26.0457C8.20866 26.1673 8.16037 26.2839 8.07442 26.3698C7.98846 26.4558 7.87188 26.5041 7.75033 26.5041C7.62877 26.5041 7.51219 26.4558 7.42623 26.3698C7.34028 26.2839 7.29199 26.1673 7.29199 26.0457V24.6707C7.29199 22.2306 9.64783 20.0888 12.3337 20.0874C12.4409 20.0875 12.5447 20.1251 12.627 20.1937C15.2051 22.3424 17.7122 22.3424 20.2903 20.1937C20.3727 20.1251 20.4765 20.0875 20.5837 20.0874C23.2695 20.0888 25.6253 22.2306 25.6253 24.6707V26.0457C25.6253 26.1673 25.577 26.2839 25.4911 26.3698C25.4051 26.4558 25.2885 26.5041 25.167 26.5041Z" fill="black"/>
<path d="M19.2088 12.2958C19.2088 12.4162 19.185 12.5354 19.1389 12.6466C19.0928 12.7579 19.0252 12.8589 18.9401 12.944C18.8549 13.0292 18.7538 13.0967 18.6426 13.1427C18.5313 13.1888 18.4121 13.2125 18.2917 13.2124C18.1713 13.2124 18.052 13.1887 17.9408 13.1426C17.8296 13.0965 17.7285 13.0289 17.6434 12.9437C17.5583 12.8586 17.4908 12.7575 17.4447 12.6462C17.3987 12.535 17.375 12.4157 17.375 12.2953C17.375 12.1749 17.3988 12.0556 17.4449 11.9444C17.491 11.8331 17.5586 11.732 17.6438 11.6469C17.729 11.5617 17.8301 11.4942 17.9414 11.4481C18.0526 11.4021 18.1719 11.3784 18.2924 11.3784C18.4128 11.3784 18.532 11.4022 18.6433 11.4483C18.7546 11.4944 18.8557 11.562 18.9408 11.6472C19.0259 11.7324 19.0935 11.8335 19.1395 11.9448C19.1856 12.0561 19.2093 12.1753 19.2092 12.2958" fill="black"/>
<path d="M15.5418 12.2958C15.5418 12.4162 15.518 12.5354 15.4719 12.6466C15.4258 12.7579 15.3582 12.8589 15.2731 12.944C15.1879 13.0292 15.0868 13.0967 14.9756 13.1427C14.8643 13.1888 14.7451 13.2125 14.6247 13.2124C14.5043 13.2124 14.385 13.1887 14.2738 13.1426C14.1626 13.0965 14.0615 13.0289 13.9764 12.9437C13.8913 12.8586 13.8238 12.7575 13.7777 12.6462C13.7317 12.535 13.708 12.4157 13.708 12.2953C13.7081 12.0521 13.8048 11.8188 13.9768 11.6469C14.1488 11.4749 14.3821 11.3784 14.6254 11.3784C14.8686 11.3785 15.1018 11.4752 15.2738 11.6472C15.4458 11.8192 15.5423 12.0525 15.5423 12.2958" fill="black"/>
<path d="M16.4584 16.8805C15.9309 16.8805 15.4029 16.7494 14.8785 16.4872C14.8247 16.4603 14.7766 16.423 14.7372 16.3775C14.6977 16.332 14.6676 16.2792 14.6485 16.2221C14.6295 16.1649 14.6219 16.1046 14.6262 16.0445C14.6304 15.9844 14.6465 15.9258 14.6734 15.8719C14.7004 15.8181 14.7376 15.77 14.7831 15.7306C14.8286 15.6911 14.8815 15.661 14.9386 15.6419C14.9957 15.6229 15.0561 15.6153 15.1161 15.6196C15.1762 15.6238 15.2349 15.6399 15.2887 15.6668C16.0757 16.061 16.8411 16.061 17.6285 15.6668C17.7373 15.6124 17.8633 15.6035 17.9787 15.6419C18.0941 15.6804 18.1894 15.7631 18.2438 15.8719C18.2982 15.9807 18.3072 16.1067 18.2687 16.2221C18.2303 16.3375 18.1475 16.4328 18.0387 16.4872C17.5144 16.7494 16.9864 16.8805 16.4584 16.8805Z" fill="black"/>
<path d="M12.1743 21.0077C12.1743 21.0077 13.8541 25.9843 21.4175 23.3438V26.0365" stroke="black" stroke-miterlimit="10" stroke-linecap="round" stroke-linejoin="round"/>
<path d="M13.021 26.2749C13.4007 26.2749 13.7085 25.9671 13.7085 25.5874C13.7085 25.2077 13.4007 24.8999 13.021 24.8999C12.6413 24.8999 12.3335 25.2077 12.3335 25.5874C12.3335 25.9671 12.6413 26.2749 13.021 26.2749Z" fill="black"/>
<path d="M19.896 26.2749C20.2757 26.2749 20.5835 25.9671 20.5835 25.5874C20.5835 25.2077 20.2757 24.8999 19.896 24.8999C19.5163 24.8999 19.2085 25.2077 19.2085 25.5874C19.2085 25.9671 19.5163 26.2749 19.896 26.2749Z" fill="black"/>
<path d="M12.0047 9.56409C11.6958 10.2089 11.4809 10.8947 11.3667 11.6005L11.396 11.4355C11.396 11.4355 12.9039 11.7192 15.2722 9.71075" stroke="black" stroke-miterlimit="10" stroke-linecap="round" stroke-linejoin="round"/>
<path d="M20.8198 9.56409C21.129 10.2088 21.3442 10.8946 21.4587 11.6005L21.4293 11.4355C21.4293 11.4355 19.9214 11.7192 17.5532 9.71075" stroke="black" stroke-miterlimit="10" stroke-linecap="round" stroke-linejoin="round"/>
<path d="M12.0425 6.80481V9.58093" stroke="black" stroke-miterlimit="10" stroke-linecap="round" stroke-linejoin="round"/>
<path d="M12.0423 9.581H20.8749V6.80487C21.3611 6.80487 21.8274 6.61172 22.1712 6.2679C22.515 5.92408 22.7082 5.45777 22.7082 4.97154C22.7082 4.48531 22.515 4.01899 22.1712 3.67518C21.8274 3.33136 21.3611 3.1382 20.8749 3.1382C20.4734 3.1382 20.1053 3.27112 19.8033 3.48929C19.9593 3.21779 20.0424 2.91051 20.0444 2.59737C20.0444 2.11114 19.8512 1.64483 19.5074 1.30101C19.1636 0.957192 18.6973 0.764038 18.211 0.764038C17.3769 0.764038 16.6802 1.32504 16.4584 2.0877C16.2365 1.32504 15.5403 0.764496 14.7062 0.764496C14.2199 0.764496 13.7536 0.957651 13.4098 1.30147C13.066 1.64528 12.8728 2.1116 12.8728 2.59783C12.8728 2.92325 12.9645 3.22437 13.1134 3.48929C12.8026 3.26178 12.4275 3.13884 12.0423 3.1382C11.5561 3.1382 11.0898 3.33136 10.746 3.67518C10.4021 4.01899 10.209 4.48531 10.209 4.97154C10.209 5.45777 10.4021 5.92408 10.746 6.2679C11.0898 6.61172 11.5561 6.80487 12.0423 6.80487" stroke="black" stroke-miterlimit="10" stroke-linecap="round" stroke-linejoin="round"/>
</svg>
