<svg width="30" height="32" viewBox="0 0 30 32" fill="none" xmlns="http://www.w3.org/2000/svg">
<path d="M17.6 2.55843H16.55C16.2768 1.80854 15.7796 1.16083 15.1257 0.70316C14.4719 0.245486 13.6931 0 12.895 0C12.0969 0 11.3181 0.245486 10.6643 0.70316C10.0104 1.16083 9.51319 1.80854 9.24 2.55843H8.4C7.76429 2.56106 7.15537 2.81477 6.70585 3.26428C6.25633 3.7138 6.00263 4.32272 6 4.95843V8.55843H20V4.95843C19.9974 4.32272 19.7437 3.7138 19.2941 3.26428C18.8446 2.81477 18.2357 2.56106 17.6 2.55843ZM18 6.55843H8V4.80843C8 4.74213 8.02634 4.67854 8.07322 4.63165C8.12011 4.58477 8.1837 4.55843 8.25 4.55843H10.94L11.06 3.44843C11.0813 3.26897 11.1415 3.09632 11.2365 2.94258C11.3315 2.78885 11.459 2.65774 11.61 2.55843C11.8784 2.35836 12.1927 2.22885 12.5241 2.18178C12.8555 2.13471 13.1935 2.17158 13.5069 2.28901C13.8204 2.40644 14.0994 2.60067 14.3183 2.8539C14.5373 3.10714 14.6891 3.41127 14.76 3.73843L14.85 4.57843H17.75C17.8163 4.57843 17.8799 4.60477 17.9268 4.65165C17.9737 4.69854 18 4.76213 18 4.82843V6.55843Z" fill="black"/>
<path d="M28.25 16.6183H16.33L19.17 13.7883C19.2632 13.6951 19.3372 13.5844 19.3877 13.4626C19.4381 13.3407 19.4641 13.2102 19.4641 13.0783C19.4641 12.9465 19.4381 12.8159 19.3877 12.6941C19.3372 12.5722 19.2632 12.4615 19.17 12.3683C19.0768 12.2751 18.9661 12.2011 18.8442 12.1507C18.7224 12.1002 18.5919 12.0742 18.46 12.0742C18.3281 12.0742 18.1976 12.1002 18.0758 12.1507C17.9539 12.2011 17.8432 12.2751 17.75 12.3683L12.5 17.6183L17.75 22.8683C17.8434 22.961 17.9543 23.0343 18.0761 23.0841C18.1979 23.1338 18.3284 23.1591 18.46 23.1583C18.6566 23.1575 18.8486 23.0988 19.0119 22.9895C19.1753 22.8801 19.3029 22.7251 19.3786 22.5437C19.4544 22.3623 19.475 22.1626 19.4379 21.9696C19.4008 21.7765 19.3076 21.5987 19.17 21.4583L16.33 18.6183H28.25C28.5152 18.6183 28.7696 18.513 28.9571 18.3254C29.1446 18.1379 29.25 17.8835 29.25 17.6183C29.25 17.3531 29.1446 17.0987 28.9571 16.9112C28.7696 16.7237 28.5152 16.6183 28.25 16.6183Z" fill="black"/>
<path d="M24.0001 14.5586H26.0001V5.23859C26.0027 5.01976 25.9621 4.80257 25.8804 4.59951C25.7988 4.39644 25.6779 4.21153 25.5245 4.05539C25.3712 3.89925 25.1885 3.77498 24.9869 3.68972C24.7854 3.60446 24.5689 3.5599 24.3501 3.55859H22.0801V5.55859H24.0001V14.5586Z" fill="black"/>
<path d="M24.0001 29.5586H2.00012V5.55859H4.00012V3.55859H1.64012C1.2016 3.56387 0.782984 3.74246 0.475703 4.05536C0.168422 4.36826 -0.00255277 4.79005 0.00012085 5.22859V29.8786C-0.00251975 30.0974 0.0381367 30.3146 0.119751 30.5177C0.201366 30.7207 0.322327 30.9057 0.475676 31.0618C0.629025 31.2179 0.811734 31.3422 1.01329 31.4275C1.21485 31.5127 1.43128 31.5573 1.65012 31.5586H24.3601C24.7986 31.5533 25.2173 31.3747 25.5245 31.0618C25.8318 30.7489 26.0028 30.3271 26.0001 29.8886V20.6186H24.0001V29.5586Z" fill="black"/>
</svg>
