<svg width="56" height="35" viewBox="0 0 56 35" fill="none" xmlns="http://www.w3.org/2000/svg">
<path d="M56 2.83991C56 12.6096 56 22.3684 56 32.1382C55.759 32.8289 55.4851 33.4978 54.9374 34.0132C54.1596 34.7368 53.2394 35 52.1878 35C36.0736 34.989 19.9484 35 3.83412 34.989C3.63693 34.989 3.42879 34.989 3.23161 34.9671C2.54147 34.9013 1.92801 34.6711 1.38028 34.2434C0.394366 33.4539 0.0109546 32.4232 0.0109546 31.1732C0.0109546 22.0614 0 12.9386 0 3.81579C0 3.65132 0 3.48684 0.0109546 3.32237C0.0547731 2.55482 0.328638 1.875 0.810642 1.27193C1.34742 0.592105 2.08138 0.263158 2.85915 0C19.6197 0 36.3912 0 53.1518 0C53.6338 0.230263 54.1487 0.416667 54.5978 0.712719C55.3756 1.20614 55.7152 2.00658 56 2.83991ZM3.56025 31.4254C19.8717 31.4254 36.1612 31.4254 52.4507 31.4254C52.4507 25.6031 52.4507 19.8246 52.4507 14.0351C36.1393 14.0351 19.8607 14.0351 3.56025 14.0351C3.56025 19.8465 3.56025 25.625 3.56025 31.4254ZM52.4617 3.55263C36.1393 3.55263 19.8498 3.55263 3.5712 3.55263C3.5712 4.71491 3.5712 5.83333 3.5712 6.95175C19.8826 6.95175 36.1612 6.95175 52.4836 6.95175C52.4836 5.96491 52.4836 5 52.4836 4.04605C52.4836 3.88158 52.4726 3.72807 52.4617 3.55263Z" fill="black"/>
<path d="M40.2584 18.7939C42.9861 16.6119 46.0424 17.4562 47.587 19.1557C49.4603 21.2281 49.4931 24.0899 47.6856 26.2062C46.2396 27.9167 43.1175 28.9474 40.2365 26.6667C38.9 27.7742 37.3554 28.2347 35.6246 27.8619C34.3538 27.5878 33.3132 26.9079 32.5354 25.8553C31.1003 23.9255 31.1003 21.1075 32.9297 19.1338C34.4196 17.5329 37.4321 16.5571 40.2584 18.7939Z" fill="black"/>
<path d="M7.02148 27.9606C7.02148 26.7983 7.02148 25.6799 7.02148 24.5176C9.34386 24.5176 11.6443 24.5176 13.9886 24.5176C13.9886 25.647 13.9886 26.7873 13.9886 27.9606C11.6882 27.9606 9.38768 27.9606 7.02148 27.9606Z" fill="black"/>
<path d="M24.5062 24.5065C24.5062 25.6688 24.5062 26.7872 24.5062 27.9495C22.1838 27.9495 19.8834 27.9495 17.5391 27.9495C17.5391 26.8091 17.5391 25.6798 17.5391 24.5065C19.8395 24.5065 22.14 24.5065 24.5062 24.5065Z" fill="black"/>
</svg>
