<svg width="37" height="28" viewBox="0 0 37 28" fill="none" xmlns="http://www.w3.org/2000/svg">
<g clip-path="url(#clip0)">
<path d="M37 2.56108C37 10.1928 37 17.8244 37 25.4561C36.7388 26.2983 36.4051 27.0374 35.7231 27.5359C35.1718 27.9312 34.6059 28 33.9965 28C23.6945 28 13.378 28 3.07608 28C2.93098 28 2.78588 28.0172 2.64078 28C1.75569 27.9141 1.04471 27.4843 0.522353 26.5905C0.101569 25.8686 0 25.0608 0 24.2357C0 18.426 0 12.6163 0 6.80663C0 5.74095 0 4.65807 0 3.5752C0.0145098 1.87354 0.812549 0.429711 2.27804 0.137508C2.33608 0.120319 2.39412 0.0515654 2.45216 0C13.1459 0 23.8396 0 34.5333 0C34.8671 0.137508 35.2008 0.240638 35.52 0.429711C36.289 0.859423 36.6953 1.66728 37 2.56108ZM1.75569 14.0945C1.74118 14.3524 1.71216 14.5758 1.71216 14.7993C1.71216 18.0135 1.71216 21.2277 1.71216 24.442C1.71216 24.5623 1.71216 24.6654 1.71216 24.7858C1.75569 25.5249 2.06039 25.9202 2.69882 26.0233C2.98902 26.0749 3.27922 26.0577 3.56941 26.0577C11.9996 26.0577 20.4298 26.0577 28.8455 26.0577C30.5286 26.0577 32.2118 26.0749 33.8949 26.0577C34.9831 26.0405 35.3314 25.6452 35.3314 24.356C35.3459 21.1418 35.3314 17.9276 35.3314 14.7133C35.3314 14.5071 35.2878 14.2836 35.2588 14.0773C24.0718 14.0945 12.9427 14.0945 1.75569 14.0945ZM35.3169 6.82382C35.3169 5.56906 35.3459 4.36587 35.3024 3.17987C35.2733 2.45795 34.8816 2.09699 34.2576 2.02824C34.0835 2.01105 33.9239 2.01105 33.7498 2.01105C23.5929 2.01105 13.4216 2.01105 3.26471 2.01105C3.04706 2.01105 2.82941 2.01105 2.61176 2.04543C2.11843 2.14856 1.75569 2.54389 1.74118 3.1283C1.71216 4.34868 1.72667 5.55187 1.72667 6.80663C12.9427 6.82382 24.0863 6.82382 35.3169 6.82382Z" fill="#CDCDCD"/>
<path d="M8.9668 22.6888C8.9668 22.1044 8.9668 21.6059 8.9668 21.0387C12.1444 21.0387 15.2931 21.0387 18.4852 21.0387C18.4852 21.5887 18.4852 22.1216 18.4852 22.6888C15.3221 22.6888 12.188 22.6888 8.9668 22.6888Z" fill="#CDCDCD"/>
<path d="M7.50222 21.0387C7.50222 21.6059 7.50222 22.1388 7.50222 22.706C6.03673 22.706 4.60026 22.706 3.13477 22.706C3.13477 22.1388 3.13477 21.6059 3.13477 21.0387C4.60026 21.0387 6.03673 21.0387 7.50222 21.0387Z" fill="#CDCDCD"/>
</g>
<defs>
<clipPath id="clip0">
<rect width="37" height="28" fill="white"/>
</clipPath>
</defs>
</svg>
