<svg width="9" height="9" viewBox="0 0 9 9" fill="none" xmlns="http://www.w3.org/2000/svg">
<path d="M3.67558 4.49988L0.171228 0.995426C-0.0568285 0.767476 -0.0568285 0.398912 0.171228 0.170962C0.399179 -0.0569875 0.767743 -0.0569875 0.995693 0.170962L4.50015 3.67541L8.00449 0.170962C8.23255 -0.0569875 8.60101 -0.0569875 8.82896 0.170962C9.05701 0.398912 9.05701 0.767476 8.82896 0.995426L5.32461 4.49988L8.82896 8.00433C9.05701 8.23228 9.05701 8.60084 8.82896 8.82879C8.71536 8.9425 8.56599 8.99962 8.41673 8.99962C8.26746 8.99962 8.1182 8.9425 8.00449 8.82879L4.50015 5.32434L0.995693 8.82879C0.881985 8.9425 0.732723 8.99962 0.583461 8.99962C0.434199 8.99962 0.284937 8.9425 0.171228 8.82879C-0.0568285 8.60084 -0.0568285 8.23228 0.171228 8.00433L3.67558 4.49988Z" fill="white"/>
</svg>
