<svg height="19" viewBox="0 0 19 19" width="19" xmlns="http://www.w3.org/2000/svg"><path d="m7.7593 9.49995-7.398233-7.39845c-.481465-.48124-.481465-1.259333 0-1.740571.481237-.481239 1.259333-.481239 1.740573 0l7.39846 7.398451 7.3982-7.398451c.4815-.481239 1.2594-.481239 1.7406 0 .4815.481238.4815 1.259331 0 1.740571l-7.3982 7.39845 7.3982 7.39845c.4815.4812.4815 1.2593 0 1.7406-.2398.24-.5552.3606-.8703.3606s-.6302-.1206-.8703-.3606l-7.3982-7.3985-7.39846 7.3985c-.24006.24-.55517.3606-.87029.3606-.315113 0-.630228-.1206-.870283-.3606-.481465-.4813-.481465-1.2594 0-1.7406z" /></svg>