<svg width="11" height="11" viewBox="0 0 11 11" fill="none" xmlns="http://www.w3.org/2000/svg">
<path d="M6.39805 5.46972L10.8531 1.01472C10.9532 0.897817 11.0055 0.747437 10.9995 0.593635C10.9936 0.439833 10.9298 0.293937 10.821 0.185102C10.7122 0.0762661 10.5663 0.0125071 10.4125 0.00656643C10.2587 0.00062572 10.1083 0.0529408 9.99139 0.153057L5.53639 4.60806L1.08139 0.146946C0.964482 0.0468296 0.814102 -0.00548495 0.6603 0.000455758C0.506498 0.00639646 0.360602 0.0701549 0.251766 0.17899C0.142931 0.287826 0.0791716 0.433722 0.0732309 0.587524C0.0672902 0.741326 0.119605 0.891706 0.219721 1.00861L4.67472 5.46972L0.21361 9.92472C0.149638 9.97951 0.0976811 10.0469 0.0610002 10.1227C0.0243193 10.1986 0.00370619 10.2811 0.000455387 10.3653C-0.00279541 10.4495 0.011386 10.5334 0.0421093 10.6118C0.0728327 10.6902 0.119435 10.7615 0.178991 10.821C0.238546 10.8806 0.30977 10.9272 0.388191 10.9579C0.466611 10.9886 0.550537 11.0028 0.634698 10.9995C0.71886 10.9963 0.801441 10.9757 0.877258 10.939C0.953076 10.9023 1.02049 10.8504 1.07528 10.7864L5.53639 6.33139L9.99139 10.7864C10.1083 10.8865 10.2587 10.9388 10.4125 10.9329C10.5663 10.9269 10.7122 10.8632 10.821 10.7543C10.9298 10.6455 10.9936 10.4996 10.9995 10.3458C11.0055 10.192 10.9532 10.0416 10.8531 9.92472L6.39805 5.46972Z" fill="black"/>
</svg>
