<svg width="46" height="41" viewBox="0 0 46 41" fill="none" xmlns="http://www.w3.org/2000/svg">
<path d="M45.8705 11.6085C45.1122 7.63672 41.5794 4.8384 37.3808 4.76618C36.53 4.74813 35.6606 4.76618 34.6063 4.76618C34.6063 3.6288 34.6248 2.6539 34.6063 1.66094C34.5878 0.397182 34.1994 0 32.8862 0C22.4914 0 12.115 0 1.72014 0C0.369924 0 0.0184962 0.361074 0 1.66094C0 6.13826 0 10.6156 0 15.0929C0 17.9815 0.203458 20.852 0.591878 23.7226C1.33172 29.1748 2.73743 34.4465 4.75352 39.5738C5.23442 40.7834 5.49336 40.9819 6.7881 40.9819C13.8166 40.9819 20.8452 40.9819 27.8737 40.9819C29.039 40.9819 29.3164 40.7653 29.7419 39.7362C31.0366 36.5407 32.0539 33.273 32.8492 29.915C32.9232 29.6081 33.0157 29.3012 33.1267 28.9401C34.2919 28.9401 35.4017 28.9582 36.5115 28.9401C41.117 28.886 44.7423 25.6363 45.2232 21.177C45.4451 19.1189 45.741 17.0608 45.9075 14.9846C46 13.8833 46.074 12.7098 45.8705 11.6085ZM43.429 14.2624C43.1516 16.14 42.9851 18.0176 42.7817 19.8952C42.6337 21.2492 42.4857 22.5852 41.6719 23.7406C40.4881 25.4016 38.879 26.3404 36.7889 26.3945C35.7531 26.4306 34.7173 26.3945 33.5521 26.3945C34.7913 20.0216 34.6618 13.6847 34.6063 7.31176C36.8074 7.2576 38.8605 7.0229 40.7286 8.2325C42.7447 9.56847 43.7805 11.9335 43.429 14.2624Z" fill="#C4C4C4"/>
</svg>
