<svg width="30" height="32" viewBox="0 0 30 32" fill="none" xmlns="http://www.w3.org/2000/svg">
<path d="M23.5592 2.11485C23.6555 2.11884 23.7359 2.12684 23.8121 2.12684C24.9686 2.12684 26.1291 2.12684 27.2856 2.12684C28.5023 2.12684 29.5383 2.89055 29.8836 4.04612C30.0362 4.55793 30.0362 5.07374 29.8756 5.58155C29.5222 6.69713 29.0564 7.76473 28.5224 8.80434C27.8759 10.0559 27.1209 11.2434 26.2616 12.363C25.1814 13.7625 23.9607 15.026 22.5593 16.1176C21.8486 16.6734 21.0977 17.1732 20.3186 17.633C20.2263 17.689 20.1379 17.773 20.0817 17.8609C19.4553 18.8606 18.7084 19.7402 17.7527 20.452C17.3472 20.7559 17.1464 21.1877 17.1464 21.6995C17.1504 22.5712 17.1464 23.4468 17.1504 24.3185C17.1504 24.5104 17.1584 24.5224 17.3592 24.5184C17.8812 24.5024 18.3912 24.5544 18.861 24.7983C19.7444 25.2582 20.2504 25.9819 20.3427 26.9775C20.3588 27.1694 20.3628 27.3654 20.3588 27.5573C20.3588 27.6773 20.407 27.7212 20.5274 27.7212C20.7603 27.7252 20.9973 27.7212 21.2261 27.7492C22.5232 27.9132 23.4829 28.9368 23.5552 30.2323C23.5752 30.6122 23.5752 30.992 23.5712 31.3719C23.5632 31.8117 23.3664 31.9996 22.9207 31.9996C17.6363 31.9996 12.3478 31.9996 7.06338 31.9996C6.61766 31.9996 6.42893 31.8077 6.42893 31.3679C6.42893 30.976 6.41688 30.5802 6.43696 30.1883C6.50523 28.9608 7.481 27.9172 8.70975 27.7532C8.92257 27.7252 9.1354 27.7252 9.34822 27.7172C9.43255 27.7132 9.52089 27.7172 9.63734 27.7172C9.63734 27.5173 9.63734 27.3414 9.63734 27.1614C9.63734 26.5817 9.81001 26.0579 10.1634 25.598C10.6934 24.9023 11.4082 24.5504 12.2836 24.5184C12.4442 24.5144 12.6048 24.5144 12.7654 24.5104C12.7855 24.5104 12.8016 24.4984 12.8417 24.4865C12.8457 24.4225 12.8538 24.3505 12.8538 24.2785C12.8538 23.4468 12.8538 22.6112 12.8538 21.7795C12.8538 21.2077 12.645 20.7359 12.1792 20.396C11.2435 19.7082 10.5248 18.8326 9.91441 17.8609C9.85819 17.769 9.76985 17.685 9.67749 17.629C7.43281 16.3335 5.53748 14.6381 3.93529 12.6109C2.31703 10.5677 1.0682 8.31652 0.200849 5.85344C-0.0521289 5.13771 -0.0962997 4.42998 0.224942 3.73424C0.70279 2.69463 1.54204 2.15883 2.67843 2.13484C3.84293 2.11085 5.00743 2.13084 6.17194 2.13084C6.25225 2.13084 6.32854 2.13084 6.42492 2.13084C6.42893 2.04687 6.43295 1.9829 6.43295 1.91892C6.42893 1.47109 6.42492 1.02725 6.42492 0.579422C6.42492 0.215558 6.63372 0.011635 6.99914 0.00763649C7.20794 0.00363799 7.41274 0.00763649 7.62154 0.00763649C12.6731 0.00763649 17.7246 0.00763649 22.7761 0.00763649C22.8484 0.00763649 22.9247 0.00763649 22.997 0.00763649C23.3303 0.0156335 23.5431 0.195566 23.5592 0.53144C23.5752 0.875311 23.5552 1.22318 23.5552 1.57105C23.5592 1.74299 23.5592 1.91892 23.5592 2.11485ZM16.0702 24.5024C16.0702 24.4105 16.0702 24.3305 16.0702 24.2545C16.0702 23.4029 16.0702 22.5472 16.0702 21.6955C16.0702 20.7678 16.4798 20.0481 17.2066 19.4883C17.3753 19.3564 17.5479 19.2284 17.7045 19.0845C18.596 18.2688 19.2264 17.2652 19.7565 16.1976C20.8286 14.0264 21.4149 11.7032 21.8204 9.33614C22.0293 8.1166 22.1457 6.88106 22.2742 5.64952C22.4228 4.20606 22.475 2.75061 22.483 1.29915C22.483 1.23518 22.471 1.1712 22.4629 1.08323C22.3465 1.08323 22.2501 1.08323 22.1497 1.08323C17.3793 1.08323 12.6088 1.08323 7.83437 1.08323C7.79421 1.08323 7.75406 1.08323 7.7139 1.08323C7.52517 1.08723 7.51714 1.09523 7.52115 1.27516C7.5332 1.86294 7.54525 2.44672 7.56533 3.0345C7.62154 4.76585 7.77012 6.4932 8.01105 8.20856C8.23993 9.83195 8.55716 11.4393 9.02296 13.0148C9.48876 14.5862 10.079 16.1016 10.9705 17.4891C11.4483 18.2328 12.0025 18.9205 12.7253 19.4443C13.5364 20.0361 13.946 20.8158 13.938 21.8155C13.934 22.6431 13.938 23.4668 13.938 24.2945C13.938 24.5184 13.938 24.5184 14.1588 24.5224C14.721 24.5224 15.2832 24.5224 15.8453 24.5224C15.9136 24.5184 15.9779 24.5104 16.0702 24.5024ZM22.491 30.904C22.491 30.7241 22.4951 30.5722 22.491 30.4202C22.4509 29.4486 21.7723 28.7968 20.7965 28.7968C20.4833 28.7968 20.166 28.8008 19.8528 28.7968C19.4874 28.7928 19.2826 28.5849 19.2826 28.2211C19.2826 27.9012 19.2866 27.5813 19.2826 27.2614C19.2626 26.2898 18.592 25.602 17.6483 25.598C15.8815 25.594 14.1147 25.594 12.3478 25.598C11.4162 25.602 10.7336 26.2978 10.7296 27.2254C10.7296 27.5533 10.7336 27.8772 10.7255 28.2051C10.7175 28.5929 10.5087 28.7928 10.1232 28.7928C9.79394 28.7968 9.46869 28.7928 9.13941 28.7928C8.85431 28.7928 8.58125 28.8568 8.33229 29.0008C7.68579 29.3646 7.32841 30.2323 7.56131 30.9C12.5245 30.904 17.4917 30.904 22.491 30.904ZM8.81014 15.7817C8.81817 15.7697 8.8262 15.7617 8.83825 15.7497C8.68566 15.3539 8.52504 14.958 8.38449 14.5542C7.77815 12.8268 7.36856 11.0515 7.07543 9.24817C6.7823 7.45284 6.6016 5.64552 6.51727 3.8262C6.50924 3.62228 6.48916 3.41836 6.4731 3.20644C6.08761 3.20644 5.73023 3.20644 5.36883 3.20644C4.48542 3.20644 3.602 3.20244 2.71858 3.20644C1.6103 3.21443 0.867427 4.19807 1.16458 5.26167C1.22079 5.46559 1.29709 5.66551 1.36937 5.86544C2.12429 7.90467 3.16832 9.78797 4.47739 11.5233C5.56559 12.9708 6.81844 14.2583 8.256 15.3659C8.43268 15.5098 8.62141 15.6458 8.81014 15.7817ZM21.1418 15.7897C21.2141 15.7537 21.2583 15.7377 21.2944 15.7097C21.455 15.5898 21.6197 15.4738 21.7763 15.3499C23.6877 13.8704 25.2577 12.0831 26.5507 10.0519C27.4703 8.60441 28.2252 7.08098 28.7753 5.45759C28.8235 5.31365 28.8717 5.1657 28.8918 5.01376C29.0163 4.04612 28.2935 3.21843 27.3057 3.21044C26.089 3.20244 24.8682 3.20644 23.6515 3.21044C23.6114 3.21044 23.5752 3.21843 23.5311 3.22643C23.527 3.27441 23.519 3.3144 23.515 3.35038C23.4467 4.9018 23.3223 6.44922 23.1175 7.98864C22.8966 9.64802 22.5874 11.2874 22.1377 12.9028C21.8686 13.8704 21.5434 14.8221 21.1418 15.7897Z" fill="#878787"/>
</svg>
