<svg width="52" height="28" viewBox="0 0 52 28" fill="none" xmlns="http://www.w3.org/2000/svg">
<path d="M35.7973 25.5838C35.6317 25.3279 35.8525 25.4132 35.7973 25.3279C38.8334 23.4518 40.2134 20.3817 41.4555 17.1695C43.0011 17.1695 44.4087 17.198 45.844 17.1695C48.1901 17.1127 49.9841 15.9756 51.1709 13.9005C53.5722 9.6934 50.6465 4.37767 45.8992 4.26396C44.5743 4.23553 43.2495 4.26396 41.7039 4.26396C41.7039 3.26904 41.7315 2.44467 41.7039 1.6203C41.6487 0.341117 41.2898 0 40.103 0C27.3514 0 14.5998 0 1.87584 0C0.357789 0 0.0541792 0.284264 0.0541792 1.79086C0.0265783 5.91269 -0.0286234 10.0345 -0.00102252 14.1563C-0.00102252 15.7482 0.302587 17.3117 0.937406 18.8183C2.01384 21.4619 3.55949 23.6792 5.79516 25.5838C5.79516 25.5838 5.79516 25.697 6.12637 27.9716H35.6041L35.7973 25.5838ZM2.40025 2.41624H39.4406C39.4958 2.67208 39.4406 2.84264 39.4406 3.04162C39.4406 4.03655 39.4958 13.9005 39.137 16.3736C38.5022 20.666 34.5552 24.5604 30.3599 25.2995C29.3663 25.4701 28.345 25.5553 27.3514 25.5838C22.8525 25.6122 18.3259 25.6122 13.827 25.5838C11.2325 25.5553 8.88645 24.7878 6.78879 23.1391C4.1115 21.0355 2.78666 18.2213 2.37265 14.9239C2.12424 12.934 2.31745 10.8873 2.31745 8.7269L2.40025 2.41624ZM46.8376 14.668C45.2368 14.9239 43.5807 14.7249 41.7867 14.7249V6.6802C43.5531 6.50964 45.2644 6.39594 46.9204 6.73706C48.5489 7.07817 49.7081 8.86904 49.7081 10.6599C49.7081 12.5645 48.5765 14.4122 46.8376 14.668Z" fill="black"/>
</svg>
