<svg width="28" height="32" viewBox="0 0 28 32" fill="none" xmlns="http://www.w3.org/2000/svg">
<path d="M11.7508 6.05518C12.0654 6.05518 12.3485 6.05518 12.6946 6.05518C12.7575 5.33626 12.8362 4.63331 12.8834 3.91439C12.962 2.93985 13.0092 1.94934 13.0879 0.974801C13.1351 0.271855 13.3081 0.0162388 13.7013 0.0322148C14.0946 0.0481909 14.2362 0.287831 14.189 1.00675C14.1103 2.25288 14.0002 3.49901 13.9216 4.74515C13.8901 5.16052 13.8744 5.5759 13.8586 6.0392C14.4564 6.0392 14.9912 6.0392 15.6204 6.0392C15.589 5.41614 15.5575 4.82503 15.5103 4.24989C15.4317 3.19547 15.353 2.12508 15.2744 1.07066C15.2586 0.862969 15.2115 0.623328 15.2901 0.447592C15.353 0.271855 15.5575 0.0481909 15.6991 0.0481909C15.8879 0.0481909 16.1553 0.191975 16.2654 0.351736C16.3755 0.527472 16.3598 0.815041 16.3755 1.03871C16.5013 2.68424 16.6272 4.31379 16.753 6.02323C17.0834 6.02323 17.3822 6.02323 17.744 6.02323C17.6182 5.03271 17.5081 4.05818 17.398 3.09961C17.3193 2.41264 17.2249 1.72567 17.1463 1.03871C17.1306 0.878945 17.0991 0.719184 17.0991 0.559424C17.1148 0.255879 17.2564 0.0481909 17.571 0.0162388C17.8699 -0.0157133 18.0901 0.144047 18.153 0.431616C18.2474 0.958825 18.3261 1.48603 18.389 2.01324C18.5777 3.54694 18.7665 5.08064 18.9553 6.59837C19.1283 8.03621 18.6564 9.20246 17.571 10.145C17.0991 10.5604 16.6115 10.9758 16.1238 11.4072C16.171 13.0367 16.2182 14.6663 16.2811 16.2798C16.344 18.1171 16.4384 19.9543 16.5013 21.7756C16.5957 24.4276 16.6744 27.0956 16.7688 29.7476C16.8002 30.834 16.2182 31.6648 15.2744 31.9204C14.3935 32.144 13.4025 31.7446 13.0092 30.9139C12.8362 30.5305 12.7575 30.0512 12.7733 29.6039C12.8204 27.3672 12.8991 25.1306 12.9778 22.9099C13.0721 20.2259 13.1665 17.542 13.2609 14.858C13.3081 13.7237 13.3553 12.5734 13.4025 11.4231C12.8834 10.9758 12.3957 10.5285 11.8924 10.0971C10.9171 9.23441 10.4137 8.14804 10.5553 6.85398C10.7755 4.79307 11.0587 2.73216 11.3103 0.687232C11.3261 0.303807 11.4519 0.000262777 11.8924 0.0322148C12.2542 0.0641669 12.4115 0.367712 12.3485 0.878945C12.1598 2.42862 11.971 3.99427 11.7665 5.54395C11.7508 5.70371 11.7508 5.86347 11.7508 6.05518ZM15.2901 21.0886C15.2901 20.849 15.2901 20.6733 15.2901 20.4815C15.1957 17.5739 15.1013 14.6822 14.9755 11.7906C14.944 11.1675 15.1013 10.7202 15.6047 10.3527C16.0924 10.0013 16.5328 9.58588 16.989 9.17051C17.5238 8.67525 17.8542 8.06816 17.8227 7.26936C15.7463 7.26936 13.7013 7.26936 11.6564 7.26936C11.6092 8.06816 11.9395 8.65927 12.4586 9.13856C12.8991 9.55393 13.3553 9.96931 13.8272 10.3368C14.3148 10.7042 14.5036 11.1356 14.4721 11.7586C14.3306 14.5704 14.2519 17.3982 14.1575 20.2099C14.1418 20.4975 14.1575 20.7691 14.1575 21.0727C14.5665 21.0886 14.8811 21.0886 15.2901 21.0886ZM14.1261 22.2709C14.0946 22.4626 14.0474 22.6064 14.0474 22.7661C13.9688 25.0667 13.8901 27.3832 13.8272 29.6837C13.8272 29.8115 13.8115 29.9553 13.8429 30.0831C13.9216 30.5464 14.2676 30.85 14.6924 30.866C15.1643 30.8819 15.5261 30.5784 15.6047 30.0672C15.6362 29.8914 15.6204 29.6997 15.6204 29.508C15.5418 27.2554 15.4789 25.0028 15.4002 22.7501C15.4002 22.5904 15.353 22.4466 15.3373 22.2709C14.9126 22.2709 14.5351 22.2709 14.1261 22.2709Z" fill="white"/>
<path d="M5.71026 11.327C5.71026 12.5891 5.6788 13.7553 5.71026 14.9216C5.83611 18.8836 5.99341 22.8457 6.13498 26.8078C6.16644 27.8143 6.24509 28.8207 6.24509 29.8432C6.24509 31.0414 5.44285 31.9201 4.35745 31.984C3.14622 32.0479 2.2024 31.1532 2.2024 29.8752C2.2024 29.1882 2.26532 28.5012 2.28105 27.7983C2.40689 24.1877 2.53273 20.5611 2.65858 16.9505C2.7215 15.321 2.75296 13.7074 2.83161 12.0779C2.86307 11.5666 2.7215 11.2151 2.31251 10.9276C1.93498 10.64 1.57318 10.3205 1.22712 10.001C0.220376 9.04241 -0.188613 7.86018 0.0316115 6.47027C0.173185 5.52768 0.314758 4.58509 0.456331 3.62653C0.786668 1.61355 2.31251 0.207661 4.21588 0.207661C6.08779 0.191685 7.61363 1.53367 7.97543 3.5147C8.1642 4.56912 8.3215 5.60756 8.44734 6.66198C8.60464 8.03592 8.13273 9.17022 7.12599 10.0809C6.63835 10.5282 6.13498 10.9595 5.71026 11.327ZM4.7979 21.0724C4.7979 20.5931 4.81363 20.1937 4.7979 19.8103C4.70352 17.0464 4.60914 14.2825 4.49903 11.5187C4.4833 11.0714 4.62487 10.7678 4.95521 10.4962C5.47431 10.0809 5.96195 9.6495 6.44959 9.20217C7.15745 8.54715 7.45633 7.7164 7.33049 6.75784C7.18891 5.70342 7.03161 4.649 6.84285 3.61056C6.62262 2.23662 5.50577 1.31001 4.20015 1.32598C2.91026 1.34196 1.82487 2.30052 1.58891 3.65848C1.41588 4.649 1.27431 5.65549 1.13274 6.66198C0.975432 7.7164 1.30577 8.61106 2.10802 9.29803C2.53273 9.66547 2.92599 10.0489 3.36644 10.3684C3.85408 10.7199 3.99566 11.1512 3.9642 11.7424C3.83835 14.4743 3.7597 17.2221 3.66532 19.954C3.64959 20.3215 3.66532 20.673 3.66532 21.0724C4.05858 21.0724 4.40464 21.0724 4.7979 21.0724ZM3.69678 22.2706C3.66532 22.4303 3.6024 22.6061 3.58667 22.7818C3.49229 25.0664 3.3979 27.3509 3.31925 29.6355C3.31925 29.7953 3.30352 29.955 3.33498 30.1148C3.42936 30.5781 3.77543 30.8657 4.21588 30.8817C4.65633 30.8976 5.01813 30.6101 5.11251 30.1468C5.1597 29.9391 5.14397 29.7314 5.14397 29.5077C5.08105 27.7024 5.01813 25.8971 4.95521 24.0918C4.92375 23.4847 4.87656 22.8936 4.82936 22.2706C4.42038 22.2706 4.09004 22.2706 3.69678 22.2706Z" fill="white"/>
<path d="M25.9866 16.3438C26.0495 18.3089 26.1282 20.226 26.1911 22.1431C26.2855 24.7153 26.3799 27.3034 26.4428 29.8755C26.4742 30.882 25.8765 31.6648 24.9956 31.9205C24.1147 32.1761 23.1237 31.8086 22.7147 30.9619C22.5259 30.5785 22.4473 30.0992 22.4473 29.6678C22.4945 27.3992 22.6203 25.1466 22.6675 22.878C22.7776 17.6059 22.8563 12.3498 22.9349 7.07771C22.9664 5.40023 22.9192 3.72275 22.9349 2.04526C22.9506 1.0867 23.5327 0.351803 24.3978 0.0802107C25.2158 -0.175406 26.1439 0.0961868 26.6315 0.831084C26.8518 1.15061 27.0091 1.55001 27.0405 1.93343C27.2765 4.20203 27.4652 6.4866 27.6697 8.77117C27.7484 9.64986 27.7641 10.5285 27.9057 11.3912C28.2203 13.4202 27.7012 15.0817 25.9866 16.3438ZM25.0113 21.0727C25.0113 20.6893 25.027 20.3858 25.0113 20.0982C24.9641 18.8521 24.9169 17.6059 24.8697 16.3438C24.854 15.9764 24.9012 15.6728 25.2473 15.4492C26.663 14.5705 27.0091 13.2604 26.836 11.6788C26.6001 9.4901 26.4428 7.2854 26.2383 5.08071C26.1439 4.04227 26.0652 3.0198 25.9394 1.98136C25.8765 1.43817 25.4832 1.11865 24.9799 1.13463C24.4765 1.15061 24.1147 1.4861 24.0518 2.02929C24.036 2.221 24.036 2.39674 24.036 2.58845C23.9888 8.51556 23.9416 14.4427 23.8945 20.3858C23.8945 20.6094 23.9259 20.8491 23.9416 21.0727C24.3349 21.0727 24.6338 21.0727 25.0113 21.0727ZM23.8787 22.239C23.8473 22.5265 23.8001 22.7342 23.8001 22.9419C23.7214 25.1466 23.6428 27.3513 23.5641 29.556C23.5327 30.4187 23.8473 30.866 24.4607 30.866C25.0742 30.866 25.3731 30.4187 25.3574 29.556C25.2945 27.3034 25.2158 25.0348 25.1372 22.7822C25.1372 22.6224 25.1057 22.4786 25.0742 22.3029C24.9484 22.2709 24.854 22.239 24.7439 22.239C24.4765 22.239 24.2248 22.239 23.8787 22.239Z" fill="white"/>
</svg>
