<svg width="23" height="32" viewBox="0 0 23 32" fill="none" xmlns="http://www.w3.org/2000/svg">
<path d="M3.568 13.3218C3.568 13.3979 3.568 13.4784 3.568 13.559C3.568 16.9151 3.568 20.2713 3.568 23.6275C3.568 25.9231 3.568 28.2187 3.57244 30.5188C3.57244 30.841 3.59466 31.1587 3.73682 31.4585C3.89676 31.8031 4.16777 31.9911 4.54096 31.9955C5.29622 32.0045 6.05148 32.0045 6.80675 31.9955C7.20215 31.9911 7.47316 31.8076 7.61532 31.4183C7.75305 31.0379 7.78415 30.6441 7.78415 30.2503C7.78859 26.827 7.78859 23.4037 7.78859 19.9849C7.78859 17.8325 7.78859 15.6756 7.78859 13.5232C7.78859 13.4561 7.79303 13.3889 7.79747 13.3218C8.03294 13.1697 8.25952 13.0265 8.49054 12.8743C9.17027 12.4268 9.69896 11.8272 10.1388 11.147C10.7208 10.2431 11.0762 9.25413 11.245 8.19805C11.4672 6.84216 11.3472 5.50864 10.8941 4.21092C10.5875 3.32042 10.1343 2.51494 9.50792 1.81238C8.60161 0.801055 7.49093 0.170095 6.13145 0.0268986C4.99412 -0.0939235 3.9634 0.196945 3.00822 0.80553C1.85311 1.53941 1.11562 2.60891 0.600263 3.84846C0.235959 4.72106 0.0449219 5.63841 0.0138226 6.58709C-0.0572615 8.56499 0.489195 10.3415 1.7376 11.8809C2.18187 12.4268 2.72388 12.8698 3.34587 13.1965C3.40806 13.2323 3.47915 13.2726 3.568 13.3218ZM9.9211 6.91376C9.92998 7.89823 9.73894 8.86929 9.29023 9.78216C8.81486 10.7577 8.13512 11.5453 7.14884 12.0286C6.22919 12.476 5.29178 12.5074 4.35436 12.1091C3.51025 11.7511 2.86605 11.147 2.37291 10.3729C1.72871 9.35257 1.43549 8.22938 1.4044 7.02563C1.38662 6.32755 1.48437 5.64289 1.67984 4.97613C1.99528 3.89321 2.54618 2.95795 3.43028 2.24197C3.98562 1.79448 4.61204 1.50361 5.32288 1.43649C6.3447 1.34252 7.22881 1.68708 8.01072 2.32699C8.68602 2.88188 9.12585 3.61129 9.45461 4.41677C9.78337 5.20882 9.92554 6.0322 9.9211 6.91376ZM6.3447 13.7693C6.3447 19.3584 6.3447 24.9431 6.3447 30.5233C6.1048 30.5815 5.17627 30.5725 4.99412 30.5054C4.99412 30.4383 4.99412 30.3667 4.99412 30.2951C4.99412 29.2793 4.99412 28.2679 4.99412 27.2521C4.99412 26.9344 4.9719 26.6167 4.9719 26.2945C4.9719 25.9768 4.99412 25.6546 4.99412 25.3369C4.99412 21.5556 4.99412 17.7788 4.99412 13.9975C4.99412 13.917 5.003 13.8364 5.00744 13.7648C5.4606 13.7693 5.89599 13.7693 6.3447 13.7693Z" fill="black"/>
<path d="M20.4636 13.7917C20.8724 13.7917 21.25 13.7693 21.6276 13.7961C22.3385 13.8498 22.9916 13.1831 23.0004 12.476C23.0004 12.3955 23.0049 12.3105 23.0049 12.2299C23.0049 8.67238 23.0049 5.11484 23.0049 1.5573C23.0049 1.52597 23.0049 1.49912 23.0049 1.4678C22.996 0.993459 22.7205 0.693641 22.2896 0.716015C21.9209 0.733915 21.5877 0.971085 21.5921 1.47227C21.6054 3.32041 21.5965 5.17301 21.5965 7.02115C21.5965 7.8311 21.5921 8.64554 21.5921 9.45549C21.5921 10.3863 21.5965 11.317 21.5965 12.2478C21.5965 12.2836 21.5877 12.3194 21.5832 12.3687C19.4107 12.3687 17.2427 12.3687 15.0613 12.3687C15.0568 12.2926 15.0435 12.221 15.0435 12.1494C15.0435 8.59184 15.0391 5.03429 15.0524 1.47675C15.0568 0.823413 14.4082 0.545969 13.955 0.827888C13.7285 0.96661 13.6307 1.16798 13.6218 1.42305C13.613 1.70049 13.6174 1.97346 13.6174 2.25091C13.613 5.45046 13.613 8.65001 13.6085 11.8496C13.6085 12.2299 13.6041 12.6103 13.7596 12.9728C13.9728 13.4695 14.3949 13.814 14.9591 13.8006C15.3145 13.7917 15.6699 13.8006 16.0254 13.8006C16.0964 13.8006 16.1675 13.8006 16.2742 13.8006C16.2742 13.9393 16.2742 14.0557 16.2742 14.172C16.2742 19.5509 16.2742 24.9252 16.2742 30.304C16.2742 30.6307 16.2786 30.9574 16.3674 31.2796C16.4785 31.6957 16.7984 31.9911 17.2249 32C18.0024 32.0135 18.7798 32.0135 19.5573 32C19.935 31.9956 20.2104 31.7852 20.3126 31.4183C20.3926 31.1274 20.4636 30.8231 20.4681 30.5188C20.4814 29.0555 20.4725 27.5967 20.4725 26.1334C20.4725 22.1508 20.477 18.1681 20.477 14.1855C20.4636 14.0646 20.4636 13.9438 20.4636 13.7917ZM17.6958 30.5457C17.6958 30.407 17.6958 30.2951 17.6958 30.1832C17.6958 28.174 17.6958 26.1603 17.6958 24.1511C17.6958 23.6543 17.6958 23.1532 17.6958 22.6564C17.6958 19.788 17.6958 16.9151 17.6958 14.0467C17.6958 13.9707 17.7092 13.8901 17.718 13.8096C18.1668 13.8096 18.5933 13.8096 19.0286 13.8096C19.0331 13.8946 19.042 13.9617 19.042 14.0288C19.0509 16.8167 19.0597 19.6046 19.0642 22.3924C19.0642 23.0547 19.0553 23.717 19.0509 24.3793C19.0464 25.055 19.0464 25.7352 19.0464 26.4109C19.0464 27.7086 19.0464 29.0063 19.0464 30.304C19.0464 30.3846 19.0331 30.4607 19.0242 30.5502C18.571 30.5457 18.1534 30.5457 17.6958 30.5457Z" fill="black"/>
<path d="M20.4639 4.77485C20.4639 3.66508 20.4639 2.5553 20.4639 1.44105C20.4639 1.05174 20.295 0.832468 19.9396 0.74297C19.482 0.626622 19.0911 0.908541 19.0422 1.38288C19.0378 1.44105 19.0378 1.5037 19.0378 1.56188C19.0378 3.15047 19.0378 4.73905 19.0333 6.32317C19.0333 6.84226 19.0333 7.36134 19.0333 7.88043C19.0333 7.98336 19.0422 8.09075 19.0555 8.19368C19.1044 8.57404 19.2643 8.73514 19.6553 8.79779C19.953 8.84701 20.2684 8.69486 20.3972 8.43084C20.4372 8.34582 20.4594 8.24737 20.4594 8.1534C20.4639 7.02573 20.4594 5.90253 20.4639 4.77485Z" fill="black"/>
<path d="M16.2648 4.75271C16.2648 5.84011 16.2648 6.92751 16.2648 8.01939C16.2648 8.06414 16.2648 8.10889 16.2648 8.15363C16.2826 8.50268 16.4559 8.70405 16.8068 8.79355C17.0956 8.86514 17.4422 8.73985 17.5754 8.48478C17.6421 8.35948 17.6821 8.20286 17.6821 8.05966C17.6909 7.65692 17.6643 7.25418 17.6643 6.85591C17.6643 6.46212 17.6865 6.06833 17.6865 5.67902C17.6909 4.3097 17.6865 2.94038 17.6865 1.56659C17.6865 1.48604 17.6821 1.40101 17.6687 1.32047C17.6065 0.935625 17.2867 0.67608 16.9135 0.720829C16.5314 0.765578 16.2604 0.984848 16.2604 1.42786C16.2693 2.53316 16.2693 3.64294 16.2648 4.75271C16.2693 4.75271 16.2693 4.75271 16.2648 4.75271Z" fill="black"/>
<path d="M5.74918 11.1969C5.97132 11.2103 6.18012 11.1835 6.34006 11.0089C6.55331 10.7718 6.5622 10.4898 6.4689 10.2124C6.38449 9.9618 6.18901 9.80071 5.92245 9.79176C5.11831 9.76043 4.65183 9.27714 4.30529 8.61486C4.02096 8.06892 3.91877 7.47824 3.89656 6.86965C3.88323 6.56536 3.74995 6.35951 3.46562 6.26106C3.16351 6.15367 2.88362 6.20289 2.64815 6.44006C2.52376 6.56536 2.49266 6.72645 2.4971 6.89202C2.50599 7.13814 2.51931 7.38426 2.55486 7.62591C2.70147 8.61038 3.04356 9.50984 3.73218 10.2482C4.28308 10.8344 4.94949 11.1611 5.74918 11.1969Z" fill="black"/>
<path d="M3.53719 5.86253C3.78598 5.87596 3.96813 5.75066 4.09253 5.55824C4.27912 5.26737 4.45239 4.9586 4.62121 4.65431C4.76338 4.39924 4.68785 4.05019 4.46128 3.8354C4.23914 3.62955 3.88816 3.58928 3.63937 3.7459C3.45278 3.86225 3.3195 4.03229 3.21731 4.22472C3.1018 4.43951 3.02183 4.67668 2.88855 4.88253C2.63532 5.25394 3.0396 5.87596 3.53719 5.86253Z" fill="black"/>
</svg>
