<svg width="37" height="25" viewBox="0 0 37 25" fill="none" xmlns="http://www.w3.org/2000/svg">
<path d="M20.7737 5.55474C19.3662 6.27125 18.233 7.29282 17.374 8.61944C12.3502 8.61944 7.3264 8.61944 2.28095 8.61944C2.27373 8.76132 2.25929 8.88192 2.25929 8.99543C2.25929 11.9537 2.25929 14.9049 2.25208 17.8632C2.25208 18.303 2.30982 18.7074 2.59133 19.0692C2.88727 19.4523 3.27705 19.7077 3.7751 19.7361C4.533 19.7715 5.2909 19.7857 6.0488 19.7857C10.5385 19.7928 15.0209 19.7857 19.5106 19.7857C19.7488 19.7857 19.9509 19.8354 20.153 19.9631C21.3728 20.7151 22.701 21.1052 24.1374 21.1691C25.2778 21.2188 26.3894 21.0769 27.4577 20.6725C27.5587 20.637 27.6598 20.6087 27.8186 20.559C28.3022 20.9988 28.8003 21.4529 29.3416 21.9495C29.2045 21.9778 29.1323 21.9991 29.0601 21.9991C27.1978 21.9991 25.3284 21.9991 23.4661 21.9991C22.0369 21.9991 20.6005 22.0062 19.1713 22.0062C17.7133 22.0062 16.2624 21.9991 14.8044 21.9991C13.303 21.9991 11.7944 22.0062 10.293 22.0062C8.5607 22.0062 6.82835 22.0062 5.09601 21.9991C4.6124 21.9991 4.136 21.992 3.65239 21.9636C1.99944 21.8572 0.404242 20.5945 0.0722095 18.7854C0.0289009 18.5301 2.8511e-05 18.2676 2.8511e-05 18.0122C2.8511e-05 13.3371 0.0144647 8.6691 2.8511e-05 4.00111C-0.00718959 2.09986 1.35703 0.50366 3.08216 0.120573C3.38532 0.056725 3.6957 0.00706553 4.00608 0.00706553C7.14595 -2.86815e-05 10.2858 -2.86815e-05 13.4257 -2.86815e-05C16.8182 -2.86815e-05 20.2107 -2.86815e-05 23.6032 -2.86815e-05C25.5521 -2.86815e-05 27.501 -0.0213113 29.4499 0.00706553C31.7597 0.0425366 33.3693 1.88703 33.391 3.79537C33.4054 4.98011 33.3982 6.15775 33.3982 7.34248C33.3982 10.4994 33.3982 13.6563 33.3982 16.8133C33.3982 16.9622 33.3982 17.1183 33.3982 17.2673C33.3765 17.2815 33.3477 17.2886 33.326 17.3028C32.9579 16.9693 32.597 16.643 32.2144 16.3025C33.0806 14.2664 33.1961 12.2091 32.4382 10.1447C31.6875 8.09447 30.2872 6.57631 28.3166 5.55474C28.3311 5.52636 28.3527 5.50508 28.3672 5.4767C29.2767 5.4767 30.1789 5.4767 31.1028 5.4767C31.1173 5.37738 31.1389 5.31354 31.1389 5.24969C31.1389 4.77438 31.1461 4.30616 31.1245 3.83085C31.0884 2.98663 30.3882 2.2914 29.5293 2.23465C29.3488 2.22046 29.1684 2.22046 28.9879 2.22046C23.7043 2.22046 18.4278 2.22046 13.1442 2.22046C10.1631 2.22046 7.17482 2.22046 4.19375 2.22755C3.94111 2.22755 3.68848 2.24884 3.45028 2.31978C2.78622 2.51132 2.28817 3.14271 2.26651 3.81666C2.25208 4.34872 2.26651 4.88079 2.26651 5.46251C5.34864 5.4767 8.42356 5.46251 11.4985 5.46961C14.5734 5.4767 17.6555 5.46961 20.7304 5.46961C20.7449 5.50508 20.7593 5.53346 20.7737 5.55474Z" fill="#CDCDCD"/>
<path d="M30.6404 17.1182C32.5387 18.8492 34.4082 20.5589 36.2849 22.2757C36.4221 22.4034 36.5664 22.5382 36.6819 22.6801C37.115 23.205 37.0934 23.9357 36.6458 24.4749C36.22 24.9928 35.4909 25.1488 34.8918 24.8438C34.7114 24.7516 34.5454 24.6239 34.401 24.4891C32.5821 22.8361 30.7703 21.1761 28.9586 19.516C28.807 19.3813 28.6554 19.2465 28.4894 19.0975C26.5549 20.2751 24.4978 20.5518 22.3324 19.9133C20.6217 19.4096 19.2719 18.3952 18.2974 16.9337C16.3125 13.9684 16.8249 10.0595 19.3802 7.66162C22.0653 5.14317 26.0858 5.01547 28.9369 7.0657C31.7159 9.06627 33.1595 13.3583 30.6404 17.1182ZM24.5627 8.1724C21.9931 8.10146 19.6689 10.173 19.6472 12.9184C19.6256 15.3163 21.5311 17.6786 24.4473 17.7212C27.2768 17.7567 29.3411 15.5646 29.3772 13.0106C29.4205 10.2084 27.0602 8.12983 24.5627 8.1724Z" fill="#CDCDCD"/>
<path d="M16.2977 14.6495C15.7347 14.6495 15.2149 14.6495 14.7025 14.6495C11.7214 14.6495 8.73309 14.6495 5.75201 14.6495C5.6654 14.6495 5.586 14.6566 5.49938 14.6424C5.17457 14.6069 4.93637 14.387 4.92915 14.0607C4.91471 13.4932 4.9075 12.9256 4.92193 12.3581C4.92915 12.0176 5.13126 11.8189 5.47773 11.7693C5.67983 11.7409 5.88194 11.7409 6.09126 11.7409C6.66871 11.7409 7.24616 11.7338 7.82361 11.7409C8.27113 11.7409 8.71144 11.7551 9.15896 11.7622C9.28167 11.7622 9.39716 11.7693 9.51986 11.7693C10.6603 11.7693 11.8008 11.7693 12.9485 11.7693C13.8868 11.7693 14.8252 11.7693 15.7635 11.7693C15.8935 11.7693 16.0234 11.7693 16.1605 11.7693C16.1605 12.2588 16.1389 12.727 16.1677 13.1952C16.175 13.6634 16.2399 14.1245 16.2977 14.6495Z" fill="#CDCDCD"/>
<path d="M24.3188 13.4294C24.4343 12.9967 24.5353 12.6278 24.6364 12.266C24.7447 11.89 24.9107 11.7906 25.3005 11.8545C25.517 11.89 25.6108 12.0177 25.582 12.2234C25.5748 12.2801 25.5531 12.3369 25.5314 12.3937C25.3077 12.9896 25.0767 13.5855 24.8602 14.1814C24.7591 14.4581 24.5642 14.5148 24.2971 14.5077C24.0373 14.5077 23.8207 14.4723 23.7197 14.1956C23.4887 13.5642 23.2505 12.9399 23.0268 12.3014C22.9257 12.0106 23.0484 11.8545 23.366 11.8403C23.7702 11.819 23.8641 11.8758 23.9795 12.2731C24.0878 12.6349 24.1961 12.9967 24.3188 13.4294Z" fill="#CDCDCD"/>
<path d="M27.1332 13.4152C27.2487 12.9967 27.3498 12.6278 27.4508 12.2518C27.5591 11.8829 27.7323 11.7765 28.1149 11.8474C28.3314 11.89 28.4253 12.0106 28.382 12.2234C28.3675 12.3156 28.3386 12.4078 28.3026 12.493C28.1004 13.0321 27.8911 13.5713 27.6818 14.1105C27.5447 14.4723 27.0827 14.6425 26.7434 14.451C26.6496 14.4013 26.5702 14.2878 26.5269 14.1814C26.2887 13.5642 26.0577 12.947 25.8412 12.3227C25.7329 12.0106 25.8556 11.8474 26.1804 11.8332C26.5702 11.8119 26.664 11.8758 26.7795 12.2376C26.9022 12.6207 27.0105 12.9967 27.1332 13.4152Z" fill="#CDCDCD"/>
<path d="M22.2029 11.7763C22.2968 11.7834 22.3978 11.7834 22.4917 11.8047C22.7154 11.8543 22.802 11.9749 22.7876 12.1807C22.7732 12.3864 22.6577 12.4999 22.4483 12.5212C22.3762 12.5283 22.304 12.5212 22.2318 12.5283C21.842 12.5425 21.6183 12.7482 21.5894 13.1029C21.5605 13.4718 21.7698 13.7485 22.1307 13.8194C22.2318 13.8407 22.3473 13.8265 22.4556 13.8336C22.6793 13.8549 22.7659 13.9258 22.7876 14.1316C22.8165 14.3657 22.7587 14.465 22.5277 14.5147C21.9286 14.6495 21.3801 14.543 20.947 14.089C20.4489 13.5782 20.4778 12.3226 21.4811 11.9253C21.7121 11.8331 21.9647 11.8047 22.2029 11.7479C22.1957 11.755 22.1957 11.7692 22.2029 11.7763Z" fill="#CDCDCD"/>
</svg>
