<svg width="29" height="27" viewBox="0 0 29 27" fill="none" xmlns="http://www.w3.org/2000/svg">
<path d="M28.8677 4.19578C28.8677 4.19578 28.9785 7.94298 28.3296 10.1674C28.3296 10.1674 17.7512 24.1397 14.9203 26.4615C14.9203 26.4615 11.0233 21.5359 11.0707 21.2991C11.1164 21.0614 14.2249 13.1991 14.2249 13.1991C14.2249 13.1991 26.7336 3.5334 28.8677 4.1967" fill="#FBEB9C"/>
<path d="M14.1426 25.6423C14.469 26.0458 14.7231 26.355 14.8371 26.4972C14.9388 26.4607 15.0374 26.4247 15.1378 26.3846C18.2675 23.663 28.3133 10.877 28.3133 10.877C28.4603 10.3928 28.5688 9.83146 28.6484 9.25586C27.1685 11.0473 17.7652 22.3941 14.1435 25.6423" fill="#AB7851"/>
<path d="M28.8361 6.43945C28.8361 6.43945 13.2415 17.093 13.0186 19.1443C12.9675 19.6059 13.5865 21.7897 13.5865 21.7897C13.5865 21.7897 26.7621 10.0408 28.7181 7.82192L28.8361 6.43945Z" fill="#D8204B"/>
<path d="M0.645322 7.69808C0.827085 8.69004 1.73138 9.3538 2.51857 9.8514C3.60626 10.539 4.74846 11.1324 5.93318 11.6253C8.50273 12.6994 11.2554 13.2109 14.0131 13.4329C14.1862 13.4481 14.1853 13.1707 14.0131 13.1587C11.4073 12.9468 8.82331 12.4663 6.37629 11.5085C5.18623 11.0423 4.06853 10.4519 2.96619 9.80109C2.13967 9.31503 1.09883 8.66003 0.905759 7.62607C0.872752 7.44974 0.613219 7.52498 0.645322 7.69808Z" fill="#FF3D00"/>
<path d="M0.645047 7.66295C0.144972 9.54209 -0.0309133 11.4937 0.00435415 13.4379C0.0219879 14.4091 0.0988529 15.3784 0.213698 16.3422C0.270669 16.8131 0.340299 17.2825 0.417617 17.7496C0.489056 18.1918 0.549643 18.6641 0.729598 19.0758C0.801037 19.2378 1.03435 19.0956 0.964262 18.9336C0.781595 18.52 0.734119 18.022 0.66042 17.5789C0.583145 17.1018 0.516511 16.623 0.460571 16.1428C0.352738 15.2115 0.289964 14.2754 0.272477 13.3378C0.239471 11.4522 0.420782 9.55871 0.905483 7.73681C0.95115 7.56279 0.690713 7.49078 0.645047 7.66295Z" fill="#FF3D00"/>
<path d="M14.5681 23.2367C14.5803 23.6771 14.6102 24.1086 14.5862 24.549C14.5623 24.9543 14.5351 25.3573 14.5532 25.7635C14.5641 26.0099 14.5844 26.3298 14.7635 26.5172C14.8489 26.4881 14.9321 26.4595 15.0167 26.4291C15.0161 26.4123 15.012 26.3959 15.0048 26.3809C14.9975 26.3658 14.9872 26.3525 14.9746 26.3418C14.7847 26.166 14.8195 25.7524 14.8168 25.5165C14.8141 25.1362 14.8453 24.7567 14.8647 24.3768C14.8869 23.9259 14.8444 23.4758 14.8326 23.0276C14.8168 22.3925 14.8136 21.7545 14.7996 21.1208C14.744 18.5299 14.2987 15.9657 14.2923 13.3684C14.2923 13.1897 14.0215 13.1897 14.0215 13.3684C14.0269 16.0359 14.4831 18.6697 14.5347 21.3331C14.5478 21.9678 14.5505 22.6025 14.5681 23.2367Z" fill="#FF3D00"/>
<path d="M0.68043 19.1138C1.07244 20.2318 1.97945 21.0253 2.89776 21.7006C3.40055 22.0717 3.92639 22.4082 4.44455 22.7581C4.93423 23.0886 5.38592 23.4551 5.85209 23.8174C6.99331 24.706 8.32443 25.2793 9.70348 25.6684C11.1069 26.0668 12.5321 26.1919 13.9641 26.4171C14.1336 26.4439 14.3072 26.4647 14.4822 26.4702C14.6554 26.473 14.6545 26.1969 14.4822 26.1914C14.1517 26.1859 13.8234 26.1185 13.497 26.0829C13.1403 26.0425 12.7843 25.9965 12.429 25.9449C11.7081 25.8448 10.9926 25.7083 10.2849 25.5359C8.8869 25.1957 7.52548 24.6704 6.33634 23.8382C5.85571 23.5017 5.41803 23.101 4.93468 22.7618C4.43009 22.4073 3.91102 22.0772 3.40371 21.7232C2.41939 21.0414 1.35775 20.2253 0.93951 19.0395C0.882992 18.8733 0.621651 18.9453 0.68043 19.1134" fill="#FF3D00"/>
<path d="M0.760073 7.69991C0.760073 7.69991 19.5061 2.91645 28.8655 4.19321C28.8655 4.19321 29.1698 4.31599 28.8655 4.59387C28.8655 4.59387 15.7754 11.8833 14.0193 13.7472C14.0193 13.7472 10.0974 14.9229 9.83783 14.9229C9.57739 14.9229 5.02608 13.5903 4.63678 13.2875C4.24522 12.986 1.73129 10.9564 1.51561 10.5405C1.29813 10.126 0.757812 7.69991 0.757812 7.69991" fill="#BE5674"/>
<path d="M14.1394 26.4165L14.611 25.7929V22.0484L14.5183 18.5482L14.1412 14.6662L14.1331 13.353L13.1727 13.1213L11.1064 12.7963H10.2744L7.8568 12.3066C7.8568 12.3066 6.90006 11.845 6.81912 11.845C6.74 11.845 5.0657 11.1669 5.0657 11.1669L3.68394 10.4777L2.19592 9.42855L1.13157 8.50722L0.758997 7.99023L0.487708 8.58707L0.249879 9.55087V11.1378L0.120565 13.2339C0.120565 13.2339 0.0690203 14.2868 0.120565 14.368C0.174823 14.4488 0.428025 16.321 0.428025 16.321L0.487708 17.6232L0.81868 19.4515C0.81868 19.4515 5.6883 26.3588 13.9626 26.4169C14.0223 26.4169 14.0802 26.4183 14.138 26.4183" fill="#E1809C"/>
<path d="M14.6147 26.569C14.7531 26.5261 14.8901 26.4799 15.0257 26.4278C14.9276 26.4278 14.8272 26.4259 14.7191 26.4241C14.5374 26.4218 14.3439 26.4218 14.1409 26.4199L14.0215 26.5769C14.0215 26.5769 14.2598 26.575 14.6147 26.569Z" fill="#E1809C"/>
<path d="M0.904277 15.6641L0.921459 16.0444C1.4672 15.2653 2.07398 14.5544 2.81234 13.9446C3.61987 13.2767 4.53411 12.757 5.50306 12.372C5.69658 12.2963 5.89372 12.2238 6.0904 12.1583C6.05177 12.14 6.01149 12.1257 5.97013 12.1154C5.90593 12.1154 4.57933 11.5776 4.57933 11.5776L3.48378 11.0325L2.30412 10.2016L1.46177 9.46998L1.16562 9.06055L0.950848 9.53552L0.762755 10.2971V11.5568L0.660118 13.2181C0.660118 13.2181 0.616259 14.0517 0.660118 14.1164C0.703072 14.1805 0.904277 15.6641 0.904277 15.6641Z" fill="#EEA2BB"/>
<path d="M14.473 21.9213L14.3803 18.4193L14.0787 15.3086C13.5 15.7995 12.8963 16.259 12.2701 16.6851C9.93797 18.2628 7.12516 19.2677 4.32592 18.5227C2.86458 18.1321 1.55064 17.4176 0.308594 16.5697L0.351548 17.4975L0.682972 19.3249C0.682972 19.3249 5.55169 26.2331 13.8269 26.2903C13.8866 26.2912 13.9472 26.2912 14.0046 26.2912L14.4762 25.6667V21.9223" fill="#D27996"/>
<path d="M12.0186 5.98985C11.4354 5.6912 10.9195 5.80937 10.4343 6.2225C10.2774 6.35636 10.1598 6.49299 10.0251 6.57192C9.86369 6.66655 9.69233 6.7584 9.56753 6.90242C9.17191 7.37232 9.38306 8.02916 9.69594 8.48429C10.0866 9.05066 10.7472 9.23438 11.3372 8.8591C11.8373 8.54245 11.5091 7.61604 10.919 7.8496C10.1987 8.13625 9.4979 8.85818 9.78773 9.7172C9.92337 10.1151 10.2399 10.3814 10.6527 10.417C11.0691 10.4507 11.4489 10.182 11.7179 9.88753C12.1317 9.43886 11.6013 8.68462 11.0628 9.0202C10.6518 9.27869 10.3185 9.70428 10.3425 10.2208C10.3665 10.7996 10.8765 11.2335 11.4123 11.3111C12.4251 11.4551 13.2702 10.6704 13.9371 9.99231C13.6527 9.76936 13.3692 9.54641 13.0866 9.32346C12.9419 9.62396 12.8253 9.99231 12.9609 10.321C13.092 10.645 13.3497 10.8836 13.6965 10.9418C14.4168 11.0609 15.0435 10.6316 15.3021 9.95815C15.4938 9.46379 14.887 9.14529 14.5086 9.33316C14.1351 9.52149 13.7865 9.89537 13.924 10.356C14.0347 10.7244 14.4001 10.9293 14.7478 10.9995C15.1244 11.0734 15.5128 11.0438 15.8533 10.8601C16.2819 10.6288 16.3981 10.1511 16.3276 9.69966C16.2901 9.46009 16.0265 9.293 15.8072 9.293C15.4907 9.293 15.2917 9.54687 15.2641 9.84552C15.1583 10.9921 16.6201 11.0678 17.3698 10.8795C17.8301 10.7641 18.2569 10.5199 18.5332 10.1229C18.8655 9.64242 18.6625 9.06451 18.3387 8.65462C18.2573 8.9625 18.1778 9.26992 18.0991 9.5778C18.8275 9.335 19.6228 9.22376 20.2328 8.71324C20.6053 8.40028 20.7247 7.97608 20.6569 7.50018C20.5642 6.8558 19.7797 6.68639 19.2783 6.87565C19.4176 7.21215 19.5555 7.54911 19.6947 7.88561C20.4204 7.40509 20.7351 6.58531 20.3743 5.76137C20.013 4.93466 19.0396 4.86865 18.3292 5.18807C18.5951 5.39856 18.8605 5.60673 19.1237 5.81306C19.1996 5.29608 19.002 4.82757 18.473 4.68909C18.0254 4.57092 17.5226 4.70894 17.0967 4.85665C16.6046 5.0288 16.1335 5.25818 15.6928 5.54026C15.336 5.76967 14.916 6.06832 14.7252 6.46806C15.0069 6.43067 15.2913 6.39328 15.5748 6.35682C15.1656 5.82091 14.4254 5.61504 13.796 5.54026C13.1178 5.46318 12.374 5.6769 11.9951 6.29266C12.2429 6.22711 12.4898 6.16156 12.7362 6.0951C12.1755 5.82922 11.5362 5.70459 10.9877 6.07848C10.4958 6.41359 10.253 7.00628 10.1336 7.57496C10.05 7.96269 10.385 8.3929 10.7978 8.25396C11.117 8.14918 11.3309 7.929 11.462 7.61696C11.127 7.52418 10.7915 7.43048 10.4537 7.33816C10.4234 7.69959 10.4546 8.05732 10.6866 8.34674C10.8851 8.59692 11.2097 8.63708 11.4996 8.5743C12.0512 8.45059 12.5069 7.87822 12.8271 7.44294C13.1748 6.96889 12.5241 6.44637 12.0873 6.68639C11.0533 7.256 10.1856 8.36197 9.67741 9.42871C9.41335 9.97107 10.0785 10.5693 10.5261 10.0966C10.8711 9.73151 11.1297 9.29761 11.396 8.86972C11.0592 8.77879 10.7219 8.68416 10.3859 8.59138C10.3855 8.95188 10.3289 9.30869 10.3529 9.67058C10.376 10.0274 10.6803 10.302 11.0375 10.2037C11.7614 10.0043 12.3677 9.55841 13.0436 9.24268L12.2289 8.76494C12.2198 8.97865 12.0774 9.17714 11.9693 9.35854C11.8079 9.63411 11.6519 9.91014 11.566 10.2203C11.5349 10.3379 11.5423 10.4626 11.5872 10.5754C11.6321 10.6882 11.7121 10.7829 11.8147 10.8449C12.043 10.9815 12.2763 10.9141 12.4699 10.7585C13.1517 10.2116 13.787 9.58334 14.2595 8.8351C14.4788 8.48983 14.1935 7.98485 13.7942 8.00424C13.1191 8.03609 12.4563 8.50737 12.0123 9.00081C11.6682 9.38393 11.9345 9.88891 12.3948 9.9443C13.3289 10.0592 14.2821 9.94153 15.2058 9.78321C16.1743 9.6175 17.1514 9.38162 17.9277 8.73724C17.6266 8.55861 17.325 8.37859 17.0234 8.19995C16.8986 8.5286 16.8177 8.89418 16.6766 9.19376C16.6671 9.21453 16.5568 9.3987 16.6129 9.32577C16.5663 9.37193 16.5699 9.37378 16.6233 9.33131C16.5478 9.39039 16.6129 9.36039 16.5148 9.38947C16.3027 9.45317 16.0771 9.44948 15.8655 9.52056C15.2058 9.74074 15.4875 10.8075 16.1535 10.5864C16.8087 10.368 17.4751 10.2268 18.0295 9.78275C18.412 9.47579 18.0837 8.8291 17.6456 8.83972C15.9948 8.88172 14.3562 9.21453 12.6987 9.11759C12.8795 9.30315 13.0595 9.48502 13.2426 9.67012C13.2914 8.97819 13.7087 8.30058 14.1708 7.80067C14.7094 7.21815 15.4396 6.98412 16.1698 6.74132C16.5496 6.61485 16.947 6.49668 17.3431 6.44452C17.6239 6.40713 17.9196 6.36236 18.2469 6.43714C18.3668 6.46622 18.435 6.49483 18.4938 6.55438C18.4604 6.52161 18.4522 6.50268 18.4595 6.45514C18.4459 6.53822 18.4292 6.56823 18.3993 6.62823C18.2592 6.90519 18.034 7.12537 17.845 7.36355C17.6876 7.55926 17.6275 7.80437 17.76 8.03424C17.9011 8.28119 18.2555 8.4012 18.5001 8.2318C19.2254 7.73051 19.8611 7.13229 20.3653 6.39698C20.0546 6.21142 19.7417 6.0254 19.432 5.83984C19.3081 6.07109 19.2295 6.31851 19.1644 6.5733C19.1128 6.76994 19.083 7.01735 18.9555 7.18491C18.6973 7.51541 18.1524 7.45956 17.783 7.48079C17.9571 7.7139 18.1312 7.94792 18.3035 8.18103C18.251 8.31812 18.2895 8.22257 18.3663 8.15748C18.3035 8.21195 18.4803 8.07255 18.5096 8.05178C18.6995 7.90869 18.8614 7.7679 18.9885 7.56295C19.2711 7.11337 19.1047 6.51699 18.6846 6.23957C18.3482 6.01847 17.8712 6.04386 17.4914 6.0951C17.0831 6.15049 16.6916 6.23957 16.3154 6.40713C15.8465 6.61669 16.0531 7.27815 16.4447 7.41755C16.91 7.58096 17.3861 7.3617 17.6017 6.9195C17.7292 6.66101 17.6813 6.30789 17.4082 6.16203C16.2715 5.56657 14.8916 6.22296 13.8485 6.73532C13.3823 6.96566 12.9184 7.25507 12.4495 7.4434C11.8504 7.68435 11.1614 7.87314 10.7128 8.37582C10.9687 8.63615 11.2228 8.89603 11.4788 9.15729C11.557 9.05989 11.6569 8.99527 11.7514 8.91357C11.4503 8.83095 11.1482 8.75063 10.8485 8.66985C10.8914 8.80648 10.9321 8.94357 10.9696 9.08205C10.9945 9.17298 11.0162 9.26484 11.0338 9.35716C11.0533 9.46286 11.0451 9.33962 11.032 9.46286L11.1053 9.18545C11.0786 9.25007 11.0338 9.28007 10.9502 9.34977C10.8174 9.45553 10.7163 9.59723 10.6586 9.75874C10.5926 9.94984 10.6079 10.2129 10.7327 10.3787C11.0257 10.771 11.4476 10.7553 11.8834 10.6953C12.6064 10.597 13.295 10.2928 13.9864 10.0726C14.5231 9.9023 15.0643 9.76151 15.5969 9.57365C15.9419 9.45179 16.2846 9.30223 16.64 9.21684C17.0189 9.12775 17.4164 9.1319 17.7975 9.04743C18.4391 8.90295 18.9943 8.41367 19.3796 7.89253C19.7784 7.35293 19.8842 6.66193 19.7711 6.00693C19.7214 5.71198 19.3696 5.54811 19.106 5.62197C18.8026 5.70874 18.6769 6.00601 18.7276 6.30189C18.809 6.76348 18.5933 7.19276 18.2813 7.51772C17.8595 7.95254 17.3463 8.01762 16.7793 8.08455C16.0708 8.17272 15.4138 8.48152 14.7383 8.70447C14.3291 8.8411 13.9086 8.9348 13.4999 9.0742C13.1648 9.18822 12.832 9.30546 12.4952 9.40932C12.3225 9.46286 12.1493 9.51041 11.9739 9.55472C11.8938 9.57411 11.8133 9.59211 11.7324 9.60826C11.6867 9.61565 11.6415 9.62396 11.5968 9.62996C11.7369 9.60826 11.6031 9.62811 11.5764 9.62904C11.5189 9.63242 11.4612 9.63212 11.4037 9.62811C11.4973 9.64288 11.5158 9.64473 11.4607 9.63181C11.3874 9.61565 11.5837 9.71489 11.5963 9.72366C11.746 9.84091 11.7265 10.0934 11.6257 10.2106C11.708 10.1179 11.8165 10.0523 11.8993 9.95861C12.2926 9.51272 12.0525 8.87572 11.8911 8.37582C11.7586 7.96315 11.302 7.85607 10.9868 8.13163C10.9054 8.20457 10.7933 8.28027 10.7137 8.37582C10.5265 8.60661 10.4917 8.93019 10.7137 9.15729C10.9154 9.36224 11.2807 9.37839 11.4797 9.15729C11.7925 8.80787 12.3595 8.66431 12.8045 8.48291C13.2679 8.29735 13.7011 8.04624 14.1442 7.81775C14.6239 7.57126 15.1113 7.34462 15.6268 7.18353C15.8809 7.10413 16.1128 7.05244 16.3493 7.03813C16.4108 7.03582 16.4723 7.03582 16.5338 7.03813C16.5306 7.0372 16.721 7.06074 16.6242 7.04551C16.7404 7.0649 16.824 7.09906 16.8634 7.12029C16.7974 6.86734 16.7323 6.61623 16.6685 6.36467L16.6341 6.43206C16.6938 6.3619 16.8896 6.40944 16.7323 6.35405C16.7761 6.69055 16.8186 7.02659 16.8634 7.36401C16.706 7.43325 16.8268 7.38155 16.8598 7.36447C17.0551 7.29496 17.256 7.24292 17.4602 7.20891C17.5809 7.18353 17.67 7.1743 17.8414 7.16691C17.9142 7.16322 17.9883 7.16691 18.0611 7.17245C17.949 7.16414 18.1271 7.18907 18.152 7.19691C18.1163 7.1863 18.0869 7.14891 18.1163 7.17799C18.0584 7.1189 18.0417 7.07228 18.0539 6.99658C18.0335 7.05844 18.0344 7.06305 18.0548 7.00305C18.0209 7.05567 18.0182 7.0589 18.0543 7.00951C18.0412 7.02659 17.8947 7.14845 17.9653 7.0949C17.6623 7.32708 17.4091 7.51356 17.2653 7.8833C17.1378 8.21195 17.4598 8.60338 17.7867 8.58446C18.412 8.54799 19.05 8.53784 19.5627 8.11825C19.834 7.89345 19.9922 7.59111 20.1057 7.25738C20.2011 6.97443 20.2296 6.66101 20.3689 6.39559C20.7048 5.76183 19.8304 5.25962 19.4356 5.83845C19.0423 6.41082 18.5223 6.88672 17.9571 7.27677L18.6132 8.1441C19.1223 7.5071 20.075 6.45375 19.1757 5.69305C18.4016 5.03805 17.1948 5.30347 16.328 5.54119C15.3333 5.80891 14.283 6.17357 13.5216 6.9038C12.7787 7.61465 12.2397 8.62923 12.1651 9.66873C12.1412 9.98077 12.4283 10.2056 12.7045 10.2222C14.3621 10.3168 16.0007 9.98631 17.6515 9.94292C17.5262 9.62904 17.3983 9.31423 17.2708 8.99943C16.891 9.30269 16.3163 9.37147 15.8709 9.5201L16.1589 10.5859C16.4126 10.5014 16.6861 10.5088 16.9384 10.4087C17.212 10.3011 17.4064 10.1109 17.5588 9.85983C17.8115 9.44301 17.9024 8.9445 18.0724 8.49398C18.1574 8.2655 18.0173 7.98577 17.8219 7.86945C17.5963 7.73282 17.3585 7.79744 17.1677 7.95485C16.5604 8.4589 15.6702 8.58353 14.9228 8.71832C14.0953 8.86372 13.2354 8.94127 12.3989 8.83925C12.5255 9.15406 12.6539 9.46702 12.7805 9.78228C12.9207 9.62765 13.0748 9.49379 13.2421 9.37655C13.4117 9.25838 13.6649 9.11436 13.7983 9.1079C13.6418 8.83174 13.4861 8.55509 13.3312 8.27796C12.9075 8.94127 12.3148 9.48917 11.7084 9.97523C12.0091 10.1552 12.3121 10.3357 12.6127 10.5121C12.6883 10.2434 12.8533 10.0117 12.9925 9.77305C13.1743 9.46009 13.2982 9.13052 13.3145 8.76355C13.3339 8.30842 12.8483 8.12563 12.5015 8.28765C11.9142 8.56045 11.3847 8.96481 10.7553 9.13606C10.9823 9.31423 11.2075 9.49194 11.4381 9.66919C11.415 9.30685 11.4666 8.95004 11.4729 8.59C11.4828 8.02362 10.7445 7.85976 10.4646 8.31119C10.2489 8.65877 10.0464 9.01558 9.76557 9.31423C10.0482 9.5381 10.3317 9.76013 10.6143 9.984C11.0492 9.07744 11.7537 8.12379 12.6381 7.63958C12.3912 7.3857 12.1443 7.1346 11.8979 6.88211C11.9535 6.80918 11.8256 6.97212 11.8133 6.98874C11.7511 7.06055 11.6865 7.13029 11.6198 7.19784C11.566 7.25092 11.5118 7.30446 11.4548 7.35524C11.4046 7.39724 11.4001 7.40094 11.4394 7.36909C11.4002 7.39994 11.3594 7.42875 11.3173 7.4554C11.288 7.47525 11.1166 7.54634 11.2522 7.49556C11.1916 7.51218 11.2043 7.51218 11.2898 7.49926C11.2016 7.51218 11.3888 7.53111 11.4146 7.54311C11.4578 7.56847 11.4944 7.60409 11.5213 7.64697C11.6026 7.77806 11.5204 7.58973 11.5348 7.69497C11.5195 7.57773 11.5344 7.4554 11.5412 7.33631C11.5868 6.80502 10.744 6.55623 10.532 7.05705C10.4953 7.14522 10.399 7.22461 10.5148 7.1863C10.7368 7.41386 10.9588 7.63958 11.179 7.86622C11.2545 7.51772 11.3485 7.21907 11.5624 7.01366C11.5072 7.06628 11.6524 6.95966 11.6763 6.94904C11.5737 7.00074 11.8323 6.9315 11.7229 6.94165C11.8925 6.92504 12.025 6.96704 12.1936 7.04782C12.4681 7.17522 12.7651 7.1226 12.9338 6.84934C12.9555 6.81038 12.986 6.7773 13.0228 6.75286C13.0292 6.75102 13.1779 6.67532 13.0825 6.71547C13.1323 6.6947 13.1843 6.67809 13.2385 6.6647C13.3543 6.63377 13.6568 6.62269 13.7788 6.63931C13.9027 6.65778 14.0221 6.68732 14.1428 6.72194C14.254 6.75286 14.3476 6.79117 14.4014 6.81472C14.5005 6.86134 14.5931 6.92134 14.6831 6.98597C14.5977 6.92227 14.7152 7.02059 14.7229 7.02982C14.7568 7.06167 14.7853 7.09906 14.8129 7.1346C15.0204 7.40648 15.5219 7.31739 15.6634 7.02335C15.6855 6.97581 15.7122 6.93335 15.7416 6.89134C15.6444 7.02936 15.7972 6.83918 15.8298 6.80918C15.8823 6.75881 15.9367 6.71061 15.993 6.6647C15.8967 6.74363 16.0219 6.64393 16.035 6.63654C16.0753 6.60654 16.1151 6.57654 16.1571 6.54838C16.3185 6.43852 16.4885 6.33882 16.6617 6.24604C16.744 6.20172 16.8277 6.15972 16.9118 6.11864C17.0153 6.06786 17.0958 6.03232 17.1369 6.0157C17.3146 5.94277 17.4973 5.87907 17.68 5.82737C17.7577 5.80752 17.8341 5.78814 17.911 5.77198C17.9368 5.76644 18.0851 5.7429 17.9395 5.7646C17.9784 5.75813 18.0204 5.75537 18.0598 5.75213C18.1185 5.74936 18.1796 5.75029 18.2397 5.7526C18.081 5.73875 18.1764 5.74521 18.218 5.75536C18.3216 5.7826 18.0986 5.69444 18.19 5.7429C18.2248 5.76183 18.0973 5.63904 18.1149 5.67089C18.0448 5.54165 18.0891 5.67089 18.0756 5.52503C18.0783 5.56519 18.0625 5.67089 18.0864 5.51441C18.0141 6.01247 18.4215 6.34528 18.88 6.13618C19.059 6.05632 19.1517 6.07432 19.2738 6.11264C19.1625 6.07802 19.4216 6.22896 19.3289 6.15003C19.3416 6.15926 19.4397 6.27927 19.3719 6.18741C19.4013 6.22665 19.4225 6.2705 19.4451 6.31297C19.3841 6.1948 19.4727 6.51514 19.4601 6.3739C19.4605 6.4256 19.4619 6.47868 19.4601 6.52945C19.4605 6.41313 19.4433 6.57561 19.4388 6.59315C19.4252 6.63885 19.4049 6.67116 19.3434 6.76625C19.385 6.7007 19.2525 6.85349 19.2638 6.84287C19.2141 6.8918 19.2123 6.88626 19.1531 6.92642C18.662 7.25138 18.969 8.16256 19.5704 7.93592C19.56 7.93961 19.7417 7.88607 19.7033 7.88792C19.806 7.88053 19.7454 7.91146 19.6472 7.83437C19.634 7.81813 19.6212 7.8015 19.6088 7.78452C19.6079 7.71436 19.5464 7.91192 19.6088 7.78821C19.5464 7.91192 19.6803 7.71713 19.583 7.8256C19.5611 7.84978 19.5372 7.87202 19.5116 7.89207C19.5546 7.86207 19.5491 7.86437 19.4967 7.90361C19.3845 7.9782 19.2664 8.04305 19.1436 8.09748C18.7855 8.26227 18.2442 8.3652 17.8151 8.50691C17.4014 8.64539 17.3182 9.10467 17.5773 9.43009C17.5095 9.34654 17.6203 9.5141 17.637 9.54503C17.561 9.39039 17.6397 9.71628 17.6257 9.50764C17.6352 9.65904 17.6596 9.40563 17.6185 9.54872C17.6596 9.40932 17.6424 9.48964 17.6194 9.53302C17.561 9.63411 17.7021 9.43655 17.6257 9.52656C17.6013 9.55749 17.4534 9.67843 17.58 9.58472C17.528 9.62209 17.4738 9.65616 17.4177 9.68673C17.3937 9.69643 17.3711 9.7112 17.3476 9.7232C17.2237 9.78505 17.458 9.68166 17.3259 9.73243C17.2478 9.76247 17.1681 9.78805 17.0872 9.80906C17.0189 9.82752 16.947 9.84091 16.8778 9.85475C16.8168 9.86445 16.8227 9.86399 16.8955 9.85291C16.8534 9.85337 16.8114 9.86029 16.772 9.86214C16.7042 9.8626 16.6364 9.8626 16.5686 9.86491C16.5283 9.86399 16.489 9.86445 16.451 9.85568C16.6052 9.87229 16.4827 9.85845 16.4501 9.85291C16.3943 9.8408 16.3394 9.82444 16.286 9.80398C16.4293 9.85752 16.3366 9.82475 16.3009 9.80398C16.2073 9.74905 16.3995 9.89214 16.319 9.82013C16.2403 9.7509 16.3348 9.86029 16.3529 9.90599C16.3348 9.86214 16.3321 9.76936 16.3488 9.93876C16.3484 9.90599 16.3488 9.87322 16.352 9.84137C15.998 9.89122 15.6421 9.94061 15.2881 9.98862C15.2673 9.85337 15.2809 9.97523 15.28 10.0062C15.294 9.91984 15.2949 9.90691 15.2809 9.96415C15.3179 9.88614 15.3247 9.87322 15.2967 9.92445C15.247 10.0246 15.383 9.83168 15.3048 9.91153C15.247 9.97338 15.4106 9.84875 15.2836 9.91707C15.4608 9.8206 15.058 9.948 15.2564 9.92445C15.2082 9.9297 15.1598 9.93217 15.1113 9.93184C15.0765 9.93184 14.906 9.91107 15.0765 9.9323C14.9984 9.91984 14.9218 9.89943 14.8477 9.87137C14.9938 9.92399 14.9056 9.89676 14.869 9.87506C14.7496 9.81044 14.9341 9.93876 14.878 9.8843C14.9761 9.98354 15.0005 10.2203 14.944 10.314C14.8491 10.4742 15.0096 10.2933 14.8943 10.375C14.9468 10.3386 15.0023 10.3069 15.0602 10.2803C14.7944 10.0735 14.5308 9.86537 14.2658 9.65765C14.3069 9.54918 14.1659 9.79244 14.2468 9.69135L14.1781 9.76613C14.0691 9.87183 14.2554 9.71628 14.1301 9.7989C14.1044 9.81413 14.0759 9.82891 14.0461 9.84321C14.1039 9.81875 14.1039 9.8169 14.0451 9.83767C14.0158 9.84598 13.9864 9.85429 13.9561 9.86029C14.0845 9.83029 13.9588 9.85475 13.928 9.85475C13.8326 9.8566 14.018 9.88753 13.8747 9.84275C13.9552 9.86768 13.9226 9.84645 13.971 9.9203C13.9977 9.99739 14.0013 10.0066 13.9837 9.94846C13.9918 10.0274 13.9927 10.0352 13.9918 9.96923C13.9918 10.0639 14.0099 9.90645 14.0266 9.87276C14.287 9.32392 13.6292 8.7414 13.1752 9.20483C12.8194 9.56718 12.4283 9.98123 11.9467 10.1622C11.7718 10.2296 11.5818 10.2813 11.4322 10.1474C11.4453 10.1594 11.4001 10.0565 11.4186 10.1248C11.429 10.1622 11.4051 10.2411 11.4367 10.1285C11.4186 10.1977 11.4846 10.0639 11.4548 10.1012C11.4999 10.047 11.5541 10.0013 11.6149 9.96646C11.3947 9.67796 11.1772 9.38855 10.9588 9.10005C10.8846 9.1776 10.834 9.23114 10.7861 9.26299C10.7689 9.27592 10.6247 9.341 10.7422 9.29669C10.7056 9.31008 10.5835 9.31931 10.7309 9.30638C10.6079 9.317 10.8476 9.33916 10.7345 9.30823C10.8729 9.3447 10.7228 9.28469 10.8308 9.37008C10.7987 9.3447 10.7494 9.26069 10.8299 9.37978C10.7621 9.27869 10.8666 9.49887 10.8295 9.38255C10.8159 9.34608 10.8073 9.22884 10.8213 9.37701C10.8189 9.33667 10.8202 9.29619 10.825 9.25607C10.8137 9.39916 10.8304 9.2653 10.8385 9.23345C10.8797 9.09497 10.7888 9.32623 10.8589 9.19329C10.8643 9.1836 10.9561 9.05943 10.8901 9.13883C10.9249 9.09682 10.9656 9.0599 11.0076 9.02389C10.9461 9.07836 11.1057 8.96388 11.0967 8.96942C11.1344 8.94481 11.1744 8.92409 11.2161 8.90757C11.0759 8.57107 10.938 8.23503 10.7996 7.89899C10.6929 7.96731 10.73 7.97608 10.6536 7.929C10.5686 7.8773 10.5125 7.70512 10.4736 7.62112C10.4497 7.57126 10.4397 7.50941 10.4271 7.45633C10.4397 7.50941 10.4289 7.54911 10.4031 7.59942C10.3488 7.71343 10.447 7.58603 10.3592 7.64743C10.4004 7.61835 10.4442 7.5948 10.4867 7.5708C10.7214 7.43463 10.9154 7.27308 11.1125 7.0829C11.2676 6.93288 11.3327 6.85903 11.4806 6.93565C12.1036 7.25507 12.6525 6.30143 12.0286 5.98016" fill="#F1F1F2"/>
<path d="M10.0095 4.16401C10.128 3.65257 11.6268 3.24083 11.9664 3.32299C12.3042 3.40469 11.6901 4.3131 11.4125 4.8527C11.1263 5.41215 10.8614 5.99237 10.5245 5.90928C10.184 5.82943 9.89014 4.67591 10.0095 4.16401Z" fill="#0B7D70"/>
<path d="M15.8033 0.402007C17.8922 1.81309 19.6728 5.90463 18.5939 7.56774C17.5169 9.23039 12.9896 9.37903 10.8984 7.97025C8.81129 6.55917 11.1597 4.93852 12.2363 3.2768C13.3165 1.61368 13.713 -1.00769 15.8019 0.402007" fill="#BE202E"/>
<path d="M18.1587 7.26398C16.5594 7.19936 14.9367 7.06919 13.351 6.82732C12.1392 6.64176 11.2399 6.03754 10.7439 5.18359C10.0069 6.16447 9.62304 7.10843 10.9008 7.9716C12.9906 9.38038 17.518 9.23175 18.5963 7.56909C18.6533 7.48093 18.7003 7.38354 18.7424 7.28152C18.5466 7.27968 18.3517 7.27137 18.16 7.26491" fill="#991B2B"/>
<path d="M9.74596 1.35402C9.78575 1.34341 9.98921 1.50266 10.001 1.52343C10.289 2.05703 11.6215 2.59478 11.8141 2.66125C12.2581 2.81496 12.623 3.23177 12.4552 3.39841C12.2956 3.55858 11.3298 3.35548 11.1359 3.32132C10.6322 3.22728 10.1598 3.00572 9.76178 2.67694C9.36887 2.34137 9.11928 1.54697 9.74596 1.35402Z" fill="#2BB573"/>
<path d="M11.6747 1.39355C11.8325 0.82995 13.5226 0.450061 13.8974 0.55715C14.2718 0.665624 13.5443 1.64558 13.2075 2.23734C12.8575 2.84387 12.536 3.47717 12.1612 3.36778C11.7886 3.2593 11.5169 1.95992 11.6747 1.39355Z" fill="#2BB573"/>
<path d="M16.2914 2.2408C16.6428 2.41113 16.6839 3.64496 16.5659 3.89653C16.4501 4.15041 15.8958 3.53326 15.5495 3.2323C15.195 2.92442 14.8197 2.63085 14.9355 2.37651C15.0535 2.12541 15.9415 2.07048 16.2914 2.2408Z" fill="#E7E6E6"/>
<path d="M17.0739 5.65341C17.4614 5.61463 18.118 6.64906 18.1473 6.92601C18.1727 7.2062 17.3877 6.96894 16.9401 6.89324C16.4785 6.81615 16.0091 6.76215 15.9811 6.48565C15.9558 6.20593 16.686 5.69264 17.0739 5.65341Z" fill="#E7E6E6"/>
<path d="M13.1616 6.11822C13.5482 6.07991 14.207 7.1148 14.235 7.39221C14.2626 7.67148 13.4772 7.43422 13.0287 7.35944C12.5671 7.28236 12.0987 7.22835 12.0711 6.95093C12.0435 6.67075 12.7755 6.15746 13.1616 6.11822Z" fill="#E7E6E6"/>
<path d="M13.1297 4.1476C13.2454 4.52887 14.4377 4.74213 14.6995 4.65812C14.9591 4.57318 14.4373 3.92973 14.1949 3.53691C13.9472 3.13533 13.7125 2.7139 13.4521 2.7979C13.1912 2.88238 13.0144 3.77094 13.1297 4.1476Z" fill="#E7E6E6"/>
<path d="M10.7182 4.69278C10.6712 4.22334 11.8192 3.42571 12.1289 3.3934C12.4391 3.36063 12.1823 4.31243 12.1018 4.85249C12.0208 5.41194 11.9666 5.98108 11.656 6.01293C11.3467 6.04524 10.7661 5.16083 10.7182 4.69278Z" fill="#04A69C"/>
</svg>
