<svg width="74" height="74" viewBox="0 0 74 74" fill="none" xmlns="http://www.w3.org/2000/svg">
<path d="M68.98 54.7251C71.9927 49.304 73.5701 43.2029 73.5625 37.0008C73.5625 16.8086 57.1922 0.438344 37 0.438344C30.7988 0.430661 24.6986 2.00763 19.2781 5.01963L16.5981 2.34081C15.3784 1.12339 13.7255 0.439647 12.0022 0.439647C10.2789 0.439647 8.62597 1.12339 7.40627 2.34081L2.33871 7.40594C1.12121 8.62585 0.437434 10.2789 0.437434 12.0025C0.437434 13.726 1.12121 15.3791 2.33871 16.599L5.01874 19.279C2.00675 24.6995 0.429773 30.7997 0.437455 37.0008C0.437455 57.1931 16.8053 73.5634 37 73.5634C43.2013 73.5712 49.3016 71.9938 54.7218 68.9809L57.4018 71.6609C58.6217 72.8784 60.2748 73.5622 61.9984 73.5622C63.7219 73.5622 65.375 72.8784 66.5949 71.6609L71.66 66.5958C72.8775 65.3758 73.5613 63.7227 73.5613 61.9992C73.5613 60.2757 72.8775 58.6226 71.66 57.4027L68.98 54.7251V54.7251ZM6.16802 12.7684C5.96544 12.5647 5.85172 12.2891 5.85172 12.0018C5.85172 11.7146 5.96544 11.439 6.16802 11.2353L11.2356 6.16769C11.4389 5.96488 11.7144 5.85099 12.0016 5.85099C12.2888 5.85099 12.5642 5.96488 12.7675 6.16769L14.6627 8.06406C12.1918 9.97499 9.9741 12.1927 8.06317 14.6636L6.16802 12.7684V12.7684ZM37 65.5659C21.2257 65.5659 8.43611 52.7776 8.43611 37.0008C8.43611 21.2253 21.2257 8.437 37 8.437C52.7742 8.437 65.565 21.2253 65.565 37.0008C65.565 52.7776 52.7742 65.5659 37 65.5659ZM67.8331 62.7664L62.7631 67.834C62.5598 68.0364 62.2846 68.1501 61.9977 68.1501C61.7109 68.1501 61.4357 68.0364 61.2324 67.834L59.3372 65.9364C61.8083 64.0265 64.0257 61.8092 65.9355 59.3381L67.8331 61.2333C68.0357 61.437 68.1494 61.7126 68.1494 61.9999C68.1494 62.2871 68.0357 62.5627 67.8331 62.7664" fill="white"/>
<path d="M48.6549 35.8229C52.0442 42.9563 53.6249 45.3365 59.6907 40.4322C65.7515 35.5316 68.5619 23.6842 46.2539 11.8318C40.1882 8.60945 30.4979 14.7142 31.5912 19.8573C32.6868 25.0029 45.2716 28.692 48.6549 35.8229V35.8229ZM59.7236 29.9095C63.8624 29.9095 57.1813 32.1776 53.1984 35.6169C51.2679 37.2842 52.1966 29.9095 59.7236 29.9095ZM54.2002 20.7799C58.3415 20.7799 51.6603 23.0443 47.6774 26.4861C45.753 28.1509 46.6695 20.7799 54.2002 20.7799V20.7799ZM45.296 14.8324C49.4337 14.8324 42.7513 17.1005 38.7757 20.5349C36.8428 22.2022 37.7666 14.8324 45.296 14.8324" fill="white"/>
<path d="M49.6775 50.3685C44.7305 53.887 41.6959 58.0551 42.8841 59.6834C45.0243 62.6254 45.0243 62.6254 53.9772 56.2538C58.9168 52.7401 61.9588 48.5671 60.7705 46.9413C58.6206 44.0005 58.6206 44.0005 49.6775 50.3685Z" fill="white"/>
<path d="M49.8517 48.7554C52.1088 48.8432 50.7012 46.7494 50.9608 44.1132C51.2155 41.4758 49.0705 42.8274 45.0291 42.5922C40.9828 42.357 42.1589 45.5416 42.3222 48.0864C42.4868 50.6299 44.0407 48.5397 49.8517 48.7554" fill="white"/>
<path d="M35.0147 50.7189C33.6351 49.8597 32.4687 48.686 31.4304 47.3625C32.3664 47.7415 33.5035 47.9596 34.6808 48.1839C35.1914 48.2814 35.7021 48.3789 36.1847 48.4886C36.7124 48.6105 37.1207 48.6665 37.4681 48.6665C39.362 48.6665 39.5692 47.0602 39.6935 46.0986C39.8056 45.2296 39.9604 44.0377 40.7404 42.4643C41.1499 41.6331 41.0085 41.0055 40.8172 40.624C40.3151 39.6149 39.1256 39.3882 37.6216 39.103C36.7831 38.9433 35.8325 38.763 34.8867 38.4363C34.2018 38.1999 33.6619 38.0902 33.1854 38.0902C31.3597 38.0902 30.9051 39.621 30.5724 40.7373C30.3798 41.3845 30.1617 42.1206 29.7314 42.9274C29.5174 43.3223 29.3716 43.7504 29.3 44.1937C26.5554 39.543 24.6261 34.3828 21.372 33.1847C21.2965 33.1579 21.2172 33.1494 21.1417 33.1262C21.1953 33.008 21.2294 32.902 21.2904 32.7789C21.6999 31.9489 21.5585 31.3201 21.3672 30.9386C20.982 30.1659 20.1935 29.8527 19.171 29.6199C20.3592 28.4999 21.9314 26.8472 24.1617 24.4951C24.336 24.3122 24.4993 24.1294 24.6663 23.9454C24.5383 24.272 24.386 24.6145 24.1946 24.9704C23.5341 26.2086 23.8985 26.9508 24.7638 27.4505C24.1556 27.6394 23.7181 27.9453 23.5195 28.3865C21.8985 31.9867 21.8985 31.9867 32.6406 36.9982C38.5674 39.7648 44.1042 40.3949 45.0024 38.4095C46.6257 34.8008 46.6257 34.8008 35.8812 29.7942C34.5412 29.1654 33.1605 28.6272 31.7485 28.183C31.9532 27.3274 31.8777 25.726 33.0391 23.3896C33.8508 21.7419 30.9282 22.1039 27.8814 21.057C27.6011 20.9595 27.3622 20.8985 27.1452 20.8522C29.3463 17.6786 30.2348 14.8779 29.144 13.8639C26.4237 11.3423 26.4237 11.3423 18.7225 19.4555C15.5293 22.8168 13.505 26.3159 13.3197 28.4499C11.8487 28.6717 11.4295 30.0282 11.1248 31.0507C10.9322 31.6991 10.7141 32.434 10.2838 33.242C9.72809 34.2841 9.64765 35.2322 10.045 36.061C10.4191 36.841 11.1248 37.3346 12.0096 37.688C10.6933 39.7306 10.1132 42.1352 11.0114 44.3436C19.6706 65.6474 32.136 65.3597 38.0299 61.0259C43.9274 56.6932 41.7471 54.9077 35.0147 50.7189V50.7189ZM14.3337 45.8646C15.4696 39.3882 23.1002 39.9208 21.1149 41.2772C17.0211 44.0852 13.7037 49.4209 14.3337 45.8646ZM25.2623 48.7238C21.1685 51.5306 17.8547 56.8626 18.4812 53.3112C19.6207 46.8286 27.2501 47.3625 25.2623 48.7238ZM32.6247 54.1704C28.531 56.9772 25.2196 62.3116 25.8436 58.7602C26.9856 52.2801 34.6101 52.8139 32.6247 54.1704Z" fill="white"/>
</svg>
