<svg width="34" height="36" viewBox="0 0 34 36" fill="none" xmlns="http://www.w3.org/2000/svg">
<path d="M33.2601 19.2219C33.9215 19.4569 34.0632 19.6762 33.953 20.5065C33.6853 22.4491 33.1971 24.3446 32.2995 26.1149C30.4884 29.671 27.827 32.4125 24.2837 34.2611C18.8034 37.1279 12.5987 36.4386 7.81127 32.4752C4.4097 29.6553 2.33096 26.0835 1.5908 21.7284C1.51206 21.2428 1.43332 20.7415 1.40182 20.2559C1.35458 19.5666 1.57505 19.3472 2.28371 19.2532C2.69316 17.1384 3.08686 15.0078 4.56718 13.1749C4.31521 13.0026 4.07899 12.8459 3.85852 12.6893C2.29946 11.624 1.13411 10.2454 0.39395 8.52217C0.236469 8.16186 0.126233 7.78588 0.031745 7.4099C-0.125735 6.73627 0.0159969 6.45429 0.645918 6.14097C1.57505 5.671 2.58293 5.53001 3.6223 5.46734C4.86639 5.38901 6.07899 5.624 7.32308 6.03131C7.38608 5.82766 7.46482 5.63967 7.51206 5.45168C7.87427 3.85377 8.58293 2.42818 9.60655 1.17491C9.77978 0.955593 10.0003 0.751938 10.205 0.563948C11.0239 -0.172344 11.4491 -0.18801 12.2207 0.579614C14.1262 2.49084 15.0711 4.79371 14.9609 7.48823C14.9451 7.69188 14.8979 7.89554 14.8506 8.0992C14.8034 8.30285 14.7562 8.50651 14.6932 8.80416C14.9294 8.6475 15.1184 8.53784 15.2916 8.42818C15.7483 8.13053 16.268 7.97387 16.7877 8.11486C17.2758 8.24019 17.7168 8.17752 18.1735 8.0992C19.1341 7.94254 20.0475 8.08353 20.9294 8.47517C21.1341 8.56917 21.3861 8.63183 21.6066 8.61617C23.2443 8.45951 24.6459 9.02348 25.9058 10.0104C26.331 10.3394 26.7719 10.5431 27.2916 10.6684C29.6853 11.248 31.3388 12.7363 32.1262 15.0391C32.5987 16.3864 32.8821 17.765 33.2601 19.2219ZM2.59867 20.6632C2.58293 20.7258 2.55143 20.8042 2.56718 20.8668C2.63017 21.3368 2.67741 21.8068 2.7719 22.2611C3.66954 26.3342 5.81127 29.624 9.13411 32.1305C12.5514 34.6997 16.4254 35.6867 20.5672 34.5274C26.7404 32.8042 30.6302 28.6684 32.4884 22.6057C32.6774 22.0104 32.7089 21.3525 32.8191 20.6632C32.2837 20.8042 31.89 20.9295 31.4806 21.0235C28.7089 21.6814 25.89 21.8851 23.0554 22.0418C19.5908 22.2454 16.1262 22.2767 12.6774 22.0418C10.8506 21.9164 9.02387 21.7284 7.1971 21.4778C5.68529 21.2741 4.17348 20.9451 2.59867 20.6632ZM21.827 14.4438C19.0239 13.7075 16.2522 13.1906 13.3861 13.3629C12.0947 13.4412 10.8191 13.6449 9.73253 14.4125C8.016 15.6344 6.81915 17.248 6.22072 19.2689C6.12623 19.5822 6.07899 19.9112 6.00025 20.2872C6.88214 20.4125 7.63804 20.5065 8.36245 20.6005C8.75616 19.9425 9.08686 19.3472 9.48057 18.7989C10.8979 16.8564 12.6774 15.4308 15.1341 15.0235C16.8664 14.7415 18.5829 14.8512 20.2995 15.0861C20.8979 15.1645 21.5121 15.2428 22.2522 15.3525C22.0632 14.9608 21.953 14.7258 21.827 14.4438ZM11.2758 1.08092C11.1184 1.17491 11.0396 1.19058 10.9766 1.23758C10.8664 1.34724 10.7404 1.44123 10.6459 1.56656C9.51206 2.88249 8.74041 4.35507 8.47269 6.09397C8.29946 7.19058 8.42545 8.22452 8.99238 9.1958C9.32308 9.75977 9.73253 10.2454 10.4727 10.4647C10.4569 10.2767 10.4412 10.1514 10.4412 10.0261C10.4884 8.56917 10.5042 7.11225 10.5987 5.65533C10.6302 5.06003 10.9294 4.79371 11.2601 4.84071C11.6223 4.88771 11.7168 5.18536 11.638 5.79632C11.5436 6.67361 11.4176 7.55089 11.4018 8.44384C11.3861 9.13314 11.4963 9.82243 11.5436 10.6057C12.5357 10.3081 13.1026 9.69711 13.4806 8.89815C13.9373 7.9582 14.0317 6.97126 13.8585 5.92165C13.5278 4.04175 12.6932 2.42818 11.2758 1.08092ZM22.8506 16.6214C20.2995 16.0418 17.8585 15.7598 15.3861 16.0574C14.8034 16.1357 14.1892 16.2924 13.6538 16.5431C11.89 17.3263 10.6774 18.7206 9.70104 20.3342C9.63804 20.4282 9.66954 20.5692 9.65379 20.7415C10.3625 20.8042 11.0396 20.8668 11.6695 20.9295C11.7955 20.8198 11.8743 20.7728 11.953 20.6945C13.2128 19.3629 14.7562 18.5483 16.5829 18.2663C18.1892 18.0156 19.764 18.188 21.3388 18.5483C21.9688 18.6893 22.5829 18.8616 23.3703 19.0653C23.1814 18.1566 23.0081 17.4047 22.8506 16.6214ZM5.6223 13.5822C4.07899 15.2898 3.65379 17.436 3.30734 19.6919C3.90576 19.8329 4.39395 19.9425 4.91364 20.0522C4.99238 19.7545 5.07112 19.5666 5.10261 19.3629C5.40182 17.9843 6.04749 16.778 6.91364 15.6658C8.42545 13.7076 10.3782 12.5169 12.8979 12.3446C14.9766 12.2193 17.0396 12.329 19.0711 12.7363C19.6538 12.8459 20.2365 12.9556 21.0081 13.0966C20.4884 12.5169 20.268 11.9373 19.6223 11.7337C17.6538 11.1227 15.6538 10.7937 13.5751 10.919C13.3546 10.9347 13.1026 10.9974 12.9136 11.107C12.2207 11.53 11.4806 11.7337 10.7089 11.671C9.57505 13.4256 8.58293 13.8015 5.6223 13.5822ZM9.2286 11.9216C8.85064 11.765 8.59867 11.7023 8.3782 11.577C7.1656 10.9034 5.93726 10.2611 4.75616 9.54045C4.14198 9.16447 4.22072 8.83549 4.91364 8.45951C6.06324 9.1958 7.1971 10.0104 8.59867 10.5274C7.71678 9.21147 7.6223 8.97648 7.27584 7.20625C5.73253 6.29763 2.26797 6.2663 1.05537 7.19058C1.13411 7.44123 1.1971 7.72322 1.29159 7.97387C1.76403 9.08614 2.44119 10.0731 3.32308 10.919C4.14198 11.7023 5.07112 12.3603 6.22072 12.5639C7.27584 12.7676 8.26797 12.6893 9.2286 11.9216ZM18.6617 9.10181C22.268 12.3133 24.5514 16.0261 24.4569 20.8981C25.1184 20.8355 25.6695 20.7885 26.1892 20.7415C26.2365 20.6162 26.268 20.5692 26.2837 20.5222C26.2995 20.4752 26.2995 20.4125 26.2995 20.3655C26.3467 16.1514 24.6459 12.7519 21.4806 10.0261C20.7089 9.38379 19.827 9.00781 18.6617 9.10181ZM29.4648 20.3498C29.4018 19.3942 29.4176 18.5169 29.2916 17.6553C28.8664 14.3968 27.1656 11.953 24.3782 10.2297C23.9215 9.94776 23.4176 9.72844 22.7089 9.72844C25.8743 12.7519 27.3861 16.3551 27.3703 20.6788C28.079 20.5692 28.7089 20.4595 29.4648 20.3498ZM23.4176 20.1932C23.0554 20.0679 22.8191 19.9739 22.5672 19.9112C21.2758 19.5509 19.9845 19.3002 18.6302 19.2062C17.1184 19.0966 15.7168 19.3629 14.394 20.0522C13.9688 20.2715 13.5908 20.5848 13.1971 20.8512C13.2128 20.9138 13.2443 20.9921 13.2601 21.0548C16.5672 21.1331 19.89 21.2115 23.2601 20.9451C23.3231 20.6945 23.3703 20.4752 23.4176 20.1932ZM28.1892 12.1253C29.9373 14.5065 30.5829 17.1854 30.4884 20.1775C31.0711 20.0522 31.5908 19.9269 32.1105 19.8015C32.1105 19.5196 32.142 19.3316 32.1105 19.1592C31.8113 17.8747 31.5593 16.5587 31.1499 15.3055C30.6459 13.8485 29.6695 12.7363 28.1892 12.1253ZM15.3231 9.82243C15.9058 9.90076 16.394 9.96342 16.8821 10.0418C17.3388 10.1044 17.7955 10.1984 18.2522 10.2767C17.953 9.90076 17.638 9.63444 17.2916 9.41512C16.5357 8.91382 16.0632 8.99215 15.3231 9.82243Z" fill="#90E0AB"/>
<path d="M29.7632 25.4882C29.5427 26.0209 29.4167 26.5065 29.1647 26.9295C28.2828 28.4804 26.897 29.4987 25.4167 30.4073C25.1175 30.5953 24.8025 30.6266 24.5978 30.282C24.4088 29.9373 24.6293 29.7023 24.9128 29.5143C25.3537 29.2324 25.7947 28.9504 26.2198 28.6371C27.338 27.7911 28.3458 26.8355 28.6608 25.3942C28.7238 25.1123 28.9285 24.8929 29.2277 24.9869C29.4324 25.0496 29.5742 25.3002 29.7632 25.4882Z" fill="#90E0AB"/>
</svg>
