<svg width="84" height="82" viewBox="0 0 84 82" fill="none" xmlns="http://www.w3.org/2000/svg">
<g clip-path="url(#clip0)">
<path d="M5.25212 43.1776C5.65404 45.7586 7.63681 47.3986 10.2627 47.4524C12.9957 47.5061 15.7019 47.4792 18.4349 47.4792C37.7268 47.4792 57.0186 47.4524 76.3105 47.4792C78.4004 47.4792 80.0617 46.7802 81.187 45.0058C81.4818 44.5487 81.6158 43.9842 81.9373 43.1776C81.1335 43.1776 80.6244 43.1776 80.1153 43.1776C74.3545 43.1776 68.5938 43.1776 62.833 43.1776C62.4847 43.1776 62.056 43.2851 61.788 43.1238C61.4397 42.9356 61.0378 42.5323 61.011 42.2097C60.9842 41.8871 61.3593 41.3763 61.6808 41.2419C62.1095 41.0537 62.6454 41.1074 63.1277 41.1074C66.7985 41.1074 70.4426 41.1074 74.1134 41.1074C74.5957 41.1074 75.078 41.1074 75.6942 41.1074C75.721 40.6235 75.7746 40.2202 75.7478 39.8438C75.2923 33.4451 73.1488 27.6917 69.3172 22.5835C69.2368 22.476 69.1296 22.3953 69.0493 22.2878C68.4062 21.4274 68.3526 20.6478 68.9421 20.2714C69.7995 19.7605 70.255 20.4058 70.7105 20.9704C74.7296 26.213 77.1143 32.1009 77.7574 38.6878C77.8378 39.3868 77.9182 40.1127 77.9985 40.973C79.9009 41.0537 81.8033 41.1074 83.7593 41.1881C84.3488 43.4196 83.7057 45.1671 82.5268 46.7264C81.0799 48.6622 79.0435 49.4687 76.7124 49.5494C75.1583 49.6032 73.5775 49.5494 72.0234 49.5763C71.5947 49.5763 71.166 49.6301 70.6569 49.6569C70.4961 51.6196 69.5048 53.0983 68.4062 54.5232C64.4942 59.5776 60.2339 64.2556 54.9019 67.8314C49.2215 71.6491 42.9784 73.074 36.1727 72.4019C32.8502 72.0523 29.5009 71.676 26.1516 72.2405C25.321 72.375 24.544 72.6438 23.6598 72.8589C23.7938 73.316 23.9277 73.6117 23.9813 73.9074C24.3028 75.3323 24.0349 76.5691 22.8827 77.5369C21.4359 78.7199 20.0158 79.9566 18.5421 81.1127C16.7201 82.5376 14.8177 82.2956 13.3708 80.5212C9.35165 75.5205 5.30571 70.5737 1.25978 65.5999C-0.589024 63.3146 -0.401464 61.6209 1.87605 59.7389C2.94782 58.8517 4.01959 57.9914 5.09136 57.131C7.50284 55.1953 8.655 55.2222 11.0397 57.3192C13.2636 54.792 15.4607 52.2648 17.8454 49.5494C17.0952 49.5494 16.5057 49.5494 15.8894 49.5494C13.6655 49.4956 11.4148 49.6032 9.19088 49.3881C5.92198 49.0655 3.4837 46.5382 3.0282 43.2851C2.78705 41.5376 3.16217 41.0805 4.9038 41.0805C6.24351 41.0805 7.55643 41.0805 8.86935 41.0805C11.0933 22.0458 21.5162 10.9422 40.2722 7.52776C39.656 6.10284 39.254 4.51661 40.0311 3.01104C40.4866 2.15071 41.1832 1.29038 42.0138 0.725794C43.7287 -0.430271 46.1402 -0.161419 47.6138 1.18284C49.4627 2.84973 49.7306 4.75858 48.4445 7.85038C50.0253 8.22678 51.633 8.60317 53.2138 9.03333C53.6961 9.16776 54.2052 9.2753 54.5536 9.57104C54.8215 9.81301 55.0359 10.4045 54.9287 10.7002C54.8215 10.996 54.2856 11.3455 53.9373 11.3455C53.321 11.3186 52.7315 11.0766 52.1153 10.8884C38.1287 7.0976 23.767 12.8779 16.211 24.815C13.2904 29.4392 11.6292 34.4937 11.2808 39.9782C11.254 40.1933 11.2808 40.4353 11.2808 40.6504C11.2808 40.731 11.3344 40.8117 11.4148 40.973C11.6292 41.0268 11.8703 41.1343 12.1382 41.1343C22.722 41.1343 33.3057 41.1074 43.8894 41.1074C44.2914 41.1074 44.6933 41.0805 45.0952 41.1343C45.6847 41.215 46.1402 41.5376 46.1134 42.1828C46.0866 42.8012 45.7115 43.1507 45.0684 43.2045C44.6665 43.2314 44.2646 43.2314 43.8626 43.2314C31.4569 43.2314 19.0512 43.2314 6.61863 43.2314C6.13634 43.1776 5.70763 43.1776 5.25212 43.1776ZM33.3593 49.6301C33.3325 49.7645 33.2789 49.872 33.2521 50.0064C34.6454 50.4366 35.9851 51.055 37.4052 51.2163C40.4866 51.6196 43.6215 51.754 46.7296 52.0497C48.4713 52.211 50.1861 52.4261 51.7134 53.4478C53.7765 54.8189 54.0445 57.1579 52.3028 58.9323C51.7938 59.4701 51.1239 59.9002 50.4808 60.2766C47.2119 62.1048 43.6483 62.0779 40.0579 61.9435C37.5124 61.8628 34.9938 61.9704 32.4483 61.9973C32.1804 61.9973 31.8588 62.1048 31.6713 61.9973C31.3497 61.836 30.8942 61.5402 30.8942 61.2714C30.8674 60.9219 31.1354 60.4648 31.4033 60.196C31.6445 59.9809 32.0732 59.9271 32.4215 59.9002C34.1899 59.8196 35.9851 59.7389 37.7536 59.7389C39.9507 59.7389 42.121 59.9002 44.3181 59.8464C46.6493 59.7927 48.8196 59.1474 50.6684 57.6687C51.7402 56.8084 51.633 55.7599 50.4272 55.0878C49.9182 54.8189 49.3555 54.5769 48.7928 54.4963C47.078 54.2543 45.3363 54.0661 43.6215 53.9586C40.6473 53.7435 37.6196 53.7704 34.7794 52.7219C32.6359 51.9422 30.5727 50.9743 28.4292 50.2484C24.8387 49.0386 21.4091 49.2268 18.6225 52.0766C16.4521 54.3081 14.4693 56.7009 12.3526 59.0668C15.7287 63.2071 18.9976 67.1861 22.1861 71.1114C23.2579 70.8156 24.1153 70.5468 24.9727 70.3317C28.3756 69.552 31.8052 69.9284 35.2349 70.2242C40.3258 70.6543 45.3095 70.5737 50.0253 68.2346C52.5708 66.971 54.9555 65.5192 57.0722 63.6642C61.011 60.2228 64.655 56.4589 67.6024 52.1035C68.0311 51.4583 68.2722 50.7055 68.6205 49.9796C67.522 49.3343 66.6646 49.6301 65.9143 50.114C64.4674 51.055 63.0205 52.0497 61.6808 53.152C60.2875 54.3081 59.0014 55.6523 57.6617 56.916C57.1258 57.3999 56.5363 57.7763 55.9201 57.131C55.277 56.4858 55.6521 55.9212 56.188 55.4104C57.8493 53.851 59.5373 52.3186 61.1985 50.7861C61.5469 50.4635 61.8952 50.1678 62.4579 49.6569C52.5172 49.6301 42.9516 49.6301 33.3593 49.6301ZM8.06552 57.6956C7.58323 57.9645 7.15452 58.1527 6.83299 58.4215C5.68083 59.3356 4.55547 60.2766 3.40332 61.2176C1.79567 62.535 1.74208 62.8845 3.0282 64.4976C6.96696 69.3369 10.9325 74.1763 14.8981 79.0156C15.8359 80.1448 16.3717 80.1986 17.4703 79.3114C18.7564 78.2628 20.0158 77.2143 21.3019 76.1658C22.2397 75.3861 22.3201 74.7409 21.5698 73.7461C21.0607 73.074 20.4981 72.4287 19.9622 71.7835C16.3717 67.4012 12.8081 62.992 9.19088 58.6097C8.89614 58.2333 8.44064 57.9914 8.06552 57.6956ZM47.1851 4.86612C47.1851 3.38743 45.9526 2.09694 44.5057 2.07006C43.032 2.04317 41.7191 3.27989 41.6923 4.75858C41.6655 6.31793 42.9249 7.60842 44.4521 7.60842C45.899 7.6353 47.1851 6.34481 47.1851 4.86612Z" fill="white"/>
<path d="M63.3418 14.6798C63.6097 13.927 63.8241 13.1742 64.1724 12.4752C64.4672 11.8837 64.8959 11.346 65.2978 10.8083C66.5303 9.06079 66.5303 8.46932 65.2978 6.74866C65.1906 6.61423 64.9763 6.45292 65.003 6.3185C65.0298 5.86145 65.003 5.24309 65.271 5.05489C65.5389 4.83981 66.2356 4.89358 66.5571 5.10866C68.1648 6.21096 68.781 8.76505 67.8968 10.5395C67.4413 11.4536 66.8251 12.287 66.2356 13.1205C65.3246 14.4647 65.3246 15.0831 66.2892 16.3736C66.3963 16.508 66.5839 16.6693 66.5839 16.8037C66.5839 17.2877 66.6643 17.906 66.3963 18.2287C66.0212 18.7126 65.405 18.5244 65.003 18.0942C64.1188 17.0995 63.449 16.0778 63.3418 14.6798Z" fill="white"/>
<path d="M56.5625 14.652C56.8572 13.8724 57.0984 13.0658 57.4735 12.3399C57.8486 11.6409 58.3845 11.0225 58.84 10.3504C59.6974 9.0599 59.6706 8.30711 58.7596 7.04351C57.9826 5.94121 57.9022 5.40351 58.4917 4.97334C59.0812 4.51629 59.6438 4.75826 60.4209 5.7799C61.8945 7.71564 61.9481 9.51695 60.5548 11.5871C60.1529 12.1786 59.6706 12.7163 59.2955 13.3078C58.5721 14.4369 58.6257 15.1628 59.4295 16.2383C59.5902 16.4533 59.885 16.6684 59.885 16.8835C59.885 17.3406 59.885 17.9589 59.617 18.174C59.3759 18.3891 58.6257 18.3353 58.3577 18.1202C57.3931 17.233 56.7233 16.1307 56.5625 14.652Z" fill="white"/>
<path d="M75.2906 8.89934C74.9691 9.70589 74.6744 10.5393 74.2725 11.319C74.0045 11.8298 73.6294 12.2869 73.2811 12.7439C72.0485 14.4915 72.0485 14.7872 73.2811 16.5347C73.683 17.1262 73.8705 17.6639 73.2811 18.1747C72.638 18.7125 72.1557 18.3361 71.6734 17.8521C70.1193 16.2121 69.8782 14.4108 71.0036 12.4751C71.4055 11.7761 71.9146 11.1577 72.3433 10.4856C73.3347 8.97999 73.3079 8.4154 72.2897 6.9636C72.1289 6.74852 71.8342 6.53344 71.8342 6.31835C71.8074 5.88819 71.8074 5.26983 72.0753 5.05475C72.3165 4.83967 73.0667 4.86655 73.3347 5.08163C74.4868 6.02262 75.1567 7.28622 75.2906 8.89934Z" fill="white"/>
<path d="M20.0426 31.3747C19.0512 31.4016 18.5689 30.8101 18.8369 30.0304C19.078 29.3314 19.3996 28.6055 19.8283 27.9872C20.8197 26.4547 21.8914 24.976 22.9364 23.4973C23.3651 22.9059 23.9546 22.4757 24.6244 23.0403C25.2675 23.578 24.9728 24.1963 24.5708 24.8147C23.2847 26.7236 22.0522 28.6862 20.7929 30.6219C20.5517 30.9445 20.2034 31.1865 20.0426 31.3747Z" fill="white"/>
<path d="M27.732 21.4273C27.4909 21.024 27.1158 20.6476 27.0354 20.2174C26.9282 19.6797 27.7052 18.9807 28.3215 19.0076C28.911 19.0345 29.3397 19.3302 29.3665 19.9755C29.3933 20.5669 28.5627 21.3197 27.732 21.4273Z" fill="white"/>
</g>
<defs>
<clipPath id="clip0">
<rect width="84" height="82" fill="white"/>
</clipPath>
</defs>
</svg>
