<svg width="96" height="53" viewBox="0 0 96 53" fill="none" xmlns="http://www.w3.org/2000/svg">
<path d="M28.2356 34.4444C28.2356 34.7878 28.2356 35.0532 28.2356 35.3341C28.2356 39.4236 28.2356 43.4974 28.2356 47.5869C28.2356 49.5848 27.3078 51.0052 25.5141 51.8325C25.0347 52.051 24.4781 52.1759 23.9523 52.1759C21.8648 52.2227 19.7773 52.2227 17.6898 52.1915C15.1849 52.1446 13.3448 50.2872 13.2211 47.743C13.2056 47.4308 13.2211 47.1343 13.2211 46.7753C12.9582 46.7441 12.7726 46.6972 12.5716 46.6972C12.1387 46.6816 11.6902 46.6972 11.2573 46.6816C8.59764 46.6504 6.68023 44.7774 6.60291 42.0771C6.58745 41.3278 6.60291 40.563 6.60291 39.7358C6.46375 39.6265 6.27819 39.486 6.09264 39.3612C4.82468 38.5495 3.57218 37.7535 2.28875 36.9574C0.726995 36.0053 -0.0152263 34.6161 0.000236612 32.7587C0.0311625 28.9658 0.0311625 25.1573 0.000236612 21.3644C-0.0152263 19.4445 0.757921 18.0241 2.36607 17.0252C3.61857 16.2447 4.8556 15.4487 6.09264 14.6682C6.26273 14.559 6.41736 14.4341 6.6493 14.2624C6.6493 13.3259 6.57199 12.3582 6.66477 11.406C6.88125 9.11156 8.75226 7.42582 11.0408 7.379C11.7366 7.36339 12.417 7.379 13.2211 7.379C13.2211 7.00439 13.2211 6.70782 13.2211 6.39565C13.2365 5.53717 13.1901 4.6787 13.3138 3.82022C13.6231 1.6194 15.4477 0.0429238 17.6435 0.0117065C19.6846 -0.00390217 21.7102 -0.00390217 23.7513 0.0117065C26.2872 0.0273152 28.2047 1.94718 28.2356 4.49139C28.251 6.09909 28.2356 7.72239 28.2356 9.33008C28.2356 12.4518 28.2356 15.5735 28.2356 18.6953C28.2356 18.9762 28.2356 19.2572 28.2356 19.5225C28.885 19.6942 65.7332 19.7411 66.7847 19.5694C66.8002 19.2884 66.8156 18.9918 66.8156 18.6953C66.8156 14.0127 66.8311 9.33008 66.8156 4.64748C66.8156 3.4144 67.1867 2.3374 68.0217 1.4477C68.8877 0.511184 69.9701 0.0117065 71.2535 0.0117065C73.2637 0.0117065 75.2739 -0.00390217 77.284 0.0117065C79.8664 0.0273152 81.7683 1.91596 81.8456 4.52261C81.8765 5.42791 81.8456 6.33322 81.8456 7.34778C82.3714 7.34778 82.8507 7.34778 83.3301 7.36339C83.9177 7.39461 84.5207 7.379 85.0928 7.51947C86.902 7.97213 88.2318 9.53299 88.3864 11.406C88.4638 12.3582 88.4019 13.3259 88.4019 14.2936C89.2988 14.8712 90.1492 15.4018 90.9997 15.9482C91.6491 16.3696 92.314 16.7598 92.9635 17.1968C94.2933 18.0865 95.051 19.3352 95.051 20.9741C95.051 25.0324 95.0664 29.0907 95.051 33.1489C95.051 34.6942 94.3551 35.9116 93.1026 36.7545C91.9738 37.5193 90.7987 38.2217 89.6389 38.9553C89.2524 39.2051 88.8658 39.4548 88.4328 39.7514C88.4328 40.6879 88.4947 41.6244 88.4174 42.5609C88.2163 44.9491 86.3453 46.6348 83.964 46.6816C83.2991 46.6972 82.6342 46.6816 81.892 46.6816C81.8765 47.0562 81.8611 47.3684 81.8611 47.665C81.7683 50.3184 79.8664 52.1915 77.2377 52.1915C75.3048 52.1915 73.3719 52.1446 71.439 52.2071C69.0268 52.2851 66.8002 50.2248 66.8311 47.5869C66.8775 43.4974 66.8465 39.4236 66.8465 35.3341C66.8465 35.0532 66.8465 34.7722 66.8465 34.4444C53.9505 34.4444 41.1626 34.4444 28.2356 34.4444ZM15.0302 26.0782C15.0302 33.1021 15.0302 40.126 15.0302 47.1499C15.0302 47.384 15.0302 47.6181 15.0302 47.8523C15.1075 49.3039 16.2673 50.4277 17.7053 50.4433C19.6691 50.4589 21.6174 50.4589 23.5812 50.4433C25.344 50.4277 26.4573 49.3039 26.4728 47.5089C26.4883 45.9168 26.4728 44.3403 26.4728 42.7482C26.4728 32.0875 26.4728 21.4112 26.4728 10.7505C26.4728 8.69012 26.4883 6.64539 26.4573 4.58505C26.4419 2.97735 25.3131 1.82231 23.7204 1.8067C21.7411 1.77549 19.7464 1.79109 17.7672 1.8067C16.9631 1.8067 16.2673 2.10327 15.7106 2.71201C15.1539 3.32074 15.0148 4.05435 15.0148 4.866C15.0302 11.9367 15.0302 19.0075 15.0302 26.0782ZM80.021 26.1094C80.021 21.1458 80.021 16.1667 80.021 11.2031C80.021 8.98669 79.9901 6.78587 80.0364 4.56944C80.0519 3.25831 79.0623 1.83792 77.4541 1.79109C75.3666 1.74427 73.2791 1.74427 71.1916 1.79109C69.7227 1.82231 68.6403 2.97735 68.5784 4.44457C68.5629 4.6787 68.5784 4.91283 68.5784 5.14696C68.5784 16.6193 68.5784 28.0917 68.5784 39.5641C68.5784 42.2488 68.5629 44.9178 68.5939 47.6025C68.6093 49.1634 69.6453 50.3653 71.1298 50.4121C73.2637 50.4745 75.413 50.4745 77.5469 50.4121C78.7066 50.3809 79.5107 49.6785 79.8973 48.5703C80.021 48.1957 80.0364 47.7586 80.0364 47.3372C80.0364 40.2665 80.021 33.1957 80.021 26.1094ZM28.2974 21.4736C28.2974 25.2041 28.2974 28.8721 28.2974 32.5402C29.318 32.7119 66.2435 32.665 66.7847 32.4933C66.7847 28.8409 66.7847 25.1885 66.7847 21.4736C53.935 21.4736 41.1317 21.4736 28.2974 21.4736ZM13.1747 9.17399C12.216 9.15838 11.2882 9.03351 10.3913 9.28325C9.4481 9.53299 8.81412 10.1573 8.53578 11.0939C8.42754 11.4841 8.41208 11.9211 8.41208 12.3269C8.41208 22.1604 8.41208 31.9939 8.41208 41.8117C8.41208 41.9678 8.41208 42.1239 8.41208 42.28C8.47393 43.2945 8.92236 44.075 9.81921 44.5432C10.1439 44.7149 10.546 44.8398 10.9171 44.8554C11.6748 44.9022 12.4324 44.9178 13.1901 44.8398C13.1747 32.8992 13.1747 21.0678 13.1747 9.17399ZM81.8765 44.871C82.6497 44.871 83.361 44.8866 84.0723 44.871C85.2784 44.8242 86.2526 44.0594 86.5463 42.8887C86.6391 42.5141 86.6391 42.1239 86.6391 41.7337C86.6391 32.0563 86.6391 22.3789 86.6391 12.7172C86.6391 12.3738 86.6391 12.046 86.6237 11.7026C86.5463 10.5788 85.7887 9.61104 84.7217 9.31447C83.7939 9.04912 82.8507 9.1896 81.8611 9.20521C81.8765 21.0678 81.8765 32.8992 81.8765 44.871ZM6.60291 37.6286C6.58745 30.4954 6.60291 23.5652 6.58745 16.6505C6.43282 16.6505 6.37097 16.6349 6.32458 16.6505C5.18032 17.3685 4.03607 18.0553 2.92273 18.8045C2.13412 19.3196 1.76301 20.1001 1.76301 21.0522C1.76301 21.9575 1.76301 22.8784 1.76301 23.7837C1.76301 26.8274 1.77848 29.8711 1.76301 32.9148C1.76301 33.7733 2.01042 34.5537 2.69079 35.0532C3.91236 35.9272 5.21125 36.7233 6.60291 37.6286ZM88.4947 16.4788C88.4947 23.5964 88.4947 30.5423 88.4947 37.5818C89.7936 36.7389 91.0306 35.9897 92.2213 35.178C92.948 34.6786 93.2882 33.9293 93.2882 33.0396C93.2882 29.0282 93.2882 25.0324 93.2882 21.021C93.2882 20.1001 92.9171 19.3352 92.1594 18.8201C91.0151 18.0397 89.8245 17.3217 88.4947 16.4788Z" fill="#000"/>
</svg>
