<svg width="73" height="72" viewBox="0 0 73 72" fill="none" xmlns="http://www.w3.org/2000/svg">
<path d="M36.7008 71.7004C16.9008 71.7004 0.800781 55.6004 0.800781 35.8004C0.800781 16.0004 16.9008 -0.0996094 36.7008 -0.0996094C56.5008 -0.0996094 72.6008 16.0004 72.6008 35.8004C72.6008 55.7004 56.5008 71.7004 36.7008 71.7004Z" fill="#3E5C9A"/>
<path d="M31.3008 57.5002H40.0008V35.7002H46.1008L46.7008 28.4002H40.0008C40.0008 28.4002 40.0008 25.7002 40.0008 24.2002C40.0008 22.5002 40.3008 21.8002 42.0008 21.8002C43.3008 21.8002 46.7008 21.8002 46.7008 21.8002V14.2002C46.7008 14.2002 41.7008 14.2002 40.7008 14.2002C34.2008 14.2002 31.3008 17.1002 31.3008 22.5002C31.3008 27.3002 31.3008 28.3002 31.3008 28.3002H26.8008V35.7002H31.3008V57.5002Z" fill="white"/>
</svg>
