<svg width="19" height="19" viewBox="0 0 19 19" fill="none" xmlns="http://www.w3.org/2000/svg">
<path d="M16.6067 0.791992H2.60669C1.50669 0.791992 0.606689 1.69199 0.606689 2.79199V16.792C0.606689 17.893 1.50669 18.792 2.60669 18.792H9.60669V11.792H7.60669V9.31699H9.60669V7.26699C9.60669 5.10299 10.8187 3.58299 13.3727 3.58299L15.1757 3.58499V6.18999H13.9787C12.9847 6.18999 12.6067 6.93599 12.6067 7.62799V9.31799H15.1747L14.6067 11.792H12.6067V18.792H16.6067C17.7067 18.792 18.6067 17.893 18.6067 16.792V2.79199C18.6067 1.69199 17.7067 0.791992 16.6067 0.791992Z" fill="white"/>
</svg>
