<svg width="14" height="25" viewBox="0 0 14 25" fill="none" xmlns="http://www.w3.org/2000/svg">
<path d="M6.7749 5.46874C8.28505 5.46874 9.50927 4.24452 9.50927 2.73437C9.50927 1.22422 8.28505 0 6.7749 0C5.26475 0 4.04053 1.22422 4.04053 2.73437C4.04053 4.24452 5.26475 5.46874 6.7749 5.46874Z" fill="black"/>
<path d="M13.5561 13.5693L13.0517 11.8892V11.8838L11.955 8.22851H11.9526L11.83 7.81592C11.6955 7.36349 11.4184 6.96661 11.0401 6.68437C10.6618 6.40212 10.2024 6.2496 9.73039 6.24951H3.87103C3.39897 6.24937 2.9395 6.4018 2.56113 6.68408C2.18276 6.96636 1.90576 7.36337 1.77142 7.81592L1.64887 8.22851H1.64594L0.549259 11.8838V11.8892L0.0429117 13.5693C-0.109432 14.0766 0.155216 14.6269 0.65668 14.7969C0.78091 14.8392 0.912389 14.856 1.04326 14.8463C1.17414 14.8367 1.30173 14.8007 1.4184 14.7406C1.53508 14.6806 1.63845 14.5976 1.72234 14.4967C1.80624 14.3958 1.86893 14.279 1.90668 14.1533L3.1557 9.99072L3.26166 9.63769C3.2926 9.55141 3.35289 9.47876 3.43199 9.43245C3.51109 9.38614 3.60395 9.36912 3.69433 9.38437C3.78471 9.39962 3.86685 9.44616 3.92638 9.51586C3.98591 9.58556 4.01903 9.67397 4.01996 9.76562C4.01993 9.79204 4.01715 9.81839 4.01165 9.84423L1.8764 16.9629C1.84139 17.0795 1.83413 17.2027 1.85521 17.3227C1.87628 17.4426 1.9251 17.556 1.99778 17.6537C2.07045 17.7514 2.16496 17.8308 2.27377 17.8855C2.38258 17.9402 2.50267 17.9687 2.62445 17.9687H4.04046V23.5688C4.04046 24.3725 4.55462 25 5.21234 25C5.87005 25 6.38421 24.3725 6.38421 23.5688V17.9687H7.16546V23.5688C7.16546 24.3725 7.67962 25 8.33733 25C8.99504 25 9.5092 24.3725 9.5092 23.5688V17.9687H10.974C11.0959 17.9688 11.216 17.9403 11.3249 17.8857C11.4338 17.831 11.5283 17.7516 11.6011 17.6539C11.6738 17.5562 11.7227 17.4428 11.7438 17.3228C11.7649 17.2028 11.7576 17.0796 11.7226 16.9629L9.58684 9.84326C9.58149 9.81773 9.57887 9.7917 9.57903 9.76562C9.57952 9.67369 9.61243 9.58487 9.67196 9.51481C9.73149 9.44475 9.81382 9.39793 9.90446 9.38259C9.99511 9.36725 10.0883 9.38437 10.1675 9.43094C10.2468 9.47751 10.3071 9.55055 10.3378 9.6372L10.4438 9.99023L11.6923 14.1528C11.7302 14.2783 11.793 14.3949 11.8769 14.4956C11.9609 14.5963 12.0642 14.6791 12.1808 14.739C12.2974 14.7989 12.4249 14.8348 12.5556 14.8444C12.6864 14.854 12.8177 14.8372 12.9418 14.7949C13.4433 14.6269 13.7079 14.0766 13.5561 13.5693Z" fill="black"/>
</svg>
