<svg width="29" height="29" viewBox="0 0 29 29" fill="none" xmlns="http://www.w3.org/2000/svg">
<path d="M25.1122 8.41908L20.5809 3.88783C20.4963 3.80384 20.3958 3.73738 20.2854 3.69228C20.175 3.64719 20.0568 3.62433 19.9375 3.62502H5.4375C4.9568 3.62502 4.49578 3.81597 4.15587 4.15588C3.81596 4.49579 3.625 4.95681 3.625 5.43752V23.5625C3.625 24.0432 3.81596 24.5042 4.15587 24.8441C4.49578 25.1841 4.9568 25.375 5.4375 25.375H23.5625C24.0432 25.375 24.5042 25.1841 24.8441 24.8441C25.184 24.5042 25.375 24.0432 25.375 23.5625V9.06252C25.3757 8.94325 25.3528 8.82502 25.3077 8.7146C25.2626 8.60418 25.1962 8.50376 25.1122 8.41908ZM10.875 5.43752H18.125V9.06252H10.875V5.43752ZM18.125 23.5625H10.875V16.3125H18.125V23.5625ZM19.9375 23.5625V16.3125C19.9375 15.8318 19.7465 15.3708 19.4066 15.0309C19.0667 14.691 18.6057 14.5 18.125 14.5H10.875C10.3943 14.5 9.93328 14.691 9.59337 15.0309C9.25346 15.3708 9.0625 15.8318 9.0625 16.3125V23.5625H5.4375V5.43752H9.0625V9.06252C9.0625 9.54322 9.25346 10.0042 9.59337 10.3441C9.93328 10.6841 10.3943 10.875 10.875 10.875H18.125C18.6057 10.875 19.0667 10.6841 19.4066 10.3441C19.7465 10.0042 19.9375 9.54322 19.9375 9.06252V5.80908L23.5625 9.43408V23.5625H19.9375Z" fill="black"/>
</svg>
