<svg width="47" height="68" viewBox="0 0 47 68" fill="none" xmlns="http://www.w3.org/2000/svg">
<path d="M15.9622 32.8419H29.5515L46.5409 0H32.9515L15.9622 32.8419Z" fill="#006CA2"/>
<path d="M24.4569 16.4208L17.6622 29.5586L19.3622 32.8417H29.5515L31.2515 29.5586L24.4569 16.4208Z" fill="#2F2F2F"/>
<path d="M30.6406 40.7737H17.0512V32.8422H30.6406V40.7737ZM30.6406 29.4475H17.0512C16.1495 29.4475 15.2847 29.8057 14.6471 30.4433C14.0094 31.0809 13.6512 31.9457 13.6512 32.8475V40.7737C13.6512 41.6755 14.0094 42.5403 14.6471 43.1779C15.2847 43.8155 16.1495 44.1737 17.0512 44.1737H30.6406C32.5159 44.1737 34.0353 42.6543 34.0353 40.7737V32.8422C34.0353 30.9668 32.5159 29.4475 30.6406 29.4475Z" fill="#FCC21B"/>
<path d="M40.8301 50.9628C40.8301 60.3447 33.2226 67.9522 23.8407 67.9522C14.4588 67.9522 6.85131 60.35 6.85131 50.9628C6.85131 41.5756 14.4588 33.9734 23.8407 33.9734C33.2279 33.9734 40.8301 41.5809 40.8301 50.9628Z" fill="#FCC21B"/>
<path d="M12.456 46.8295C12.2328 46.8295 12.0097 46.787 11.7972 46.6914C10.9791 46.3408 10.586 45.3898 10.9047 44.5664C10.91 44.5558 10.9153 44.5398 10.9153 44.5292C10.9207 44.5027 10.926 44.508 10.9366 44.4867C12.44 40.9061 15.5903 38.2605 19.3728 37.3839C19.5588 37.3414 19.7553 37.4317 19.8403 37.607C19.9253 37.7823 19.8775 37.9948 19.7235 38.117C17.2425 40.088 15.261 42.7442 13.9966 45.8042C13.9966 45.8095 13.9913 45.8148 13.9913 45.8148C13.9913 45.8148 13.9913 45.8202 13.986 45.8202C13.8107 46.2292 13.4866 46.548 13.0722 46.7073C12.8757 46.7923 12.6632 46.8295 12.456 46.8295" fill="white"/>
<path d="M30.6885 32.8419H17.0938L0.109703 0H13.6991L30.6885 32.8419Z" fill="#006CA2"/>
<path d="M20.547 47.4992L22.1248 47.0477V55.7124H20.9082C20.7754 55.7124 20.6745 55.8186 20.6745 55.9461V58.9105C20.6745 59.038 20.7754 59.1442 20.9082 59.1442H27.2035C27.331 59.1442 27.4373 59.038 27.4373 58.9105V55.9461C27.4373 55.8186 27.331 55.7124 27.2035 55.7124H25.987V43.0208C25.987 42.9517 25.9551 42.8827 25.8967 42.8402C25.8695 42.8182 25.8377 42.8025 25.8038 42.7942C25.7698 42.7859 25.7344 42.7853 25.7001 42.7924L20.4301 43.9239C20.3239 43.9505 20.2442 44.0408 20.2442 44.1524V47.2761C20.2442 47.3452 20.276 47.4195 20.3345 47.462C20.4035 47.5045 20.4779 47.5152 20.547 47.4992" fill="#F79329"/>
</svg>
