<svg width="28" height="22" viewBox="0 0 28 22" fill="none" xmlns="http://www.w3.org/2000/svg">
<path d="M10.6716 17.6196C9.03512 19.842 9.38227 19.7897 8.29284 20.3751C6.04353 21.5839 10.2895 22.4178 12.2005 21.5169C14.112 20.6164 14.977 18.4333 14.1322 16.6412C13.2879 14.849 11.9247 15.9182 10.6716 17.6196ZM0.26227 17.9812L0.407759 17.799C0.407759 17.799 0.43811 17.761 0.49428 17.6961C0.549944 17.629 0.636801 17.5443 0.732561 17.4219C0.757425 17.3923 0.782347 17.3603 0.810122 17.3296C0.836666 17.2975 0.866682 17.2676 0.892834 17.2296C0.946371 17.155 1.00713 17.0811 1.06952 17.0019C1.129 16.9132 1.19044 16.8259 1.25381 16.7399C1.31289 16.6446 1.37657 16.548 1.43985 16.4485C1.55795 16.2401 1.68535 16.025 1.78867 15.7851C1.81393 15.7247 1.84725 15.6695 1.86836 15.6062C1.89178 15.544 1.91667 15.4825 1.94301 15.4215C1.9569 15.3916 1.96664 15.3591 1.97672 15.327C1.9877 15.2954 1.99867 15.2633 2.00959 15.2313C2.03155 15.168 2.05647 15.1051 2.07248 15.0385C2.09147 14.9731 2.10922 14.9073 2.13072 14.8424C2.14713 14.7762 2.16063 14.7083 2.17754 14.6416C2.18555 14.6079 2.19608 14.5754 2.2024 14.5413L2.21932 14.4383L2.23914 14.3362C2.24586 14.3021 2.25476 14.2688 2.25644 14.2333C2.26316 14.1638 2.27414 14.095 2.28383 14.0254C2.28596 14.0094 2.29055 13.9891 2.29055 13.9756L2.29184 13.9364C2.29307 13.9102 2.2952 13.8841 2.29777 13.858C2.30029 13.8318 2.30365 13.8061 2.30701 13.7799L2.30869 13.7702L2.30909 13.7655L2.30948 13.7558L2.31032 13.7158L2.31284 13.6361L2.32062 13.3805L2.32045 13.378L2.32006 13.3649L2.31877 13.3383L2.31709 13.2852L2.31418 13.1789C2.3125 13.1434 2.31547 13.1076 2.31166 13.0726L2.30192 12.9671L2.29352 12.8621C2.29184 12.8266 2.29055 12.7916 2.28377 12.757C2.27408 12.6879 2.26311 12.6191 2.25639 12.5491C2.25471 12.5141 2.24586 12.4804 2.23908 12.4466L2.21926 12.3441L2.20235 12.2416C2.19602 12.2074 2.18544 12.1749 2.17748 12.1412C2.16057 12.0745 2.14713 12.0067 2.13067 11.94C2.10916 11.8755 2.09141 11.8097 2.07243 11.7439C2.05641 11.6772 2.03149 11.6148 2.00954 11.5511C1.99856 11.5191 1.98759 11.4874 1.97667 11.4558C1.96659 11.4237 1.95684 11.3913 1.94295 11.3613C1.91668 11.3003 1.89179 11.2387 1.86831 11.1766C1.84719 11.1133 1.81387 11.0581 1.78862 10.9978C1.6853 10.7578 1.5579 10.5422 1.43979 10.3343C1.37651 10.2344 1.31284 10.1382 1.25376 10.0425C1.19027 9.95675 1.12882 9.86955 1.06946 9.78094C1.00707 9.70164 0.946314 9.62783 0.892778 9.55318C0.864105 9.51353 0.843441 9.48951 0.82065 9.46C0.798306 9.43217 0.77809 9.4026 0.757816 9.37561L0.700026 9.29631C0.695826 9.28998 0.691177 9.28365 0.68692 9.27732C0.679361 9.27016 0.671745 9.26299 0.664577 9.25588C0.649794 9.24193 0.635513 9.22844 0.622017 9.21533C0.566744 9.16392 0.521215 9.11834 0.483696 9.08121C0.445511 9.0433 0.407949 9.00477 0.371023 8.96563C0.131062 8.70461 0.000299454 8.33887 0.0496349 7.95975C0.138676 7.2794 0.762018 6.80026 1.44231 6.88924C1.44231 6.88924 1.49842 6.89686 1.60174 6.91416C1.66507 6.92473 1.72821 6.9364 1.79114 6.94916C1.80967 6.95252 1.82911 6.95633 1.84893 6.96014C1.85867 6.96221 1.86875 6.96428 1.87928 6.96602C1.89194 6.97022 1.90504 6.97448 1.91809 6.97912C1.97123 6.99727 2.02729 7.01664 2.08682 7.03736C2.14629 7.05881 2.20996 7.08037 2.27576 7.10608C2.34028 7.13133 2.41492 7.15877 2.47608 7.18666C2.606 7.24233 2.74393 7.30897 2.89406 7.37986C3.03871 7.45742 3.19059 7.54602 3.35125 7.64178C3.50559 7.74471 3.66799 7.85648 3.83252 7.98047C4.15267 8.23773 4.49131 8.5393 4.79668 8.90923C4.86343 8.98422 4.92665 9.0638 4.98876 9.14539C6.04986 5.69369 8.09006 3.66866 10.4526 2.10468C14.6804 -0.69377 17.4966 -0.38168 19.5055 1.1856C21.5148 2.75294 21.3106 6.60919 21.3106 6.60919L5.44197 9.81414L5.44869 9.82534C5.51488 9.93712 5.58449 10.0493 5.6406 10.1695C5.69924 10.2885 5.75955 10.4082 5.8165 10.5309C5.8692 10.6549 5.91904 10.7819 5.96921 10.9097C5.99324 10.9742 6.01939 11.0384 6.04095 11.1037C6.06161 11.1695 6.08222 11.2357 6.10294 11.302C6.12238 11.3691 6.1422 11.4357 6.16202 11.5027C6.1814 11.5698 6.20251 11.6368 6.21601 11.7056C6.24765 11.8426 6.27509 11.981 6.30376 12.1198C6.33411 12.2581 6.34554 12.3995 6.36491 12.5404L6.39023 12.7521C6.39907 12.8229 6.39952 12.8938 6.40372 12.9651L6.41257 13.1781L6.41632 13.2848L6.41845 13.338L6.41935 13.365L6.41974 13.3781V13.3848C6.41935 13.4206 6.42142 13.3143 6.41845 13.4666L6.40495 13.7863L6.40159 13.866L6.39947 13.9056L6.39907 13.9162L6.39739 13.931L6.39443 13.9609L6.36872 14.2L6.34005 14.4384L6.32398 14.5569C6.3181 14.5961 6.31048 14.6273 6.30376 14.6632C6.27509 14.8019 6.2477 14.9403 6.21601 15.0769C6.20251 15.1457 6.1814 15.2127 6.16202 15.2802C6.1422 15.3473 6.12238 15.414 6.10294 15.4805C6.08222 15.5472 6.06161 15.613 6.04095 15.6792C6.01945 15.7446 5.99329 15.8087 5.96921 15.8728C5.91904 16.001 5.86925 16.1276 5.8165 16.252C5.75955 16.3743 5.69929 16.4945 5.6406 16.6134C5.58455 16.7337 5.51494 16.8454 5.44869 16.9576C5.38121 17.0685 5.31877 17.1807 5.24457 17.284C5.09863 17.492 4.9565 17.694 4.79662 17.8737C4.49125 18.2436 4.15256 18.5452 3.83246 18.8024C3.66799 18.9265 3.50559 19.0383 3.35119 19.1411C3.19053 19.2369 3.03866 19.3254 2.89401 19.4031C2.74387 19.4735 2.60594 19.5406 2.47602 19.5958C2.34655 19.6519 2.22212 19.6928 2.11202 19.7308C2.05675 19.7493 2.00489 19.7666 1.95555 19.7831C1.90706 19.8004 1.85811 19.8093 1.81471 19.8211C1.72696 19.8438 1.65192 19.8607 1.59116 19.8738C1.47014 19.9003 1.40557 19.9117 1.40557 19.9117C1.08038 19.9666 0.729536 19.889 0.451551 19.6671C-0.0662842 19.2537 -0.15107 18.4991 0.26227 17.9812Z" fill="#00B1FF"/>
<path d="M3.69497 12.5676C3.69497 15.1434 9.13586 21.165 15.848 21.165C20.6397 21.165 24.7836 19.2029 26.7625 16.3526C26.9022 16.1518 26.7474 15.8789 26.5035 15.9C26.2391 15.9232 25.9173 15.9485 25.6085 15.9654C25.2167 15.9873 25.04 15.4837 25.3588 15.2551C25.9679 14.8182 26.7616 14.2648 27.2821 13.9624C27.7068 13.7148 27.9802 13.269 27.997 12.7776C27.9993 12.7076 28.0004 12.6376 28.0005 12.5676C28.0005 7.81929 22.5597 3.97021 15.848 3.97021C9.13586 3.97016 3.69497 9.99183 3.69497 12.5676Z" fill="#59CAFC"/>
<path d="M23.5562 9.56799C23.0437 9.56799 22.6279 9.98301 22.6279 10.4972V11.6381C22.6279 12.1513 23.0437 12.5673 23.5562 12.5673C24.0695 12.5673 24.4854 12.1513 24.4854 11.6381V10.4972C24.4854 9.98301 24.0695 9.56799 23.5562 9.56799Z" fill="#2B3B47"/>
<path d="M15.7118 17.5678C15.9801 17.9445 16.3095 17.648 16.1749 17.2051C15.8632 16.1803 15.6081 14.5374 15.6081 12.6863C15.6081 10.8347 15.8632 9.19235 16.1749 8.16743C16.3095 7.72458 15.9801 7.42812 15.7118 7.80472C15.0202 8.77521 14.5216 10.5981 14.5216 12.6863C14.5216 14.7749 15.0202 16.5974 15.7118 17.5678ZM12.4588 16.2029C11.9607 15.5036 11.6014 14.1906 11.6014 12.6862C11.6014 11.1817 11.9607 9.86867 12.4588 9.16939C12.6525 8.89818 12.8895 9.11205 12.7925 9.43092C12.5677 10.1694 12.3842 11.3525 12.3842 12.6862C12.3842 14.0198 12.5677 15.2033 12.7925 15.9418C12.8895 16.2607 12.6525 16.4745 12.4588 16.2029Z" fill="#00B1FF"/>
</svg>
