<svg width="39" height="53" viewBox="0 0 39 53" fill="none" xmlns="http://www.w3.org/2000/svg">
<path d="M6.42299 17.7463C15.2257 17.7463 23.9696 17.7463 32.7722 17.7463C32.8114 17.3211 32.8603 16.896 32.8995 16.4709C32.9191 16.2529 32.9387 16.0348 32.9974 15.8277C33.1639 15.3045 33.6045 15.032 34.0843 15.141C34.5445 15.2391 34.8383 15.6533 34.8187 16.2093C34.7893 16.8088 34.7403 17.4084 34.6816 17.997C34.4564 20.308 34.2312 22.619 34.0158 24.9299C33.7808 27.4371 33.5653 29.9552 33.3303 32.4624C33.0856 35.1005 32.831 37.7276 32.5764 40.3656C32.3708 42.6003 32.1651 44.8458 31.9595 47.0805C31.8126 48.6829 31.6658 50.2963 31.4993 51.8987C31.4112 52.7054 31.0881 52.9997 30.3537 52.9997C23.1764 52.9997 15.9894 52.9997 8.81214 52.9997C8.10715 52.9997 7.75465 52.6618 7.67632 51.8769C7.49028 50.0564 7.33361 48.2251 7.16715 46.4047C6.9909 44.4534 6.80486 42.5021 6.62861 40.5509C6.4132 38.2617 6.19778 35.9616 5.98237 33.6724C5.80612 31.7539 5.62008 29.8462 5.44383 27.9277C5.25779 25.9219 5.08154 23.9162 4.8955 21.9104C4.72904 20.09 4.55279 18.2586 4.37654 16.4382C4.36675 16.3292 4.34717 16.2202 4.34717 16.1112C4.34717 15.5443 4.71925 15.0756 5.19904 15.0211C5.67883 14.9666 6.11945 15.3263 6.22716 15.8931C6.27612 16.1548 6.2957 16.4273 6.32507 16.6998C6.34466 17.0377 6.38382 17.3648 6.42299 17.7463ZM6.59924 19.8719C7.33361 27.7424 8.05819 35.5256 8.79256 43.3197C16.0188 43.3197 23.1667 43.3197 30.3929 43.3197C31.1272 35.4929 31.8518 27.6879 32.5862 19.8719C23.8814 19.8719 15.2746 19.8719 6.59924 19.8719ZM30.1774 45.6307C23.1079 45.6307 16.1069 45.6307 9.01777 45.6307C9.18423 47.4184 9.35068 49.1408 9.50735 50.8849C16.2734 50.8849 22.9512 50.8849 29.6879 50.8849C29.8445 49.1299 30.011 47.4075 30.1774 45.6307Z" fill="black"/>
<path d="M2.78018 10.1814C2.84872 9.73447 2.90747 9.33114 2.96622 8.92781C3.3481 6.38791 3.72997 3.848 4.11184 1.3081C4.25872 0.272522 4.53288 0 5.46308 0C14.863 0 24.2532 0 33.6531 0C33.7706 0 33.8784 0 33.9959 0C34.5736 0.0327026 34.9065 0.327026 35.0044 0.970177C35.2688 2.64891 35.5233 4.32764 35.7779 6.01728C35.9738 7.30358 36.1696 8.58988 36.3654 9.88708C36.3752 9.97429 36.4046 10.0615 36.4438 10.225C36.9529 10.225 37.4719 10.2577 37.9908 10.2141C38.7154 10.1487 39.2344 11.0644 38.921 11.8165C38.7644 12.1981 38.5 12.4161 38.1279 12.4488C37.9321 12.4706 37.7362 12.4597 37.5404 12.4597C25.5163 12.4597 13.4922 12.4597 1.4779 12.4597C1.28206 12.4597 1.08623 12.4706 0.8904 12.4488C0.361652 12.3834 -0.0202206 11.871 0.00915427 11.2715C0.0287375 10.6828 0.41061 10.2468 0.929566 10.225C1.35061 10.2032 1.78144 10.225 2.20248 10.2141C2.37873 10.2141 2.55497 10.1923 2.78018 10.1814ZM33.2713 2.32188C24.1259 2.32188 15.0393 2.32188 5.9135 2.32188C5.52183 4.95989 5.13017 7.5543 4.7385 10.1487C5.65892 10.3013 34.0742 10.2468 34.4365 10.0833C34.0546 7.5216 33.6629 4.94899 33.2713 2.32188Z" fill="black"/>
<path d="M26.0162 31.8965C25.9967 34.5891 25.4385 36.791 24.1069 38.6987C23.2354 39.9523 22.129 40.8789 20.719 41.2168C18.9173 41.6528 17.3311 41.0969 15.9602 39.7561C14.658 38.4807 13.8648 36.8455 13.4732 34.9815C12.8367 31.9946 13.1207 29.1386 14.5502 26.4788C15.0496 25.5522 15.6861 24.7565 16.489 24.1351C18.7117 22.4128 21.3848 22.6417 23.3431 24.7238C24.7923 26.2608 25.5756 28.1793 25.889 30.3595C25.9673 30.9591 25.9967 31.5804 26.0162 31.8965ZM15.0496 32.18C15.1084 32.7795 15.128 33.3791 15.2259 33.9568C15.4902 35.5483 16.0582 36.9654 17.1352 38.0991C18.5746 39.6035 20.5231 39.6471 21.9821 38.1645C22.3542 37.7939 22.6969 37.3579 22.9515 36.8782C24.0873 34.8398 24.3321 32.6051 23.9306 30.2832C23.6565 28.6917 23.069 27.2746 21.9527 26.1845C21.0617 25.3124 20.0238 24.92 18.8292 25.2252C18.0263 25.4323 17.3604 25.9229 16.8219 26.5987C15.5686 28.1902 15.0986 30.087 15.0496 32.18Z" fill="black"/>
</svg>
