<svg width="27" height="20" viewBox="0 0 27 20" fill="none" xmlns="http://www.w3.org/2000/svg">
<path d="M0.0299543 15.27C0.521193 19.6243 6.92836 21.2434 14.3387 18.8777C21.7494 16.5162 27.359 11.066 26.8678 6.71293C26.3765 2.35949 19.9706 0.745882 12.5599 3.10484C5.14794 5.46969 -0.461284 10.9157 0.0299543 15.27Z" fill="#FBB041"/>
<path d="M17.053 13.3492C12.5632 14.9788 4.66543 19.3145 0.0117188 15.0124C0.0167744 15.0979 0.0205661 15.1833 0.0298348 15.2687C0.521073 19.6239 6.92824 21.2425 14.3385 18.8768C20.035 17.0616 24.6634 13.4266 26.2795 9.86144C23.1231 11.2911 19.9136 12.3096 17.053 13.3492Z" fill="#E8A043"/>
<path d="M11.2815 11.5979C11.1105 11.5096 5.37907 8.54119 4.49855 8.08244C4.13875 7.89768 4.1337 7.12665 4.42861 6.82068C7.11947 3.99625 10.4848 5.73948 11.7643 10.6211C11.9038 11.1544 11.6417 11.7848 11.2819 11.6" fill="#E8A043"/>
<path d="M16.8356 7.71541C16.6894 7.64092 11.7715 5.09383 11.0178 4.70411C10.7107 4.54418 10.7065 3.88089 10.9567 3.61827C13.2646 1.19786 16.1522 2.68984 17.248 6.87494C17.3702 7.33116 17.144 7.8766 16.8356 7.71541Z" fill="#E8A043"/>
<path d="M22.1942 5.94231C22.0977 5.8594 18.8789 3.02781 18.3856 2.59432C18.1842 2.41713 18.2327 1.95839 18.4286 1.83129C20.2132 0.649072 22.1027 2.30897 22.5451 5.45116C22.5919 5.79291 22.3943 6.1195 22.1937 5.94231" fill="#E8A043"/>
<path d="M11.228 11.1225C11.0578 11.0307 5.32554 8.06404 4.44502 7.60867C4.08523 7.42306 4.08101 6.65246 4.37508 6.34186C7.06426 3.52079 10.4313 5.26191 11.71 10.1423C11.8503 10.6738 11.5865 11.3072 11.2284 11.1221" fill="#F0CA94"/>
<path d="M16.7281 6.75695C16.5819 6.68246 11.6641 4.13453 10.9108 3.74481C10.602 3.58572 10.5978 2.92496 10.851 2.65981C13.1572 0.239827 16.0444 1.73475 17.1418 5.91985C17.2636 6.3748 17.0374 6.91688 16.7281 6.75695" fill="#F0CA94"/>
<path d="M22.1401 5.46853C22.0436 5.38309 18.827 2.55403 18.3315 2.11969C18.131 1.94251 18.1798 1.48418 18.3732 1.35456C20.1604 0.172762 22.0508 1.83224 22.4906 4.97443C22.5407 5.31954 22.3406 5.64613 22.1405 5.46853" fill="#F0CA94"/>
</svg>
