<svg width="27" height="19" viewBox="0 0 27 19" fill="none" xmlns="http://www.w3.org/2000/svg">
<path d="M17.053 12.3491C12.5632 13.9786 4.66543 18.3144 0.0117188 14.0123C0.0167744 14.0978 0.0205661 14.1832 0.0298348 14.2686C0.521073 18.6238 6.92824 20.2424 14.3385 17.8767C20.035 16.0615 24.6634 12.4265 26.2795 8.86133C23.1231 10.291 19.9136 11.3095 17.053 12.3491Z" fill="#E8A043"/>
<path d="M11.2811 10.5976C11.11 10.5092 5.37861 7.54087 4.49809 7.08212C4.13829 6.89736 4.13324 6.12633 4.42815 5.82036C7.11901 2.99592 10.4844 4.73915 11.7639 9.62079C11.9033 10.154 11.6413 10.7845 11.2815 10.5997" fill="#E8A043"/>
<path d="M16.8354 6.71619C16.6892 6.6417 11.7713 4.09461 11.0176 3.70489C10.7105 3.54496 10.7063 2.88168 10.9565 2.61905C13.2644 0.198649 16.152 1.69062 17.2478 5.87572C17.37 6.33194 17.1438 6.87739 16.8354 6.71619Z" fill="#E8A043"/>
<path d="M22.1939 4.94231C22.0974 4.8594 18.8787 2.02781 18.3853 1.59432C18.1839 1.41713 18.2324 0.958388 18.4283 0.831287C20.2129 -0.350928 22.1025 1.30897 22.5448 4.45116C22.5916 4.79291 22.394 5.1195 22.1935 4.94231" fill="#E8A043"/>
</svg>
