<svg width="33" height="34" viewBox="0 0 33 34" fill="none" xmlns="http://www.w3.org/2000/svg">
<path d="M23.0583 23.0664C22.34 23.0664 21.663 23.0664 20.9571 23.0664C20.9571 23.1613 20.9571 23.248 20.9571 23.3347C20.9571 26.3445 20.953 29.3543 20.9654 32.3641C20.9654 32.6779 20.7466 32.7976 20.5732 32.9669C20.5443 32.9958 20.4659 32.9834 20.4122 32.9834C19.6485 32.9834 18.8848 32.9834 18.1252 32.9876C18.0137 32.9876 17.9312 32.9545 17.8527 32.872C17.5266 32.5252 17.5844 32.6944 17.5844 32.2114C17.5844 28.1694 17.5844 24.1274 17.5844 20.0854C17.5844 19.9905 17.5844 19.8955 17.5844 19.7882C16.8579 19.7882 16.1519 19.7882 15.4213 19.7882C15.4213 19.8955 15.4213 19.9864 15.4213 20.0813C15.4213 24.1522 15.4171 28.2189 15.4295 32.2898C15.4295 32.616 15.2561 32.7729 15.058 32.9504C15.0249 32.9793 14.9548 32.9834 14.9011 32.9834C14.1787 32.9752 13.4604 32.9628 12.738 32.9504C12.6843 32.9504 12.6265 32.9463 12.5728 32.938C12.2261 32.8885 12.1352 32.7894 12.1352 32.4426C12.127 30.6714 12.1187 28.896 12.1146 27.1248C12.1105 25.494 12.1146 23.8673 12.1146 22.2365C12.1146 22.1539 12.1146 22.0755 12.1146 21.9805C11.388 21.9805 10.6821 21.9805 9.94319 21.9805C9.94319 22.0713 9.94319 22.158 9.94319 22.2447C9.94319 24.9119 9.94319 27.579 9.93493 30.2461C9.9308 30.9521 9.89365 31.6623 9.87301 32.3683C9.87301 32.4013 9.86888 32.4384 9.86475 32.4715C9.81934 32.8348 9.71201 32.9421 9.35286 32.9504C8.67997 32.9669 8.00708 32.9752 7.33419 32.9793C7.09476 32.9834 6.87184 32.938 6.69433 32.7564C6.6324 32.6903 6.59938 32.6325 6.59938 32.5417C6.60351 32.2816 6.59938 32.0173 6.59938 31.7572C6.58699 30.0438 6.57461 28.3345 6.56223 26.6253C6.56223 26.5633 6.55397 26.5055 6.54984 26.4312C5.83567 26.4312 5.12975 26.4312 4.39081 26.4312C4.39081 26.5138 4.39081 26.5922 4.39081 26.6707C4.38669 28.5245 4.38256 30.3824 4.37843 32.2361C4.37843 32.3476 4.3743 32.455 4.36605 32.5664C4.34953 32.777 4.27935 32.8678 4.07295 32.905C3.84177 32.9463 3.61059 32.971 3.37529 32.9752C2.41343 32.9876 1.45157 32.9876 0.489705 32.9834C0.423655 32.9834 0.357604 32.9298 0.291553 32.9009C0.279169 32.8967 0.270913 32.8802 0.262656 32.872C-0.0882371 32.5252 -0.0841089 32.3352 0.2544 31.9843C0.34522 31.8935 0.440167 31.8604 0.564012 31.8646C1.38139 31.8687 2.19876 31.8687 3.01614 31.8687C3.09044 31.8687 3.16475 31.8687 3.26383 31.8687C3.26796 31.7737 3.27621 31.6953 3.28034 31.6168C3.28034 30.6012 3.27621 29.5814 3.28034 28.5658C3.28447 27.7978 3.29272 27.0258 3.30511 26.2578C3.30924 26.072 3.32575 25.8862 3.34639 25.7046C3.38354 25.4197 3.47436 25.333 3.75921 25.3247C4.0812 25.3124 4.4032 25.3082 4.72932 25.3082C5.45175 25.3082 6.17418 25.3082 6.89248 25.3082C7.02458 25.3082 7.15255 25.3165 7.28052 25.333C7.55711 25.3743 7.68096 25.5312 7.68096 25.8078C7.68096 27.74 7.68096 29.6722 7.68096 31.6003C7.68096 31.6829 7.68096 31.7613 7.68096 31.8522C8.06488 31.8522 8.42815 31.8522 8.82033 31.8522C8.82033 31.7655 8.82033 31.6788 8.82033 31.5962C8.82033 28.7144 8.82033 25.8367 8.82446 22.9549C8.82446 22.4553 8.85335 21.9516 8.84923 21.452C8.8451 21.002 9.0804 20.8699 9.44781 20.8658C10.129 20.8575 10.8101 20.8575 11.4871 20.8658C11.8587 20.8699 12.2302 20.8823 12.6017 20.8988C12.7091 20.9029 12.8288 20.9112 12.9237 20.9566C13.1012 21.0474 13.2003 21.1878 13.2003 21.4149C13.2003 24.8045 13.2086 28.19 13.2168 31.5797C13.2168 31.6664 13.2168 31.7572 13.2168 31.8563C13.5842 31.8563 13.931 31.8563 14.3025 31.8563C14.3025 31.7613 14.3025 31.6746 14.3025 31.5879C14.3025 27.484 14.3066 23.3801 14.2943 19.2762C14.2943 18.9707 14.4965 18.851 14.6699 18.6858C14.6988 18.6569 14.7731 18.6652 14.8268 18.6652C15.9414 18.6652 17.0519 18.6652 18.1665 18.6611C18.2779 18.6611 18.3564 18.7065 18.4389 18.7725C18.6371 18.9335 18.699 19.1193 18.699 19.3794C18.6908 23.4421 18.6908 27.5047 18.6908 31.5673C18.6908 31.6581 18.6908 31.7448 18.6908 31.8687C18.8806 31.8687 19.0623 31.8687 19.2439 31.8687C19.4297 31.8687 19.6113 31.8687 19.8301 31.8687C19.8301 31.7696 19.8301 31.6829 19.8301 31.5962C19.8301 28.607 19.8343 25.6179 19.8219 22.6287C19.8219 22.3562 19.954 22.1952 20.115 22.0301C20.1521 21.9929 20.2264 21.9805 20.2842 21.9805C21.3782 21.9764 22.468 21.9723 23.562 21.9764C23.6734 21.9764 23.789 22.0218 23.8964 22.0631C24.0532 22.125 24.1234 22.253 24.1275 22.4223C24.1358 22.67 24.1564 22.9177 24.1606 23.1654C24.1647 25.9688 24.1688 28.7722 24.1729 31.5797C24.1729 31.6664 24.1729 31.7572 24.1729 31.8604C24.5527 31.8604 24.9201 31.8604 25.3123 31.8604C25.3123 31.7696 25.3123 31.6829 25.3123 31.5962C25.3123 26.0307 25.3164 20.4612 25.3041 14.8957C25.3041 14.6356 25.4155 14.487 25.5848 14.3466C25.6261 14.3136 25.6962 14.297 25.754 14.297C26.9099 14.2929 28.0617 14.2929 29.2176 14.297C29.2836 14.297 29.3662 14.3342 29.4157 14.3796C29.7088 14.6356 29.7047 14.6397 29.7047 15.0278C29.7047 20.5479 29.7047 26.0679 29.7047 31.5838C29.7047 31.6705 29.7047 31.7613 29.7047 31.8687C29.7955 31.8728 29.8698 31.8811 29.94 31.8811C30.7656 31.8811 31.5912 31.8811 32.4128 31.8811C32.6604 31.8811 32.9783 32.1783 32.9866 32.4261C32.9866 32.4797 32.9783 32.5417 32.9535 32.583C32.7802 32.8678 32.677 33.0165 32.3261 33.0082C31.5169 32.9834 30.7037 32.9999 29.8946 32.9958C29.6386 32.9958 29.3868 32.9752 29.135 32.9587C29.0731 32.9545 29.0112 32.9421 28.9534 32.9298C28.7098 32.8761 28.6396 32.7976 28.6314 32.5541C28.6231 32.3146 28.619 32.071 28.619 31.8315C28.6148 26.456 28.6066 21.0805 28.6025 15.709C28.6025 15.6223 28.6025 15.5315 28.6025 15.4489C28.4497 15.3953 26.753 15.3829 26.4311 15.4283C26.4311 15.515 26.4311 15.61 26.4311 15.7049C26.4311 20.0978 26.4311 24.4907 26.4269 28.8795C26.4269 29.8291 26.4104 30.7746 26.3939 31.7242C26.3898 32.0132 26.3609 32.3022 26.3278 32.5871C26.2907 32.8678 26.1916 32.9545 25.9068 32.9628C25.4527 32.9793 24.9986 32.9958 24.5486 33C24.2349 33.0041 23.917 32.9834 23.6033 32.9752C23.4051 32.971 23.273 32.8472 23.1492 32.7233C23.112 32.6862 23.0996 32.6119 23.0996 32.5541C23.0955 32.2981 23.0955 32.0462 23.0955 31.7902C23.0831 28.958 23.0707 26.1257 23.0625 23.2976C23.0583 23.215 23.0583 23.1489 23.0583 23.0664Z" fill="#878787"/>
<path d="M18.4143 6.56818C19.2524 7.41043 20.0739 8.22791 20.8995 9.0619C21.6178 8.71096 22.3567 8.73161 23.0668 9.04126C25.0029 7.10491 26.9266 5.18095 28.8627 3.24873C28.5696 2.66246 28.5366 2.03077 28.743 1.40734C28.8916 0.961447 29.193 0.61051 29.5893 0.342146C30.3406 -0.161552 31.5171 -0.120265 32.2437 0.540323C33.0445 1.2711 33.1519 2.41474 32.7432 3.19093C32.4501 3.7483 31.9919 4.11162 31.3891 4.28916C30.7906 4.46256 30.2209 4.33044 29.6966 4.11162C27.7688 6.04384 25.8615 7.95129 23.9337 9.87938C23.9708 9.98672 24.0286 10.1312 24.0699 10.284C24.3217 11.1551 24.1607 11.9478 23.4961 12.5754C22.9017 13.1328 22.171 13.3392 21.3784 13.0915C20.5816 12.8438 20.0574 12.2905 19.8592 11.4689C19.756 11.0354 19.789 10.5936 19.9541 10.1725C19.9913 10.0776 20.0243 9.97847 20.0574 9.89589C19.2317 9.07429 18.4143 8.26507 17.5763 7.42695C16.7218 7.81091 15.859 7.75724 15.0664 7.1751C11.4708 10.7753 7.88342 14.359 4.28367 17.9633C4.29193 18.0046 4.30844 18.0707 4.32495 18.1367C4.56851 19.2638 4.07726 20.2217 3.04523 20.7171C2.90487 20.7832 2.74387 20.8162 2.59113 20.8286C2.3517 20.8493 2.11226 20.841 1.8687 20.8369C1.53845 20.8286 1.25773 20.6882 0.993532 20.5107C0.675664 20.296 0.423847 20.0153 0.242208 19.6767C0.105979 19.4249 0.0234154 19.1606 0.039928 18.8675C0.0440562 18.756 0.0440562 18.6487 0.039928 18.5372C0.0151591 18.1367 0.155516 17.794 0.386693 17.4844C0.721074 17.0344 1.12563 16.6669 1.69945 16.5472C2.30216 16.4233 2.87597 16.5059 3.39612 16.8486C3.47043 16.8981 3.54886 16.9394 3.63968 16.9972C3.82957 16.8073 4.01947 16.6215 4.20937 16.4316C6.50462 14.1319 8.804 11.8364 11.0993 9.53257C12.0652 8.56233 13.0147 7.58384 13.9725 6.60534C13.9931 6.5847 14.0096 6.56405 14.0302 6.54341C14.2944 6.30808 14.3811 6.04384 14.3481 5.67226C14.2243 4.3387 15.2646 3.25699 16.5897 3.29002C17.5268 3.31479 18.4845 4.07447 18.6373 4.94562C18.7281 5.46583 18.7198 5.98604 18.4639 6.47322C18.4391 6.50625 18.4226 6.54341 18.4143 6.56818ZM17.5722 5.45757C17.5763 4.88369 17.0727 4.39237 16.4865 4.39237C15.9209 4.39237 15.4379 4.88781 15.4297 5.46996C15.4256 6.10164 15.8508 6.53102 16.4824 6.53928C17.1346 6.54341 17.5681 6.11403 17.5722 5.45757ZM30.7617 3.24873C31.385 3.25286 31.8804 2.78632 31.8804 2.19592C31.8804 1.60965 31.3974 1.10595 30.8195 1.09769C30.2291 1.08944 29.709 1.60552 29.7131 2.20005C29.7131 2.78219 30.1755 3.2446 30.7617 3.24873ZM2.19895 19.7428C2.81818 19.7428 3.28053 19.2762 3.2764 18.6611C3.27227 18.0665 2.78102 17.5917 2.17006 17.5959C1.61688 17.6 1.11738 18.1119 1.11738 18.6817C1.1215 19.2762 1.59624 19.7428 2.19895 19.7428ZM22.0141 9.92066C21.4073 9.90828 20.9201 10.3624 20.9078 10.9528C20.8954 11.5226 21.4114 12.0676 21.9811 12.0676C22.5219 12.0634 23.042 11.696 23.0585 11.0024C23.0709 10.3789 22.6375 9.93305 22.0141 9.92066Z" fill="#878787"/>
</svg>
