<svg width="74" height="45" viewBox="0 0 74 45" fill="none" xmlns="http://www.w3.org/2000/svg">
<path d="M50.2622 0.375H40.33C39.405 0.375 38.5147 0.720703 37.8325 1.34297L26.4666 11.7141C26.455 11.7256 26.4434 11.7486 26.4319 11.7602C24.5125 13.5578 24.5472 16.4271 26.1891 18.2133C27.6575 19.815 30.7447 20.2414 32.6756 18.5244C32.6872 18.5129 32.7103 18.5129 32.7219 18.5014L41.9603 10.0662C42.7119 9.38633 43.8913 9.43242 44.5734 10.1814C45.2672 10.9305 45.2094 12.0943 44.4578 12.7857L41.44 15.5398L58.275 29.1605C58.6103 29.4371 58.9109 29.7367 59.1884 30.0478V7.75L52.8753 1.4582C52.1931 0.766797 51.245 0.375 50.2622 0.375ZM62.9 7.77305V33.574C62.9 35.6137 64.5534 37.2615 66.6 37.2615H74V7.77305H62.9ZM68.45 33.574C67.4325 33.574 66.6 32.7443 66.6 31.7303C66.6 30.7162 67.4325 29.8865 68.45 29.8865C69.4675 29.8865 70.3 30.7162 70.3 31.7303C70.3 32.7443 69.4675 33.574 68.45 33.574ZM0 37.25H7.4C9.44656 37.25 11.1 35.6021 11.1 33.5625V7.77305H0V37.25ZM5.55 29.8865C6.5675 29.8865 7.4 30.7162 7.4 31.7303C7.4 32.7443 6.5675 33.574 5.55 33.574C4.5325 33.574 3.7 32.7443 3.7 31.7303C3.7 30.7047 4.5325 29.8865 5.55 29.8865ZM55.9509 32.0299L38.6881 18.0635L35.2194 21.2324C31.7853 24.3553 26.5244 24.0557 23.4603 20.7254C20.35 17.3375 20.5928 12.0943 23.9691 9.00605L33.4272 0.375H23.7378C22.755 0.375 21.8184 0.766797 21.1247 1.4582L14.8 7.75V33.551H16.9159L27.38 42.9887C30.5481 45.5584 35.2078 45.0744 37.7862 41.917L37.8094 41.8939L39.8791 43.6801C41.7175 45.1781 44.4347 44.89 45.9263 43.0578L49.5569 38.6098L50.1813 39.1168C51.7653 40.3959 54.1009 40.1654 55.3844 38.5752L56.4828 37.2269C57.7778 35.6367 57.535 33.3205 55.9509 32.0299Z" fill="white"/>
</svg>
