<svg width="45" height="44" viewBox="0 0 45 44" fill="none" xmlns="http://www.w3.org/2000/svg">
<path d="M27.5041 1.1173C27.6009 1.10261 27.7051 1.0659 27.8019 1.08792C29.7525 1.5432 31.6138 2.21142 33.3782 3.15869C34.9864 4.02517 36.4679 5.05321 37.8229 6.27217C37.8974 6.33826 37.9867 6.397 38.0388 6.47778C38.1803 6.68338 38.3515 6.68339 38.5525 6.59527C39.2896 6.28686 40.0787 6.1914 40.8754 6.13999C41.6273 6.08859 42.3867 6.09593 43.1312 6.28686C44.2703 6.58792 44.8808 7.35895 44.8808 8.52651C44.8808 9.42237 44.6425 10.2742 44.248 11.0672C43.8831 11.8089 43.4513 12.5285 43.0493 13.2555C43.3769 14.144 43.7268 15.0692 44.0469 16.0018C44.2033 16.4497 44.315 16.9124 44.4341 17.375C44.4564 17.4484 44.4117 17.5365 44.3969 17.6246C44.3075 17.5292 44.2182 17.4264 44.1214 17.3309C43.7566 16.9711 43.3843 16.6113 43.0195 16.2515C42.9302 16.1046 42.826 15.9724 42.7589 15.8182C42.5803 15.3776 42.4239 14.9224 42.2527 14.4818C42.2155 14.3863 42.1559 14.3055 42.0963 14.2101C40.0564 15.8109 38.6716 15.9945 36.4828 14.9077C32.9613 17.0519 29.7674 19.6513 26.6479 22.3242C26.6554 22.5005 26.6926 22.64 26.6703 22.7648C26.5512 23.3816 26.7745 23.881 27.0872 24.4023C27.5562 25.1807 27.7349 26.0619 27.7647 26.9651C27.7721 27.134 27.8615 27.3616 27.6084 27.4644C27.2808 27.1413 26.9457 26.8182 26.6182 26.4878C26.566 26.3409 26.5139 26.1941 26.4618 26.0399C26.3427 25.6874 26.2236 25.3423 26.097 24.9751C25.8737 25.1587 25.7024 25.2982 25.5386 25.4304C25.3004 25.1807 25.0696 24.9384 24.8314 24.6887C24.8835 24.5786 24.9133 24.4537 24.9877 24.3583C25.8662 23.1907 25.4865 21.5679 24.3996 20.8703C23.4913 20.2902 22.4341 20.2902 21.5407 20.8997C21.4215 20.9804 21.3322 21.1787 21.1312 21.0539C20.9227 20.8483 20.7143 20.6427 20.5058 20.4371C19.9698 19.901 19.4337 19.3723 18.8977 18.8363C18.7711 18.66 18.6222 18.4911 18.5254 18.3002C17.3119 15.9871 16.0314 13.7181 14.5721 11.5372C14.3041 11.1407 14.0212 10.7588 13.7383 10.3696C13.3288 10.3696 12.9491 10.3696 12.562 10.3696C11.6909 10.3623 10.9613 10.0612 10.4625 9.33425C10.0009 8.65869 9.56909 7.96109 9.11495 7.27083C9.08517 7.22678 9.0405 7.19006 8.98838 7.13132C7.54405 8.43105 6.32307 9.88499 5.29566 11.5078C5.36266 11.5592 5.39989 11.6106 5.452 11.64C6.24118 12.0953 7.03779 12.5432 7.82696 12.9985C8.10243 13.16 8.39278 13.3069 8.65336 13.4905C8.8916 13.6594 8.94371 14.0118 8.78737 14.2468C8.62358 14.5038 8.31089 14.614 8.05031 14.4671C7.49194 14.1587 6.94845 13.8209 6.39008 13.5051C5.82425 13.1894 5.25099 12.881 4.67028 12.5652C4.61072 12.6533 4.5586 12.7121 4.52882 12.7782C4.13424 13.674 3.73221 14.5626 3.35251 15.4658C3.15894 15.9284 3.0026 16.3983 2.83136 16.8683C2.36233 17.3236 1.90074 17.7862 1.4317 18.2415C1.42425 18.1607 1.38703 18.0652 1.40192 17.9918C1.87096 15.6861 2.71224 13.5125 3.91089 11.4784C5.05742 9.53252 6.46453 7.78485 8.16943 6.27951C8.25877 6.19874 8.363 6.12531 8.45979 6.04453C8.24388 5.55254 8.04287 5.11196 7.8493 4.66403C7.71529 4.33359 7.58128 4.00314 7.47705 3.66536C7.37282 3.30555 7.54405 2.99714 7.86419 2.90168C8.19177 2.80622 8.50446 2.96776 8.61613 3.32758C9.03305 4.65668 9.68821 5.87564 10.3657 7.07991C10.6858 7.64533 11.0581 8.17404 11.4006 8.72477C11.5718 8.99647 11.8249 9.12864 12.1376 9.14333C12.629 9.16536 13.1278 9.20942 13.6192 9.16536C14.0733 9.1213 14.3711 9.25348 14.6317 9.60595C15.9122 11.3242 17.029 13.138 18.0564 15.0105C18.9275 16.5893 19.7464 18.1901 20.5877 19.7835C20.6249 19.8496 20.6622 19.9083 20.7068 19.9965C21.0344 19.8202 21.3545 19.644 21.7045 19.4531C21.3843 18.9905 21.0716 18.5352 20.7515 18.0873C19.0913 15.7375 17.5204 13.3363 16.1505 10.8102C15.8378 10.2375 15.5698 9.65001 15.2794 9.0699C15.1082 8.73212 15.1454 8.45308 15.4134 8.1667C15.7559 7.80688 15.9867 7.38098 16.1207 6.89634C16.2026 6.58792 16.2175 6.2942 16.0611 6.00782C15.8452 5.5966 15.607 5.19273 15.3911 4.78152C15.3315 4.67137 15.3166 4.53919 15.2794 4.41436C15.5177 4.17938 15.7559 3.95174 16.0016 3.71676C16.076 3.76816 16.1803 3.80488 16.2175 3.87097C16.56 4.40702 16.8578 4.95775 17.1481 5.50849C17.5055 6.16937 17.4906 6.85228 17.1928 7.5205C16.9992 7.95375 16.7684 8.3723 16.5302 8.83492C16.5525 8.88632 16.5897 8.99647 16.6419 9.09193C17.1481 10.0245 17.6395 10.9791 18.183 11.897C19.605 14.3055 21.1833 16.6186 22.8212 18.8877C22.985 19.1153 23.1413 19.2989 23.4689 19.2915C23.6699 19.2842 23.8933 19.3429 24.0794 19.4237C24.3102 19.5192 24.4814 19.4531 24.6601 19.3356C26.7149 17.9918 28.7772 16.6627 30.8172 15.2969C32.1349 14.4084 33.3857 13.4244 34.5694 12.3816C33.9664 9.98779 35.0534 8.38699 37.0188 7.1974C36.5275 6.62464 34.5992 5.1707 33.9068 4.86229C33.8696 4.92104 33.8249 4.97978 33.7952 5.03853C33.2219 6.0225 32.6486 7.00648 32.0679 7.99046C31.8446 8.3723 31.5244 8.48245 31.2043 8.31356C30.8842 8.13732 30.8172 7.78485 31.0405 7.39567C31.3606 6.84493 31.6882 6.2942 32.0084 5.74346C32.2987 5.25148 32.5816 4.75214 32.8794 4.23812C32.7529 4.16469 32.6635 4.10595 32.5667 4.05455C31.5617 3.52584 30.497 3.11463 29.4175 2.74747C29.2463 2.68873 29.0899 2.58592 28.9261 2.50515C28.4422 2.03519 27.9732 1.57257 27.5041 1.1173ZM26.2236 21.0833C26.3204 21.0098 26.4172 20.9437 26.5139 20.863C28.7623 18.9537 31.0479 17.0959 33.4899 15.429C34.361 14.8343 35.2916 14.3129 36.1999 13.7695C36.4084 13.6447 36.6168 13.6594 36.8402 13.7548C37.1677 13.9017 37.4953 14.0339 37.8303 14.1734C38.3813 14.401 38.9471 14.4891 39.5353 14.3276C40.1011 14.166 40.6222 13.909 41.0689 13.5272C42.4835 12.3156 43.2801 10.7588 43.6672 8.98178C43.7119 8.76149 43.7045 8.51917 43.6821 8.28419C43.6375 7.7922 43.2875 7.49113 42.6324 7.35895C41.5752 7.146 40.518 7.28552 39.4906 7.47644C38.828 7.60128 38.21 7.96843 37.5698 8.24013C37.071 8.45308 36.6689 8.79086 36.319 9.19473C35.9989 9.56923 35.7457 9.98045 35.6639 10.4871C35.5671 11.0893 35.5745 11.6767 35.7904 12.2568C35.8946 12.5285 35.8798 12.7855 35.649 12.9985C35.4852 13.1453 35.3288 13.3069 35.1576 13.4391C34.2716 14.1513 33.4006 14.871 32.4923 15.5539C30.3332 17.1767 28.0551 18.616 25.7545 20.0405C25.6726 20.0919 25.6056 20.1507 25.5237 20.2021C25.762 20.5105 25.9853 20.7822 26.2236 21.0833Z" fill="#106EE8"/>
<path d="M43.0118 16.2363C43.3766 16.5961 43.7489 16.956 44.1137 17.3158C44.2105 17.4112 44.2998 17.514 44.3892 17.6095C44.4636 17.7784 44.5604 17.9399 44.5976 18.1088C44.9773 20.0547 45.0741 22.008 44.9326 23.9833C44.7763 26.0467 44.3222 28.0367 43.5702 29.968C42.3418 33.1108 40.4805 35.8351 37.9865 38.1408C37.0037 39.0441 35.954 39.8591 34.8223 40.5641C32.7154 41.8785 30.4595 42.8625 28.0325 43.4205C26.2755 43.8244 24.4961 44.008 22.687 43.986C20.7289 43.9639 18.8081 43.6996 16.932 43.1488C14.6538 42.488 12.5171 41.5113 10.5665 40.1602C9.1966 39.2056 7.90862 38.1555 6.78442 36.9292C5.84635 35.9012 4.96039 34.8291 4.26801 33.6248C3.71708 32.6629 3.17359 31.6789 2.71945 30.6656C1.90049 28.8224 1.38679 26.8985 1.14855 24.8939C0.954979 23.2857 0.954979 21.6702 1.09643 20.0621C1.1411 19.5554 1.23789 19.0487 1.31978 18.5421C1.34212 18.4246 1.40912 18.3218 1.45379 18.2043C1.92283 17.749 2.38442 17.2864 2.85346 16.8311C2.87579 16.8678 2.91302 16.9119 2.90557 16.9486C2.72689 17.8592 2.51843 18.7624 2.36953 19.6802C2.2653 20.3264 2.25041 20.9873 2.19085 21.6849C2.39187 21.6849 2.54077 21.6849 2.68222 21.6849C3.72452 21.6849 4.76682 21.6849 5.80912 21.6849C5.90591 21.6849 6.01014 21.6776 6.10692 21.6923C6.41217 21.7363 6.62063 21.9713 6.62808 22.2724C6.63552 22.5734 6.4345 22.7937 6.11437 22.8451C6.00269 22.8598 5.89102 22.8598 5.77934 22.8598C4.72215 22.8598 3.67241 22.8598 2.61522 22.8672C2.48865 22.8672 2.35464 22.8892 2.20574 22.8965C2.30253 26.1495 3.12148 29.1529 4.65515 32.0093C4.7966 31.9433 4.90828 31.9065 5.01251 31.8405C5.46665 31.5834 5.91335 31.3191 6.36005 31.0621C6.91843 30.7463 7.47681 30.4306 8.03518 30.1148C8.27342 29.9826 8.48933 30.0414 8.69034 30.2029C8.88391 30.3645 8.93603 30.5921 8.84669 30.8051C8.77968 30.9593 8.63823 31.1135 8.49677 31.2016C7.96073 31.532 7.40236 31.8331 6.85887 32.1415C6.34516 32.4352 5.8389 32.729 5.28797 33.0447C7.05244 35.791 9.22638 38.0748 12.0704 39.727C12.1448 39.6168 12.1969 39.5507 12.2416 39.4773C12.7777 38.5521 13.3137 37.6342 13.8497 36.7089C13.9093 36.6061 13.9689 36.4886 14.0433 36.3932C14.2145 36.1729 14.5347 36.1141 14.7804 36.239C15.0186 36.3565 15.1452 36.6135 15.0707 36.8852C15.0409 36.988 14.9888 37.0908 14.9367 37.1862C14.3932 38.1188 13.8497 39.0514 13.3137 39.984C13.2467 40.0941 13.1946 40.2116 13.1201 40.3511C16.0311 41.8711 19.0836 42.6862 22.3743 42.767C22.3743 42.6055 22.3743 42.5027 22.3743 42.3925C22.3743 41.3424 22.3743 40.285 22.3743 39.235C22.3743 38.7136 22.5827 38.4199 22.9624 38.4125C23.2974 38.4052 23.6101 38.6695 23.5952 39.235C23.5655 40.263 23.5878 41.291 23.5878 42.3191C23.5878 42.4586 23.5878 42.6055 23.5878 42.7744C26.9008 42.6789 29.9533 41.8711 32.8494 40.3511C32.7079 40.0794 32.5963 39.8518 32.4623 39.6315C31.9709 38.787 31.4646 37.9426 30.9807 37.0908C30.9062 36.9659 30.8765 36.7897 30.8914 36.6355C30.9137 36.3858 31.1147 36.2169 31.3604 36.1802C31.6507 36.1435 31.8667 36.2537 32.0081 36.5033C32.3729 37.1275 32.7377 37.7517 33.1025 38.3758C33.3631 38.8164 33.6162 39.257 33.8917 39.7196C36.7059 37.994 38.9245 35.7543 40.7188 33.03C40.1381 32.6996 39.6095 32.4059 39.0734 32.0975C38.5076 31.7744 37.9343 31.4586 37.3685 31.1208C37.0782 30.9519 37.0037 30.5921 37.1601 30.3204C37.309 30.0561 37.6216 29.968 37.9343 30.1001C38.0237 30.1368 38.113 30.1882 38.1949 30.2397C39.1032 30.761 40.0189 31.2824 40.9272 31.8037C41.0389 31.8698 41.1655 31.9212 41.3069 31.9947C42.848 29.1235 43.6744 26.1128 43.7563 22.8598C43.5851 22.8525 43.4511 22.8378 43.3171 22.8378C42.2897 22.8378 41.2548 22.8378 40.2274 22.8378C40.0934 22.8378 39.9519 22.8378 39.8179 22.8158C39.5276 22.7644 39.3563 22.5661 39.3414 22.2871C39.3265 22.0007 39.5052 21.7584 39.7881 21.6923C39.9073 21.6629 40.0338 21.6702 40.1604 21.6702C41.2176 21.6702 42.2673 21.6702 43.3245 21.6702C43.4585 21.6702 43.5851 21.6702 43.7638 21.6702C43.734 21.1782 43.7265 20.745 43.6819 20.3044C43.5628 18.9973 43.3096 17.7196 42.9374 16.4566C42.9374 16.4126 42.9895 16.3244 43.0118 16.2363Z" fill="#106EE8"/>
<path d="M27.505 1.11672C27.974 1.57933 28.443 2.03461 28.9121 2.49722C28.8525 2.51191 28.778 2.55597 28.7259 2.54128C27.5571 2.21818 26.3659 1.99055 25.1598 1.86571C24.661 1.81431 24.1547 1.79228 23.6187 1.74822C23.6112 1.9318 23.5963 2.06398 23.5963 2.19615C23.5963 3.28294 23.5963 4.36972 23.5963 5.46384C23.5963 5.87506 23.3283 6.1541 22.9784 6.14676C22.6434 6.13941 22.4051 5.86037 22.3902 5.47119C22.3902 5.41979 22.3902 5.37573 22.3902 5.32433C22.3902 4.27426 22.3902 3.22419 22.3902 2.16678C22.3902 2.04195 22.3753 1.90977 22.3679 1.78494C22.1445 1.78494 21.9733 1.7776 21.8021 1.78494C20.3131 1.87306 18.8538 2.13007 17.417 2.50457C17.3648 2.51925 17.2978 2.49722 17.2383 2.49722C17.7222 2.02726 18.2061 1.5573 18.6901 1.09469C18.8315 1.0286 18.9655 0.94048 19.1144 0.911108C20.9459 0.573324 22.7997 0.49255 24.6535 0.624726C25.4501 0.683471 26.2467 0.815647 27.0434 0.933137C27.1997 0.947824 27.3486 1.05063 27.505 1.11672Z" fill="#106EE8"/>
<path d="M18.6822 1.08732C18.1983 1.55728 17.7143 2.02724 17.2304 2.48985C16.8879 2.61469 16.5455 2.74686 16.203 2.87904C16.0541 2.93778 15.9052 3.01121 15.734 3.08465C15.8233 3.22416 15.8903 3.30494 15.9424 3.40774C15.9871 3.5032 16.0094 3.60601 16.0392 3.70881C15.801 3.94379 15.5627 4.17143 15.317 4.40641C15.2203 4.32563 15.1011 4.26689 15.0341 4.17143C14.3343 3.26088 13.6419 2.33565 12.9421 1.4251C12.8527 1.30761 12.7411 1.20481 12.6368 1.102C12.3018 0.764219 12.2646 0.448464 12.5326 0.176769C12.7932 -0.0875836 13.1878 -0.050868 13.5005 0.301602C13.9248 0.778905 14.3343 1.27089 14.7438 1.75554C14.8257 1.851 14.9001 1.93912 14.9895 2.04927C15.4436 1.89506 15.8829 1.73351 16.3296 1.60868C17.0666 1.40307 17.8037 1.21215 18.5482 1.02857C18.578 1.01388 18.6375 1.06529 18.6822 1.08732Z" fill="#106EE8"/>
<path d="M14.9597 6.05872C14.9597 6.36714 14.7885 6.59477 14.5726 6.6682C14.312 6.75632 14.0217 6.67555 13.8579 6.42588C13.508 5.89718 13.1655 5.36113 12.8156 4.82508C12.2274 3.92188 11.6393 3.01867 11.0586 2.10812C10.9841 1.99798 10.932 1.8658 10.9097 1.74097C10.865 1.48396 10.9841 1.29304 11.2149 1.1682C11.4159 1.05806 11.6914 1.07274 11.8701 1.24163C11.9743 1.3371 12.0636 1.46193 12.1455 1.58676C13.024 2.94524 13.9026 4.30372 14.7811 5.6622C14.8704 5.80171 14.9225 5.96326 14.9597 6.05872Z" fill="#106EE8"/>
<path d="M9.77861 2.07129C10.0987 2.08598 10.27 2.24018 10.3965 2.46782C10.8284 3.26822 11.2751 4.05393 11.7143 4.84699C12.1015 5.53724 12.4811 6.23484 12.8683 6.92509C13.0395 7.22616 12.9427 7.63738 12.6598 7.79892C12.4067 7.94579 12.0568 7.83564 11.8781 7.51989C11.0294 6.02923 10.1806 4.53858 9.3468 3.04058C9.12345 2.63671 9.22024 2.30627 9.56271 2.13738C9.6446 2.10066 9.73394 2.08598 9.77861 2.07129Z" fill="#106EE8"/>
<path d="M21.3686 24.8124C21.4356 24.8271 21.5101 24.8344 21.5622 24.8711C22.4258 25.5173 23.7063 25.4733 24.5476 24.783C24.6221 24.7243 24.7338 24.7096 24.8305 24.6729C25.0688 24.9225 25.2996 25.1648 25.5378 25.4145C25.4634 25.5026 25.3964 25.6054 25.307 25.6789C24.9348 25.9946 24.5104 26.2076 24.0414 26.3397C23.9148 26.3765 23.7957 26.4132 23.6319 26.4646C24.3317 27.4192 25.2177 27.992 26.3493 28.2416C26.5355 27.757 26.5578 27.3017 26.5503 26.8391C26.5503 26.7142 26.595 26.5968 26.6174 26.4719C26.9449 26.795 27.28 27.1181 27.6075 27.4486C27.6373 27.5587 27.7118 27.6835 27.6894 27.779C27.6001 28.1976 27.4959 28.6161 27.3619 29.02C27.2278 29.4386 26.997 29.5487 26.5652 29.4826C24.7933 29.2256 23.4234 28.3518 22.4705 26.8538C22.4184 26.773 22.3662 26.6922 22.3067 26.6114C22.2918 26.5894 22.2695 26.5821 22.2322 26.5527C22.1131 26.6482 21.9866 26.7436 21.8525 26.8391C20.8772 27.522 19.8052 27.9185 18.5991 27.9185C18.4874 27.9185 18.3832 27.8598 18.2715 27.8304C18.6437 27.4779 19.0085 27.1181 19.3808 26.7656C19.5446 26.6922 19.7084 26.6041 19.8796 26.538C20.2742 26.3911 20.6762 26.2516 21.0038 25.9726C20.8475 25.811 20.7135 25.6789 20.5869 25.5393C20.8475 25.2897 21.108 25.0474 21.3686 24.8124Z" fill="#106EE8"/>
<path d="M19.3815 26.7587C19.0092 27.1112 18.6444 27.471 18.2722 27.8235C18.1084 27.8455 17.9371 27.9043 17.7734 27.8822C17.4681 27.8455 17.1629 27.7721 16.8651 27.6913C16.5151 27.5959 16.3737 27.4196 16.3811 27.0525C16.4184 25.8262 16.7683 24.6953 17.55 23.7113C17.9967 23.1459 18.5253 22.6686 19.1432 22.3015C19.307 22.206 19.3964 22.0885 19.4485 21.9196C19.5006 21.7434 19.5527 21.5598 19.6495 21.4056C19.8579 21.0752 19.8282 20.7888 19.6346 20.4583C19.374 20.0104 19.1656 19.5478 18.9348 19.0852C18.8975 19.0044 18.905 18.9089 18.8901 18.8135C19.4261 19.3495 19.9622 19.8782 20.4982 20.4143C20.7067 20.6199 20.9151 20.8255 21.1236 21.0311C21.1013 21.1266 21.1087 21.2514 21.0491 21.3175C20.2228 22.3161 20.3568 23.7921 21.2799 24.6513C21.3172 24.688 21.3321 24.7541 21.3618 24.8055C21.1013 25.0404 20.8332 25.2828 20.5727 25.5177C20.5131 25.481 20.4461 25.459 20.394 25.4149C19.9473 25.0037 19.6718 24.4971 19.4783 23.9316C19.441 23.8215 19.4038 23.7113 19.3517 23.5571C18.3541 24.3869 17.7287 25.3635 17.617 26.6339C18.1158 26.7514 18.5774 26.7661 19.0464 26.7073C19.1581 26.7 19.2772 26.7367 19.3815 26.7587Z" fill="#106EE8"/>
<path d="M21.0866 34.7187C21.094 35.1079 20.7367 35.4016 20.3197 35.2841C19.5082 35.0638 18.6893 34.8582 17.915 34.5572C16.426 33.9771 15.1008 33.1179 13.9245 32.0532C12.7631 31.0031 11.8101 29.7915 11.0805 28.411C10.8944 28.0585 10.9837 27.7354 11.3038 27.5665C11.624 27.3976 11.9441 27.5004 12.1377 27.8602C12.5918 28.7194 13.1428 29.5124 13.7979 30.2394C15.5847 32.2294 17.7959 33.5291 20.4314 34.1019C20.8856 34.212 21.0791 34.3809 21.0866 34.7187Z" fill="#106EE8"/>
<path d="M9.57574 22.2719C9.53107 20.6785 9.8512 19.1438 10.4021 17.6458C10.4766 17.4402 10.5585 17.2199 10.7967 17.1464C11.0201 17.073 11.2434 17.0803 11.4221 17.2566C11.6008 17.4328 11.6603 17.6458 11.5784 17.8954C11.4146 18.4094 11.2434 18.9161 11.102 19.4375C10.6553 21.0677 10.6404 22.7199 10.9158 24.3794C10.9233 24.4308 10.9382 24.4749 10.9456 24.5263C10.9679 24.842 10.7669 25.1284 10.4766 25.1798C10.1788 25.2386 9.86609 25.0697 9.79909 24.7466C9.69486 24.2179 9.6353 23.6818 9.57574 23.1531C9.54596 22.8594 9.57574 22.5583 9.57574 22.2719Z" fill="#106EE8"/>
<path d="M36.4305 22.7856C36.3412 24.9739 35.7456 27.0153 34.6437 28.9171C34.5022 29.1594 34.3087 29.3063 34.0109 29.2843C33.7726 29.2622 33.5195 29.064 33.5046 28.8217C33.4972 28.6381 33.5493 28.4325 33.6386 28.2709C34.1151 27.4265 34.5022 26.5453 34.7703 25.6127C35.0681 24.5847 35.2393 23.542 35.2542 22.4699C35.2542 22.3744 35.2467 22.2716 35.2616 22.1761C35.3137 21.8898 35.5818 21.6768 35.8721 21.6988C36.1774 21.7135 36.4007 21.9265 36.4231 22.2349C36.4379 22.4185 36.4305 22.602 36.4305 22.7856Z" fill="#106EE8"/>
<path d="M29.9006 33.618C29.5954 33.6106 29.3571 33.4197 29.2827 33.1847C29.2008 32.9351 29.2827 32.6927 29.5284 32.5165C29.9081 32.2448 30.325 32.0098 30.6674 31.7014C31.2705 31.1654 31.8438 30.5853 32.417 30.0125C32.7 29.7261 32.901 29.6307 33.1541 29.7335C33.5561 29.895 33.6902 30.3429 33.3923 30.7028C33.0573 31.1066 32.7074 31.5178 32.3054 31.8556C31.6502 32.4137 30.9578 32.9204 30.2729 33.4417C30.1388 33.5299 29.9825 33.5739 29.9006 33.618Z" fill="#106EE8"/>
<path d="M23.4981 35.5486C23.3343 35.5486 23.178 35.556 23.0142 35.5486C22.6717 35.5413 22.3814 35.2622 22.3888 34.9612C22.3963 34.6674 22.6717 34.4178 22.9919 34.3884C23.8034 34.315 24.6149 34.2342 25.4189 34.1461C25.8433 34.0947 26.1039 34.2342 26.1783 34.5867C26.2528 34.9391 26.0443 35.2329 25.6199 35.2989C24.9127 35.4091 24.2054 35.4972 23.4981 35.5927C23.5056 35.578 23.5056 35.5633 23.4981 35.5486Z" fill="#106EE8"/>
<path d="M36.3338 20.2745C36.2816 20.5976 36.0806 20.8326 35.7828 20.8693C35.4552 20.9061 35.1947 20.7372 35.1128 20.4287C34.9639 19.8413 34.8224 19.2465 34.681 18.6591C34.5767 18.2331 34.7256 17.9541 35.0904 17.8513C35.418 17.7632 35.7084 17.9394 35.82 18.3433C36.0062 18.9748 36.1625 19.621 36.3338 20.2745Z" fill="#106EE8"/>
<path d="M12.9207 13.7842C13.4046 13.8282 13.695 14.3202 13.4418 14.7168C13.0845 15.2748 12.7048 15.8109 12.3176 16.3469C12.1389 16.5966 11.8263 16.6407 11.5582 16.4865C11.3051 16.3396 11.1637 15.9871 11.3349 15.7228C11.7071 15.1353 12.1092 14.5626 12.5261 14.0045C12.6005 13.8943 12.7867 13.8576 12.9207 13.7842Z" fill="#106EE8"/>
<path d="M23.8797 9.0243C25.0114 9.00961 26.0983 9.22256 27.1406 9.64112C27.2746 9.69252 27.4161 9.75861 27.5352 9.84673C27.7586 10.0156 27.8181 10.2653 27.7213 10.4929C27.6022 10.7646 27.3938 10.8895 27.1109 10.8674C27.0364 10.8601 26.962 10.8454 26.8949 10.816C25.7186 10.2726 24.4679 10.1625 23.1948 10.1919C23.0533 10.1992 22.897 10.1772 22.763 10.1184C22.5024 10.0156 22.3609 9.74392 22.4131 9.5016C22.4652 9.23725 22.6736 9.05367 22.9565 9.03164C23.1203 9.01695 23.2767 9.0243 23.4405 9.0243C23.5819 9.0243 23.7308 9.0243 23.8797 9.0243Z" fill="#106EE8"/>
<path d="M29.5134 10.8087C29.5358 10.8087 29.5655 10.8014 29.5879 10.8087C30.176 10.9923 30.6674 11.3301 31.0843 11.7707C31.2406 11.9395 31.1662 12.2773 31.0024 12.4462C30.8237 12.6298 30.5334 12.7032 30.3249 12.5784C29.9378 12.3434 29.5506 12.0938 29.1858 11.8221C28.8732 11.5871 28.8508 11.2493 29.0965 10.9923C29.2007 10.8895 29.3571 10.8381 29.4911 10.7646C29.4985 10.7793 29.506 10.794 29.5134 10.8087Z" fill="#106EE8"/>
<path d="M19.6562 10.6545C19.2393 10.6545 19.0457 10.5223 18.9712 10.2727C18.8893 10.001 18.9638 9.74397 19.2169 9.60445C19.3956 9.50899 19.6115 9.47228 19.8125 9.41353C20.0731 9.3401 20.3411 9.27401 20.6017 9.22261C20.892 9.16386 21.1973 9.33276 21.2866 9.59711C21.3909 9.89084 21.2643 10.2433 20.9665 10.3314C20.5049 10.4709 20.021 10.5664 19.6562 10.6545Z" fill="#106EE8"/>
<path d="M40.1467 8.45898C40.4594 8.45898 40.7274 8.69396 40.7944 9.00238C40.8466 9.23735 40.6828 9.48702 40.4073 9.59717C40.1914 9.67794 39.9681 9.75137 39.7447 9.83215C38.8885 10.1332 38.2855 10.728 37.7867 11.455C37.6378 11.6679 37.4516 11.8442 37.1836 11.8074C36.9305 11.7781 36.7593 11.6018 36.6997 11.3522C36.6774 11.2567 36.6848 11.1245 36.7295 11.0364C37.474 9.76606 38.5312 8.87754 39.9904 8.48836C40.0499 8.46633 40.1095 8.46633 40.1467 8.45898Z" fill="#106EE8"/>
</svg>
