<svg width="26" height="26" viewBox="0 0 26 26" fill="none" xmlns="http://www.w3.org/2000/svg">
<path d="M25.3703 5.82666C24.9751 4.84946 24.4051 3.96393 23.6924 3.21965C22.9792 2.47314 22.1383 1.8799 21.2154 1.47219C20.2584 1.04774 19.232 0.830483 18.1958 0.83303C16.742 0.83303 15.3236 1.25809 14.091 2.06097C13.7961 2.25303 13.5159 2.46399 13.2505 2.69383C12.9851 2.46399 12.705 2.25303 12.4101 2.06097C11.1775 1.25809 9.75909 0.83303 8.30531 0.83303C7.25846 0.83303 6.24405 1.04713 5.28568 1.47219C4.35973 1.8815 3.52521 2.47029 2.80863 3.21965C2.095 3.96309 1.52493 4.84883 1.13073 5.82666C0.720844 6.84365 0.511475 7.92361 0.511475 9.03505C0.511475 10.0835 0.711997 11.1761 1.11009 12.2875C1.44331 13.2164 1.92103 14.1798 2.53144 15.1527C3.49867 16.6924 4.8286 18.2981 6.47996 19.926C9.2165 22.6243 11.9265 24.4882 12.0415 24.5638L12.7404 25.0424C13.05 25.2533 13.4481 25.2533 13.7577 25.0424L14.4566 24.5638C14.5716 24.4851 17.2787 22.6243 20.0182 19.926C21.6695 18.2981 22.9995 16.6924 23.9667 15.1527C24.5771 14.1798 25.0578 13.2164 25.388 12.2875C25.7861 11.1761 25.9867 10.0835 25.9867 9.03505C25.9896 7.92361 25.7802 6.84365 25.3703 5.82666Z" fill="#0FC1A1"/>
</svg>
