<svg width="26" height="26" viewBox="0 0 26 26" fill="none" xmlns="http://www.w3.org/2000/svg">
<path d="M25.2156 5.82666C24.8203 4.84946 24.2504 3.96393 23.5377 3.21965C22.8244 2.47314 21.9835 1.8799 21.0606 1.47219C20.1036 1.04774 19.0772 0.830483 18.041 0.83303C16.5872 0.83303 15.1688 1.25809 13.9362 2.06097C13.6413 2.25303 13.3612 2.46399 13.0958 2.69383C12.8304 2.46399 12.5502 2.25303 12.2553 2.06097C11.0227 1.25809 9.60431 0.83303 8.15052 0.83303C7.10368 0.83303 6.08927 1.04713 5.13089 1.47219C4.20495 1.8815 3.37042 2.47029 2.65385 3.21965C1.94022 3.96309 1.37015 4.84883 0.97595 5.82666C0.566058 6.84365 0.356689 7.92361 0.356689 9.03505C0.356689 10.0835 0.557212 11.1761 0.955308 12.2875C1.28853 13.2164 1.76624 14.1798 2.37666 15.1527C3.34388 16.6924 4.67382 18.2981 6.32518 19.926C9.06172 22.6243 11.7717 24.4882 11.8867 24.5638L12.5856 25.0424C12.8952 25.2533 13.2933 25.2533 13.603 25.0424L14.3018 24.5638C14.4168 24.4851 17.1239 22.6243 19.8634 19.926C21.5147 18.2981 22.8447 16.6924 23.8119 15.1527C24.4223 14.1798 24.903 13.2164 25.2333 12.2875C25.6313 11.1761 25.8319 10.0835 25.8319 9.03505C25.8348 7.92361 25.6255 6.84365 25.2156 5.82666ZM13.0958 22.5519C13.0958 22.5519 2.59782 15.37 2.59782 9.03505C2.59782 5.82666 5.08371 3.22594 8.15052 3.22594C10.3061 3.22594 12.1757 4.51056 13.0958 6.38711C14.0158 4.51056 15.8854 3.22594 18.041 3.22594C21.1078 3.22594 23.5937 5.82666 23.5937 9.03505C23.5937 15.37 13.0958 22.5519 13.0958 22.5519Z" fill="#CBFFCE"/>
</svg>
