<svg width="32" height="31" viewBox="0 0 32 31" fill="none" xmlns="http://www.w3.org/2000/svg">
<g filter="url(#filter0_d)">
<path d="M29.2044 5.46482C28.7718 4.39542 28.1481 3.42634 27.3682 2.61182C26.5876 1.79488 25.6674 1.14567 24.6574 0.699491C23.6101 0.234994 22.4869 -0.00276267 21.3529 2.4219e-05C19.7619 2.4219e-05 18.2097 0.465187 16.8608 1.34383C16.538 1.55401 16.2315 1.78487 15.941 2.0364C15.6506 1.78487 15.344 1.55401 15.0213 1.34383C13.6724 0.465187 12.1202 2.4219e-05 10.5292 2.4219e-05C9.38358 2.4219e-05 8.27347 0.234328 7.22466 0.699491C6.21135 1.14742 5.29809 1.79176 4.5139 2.61182C3.73294 3.42542 3.10908 4.39473 2.67769 5.46482C2.22912 6.57776 2 7.75962 2 8.97593C2 10.1233 2.21944 11.319 2.6551 12.5353C3.01976 13.5518 3.54255 14.6061 4.21056 15.6708C5.26904 17.3557 6.72446 19.113 8.53163 20.8944C11.5264 23.8473 14.4921 25.8872 14.6179 25.9699L15.3827 26.4936C15.7216 26.7245 16.1573 26.7245 16.4961 26.4936L17.2609 25.9699C17.3868 25.8837 20.3492 23.8473 23.3472 20.8944C25.1544 19.113 26.6098 17.3557 27.6683 15.6708C28.3363 14.6061 28.8623 13.5518 29.2237 12.5353C29.6594 11.319 29.8788 10.1233 29.8788 8.97593C29.8821 7.75962 29.6529 6.57776 29.2044 5.46482Z" fill="#D2CECE"/>
<path d="M26.2848 3.64925L26.2836 3.64804C25.6357 2.96994 24.877 2.43637 24.0513 2.07156L24.0492 2.07067C23.1926 1.69071 22.2776 1.49776 21.3566 1.50002L21.3529 1.50003C20.057 1.50002 18.7885 1.87829 17.6794 2.60071L17.6794 2.60074C17.4137 2.77376 17.1618 2.96354 16.923 3.17028L15.941 4.02073L14.959 3.17028C14.7203 2.96354 14.4683 2.77377 14.2027 2.60074L14.2026 2.60071C13.0935 1.87829 11.825 1.50002 10.5292 1.50002C9.5925 1.50002 8.68959 1.69068 7.83281 2.07068L7.83113 2.07142C7.0019 2.43799 6.24987 2.96682 5.59802 3.6485L5.59604 3.65056C4.95077 4.3228 4.43043 5.12888 4.06894 6.02556L26.2848 3.64925ZM26.2848 3.64925C26.9298 4.32284 27.4504 5.12934 27.8133 6.02599C28.1894 6.9593 28.3816 7.94924 28.3788 8.97196V8.97593C28.3788 9.93138 28.1961 10.956 27.8116 12.0295L27.8104 12.0327C27.4922 12.9278 27.0188 13.8837 26.3977 14.8736C25.4155 16.4369 24.0406 18.1046 22.2942 19.8262C19.3882 22.6884 16.509 24.6668 16.4137 24.732L16.4134 24.7322L15.9394 25.0568L15.4654 24.7322L15.4536 24.7241L15.4416 24.7163C15.4467 24.7196 15.403 24.6903 15.3047 24.6213C15.2125 24.5566 15.0815 24.4635 14.917 24.3439C14.588 24.1047 14.127 23.7611 13.5776 23.3292C12.4766 22.4637 11.0315 21.2529 9.58481 19.8263L9.58465 19.8262M26.2848 3.64925L9.58465 19.8262M9.58465 19.8262C7.83801 18.1045 6.46305 16.4365 5.48085 14.8731L9.58465 19.8262ZM3.5 8.97593C3.5 7.95041 3.69271 6.95906 4.0689 6.02566L4.06699 12.0288C3.68266 10.9555 3.5 9.93117 3.5 8.97593ZM5.48072 14.8729C4.86158 13.886 4.39007 12.9291 4.06725 12.0295L5.48072 14.8729Z" stroke="white" stroke-width="3"/>
</g>
<defs>
<filter id="filter0_d" x="0" y="0" width="31.8789" height="30.6667" filterUnits="userSpaceOnUse" color-interpolation-filters="sRGB">
<feFlood flood-opacity="0" result="BackgroundImageFix"/>
<feColorMatrix in="SourceAlpha" type="matrix" values="0 0 0 0 0 0 0 0 0 0 0 0 0 0 0 0 0 0 127 0"/>
<feOffset dy="2"/>
<feGaussianBlur stdDeviation="1"/>
<feColorMatrix type="matrix" values="0 0 0 0 0 0 0 0 0 0 0 0 0 0 0 0 0 0 0.5 0"/>
<feBlend mode="normal" in2="BackgroundImageFix" result="effect1_dropShadow"/>
<feBlend mode="normal" in="SourceGraphic" in2="effect1_dropShadow" result="shape"/>
</filter>
</defs>
</svg>
