<svg width="30" height="27" viewBox="0 0 30 27" fill="none" xmlns="http://www.w3.org/2000/svg">
<path d="M15.61 1.20954C15.4335 1.07003 15.215 0.994141 14.99 0.994141C14.765 0.994141 14.5465 1.07003 14.37 1.20954L0 12.4195L1.24 13.9995L3 12.6195V24.9995C3 25.53 3.21071 26.0387 3.58579 26.4138C3.96086 26.7888 4.46957 26.9995 5 26.9995H25C25.5304 26.9995 26.0391 26.7888 26.4142 26.4138C26.7893 26.0387 27 25.53 27 24.9995V12.6295L28.76 13.9995L30 12.4295L15.61 1.20954ZM17 24.9995H13V16.9995H17V24.9995ZM19 24.9995V16.9995C19 16.4691 18.7893 15.9604 18.4142 15.5853C18.0391 15.2103 17.5304 14.9995 17 14.9995H13C12.4696 14.9995 11.9609 15.2103 11.5858 15.5853C11.2107 15.9604 11 16.4691 11 16.9995V24.9995H5V11.0595L15 3.26954L25 11.0695V24.9995H19Z" fill="#4596FF"/>
</svg>
