<svg width="19" height="20" viewBox="0 0 19 20" fill="none" xmlns="http://www.w3.org/2000/svg">
<path d="M9.60655 6.66779C7.88624 6.66779 6.48234 8.07169 6.48234 9.79201C6.48234 11.5123 7.88624 12.9162 9.60655 12.9162C11.3269 12.9162 12.7308 11.5123 12.7308 9.79201C12.7308 8.07169 11.3269 6.66779 9.60655 6.66779ZM18.9769 9.79201C18.9769 8.49826 18.9886 7.21622 18.9159 5.92482C18.8433 4.42482 18.5011 3.09357 17.4042 1.99669C16.305 0.897474 14.9761 0.557631 13.4761 0.484974C12.1823 0.412318 10.9003 0.424037 9.6089 0.424037C8.31515 0.424037 7.03312 0.412318 5.74171 0.484974C4.24171 0.557631 2.91046 0.899818 1.81359 1.99669C0.714369 3.09591 0.374525 4.42482 0.301869 5.92482C0.229213 7.21857 0.240932 8.5006 0.240932 9.79201C0.240932 11.0834 0.229213 12.3678 0.301869 13.6592C0.374525 15.1592 0.716713 16.4904 1.81359 17.5873C2.91281 18.6865 4.24171 19.0264 5.74171 19.099C7.03546 19.1717 8.31749 19.16 9.6089 19.16C10.9026 19.16 12.1847 19.1717 13.4761 19.099C14.9761 19.0264 16.3073 18.6842 17.4042 17.5873C18.5034 16.4881 18.8433 15.1592 18.9159 13.6592C18.9909 12.3678 18.9769 11.0858 18.9769 9.79201ZM9.60655 14.599C6.9464 14.599 4.79952 12.4522 4.79952 9.79201C4.79952 7.13185 6.9464 4.98497 9.60655 4.98497C12.2667 4.98497 14.4136 7.13185 14.4136 9.79201C14.4136 12.4522 12.2667 14.599 9.60655 14.599ZM14.6105 5.91076C13.9894 5.91076 13.4878 5.40919 13.4878 4.7881C13.4878 4.16701 13.9894 3.66544 14.6105 3.66544C15.2316 3.66544 15.7331 4.16701 15.7331 4.7881C15.7333 4.93558 15.7044 5.08165 15.648 5.21794C15.5917 5.35423 15.509 5.47807 15.4047 5.58235C15.3004 5.68664 15.1766 5.76932 15.0403 5.82568C14.904 5.88203 14.7579 5.91094 14.6105 5.91076Z" fill="white"/>
</svg>
