<svg width="73" height="72" viewBox="0 0 73 72" fill="none" xmlns="http://www.w3.org/2000/svg">
<path d="M36.8004 71.7C17.0004 71.7 0.900391 55.6 0.900391 35.8C0.900391 16.1 17.0004 0 36.8004 0C56.6004 0 72.7004 16.1 72.7004 35.9C72.6004 55.7 56.6004 71.7 36.8004 71.7Z" fill="url(#paint0_radial)"/>
<path d="M36.7996 19.7002C42.0996 19.7002 42.6996 19.7002 44.6996 19.8002C46.5996 19.9002 47.6996 20.2002 48.3996 20.5002C49.2996 20.9002 49.9996 21.3002 50.6996 22.0002C51.3996 22.7002 51.7996 23.3002 52.1996 24.3002C52.4996 25.0002 52.7996 26.0002 52.8996 28.0002C52.9996 30.1002 52.9996 30.7002 52.9996 35.9002C52.9996 41.2002 52.9996 41.8002 52.8996 43.8002C52.7996 45.7002 52.4996 46.8002 52.1996 47.5002C51.7996 48.4002 51.3996 49.1002 50.6996 49.8002C49.9996 50.5002 49.3996 50.9002 48.3996 51.3002C47.6996 51.6002 46.6996 51.9002 44.6996 52.0002C42.5996 52.1002 41.9996 52.1002 36.7996 52.1002C31.4996 52.1002 30.8996 52.1002 28.8996 52.0002C26.9996 51.9002 25.8996 51.6002 25.1996 51.3002C24.2996 50.9002 23.5996 50.5002 22.8996 49.8002C22.1996 49.1002 21.7996 48.5002 21.3996 47.5002C21.0996 46.8002 20.7996 45.8002 20.6996 43.8002C20.5996 41.7002 20.5996 41.1002 20.5996 35.9002C20.5996 30.6002 20.5996 30.0002 20.6996 28.0002C20.7996 26.1002 21.0996 25.0002 21.3996 24.3002C21.7996 23.4002 22.1996 22.7002 22.8996 22.0002C23.5996 21.3002 24.1996 20.9002 25.1996 20.5002C25.8996 20.2002 26.8996 19.9002 28.8996 19.8002C30.8996 19.8002 31.4996 19.7002 36.7996 19.7002ZM36.7996 16.2002C31.4996 16.2002 30.7996 16.2002 28.6996 16.3002C26.5996 16.4002 25.1996 16.7002 23.8996 17.2002C22.5996 17.7002 21.4996 18.4002 20.3996 19.5002C19.2996 20.6002 18.5996 21.7002 18.0996 23.0002C17.5996 24.3002 17.2996 25.7002 17.1996 27.8002C17.0996 29.9002 17.0996 30.6002 17.0996 35.9002C17.0996 41.2002 17.0996 41.9002 17.1996 44.0002C17.2996 46.1002 17.5996 47.5002 18.0996 48.8002C18.5996 50.1002 19.2996 51.2002 20.3996 52.3002C21.4996 53.4002 22.5996 54.1002 23.8996 54.6002C25.1996 55.1002 26.5996 55.4002 28.6996 55.5002C30.7996 55.6002 31.4996 55.6002 36.7996 55.6002C42.0996 55.6002 42.7996 55.6002 44.8996 55.5002C46.9996 55.4002 48.3996 55.1002 49.6996 54.6002C50.9996 54.1002 52.0996 53.4002 53.1996 52.3002C54.2996 51.2002 54.9996 50.1002 55.4996 48.8002C55.9996 47.5002 56.2996 46.1002 56.3996 44.0002C56.4996 41.9002 56.4996 41.2002 56.4996 35.9002C56.4996 30.6002 56.4996 29.9002 56.3996 27.8002C56.2996 25.7002 55.9996 24.3002 55.4996 23.0002C54.9996 21.7002 54.2996 20.6002 53.1996 19.5002C52.0996 18.4002 50.9996 17.7002 49.6996 17.2002C48.3996 16.7002 46.9996 16.4002 44.8996 16.3002C42.7996 16.2002 42.0996 16.2002 36.7996 16.2002Z" fill="white"/>
<path d="M36.7992 25.7998C31.1992 25.7998 26.6992 30.2998 26.6992 35.8998C26.6992 41.4998 31.1992 45.9998 36.7992 45.9998C42.3992 45.9998 46.8992 41.4998 46.8992 35.8998C46.8992 30.2998 42.3992 25.7998 36.7992 25.7998ZM36.7992 42.3998C33.1992 42.3998 30.1992 39.4998 30.1992 35.7998C30.1992 32.1998 33.0992 29.1998 36.7992 29.1998C40.3992 29.1998 43.3992 32.0998 43.3992 35.7998C43.2992 39.4998 40.3992 42.3998 36.7992 42.3998Z" fill="white"/>
<path d="M49.5988 25.4C49.5988 26.7 48.4989 27.8 47.1989 27.8C45.8989 27.8 44.7988 26.7 44.7988 25.4C44.7988 24.1 45.8989 23 47.1989 23C48.5989 23 49.5988 24.1 49.5988 25.4Z" fill="white"/>
<defs>
<radialGradient id="paint0_radial" cx="0" cy="0" r="1" gradientUnits="userSpaceOnUse" gradientTransform="translate(-0.883402 71.9648) scale(132.616)">
<stop stop-color="#F5EC53"/>
<stop offset="0.2412" stop-color="#E48244"/>
<stop offset="0.3974" stop-color="#D15767"/>
<stop offset="0.4888" stop-color="#C84278"/>
<stop offset="1" stop-color="#192CFA"/>
</radialGradient>
</defs>
</svg>
