<svg width="20" height="27" viewBox="0 0 20 27" fill="none" xmlns="http://www.w3.org/2000/svg">
<path d="M16.7961 6.66048C15.2461 4.297 13.0457 2.3328 10.407 0.957262L9.9375 0.712891L9.46805 0.957262C6.78443 2.35114 4.55604 4.35656 3.0071 6.77173C1.45816 9.1869 0.643308 11.9266 0.644533 14.7152C0.644533 14.8969 0.648048 15.0814 0.654904 15.2637C0.748185 17.7346 1.79813 19.8138 3.69123 21.2763C5.1399 22.3956 6.99815 23.0789 9.00024 23.2419V26.1564H10.8752V12.6564H9V21.5436C5.83219 21.2133 2.67932 19.1993 2.52867 15.2063C2.52246 15.0431 2.5193 14.8779 2.5193 14.7152C2.52488 12.3074 3.20815 9.94 4.50536 7.83409C5.80256 5.72817 7.67141 3.95235 9.9375 2.67234C12.2035 3.95237 14.0723 5.72821 15.3695 7.83412C16.6667 9.94003 17.3499 12.3074 17.3555 14.7152C17.3555 14.8779 17.3523 15.0431 17.3461 15.2064C17.2256 18.4006 15.1836 20.3283 12.7498 21.1409V22.9268C14.0127 22.6047 15.1839 22.0417 16.1838 21.2762C18.0769 19.8137 19.1268 17.7345 19.2201 15.2636C19.227 15.0814 19.2305 14.8969 19.2305 14.7152C19.2321 11.8829 18.3916 9.10178 16.7961 6.66048Z" fill="black"/>
</svg>
