<svg width="35" height="32" viewBox="0 0 35 32" fill="none" xmlns="http://www.w3.org/2000/svg">
<mask id="mask0" mask-type="alpha" maskUnits="userSpaceOnUse" x="0" y="0" width="35" height="32">
<rect width="35" height="32" fill="#C4C4C4"/>
</mask>
<g mask="url(#mask0)">
<path d="M21.75 2.99999H19.9375C19.7882 2.54414 19.555 2.12019 19.25 1.74999C18.8963 1.35454 18.4627 1.03864 17.9779 0.82316C17.4931 0.607683 16.968 0.497535 16.4375 0.499993H9.5875C9.05275 0.493975 8.5229 0.6024 8.03351 0.817994C7.54411 1.03359 7.10649 1.35136 6.75 1.74999C6.43606 2.11819 6.19434 2.54226 6.0375 2.99999H4.25C3.25544 2.99999 2.30161 3.39508 1.59835 4.09834C0.895088 4.8016 0.5 5.75543 0.5 6.74999V21.75C0.5 22.7446 0.895088 23.6984 1.59835 24.4016C2.30161 25.1049 3.25544 25.5 4.25 25.5H21.75C22.7446 25.5 23.6984 25.1049 24.4017 24.4016C25.1049 23.6984 25.5 22.7446 25.5 21.75V6.74999C25.5 5.75543 25.1049 4.8016 24.4017 4.09834C23.6984 3.39508 22.7446 2.99999 21.75 2.99999V2.99999ZM8.65 3.42499C8.76714 3.29166 8.91133 3.18479 9.07297 3.11151C9.23462 3.03823 9.41002 3.00022 9.5875 2.99999H16.4125C16.59 3.00022 16.7654 3.03823 16.927 3.11151C17.0887 3.18479 17.2329 3.29166 17.35 3.42499C17.468 3.55624 17.5568 3.71098 17.6107 3.87903C17.6645 4.04708 17.6822 4.22463 17.6625 4.39999L17.0375 9.39999C17.0007 9.70488 16.8529 9.98554 16.6223 10.1884C16.3918 10.3913 16.0946 10.5022 15.7875 10.5H13.7375L15.1625 7.49999C15.278 7.2058 15.2778 6.87876 15.162 6.58471C15.0461 6.29065 14.8231 6.05142 14.5379 5.91516C14.2527 5.7789 13.9265 5.75574 13.6249 5.85034C13.3233 5.94493 13.0688 6.15026 12.9125 6.42499L10.9625 10.5H10.2125C9.9054 10.5022 9.60823 10.3913 9.37769 10.1884C9.14714 9.98554 8.99935 9.70488 8.9625 9.39999L8.3375 4.39999C8.31782 4.22463 8.33548 4.04708 8.38935 3.87903C8.44321 3.71098 8.53204 3.55624 8.65 3.42499V3.42499ZM23 21.75C23 22.0815 22.8683 22.3995 22.6339 22.6339C22.3995 22.8683 22.0815 23 21.75 23H4.25C3.91848 23 3.60054 22.8683 3.36612 22.6339C3.1317 22.3995 3 22.0815 3 21.75V6.74999C3 6.41847 3.1317 6.10053 3.36612 5.86611C3.60054 5.63169 3.91848 5.49999 4.25 5.49999H5.9625L6.4875 9.71249C6.60087 10.6249 7.04547 11.4638 7.73683 12.0699C8.42819 12.676 9.31811 13.007 10.2375 13H15.8125C16.7319 13.007 17.6218 12.676 18.3132 12.0699C19.0045 11.4638 19.4491 10.6249 19.5625 9.71249L20.0375 5.49999H21.75C22.0815 5.49999 22.3995 5.63169 22.6339 5.86611C22.8683 6.10053 23 6.41847 23 6.74999V21.75ZM15.5 18H10.5C10.1685 18 9.85054 18.1317 9.61612 18.3661C9.3817 18.6005 9.25 18.9185 9.25 19.25C9.25 19.5815 9.3817 19.8995 9.61612 20.1339C9.85054 20.3683 10.1685 20.5 10.5 20.5H15.5C15.8315 20.5 16.1495 20.3683 16.3839 20.1339C16.6183 19.8995 16.75 19.5815 16.75 19.25C16.75 18.9185 16.6183 18.6005 16.3839 18.3661C16.1495 18.1317 15.8315 18 15.5 18Z" fill="black"/>
<circle cx="27.5" cy="24.5" r="7.5" fill="black"/>
<path d="M31.608 23.424H28.824V20.704H26.76V23.424H23.992V25.376H26.76V28.096H28.824V25.376H31.608V23.424Z" fill="white"/>
</g>
</svg>
