<svg width="37" height="34" viewBox="0 0 37 34" fill="none" xmlns="http://www.w3.org/2000/svg">
<path d="M23.75 5.00024H21.9375C21.7882 4.54438 21.555 4.12044 21.25 3.75024C20.8963 3.35478 20.4627 3.03888 19.9779 2.8234C19.4931 2.60793 18.968 2.49778 18.4375 2.50024H11.5875C11.0528 2.49422 10.5229 2.60264 10.0335 2.81824C9.54411 3.03383 9.10649 3.35161 8.75 3.75024C8.43606 4.11843 8.19434 4.5425 8.0375 5.00024H6.25C5.25544 5.00024 4.30161 5.39533 3.59835 6.09859C2.89509 6.80185 2.5 7.75568 2.5 8.75024V23.7502C2.5 24.7448 2.89509 25.6986 3.59835 26.4019C4.30161 27.1052 5.25544 27.5002 6.25 27.5002H23.75C24.7446 27.5002 25.6984 27.1052 26.4017 26.4019C27.1049 25.6986 27.5 24.7448 27.5 23.7502V8.75024C27.5 7.75568 27.1049 6.80185 26.4017 6.09859C25.6984 5.39533 24.7446 5.00024 23.75 5.00024ZM10.65 5.42524C10.7671 5.2919 10.9113 5.18504 11.073 5.11176C11.2346 5.03848 11.41 5.00046 11.5875 5.00024H18.4125C18.59 5.00046 18.7654 5.03848 18.927 5.11176C19.0887 5.18504 19.2329 5.2919 19.35 5.42524C19.468 5.55649 19.5568 5.71123 19.6107 5.87927C19.6645 6.04732 19.6822 6.22487 19.6625 6.40024L19.0375 11.4002C19.0007 11.7051 18.8529 11.9858 18.6223 12.1887C18.3918 12.3915 18.0946 12.5025 17.7875 12.5002H15.7375L17.1625 9.50024C17.278 9.20605 17.2778 8.879 17.162 8.58495C17.0461 8.2909 16.8231 8.05166 16.5379 7.9154C16.2527 7.77915 15.9265 7.75599 15.6249 7.85058C15.3233 7.94518 15.0688 8.15051 14.9125 8.42524L12.9625 12.5002H12.2125C11.9054 12.5025 11.6082 12.3915 11.3777 12.1887C11.1471 11.9858 10.9993 11.7051 10.9625 11.4002L10.3375 6.40024C10.3178 6.22487 10.3355 6.04732 10.3893 5.87927C10.4432 5.71123 10.532 5.55649 10.65 5.42524ZM25 23.7502C25 24.0818 24.8683 24.3997 24.6339 24.6341C24.3995 24.8685 24.0815 25.0002 23.75 25.0002H6.25C5.91848 25.0002 5.60054 24.8685 5.36612 24.6341C5.1317 24.3997 5 24.0818 5 23.7502V8.75024C5 8.41872 5.1317 8.10077 5.36612 7.86635C5.60054 7.63193 5.91848 7.50024 6.25 7.50024H7.9625L8.4875 11.7127C8.60087 12.6251 9.04547 13.4641 9.73683 14.0702C10.4282 14.6763 11.3181 15.0073 12.2375 15.0002H17.8125C18.7319 15.0073 19.6218 14.6763 20.3132 14.0702C21.0045 13.4641 21.4491 12.6251 21.5625 11.7127L22.0375 7.50024H23.75C24.0815 7.50024 24.3995 7.63193 24.6339 7.86635C24.8683 8.10077 25 8.41872 25 8.75024V23.7502ZM17.5 20.0002H12.5C12.1685 20.0002 11.8505 20.1319 11.6161 20.3664C11.3817 20.6008 11.25 20.9187 11.25 21.2502C11.25 21.5818 11.3817 21.8997 11.6161 22.1341C11.8505 22.3685 12.1685 22.5002 12.5 22.5002H17.5C17.8315 22.5002 18.1495 22.3685 18.3839 22.1341C18.6183 21.8997 18.75 21.5818 18.75 21.2502C18.75 20.9187 18.6183 20.6008 18.3839 20.3664C18.1495 20.1319 17.8315 20.0002 17.5 20.0002Z" fill="white"/>
<circle cx="29.5" cy="26.5" r="7.5" fill="white"/>
<path d="M33.608 25.424H30.824V22.704H28.76V25.424H25.992V27.376H28.76V30.096H30.824V27.376H33.608V25.424Z" fill="#0FC1A1" className="lift-icon-plus"/>
</svg>
