<svg width="25" height="18" viewBox="0 0 25 18" fill="none" xmlns="http://www.w3.org/2000/svg">
<g clip-path="url(#clip0)">
<path fill-rule="evenodd" clip-rule="evenodd" d="M10.8688 1.96317C10.9703 0.911295 12.3563 0.0979203 13.85 0.36567L14.2578 0.43992C14.9813 0.57042 15.6234 0.95292 15.8391 1.52555C16.1828 2.44355 16.6719 4.35042 15.9359 6.5993C16.166 6.57641 16.3968 6.55728 16.6281 6.54192C17.7422 6.4688 19.2359 6.46092 20.5594 6.77817C21.3688 6.9728 22.1125 7.5443 22.4344 8.2103C22.7219 8.80879 22.6844 9.51755 22.0688 10.1599C22.1594 10.2938 22.2297 10.4322 22.2844 10.5683C22.4047 10.872 22.4609 11.2062 22.4609 11.5313C22.4609 11.8564 22.4047 12.1905 22.2844 12.4943C22.2234 12.6462 22.1438 12.8014 22.0344 12.9488C22.2984 13.3842 22.2016 13.8702 22.0297 14.2403C21.8537 14.6058 21.5962 14.9481 21.2672 15.2539C21.3516 15.4249 21.3859 15.6049 21.3859 15.777C21.3859 16.1202 21.2469 16.4802 20.9906 16.803C20.4688 17.4623 19.4328 18 17.9688 18V16.875C18.8484 16.875 19.3766 16.569 19.6344 16.245C19.7515 16.1031 19.8166 15.9421 19.8234 15.777C19.8234 15.642 19.7688 15.5914 19.7609 15.5858L19.2078 15.1875L19.7594 14.7893C20.075 14.5632 20.3953 14.2144 20.5484 13.8848C20.7109 13.5338 20.6156 13.3887 20.5406 13.3358L19.9891 12.9375L20.5406 12.5393C20.6078 12.492 20.7047 12.3818 20.7813 12.1849C20.8563 11.997 20.8984 11.7687 20.8984 11.5313C20.8984 11.2939 20.8563 11.0655 20.7813 10.8777C20.7031 10.6819 20.6078 10.5705 20.5406 10.5233L19.9891 10.125L20.5406 9.7268C21.0922 9.3308 21.1234 8.92467 20.9578 8.5793C20.7672 8.18555 20.3391 7.91217 20.0656 7.8458C19.0453 7.60167 17.8047 7.5938 16.7688 7.6613C16.194 7.69983 15.6231 7.76408 15.0594 7.85367L15.0375 7.85705L15.0328 7.85817C14.8971 7.88244 14.7548 7.88004 14.6208 7.85122C14.4868 7.82239 14.366 7.7682 14.2711 7.6943C14.1761 7.6204 14.1104 7.52949 14.0809 7.43108C14.0513 7.33266 14.059 7.23034 14.1031 7.1348C14.8894 5.41539 14.9681 3.56892 14.3297 1.81805C14.2828 1.69317 14.1297 1.57617 13.8797 1.53117L13.4703 1.45805C12.9922 1.37142 12.4672 1.63355 12.4281 2.0408C12.3109 3.25805 12.0547 4.45955 11.675 5.24705C11.4031 5.8118 10.7328 6.67355 9.74063 7.47117C8.74531 8.27217 7.36719 9.05742 5.65625 9.39267C5.04062 9.51417 4.6875 9.83817 4.6875 10.1239V14.6262C4.6875 14.9187 5.03125 15.2055 5.55156 15.2449C7.57188 15.399 8.57656 15.8412 9.44375 16.2214L9.50625 16.2495C9.92813 16.434 10.2797 16.5825 10.7188 16.6917C11.1516 16.7985 11.7031 16.875 12.5 16.875H17.9688V18H12.5C11.5547 18 10.8281 17.9089 10.2094 17.7548C9.67734 17.6149 9.16891 17.4323 8.69375 17.2103L8.61875 17.1765C7.83125 16.8312 7.05781 16.4914 5.3875 16.3643C4.19063 16.272 3.125 15.5768 3.125 14.625V10.125C3.125 9.16879 4.19531 8.51405 5.24531 8.30817C6.57188 8.04717 7.70469 7.4228 8.57656 6.72192C9.45156 6.01655 10.0047 5.28192 10.2 4.87805C10.5109 4.23117 10.7563 3.14667 10.8688 1.9643V1.96317Z" fill="white"/>
</g>
<defs>
<clipPath id="clip0">
<rect width="25" height="18" fill="white"/>
</clipPath>
</defs>
</svg>
