<svg width="32" height="32" viewBox="0 0 32 32" fill="none" xmlns="http://www.w3.org/2000/svg">
<path d="M21.7583 14.7199H20.4783V12.1599C20.4783 9.6639 18.4943 7.6799 15.9983 7.6799C13.5023 7.6799 11.5183 9.6639 11.5183 12.1599V14.7199H10.2383V12.1599C10.2383 8.9599 12.7983 6.3999 15.9983 6.3999C19.1983 6.3999 21.7583 8.9599 21.7583 12.1599V14.7199Z" fill="black"/>
<path d="M21.1209 25.6001H10.8809C9.79294 25.6001 8.96094 24.7681 8.96094 23.6801V16.0001C8.96094 14.9121 9.79294 14.0801 10.8809 14.0801H21.1209C22.2089 14.0801 23.0409 14.9121 23.0409 16.0001V23.6801C23.0409 24.7681 22.2089 25.6001 21.1209 25.6001ZM10.8809 15.3601C10.4969 15.3601 10.2409 15.6161 10.2409 16.0001V23.6801C10.2409 24.0641 10.4969 24.3201 10.8809 24.3201H21.1209C21.5049 24.3201 21.7609 24.0641 21.7609 23.6801V16.0001C21.7609 15.6161 21.5049 15.3601 21.1209 15.3601H10.8809Z" fill="black"/>
<path d="M15.9987 19.1999C16.7057 19.1999 17.2787 18.6268 17.2787 17.9199C17.2787 17.213 16.7057 16.6399 15.9987 16.6399C15.2918 16.6399 14.7188 17.213 14.7188 17.9199C14.7188 18.6268 15.2918 19.1999 15.9987 19.1999Z" fill="black"/>
<path d="M16.3191 17.9199H15.6791L15.0391 21.7599H16.9591L16.3191 17.9199Z" fill="black"/>
</svg>
