<svg width="38" height="36" viewBox="0 0 38 36" fill="none" xmlns="http://www.w3.org/2000/svg">
<path d="M23.75 4.99999H21.9375C21.7882 4.54414 21.555 4.12019 21.25 3.74999C20.8963 3.35454 20.4627 3.03864 19.9779 2.82316C19.4931 2.60768 18.968 2.49753 18.4375 2.49999H11.5875C11.0528 2.49397 10.5229 2.6024 10.0335 2.81799C9.54411 3.03359 9.10649 3.35136 8.75 3.74999C8.43606 4.11819 8.19434 4.54226 8.0375 4.99999H6.25C5.25544 4.99999 4.30161 5.39508 3.59835 6.09834C2.89509 6.8016 2.5 7.75543 2.5 8.74999V23.75C2.5 24.7446 2.89509 25.6984 3.59835 26.4016C4.30161 27.1049 5.25544 27.5 6.25 27.5H23.75C24.7446 27.5 25.6984 27.1049 26.4017 26.4016C27.1049 25.6984 27.5 24.7446 27.5 23.75V8.74999C27.5 7.75543 27.1049 6.8016 26.4017 6.09834C25.6984 5.39508 24.7446 4.99999 23.75 4.99999ZM10.65 5.42499C10.7671 5.29166 10.9113 5.18479 11.073 5.11151C11.2346 5.03823 11.41 5.00022 11.5875 4.99999H18.4125C18.59 5.00022 18.7654 5.03823 18.927 5.11151C19.0887 5.18479 19.2329 5.29166 19.35 5.42499C19.468 5.55624 19.5568 5.71098 19.6107 5.87903C19.6645 6.04708 19.6822 6.22463 19.6625 6.39999L19.0375 11.4C19.0007 11.7049 18.8529 11.9855 18.6223 12.1884C18.3918 12.3913 18.0946 12.5022 17.7875 12.5H15.7375L17.1625 9.49999C17.278 9.2058 17.2778 8.87876 17.162 8.58471C17.0461 8.29065 16.8231 8.05142 16.5379 7.91516C16.2527 7.7789 15.9265 7.75574 15.6249 7.85034C15.3233 7.94493 15.0688 8.15026 14.9125 8.42499L12.9625 12.5H12.2125C11.9054 12.5022 11.6082 12.3913 11.3777 12.1884C11.1471 11.9855 10.9993 11.7049 10.9625 11.4L10.3375 6.39999C10.3178 6.22463 10.3355 6.04708 10.3893 5.87903C10.4432 5.71098 10.532 5.55624 10.65 5.42499ZM25 23.75C25 24.0815 24.8683 24.3995 24.6339 24.6339C24.3995 24.8683 24.0815 25 23.75 25H6.25C5.91848 25 5.60054 24.8683 5.36612 24.6339C5.1317 24.3995 5 24.0815 5 23.75V8.74999C5 8.41847 5.1317 8.10053 5.36612 7.86611C5.60054 7.63169 5.91848 7.49999 6.25 7.49999H7.9625L8.4875 11.7125C8.60087 12.6249 9.04547 13.4638 9.73683 14.0699C10.4282 14.676 11.3181 15.007 12.2375 15H17.8125C18.7319 15.007 19.6218 14.676 20.3132 14.0699C21.0045 13.4638 21.4491 12.6249 21.5625 11.7125L22.0375 7.49999H23.75C24.0815 7.49999 24.3995 7.63169 24.6339 7.86611C24.8683 8.10053 25 8.41847 25 8.74999V23.75ZM17.5 20H12.5C12.1685 20 11.8505 20.1317 11.6161 20.3661C11.3817 20.6005 11.25 20.9185 11.25 21.25C11.25 21.5815 11.3817 21.8995 11.6161 22.1339C11.8505 22.3683 12.1685 22.5 12.5 22.5H17.5C17.8315 22.5 18.1495 22.3683 18.3839 22.1339C18.6183 21.8995 18.75 21.5815 18.75 21.25C18.75 20.9185 18.6183 20.6005 18.3839 20.3661C18.1495 20.1317 17.8315 20 17.5 20Z" fill="black"/>
<circle cx="28.5" cy="24.5" r="6.5" fill="white" stroke="black" stroke-width="2"/>
<path d="M25.832 23.496H30.36V25.496H25.832V23.496Z" fill="black"/>
</svg>
