<svg width="42" height="44" viewBox="0 0 42 44" fill="none" xmlns="http://www.w3.org/2000/svg">
<path d="M26.8475 40.9729C26.8475 41.9784 26.8475 42.9629 26.8475 43.9998C22.0244 43.9998 17.2328 43.9998 12.3887 43.9998C12.3887 43.0048 12.3887 42.0098 12.3887 40.9834C7.58658 38.9096 4.12949 35.5056 1.89131 30.8553C0.619858 28.2159 -0.0841698 24.791 0.0104011 23.199C0.189035 23.199 0.378177 23.199 0.567319 23.199C1.80725 23.199 3.05769 23.1886 4.29762 23.2095C4.64438 23.2095 4.9386 23.1257 5.23282 22.9477C6.51478 22.1621 7.80725 21.3871 9.08921 20.612C10.6129 19.7008 12.2626 19.3447 14.0279 19.5647C14.4692 19.617 14.9211 19.7113 15.3519 19.8265C15.7722 19.9417 16.1715 20.1093 16.6339 20.2664C17.1908 18.444 18.2626 17.0195 19.9754 16.1188C21.6776 15.2181 23.443 15.0819 25.2608 15.7837C25.3344 15.7313 25.4079 15.6999 25.471 15.637C27.3939 13.8879 29.3274 12.1493 31.2398 10.3897C33.2678 8.53585 35.2748 6.67153 37.3029 4.82816C38.2486 3.96932 39.499 3.81221 40.5603 4.38826C42.2626 5.3309 42.5148 7.64559 41.0332 8.90243C40.0454 9.74033 39.0156 10.5259 38.0069 11.3323C34.8966 13.8251 31.7862 16.3073 28.6759 18.8001C28.5393 18.9048 28.4027 19.02 28.3081 19.1038C28.3081 20.0255 28.3081 20.9053 28.3081 21.8375C28.6654 22.204 29.0437 22.6439 29.464 23.0315C29.6111 23.1571 29.8738 23.199 30.0839 23.199C32.9421 23.2095 35.7897 23.2095 38.6479 23.2095C38.837 23.2095 39.0262 23.2095 39.2153 23.2095C39.1102 28.6558 35.7057 37.171 26.8475 40.9729ZM0.998142 24.1521C0.998142 24.2778 0.987634 24.3616 0.998142 24.4454C1.14525 25.7965 1.46049 27.1162 1.91233 28.4045C3.79324 33.6937 7.21881 37.6004 12.3572 39.957C12.7039 40.1141 13.0402 40.1769 13.4185 40.1769C17.443 40.1664 21.4675 40.1664 25.5025 40.1769C26.0804 40.1769 26.6058 40.0722 27.1102 39.8208C33.2573 36.8044 36.809 31.8503 38.0804 25.21C38.1435 24.8748 38.1645 24.5292 38.2065 24.1626C25.7862 24.1521 13.3974 24.1521 0.998142 24.1521ZM27.0997 18.8629C27.2678 18.7163 27.4149 18.5906 27.5621 18.4754C31.1873 15.5742 34.823 12.673 38.4482 9.77175C39.0997 9.24806 39.7722 8.73485 40.4027 8.19022C40.9701 7.70843 41.1803 7.09048 40.9911 6.35732C40.7915 5.61369 40.2871 5.16332 39.541 5.01669C38.8685 4.88053 38.3221 5.15284 37.8283 5.60321C35.2959 7.92838 32.7635 10.2431 30.2206 12.5578C28.7284 13.9193 27.2258 15.2809 25.7337 16.653C25.6286 16.7472 25.5235 16.831 25.429 16.9043C21.6041 14.9143 17.8213 18.0774 17.5375 20.7587C18.2311 21.408 18.9036 22.0365 19.5971 22.7068C19.7757 22.602 19.9649 22.4868 20.1645 22.3716C20.7319 22.026 21.2889 21.6699 21.8668 21.3452C23.0437 20.6644 24.3151 20.413 25.6496 20.6853C26.2276 20.8006 26.7845 20.9996 27.3729 21.1671C27.5095 20.3816 27.3729 19.638 27.0997 18.8629ZM25.8808 43.0886C25.8808 42.4078 25.8808 41.7899 25.8808 41.151C21.6776 41.151 17.506 41.151 13.3344 41.151C13.3344 41.8108 13.3344 42.4392 13.3344 43.0886C17.5165 43.0886 21.6776 43.0886 25.8808 43.0886ZM18.4202 22.9686C18.3677 22.8639 18.3572 22.8115 18.3256 22.7801C16.865 21.1148 14.9841 20.3607 12.7985 20.413C11.7057 20.434 10.6654 20.7691 9.71968 21.3242C8.95261 21.7746 8.19604 22.2355 7.42896 22.6963C7.32388 22.7591 7.22931 22.8429 7.0717 22.9686C10.8861 22.9686 14.6269 22.9686 18.4202 22.9686ZM28.119 22.9896C27.8668 22.7591 27.7092 22.5916 27.52 22.4554C25.4605 20.9577 23.1172 21.2928 21.0892 22.9896C23.4009 22.9896 25.7022 22.9896 28.119 22.9896Z" fill="#90E0AB"/>
<path d="M21.7519 0.0527344C21.962 0.293629 22.1512 0.49263 22.3403 0.712577C22.1091 0.97442 21.878 1.20484 21.6678 1.46668C21.2475 2.00084 21.258 2.45121 21.7308 2.95395C21.9305 3.1739 22.1722 3.35195 22.3823 3.56142C23.2965 4.43074 23.4962 5.40479 22.9918 6.54643C22.6345 7.3529 22.0566 8.00227 21.4261 8.60974C21.1844 8.3898 20.9743 8.1908 20.7641 7.9918C21.0478 7.66711 21.3 7.39479 21.5417 7.09106C21.6888 6.913 21.8254 6.73495 21.941 6.53595C22.582 5.48858 22.4664 4.82874 21.5207 4.02227C20.1021 2.81779 20.0601 1.71805 21.3631 0.398366C21.4787 0.293629 21.6153 0.178419 21.7519 0.0527344Z" fill="#90E0AB"/>
<path d="M26.8257 8.63052C26.6051 8.4001 26.4159 8.2011 26.2163 7.99162C26.437 7.74026 26.6681 7.52031 26.8468 7.27941C27.099 6.94425 27.3616 6.6091 27.5508 6.25299C27.9711 5.45699 27.8345 4.85999 27.1725 4.24204C26.9308 4.01162 26.6681 3.80215 26.4475 3.56125C25.7119 2.7443 25.6804 1.83309 26.3529 0.953301C26.5105 0.743827 26.6891 0.555301 26.8678 0.366774C26.9623 0.272511 27.0779 0.188721 27.1935 0.0839844C27.3932 0.303932 27.5823 0.513406 27.782 0.733353C27.5403 1.01614 27.2776 1.26751 27.0674 1.56078C26.6786 2.09493 26.7102 2.48246 27.162 2.96425C27.3722 3.19467 27.6243 3.39367 27.845 3.61362C28.7697 4.51436 28.9588 5.48841 28.4019 6.65099C28.0447 7.4051 27.4877 8.03352 26.8257 8.63052Z" fill="#90E0AB"/>
<path d="M16.2565 0C16.5192 0.303737 16.7084 0.502737 16.887 0.712211C16.6348 0.995001 16.3931 1.2359 16.183 1.51869C15.7942 2.0319 15.8257 2.45085 16.2565 2.93264C16.4562 3.15258 16.6874 3.34111 16.908 3.54011C17.4754 4.03237 17.7802 4.67127 17.8327 5.40443C17.8537 5.66627 17.7697 5.95953 17.6751 6.2109C17.3388 7.17448 16.6874 7.90764 15.9413 8.63033C15.7206 8.39991 15.542 8.21138 15.3213 7.98096C15.4264 7.86575 15.542 7.74006 15.6471 7.61438C15.9308 7.25827 16.246 6.93359 16.4772 6.54606C17.1707 5.39395 16.9395 5.00643 16.1409 4.09522C15.9098 3.83337 15.6261 3.6239 15.4054 3.36206C14.88 2.73363 14.8064 1.96905 15.2373 1.27779C15.521 0.827422 15.8888 0.450369 16.2565 0Z" fill="#90E0AB"/>
<path d="M21.9198 25.1162C21.9198 25.4095 21.9198 25.6713 21.9198 25.9646C16.9285 25.9646 11.9478 25.9646 6.93555 25.9646C6.93555 25.6923 6.93555 25.4199 6.93555 25.1162C11.9058 25.1162 16.8865 25.1162 21.9198 25.1162Z" fill="#90E0AB"/>
<path d="M30.2422 25.0957C32.5224 25.0957 34.7501 25.0957 37.0093 25.0957C37.0093 25.389 37.0093 25.6508 37.0093 25.965C34.7711 25.965 32.5224 25.965 30.2422 25.965C30.2422 25.6822 30.2422 25.4099 30.2422 25.0957Z" fill="#90E0AB"/>
</svg>
