<svg width="11" height="25" viewBox="0 0 11 25" fill="none" xmlns="http://www.w3.org/2000/svg">
<path d="M5.375 5.375C6.85927 5.375 8.0625 4.17177 8.0625 2.6875C8.0625 1.20324 6.85927 0 5.375 0C3.89074 0 2.6875 1.20324 2.6875 2.6875C2.6875 4.17177 3.89074 5.375 5.375 5.375Z" fill="#0FC1A1"/>
<path d="M7.67857 6.14282H3.07143C2.25758 6.14523 1.47774 6.4696 0.902258 7.04508C0.326774 7.62056 0.00240543 8.4004 0 9.21425V14.3743C0 14.895 0.404565 15.3379 0.924788 15.3566C1.05371 15.3613 1.18226 15.34 1.30275 15.2939C1.42324 15.2478 1.53321 15.1779 1.62607 15.0884C1.71894 14.9988 1.7928 14.8915 1.84324 14.7727C1.89368 14.654 1.91966 14.5263 1.91964 14.3973V9.61114C1.91842 9.51209 1.95469 9.41624 2.02118 9.34281C2.08767 9.26938 2.17945 9.2238 2.27814 9.21521C2.33065 9.21172 2.38333 9.21907 2.43288 9.2368C2.48244 9.25453 2.52782 9.28225 2.56621 9.31826C2.6046 9.35426 2.63518 9.39778 2.65604 9.4461C2.67691 9.49442 2.68762 9.54651 2.6875 9.59914V23.4676C2.6875 23.7603 2.80379 24.0411 3.01079 24.2481C3.2178 24.4551 3.49855 24.5714 3.7913 24.5714C4.08404 24.5714 4.3648 24.4551 4.5718 24.2481C4.7788 24.0411 4.89509 23.7603 4.89509 23.4676V16.6212C4.89339 16.4973 4.93859 16.3773 5.02162 16.2852C5.10465 16.1932 5.21939 16.136 5.34285 16.125C5.40852 16.1206 5.4744 16.1297 5.53639 16.1518C5.59838 16.174 5.65515 16.2086 5.70318 16.2536C5.75121 16.2986 5.78946 16.3531 5.81556 16.4135C5.84167 16.4739 5.85506 16.5391 5.85491 16.6049V23.4676C5.85491 23.7603 5.9712 24.0411 6.17821 24.2481C6.38521 24.4551 6.66596 24.5714 6.95871 24.5714C7.25145 24.5714 7.53221 24.4551 7.73921 24.2481C7.94621 24.0411 8.0625 23.7603 8.0625 23.4676V9.61114C8.06128 9.51209 8.09755 9.41624 8.16404 9.34281C8.23052 9.26938 8.32231 9.2238 8.421 9.21521C8.47351 9.21172 8.52618 9.21907 8.57574 9.2368C8.6253 9.25453 8.67068 9.28225 8.70907 9.31826C8.74746 9.35426 8.77804 9.39778 8.7989 9.4461C8.81977 9.49442 8.83048 9.54651 8.83036 9.59914V14.3752C8.83036 14.8959 9.23492 15.3389 9.75515 15.3576C9.88415 15.3623 10.0128 15.3409 10.1333 15.2948C10.2539 15.2486 10.3639 15.1786 10.4568 15.089C10.5497 14.9993 10.6235 14.8919 10.6739 14.773C10.7243 14.6542 10.7502 14.5264 10.75 14.3973V9.21425C10.7476 8.4004 10.4232 7.62056 9.84774 7.04508C9.27226 6.4696 8.49243 6.14523 7.67857 6.14282Z" fill="#0FC1A1"/>
</svg>
