<svg width="31" height="32" viewBox="0 0 31 32" fill="none" xmlns="http://www.w3.org/2000/svg">
<path d="M29.7838 26.1146C29.0062 24.3183 27.8777 22.6866 26.4612 21.3106C25.0491 19.9305 23.3762 18.8302 21.5351 18.0704C21.5186 18.0623 21.5021 18.0583 21.4856 18.0503C24.0538 16.2412 25.7233 13.2945 25.7233 9.96985C25.7233 4.46231 21.1476 0 15.5 0C9.85243 0 5.27666 4.46231 5.27666 9.96985C5.27666 13.2945 6.9462 16.2412 9.5144 18.0543C9.49791 18.0623 9.48142 18.0663 9.46493 18.0744C7.61814 18.8342 5.96097 19.9236 4.53877 21.3146C3.12362 22.6917 1.99532 24.3231 1.21619 26.1186C0.450763 27.8764 0.0379539 29.761 0.000103083 31.6704C-0.000997184 31.7133 0.0067199 31.7559 0.0227998 31.7959C0.0388798 31.8358 0.0629971 31.8723 0.0937307 31.903C0.124464 31.9337 0.161192 31.9581 0.201751 31.9748C0.242309 31.9914 0.285878 32 0.329888 32H2.80328C2.98466 32 3.12894 31.8593 3.13306 31.6864C3.21551 28.5829 4.49342 25.6764 6.75245 23.4734C9.0898 21.194 12.1939 19.9397 15.5 19.9397C18.8061 19.9397 21.9102 21.194 24.2475 23.4734C26.5066 25.6764 27.7845 28.5829 27.8669 31.6864C27.8711 31.8633 28.0153 32 28.1967 32H30.6701C30.7141 32 30.7577 31.9914 30.7983 31.9748C30.8388 31.9581 30.8755 31.9337 30.9063 31.903C30.937 31.8723 30.9611 31.8358 30.9772 31.7959C30.9933 31.7559 31.001 31.7133 30.9999 31.6704C30.9587 29.7487 30.5506 27.8794 29.7838 26.1146ZM15.5 16.8844C13.6079 16.8844 11.827 16.1648 10.4873 14.8583C9.14752 13.5518 8.40962 11.8151 8.40962 9.96985C8.40962 8.12462 9.14752 6.38794 10.4873 5.08141C11.827 3.77487 13.6079 3.05528 15.5 3.05528C17.3921 3.05528 19.173 3.77487 20.5127 5.08141C21.8525 6.38794 22.5904 8.12462 22.5904 9.96985C22.5904 11.8151 21.8525 13.5518 20.5127 14.8583C19.173 16.1648 17.3921 16.8844 15.5 16.8844Z" fill="white"/>
</svg>
