<svg width="14" height="19" viewBox="0 0 14 19" fill="none" xmlns="http://www.w3.org/2000/svg">
<path d="M6.92214 4.32206C7.53655 4.32206 8.1258 4.57057 8.56025 5.01293C8.9947 5.45528 9.23878 6.05524 9.23878 6.68082C9.23878 6.99058 9.17886 7.2973 9.06243 7.58348C8.94601 7.86966 8.77537 8.12969 8.56025 8.34872C8.34513 8.56775 8.08975 8.74149 7.80868 8.86003C7.52761 8.97857 7.22636 9.03958 6.92214 9.03958C6.30773 9.03958 5.71848 8.79107 5.28403 8.34872C4.84957 7.90636 4.6055 7.3064 4.6055 6.68082C4.6055 6.05524 4.84957 5.45528 5.28403 5.01293C5.71848 4.57057 6.30773 4.32206 6.92214 4.32206ZM6.92214 0.0762939C8.64249 0.0762939 10.2924 0.772126 11.5089 2.01072C12.7253 3.2493 13.4087 4.92919 13.4087 6.68082C13.4087 11.6342 6.92214 18.9464 6.92214 18.9464C6.92214 18.9464 0.435547 11.6342 0.435547 6.68082C0.435547 4.92919 1.11895 3.2493 2.33543 2.01072C3.5519 0.772126 5.20179 0.0762939 6.92214 0.0762939ZM6.92214 1.9633C5.69332 1.9633 4.51482 2.46033 3.64591 3.34503C2.77701 4.22974 2.28886 5.42966 2.28886 6.68082C2.28886 7.62433 2.28886 9.51133 6.92214 15.8422C11.5554 9.51133 11.5554 7.62433 11.5554 6.68082C11.5554 5.42966 11.0673 4.22974 10.1984 3.34503C9.32945 2.46033 8.15096 1.9633 6.92214 1.9633Z" fill="black"/>
</svg>
