<svg width="71" height="74" viewBox="0 0 71 74" fill="none" xmlns="http://www.w3.org/2000/svg">
<path d="M45.3852 68.9095C45.3852 70.6005 45.3852 72.2563 45.3852 74.0002C37.2319 74.0002 29.1318 74.0002 20.9429 74.0002C20.9429 72.3268 20.9429 70.6534 20.9429 68.9271C12.8251 65.4394 6.98092 59.7145 3.19733 51.8935C1.04797 47.4546 -0.142171 41.6945 0.0176991 39.0171C0.319676 39.0171 0.639415 39.0171 0.959155 39.0171C3.05523 39.0171 5.16906 38.9995 7.26513 39.0347C7.85132 39.0347 8.3487 38.8938 8.84607 38.5943C11.0132 37.2732 13.1981 35.9697 15.3652 34.6662C17.9409 33.1337 20.7297 32.5348 23.714 32.9047C24.46 32.9928 25.2239 33.1513 25.9521 33.3451C26.6627 33.5389 27.3377 33.8207 28.1193 34.0849C29.0607 31.0199 30.8726 28.6243 33.768 27.1094C36.6457 25.5946 39.6299 25.3656 42.703 26.5458C42.8273 26.4577 42.9516 26.4048 43.0582 26.2992C46.3089 23.3575 49.5774 20.4334 52.8103 17.4741C56.2386 14.3563 59.6314 11.2208 63.0597 8.12062C64.6584 6.6762 66.7723 6.41198 68.5664 7.3808C71.444 8.96613 71.8703 12.859 69.3657 14.9728C67.6959 16.382 65.9551 17.7031 64.2499 19.0594C58.9919 23.2518 53.734 27.4265 48.476 31.6188C48.2451 31.795 48.0142 31.9888 47.8543 32.1297C47.8543 33.6798 47.8543 35.1594 47.8543 36.7272C48.4583 37.3437 49.0978 38.0835 49.8083 38.7352C50.057 38.9466 50.5011 39.0171 50.8563 39.0171C55.6879 39.0347 60.5018 39.0347 65.3334 39.0347C65.6532 39.0347 65.9729 39.0347 66.2926 39.0347C66.115 48.1944 60.3597 62.5153 45.3852 68.9095ZM1.68745 40.62C1.68745 40.8314 1.66969 40.9723 1.68745 41.1133C1.93614 43.3856 2.46904 45.605 3.23286 47.7717C6.41249 56.6672 12.2033 63.2375 20.8896 67.2009C21.4758 67.4651 22.0442 67.5708 22.6837 67.5708C29.487 67.5532 36.2904 67.5532 43.1115 67.5708C44.0885 67.5708 44.9767 67.3946 45.8293 66.9719C56.2208 61.8988 62.2248 53.567 64.3742 42.3991C64.4808 41.8355 64.5163 41.2542 64.5874 40.6376C43.5911 40.62 22.6482 40.62 1.68745 40.62ZM45.8115 31.7245C46.0958 31.4779 46.3444 31.2665 46.5931 31.0728C52.7215 26.1935 58.8676 21.3141 64.9959 16.4348C66.0973 15.5541 67.2341 14.691 68.2999 13.775C69.2591 12.9647 69.6144 11.9254 69.2946 10.6924C68.9571 9.44173 68.1045 8.6843 66.8433 8.43769C65.7065 8.20869 64.7828 8.66668 63.9479 9.42412C59.6669 13.3346 55.386 17.2275 51.0872 21.1204C48.5649 23.4103 46.0247 25.7003 43.5023 28.0078C43.3247 28.1663 43.147 28.3072 42.9872 28.4306C36.5213 25.0837 30.1265 30.4034 29.6469 34.9128C30.8193 36.0049 31.9561 37.0618 33.1285 38.1892C33.4305 38.013 33.7502 37.8193 34.0877 37.6255C35.047 37.0442 35.9884 36.4453 36.9654 35.8993C38.9549 34.7543 41.1043 34.3315 43.3602 34.7895C44.3372 34.9833 45.2786 35.318 46.2734 35.5998C46.5043 34.2787 46.2734 33.028 45.8115 31.7245ZM43.751 72.4677C43.751 71.3227 43.751 70.2835 43.751 69.209C36.6457 69.209 29.5936 69.209 22.5416 69.209C22.5416 70.3187 22.5416 71.3756 22.5416 72.4677C29.6114 72.4677 36.6457 72.4677 43.751 72.4677ZM31.139 38.6296C31.0502 38.4534 31.0325 38.3653 30.9792 38.3125C28.5101 35.5117 25.3304 34.2435 21.6357 34.3315C19.7883 34.3668 18.0297 34.9304 16.431 35.864C15.1343 36.6215 13.8553 37.3965 12.5586 38.1716C12.381 38.2773 12.2211 38.4182 11.9547 38.6296C18.4027 38.6296 24.7265 38.6296 31.139 38.6296ZM47.5346 38.6648C47.1083 38.2773 46.8418 37.9954 46.5221 37.7664C43.0405 35.2475 39.0792 35.8112 35.6509 38.6648C39.5588 38.6648 43.449 38.6648 47.5346 38.6648Z" fill="white"/>
<path d="M36.7699 0.0878906C37.1252 0.493032 37.4449 0.827715 37.7647 1.19763C37.3739 1.638 36.9831 2.02552 36.6278 2.4659C35.9173 3.36425 35.935 4.12169 36.7344 4.96721C37.0719 5.33712 37.4804 5.63657 37.8357 5.98887C39.3811 7.4509 39.7186 9.08908 38.866 11.0091C38.262 12.3654 37.285 13.4576 36.2192 14.4792C35.8107 14.1093 35.4554 13.7746 35.1002 13.4399C35.5798 12.8939 36.0061 12.4359 36.4146 11.9251C36.6633 11.6256 36.8943 11.3262 37.0897 10.9915C38.1732 9.23 37.9778 8.12026 36.3791 6.76392C33.9811 4.73821 33.91 2.88865 36.1127 0.669181C36.3081 0.493032 36.539 0.299269 36.7699 0.0878906Z" fill="white"/>
<path d="M45.3497 14.5143C44.9766 14.1268 44.6569 13.7921 44.3194 13.4398C44.6924 13.0171 45.0832 12.6472 45.3852 12.242C45.8115 11.6784 46.2556 11.1147 46.5753 10.5158C47.2859 9.17704 47.0549 8.173 45.9358 7.13372C45.5273 6.74619 45.0832 6.3939 44.7102 5.98876C43.4667 4.6148 43.4134 3.08231 44.5503 1.60266C44.8168 1.25036 45.1187 0.933293 45.4207 0.616226C45.5806 0.457692 45.776 0.316774 45.9714 0.140625C46.3089 0.510537 46.6286 0.862834 46.9661 1.23275C46.5576 1.70835 46.1135 2.1311 45.7582 2.62432C45.101 3.52268 45.1543 4.17443 45.9181 4.98471C46.2734 5.37224 46.6997 5.70692 47.0727 6.07683C48.6359 7.59171 48.9556 9.22989 48.0142 11.1851C47.4102 12.4534 46.4687 13.5103 45.3497 14.5143Z" fill="white"/>
<path d="M27.4797 0C27.9238 0.510831 28.2436 0.845513 28.5455 1.19781C28.1192 1.67341 27.7107 2.07855 27.3554 2.55415C26.6981 3.41728 26.7514 4.12188 27.4797 4.93216C27.8172 5.30207 28.208 5.61914 28.5811 5.95382C29.5403 6.78172 30.0554 7.85622 30.1442 9.08926C30.1798 9.52964 30.0376 10.0229 29.8778 10.4456C29.3094 12.0662 28.208 13.2992 26.9468 14.5146C26.5738 14.1271 26.2718 13.81 25.8988 13.4225C26.0764 13.2288 26.2718 13.0174 26.4495 12.806C26.9291 12.2071 27.462 11.661 27.8528 11.0093C29.0251 9.07165 28.6343 8.4199 27.2843 6.88741C26.8935 6.44704 26.4139 6.09474 26.0409 5.65437C25.1527 4.59748 25.0284 3.31159 25.7567 2.14901C26.2363 1.39157 26.858 0.757439 27.4797 0Z" fill="white"/>
<path d="M37.0541 42.2402C37.0541 42.7334 37.0541 43.1738 37.0541 43.667C28.6166 43.667 20.1967 43.667 11.7236 43.667C11.7236 43.209 11.7236 42.7511 11.7236 42.2402C20.1257 42.2402 28.5455 42.2402 37.0541 42.2402Z" fill="white"/>
<path d="M51.1228 42.2051C54.9774 42.2051 58.7433 42.2051 62.5624 42.2051C62.5624 42.6983 62.5624 43.1387 62.5624 43.6671C58.7788 43.6671 54.9774 43.6671 51.1228 43.6671C51.1228 43.1915 51.1228 42.7335 51.1228 42.2051Z" fill="white"/>
</svg>
