<svg width="21" height="21" viewBox="0 0 21 21" fill="none" xmlns="http://www.w3.org/2000/svg">
<path d="M4.56932 19.2216C4.65194 19.6917 4.51218 20.1932 4.14925 20.5563C3.55796 21.1479 2.5993 21.1479 2.00805 20.5563C1.69923 20.2474 1.55207 19.8382 1.56583 19.4335C1.16126 19.4472 0.752286 19.3 0.443467 18.991C-0.147822 18.3995 -0.147822 17.4404 0.443467 16.8489C0.843672 16.4485 1.41215 16.3195 1.92115 16.4611C2.32086 16.4915 2.65868 16.5339 3.51848 15.7686L7.89962 11.3855C8.37463 10.9103 9.14479 10.9103 9.6198 11.3855C10.0948 11.8607 10.0948 12.6312 9.6198 13.1065L4.87244 17.8557C4.38239 18.5349 4.56932 18.7809 4.56932 19.2216ZM20.5565 2.00895C20.2477 1.69999 19.8387 1.55277 19.4342 1.56653C19.4479 1.16178 19.3008 0.752624 18.992 0.443666C18.4007 -0.147889 17.442 -0.147889 16.8507 0.443666C16.4878 0.806757 16.3481 1.3083 16.4307 1.77837C16.4307 2.21912 16.6176 2.46505 16.1276 3.14421L11.3802 7.89361C10.9052 8.36883 10.9052 9.13934 11.3802 9.61456C11.6178 9.85217 11.9291 9.97096 12.2403 9.97096C12.5516 9.97096 12.8629 9.85217 13.1004 9.61452L17.4799 5.23311C18.3407 4.46643 18.6789 4.50847 19.0788 4.53886C19.5879 4.68051 20.1563 4.5515 20.5565 4.15111C21.1478 3.5596 21.1478 2.60051 20.5565 2.00895Z" fill="#FCDDB1"/>
<path d="M16.6066 4.68406C14.5226 2.50464 11.0584 2.40203 8.85028 4.45348C8.26377 4.99839 7.8206 5.64061 7.52199 6.33251C7.43975 6.52359 7.31949 6.69563 7.16864 6.83799C7.0178 6.98035 6.83958 7.09 6.64502 7.16017C5.94044 7.41502 5.27555 7.81857 4.69756 8.37265C2.5216 10.4587 2.39563 13.9497 4.41633 16.1888C6.50452 18.5027 10.0597 18.6401 12.3173 16.5095C12.8909 15.9682 13.3248 15.3329 13.618 14.6494C13.6984 14.4618 13.8163 14.2929 13.9643 14.1532C14.1123 14.0135 14.2872 13.9061 14.4782 13.8375C15.1741 13.5876 15.8315 13.1929 16.4052 12.6515C18.6627 10.5209 18.7602 6.93622 16.6066 4.68406Z" fill="#E59328"/>
<path d="M13.3381 12.9122C13.1224 12.9122 12.9377 12.7469 12.9159 12.5255C12.8026 11.3739 12.321 10.3232 11.5234 9.48715C10.6825 8.6057 9.54949 8.06024 8.33309 7.95127C8.09942 7.93032 7.92676 7.72197 7.94749 7.4859C7.96818 7.24983 8.1742 7.07523 8.40811 7.09633C9.82845 7.22356 11.1521 7.86109 12.1351 8.89154C13.0665 9.86788 13.6288 11.0951 13.7613 12.4405C13.7845 12.6764 13.6141 12.8866 13.3806 12.91C13.3664 12.9115 13.3522 12.9122 13.3381 12.9122Z" fill="#BC6A08"/>
</svg>
