<svg width="15" height="24" viewBox="0 0 15 24" fill="none" xmlns="http://www.w3.org/2000/svg">
<path opacity="0.8" d="M7.20002 0C3.24001 0 0 1.52 0 3.36001C0 3.36001 3.81471e-07 14.56 3.08001 20.8401C3.36001 22.6401 5.08001 24.0001 7.20002 24.0001C9.28002 24.0001 11 22.6401 11.32 20.8401C14.4 14.56 14.4 3.36001 14.4 3.36001C14.4 1.52 11.16 0 7.20002 0Z" fill="#A1B8C7"/>
<path opacity="0.3" d="M7.20009 22.5201C5.48008 22.5201 3.96008 21.8401 3.08008 20.8401C3.36008 22.6401 5.08008 24.0001 7.20009 24.0001C9.28009 24.0001 11.0001 22.6401 11.3201 20.8401C10.4401 21.8401 8.92009 22.5201 7.20009 22.5201Z" fill="#555E63"/>
<path opacity="0.3" d="M7.19997 22.8001C5.83997 22.8001 4.63996 22.4401 3.95996 21.8801C4.19996 22.8401 5.55997 23.6001 7.19997 23.6001C8.83997 23.6001 10.2 22.8401 10.44 21.8801C9.75997 22.4401 8.55997 22.8001 7.19997 22.8001Z" fill="#555E63"/>
<path d="M7.20021 4.88C3.7602 4.88 1.2002 6.04001 1.2002 7.76001C1.2002 7.76001 1.5202 15.16 3.6402 20.16C4.4002 21.08 5.72021 21.68 7.20021 21.68C8.68021 21.68 10.0002 21.08 10.7602 20.16C12.8802 15.16 13.2002 7.76001 13.2002 7.76001C13.2002 6.04001 10.6402 4.88 7.20021 4.88Z" fill="white"/>
<path d="M7.20021 4.88C3.5202 4.88 1.2002 6.08001 1.2002 7.80001C1.2002 9.52002 3.7202 11 7.20021 11C10.6802 11 13.2002 9.52002 13.2002 7.80001C13.2002 6.08001 10.8802 4.88 7.20021 4.88Z" fill="#F2ECE3"/>
<path d="M9.52059 11.24C9.04059 11.24 8.64059 11 8.60059 10.68C8.60059 10.48 8.68059 10.32 8.88059 10.16C9.04059 10.04 9.28059 9.95996 9.52059 9.95996H9.64059C10.1206 9.95996 10.5206 10.2 10.5606 10.52C10.5606 10.72 10.4806 10.88 10.2806 11.04C10.1206 11.16 9.88059 11.24 9.64059 11.24C9.60059 11.2 9.56059 11.24 9.52059 11.24Z" fill="#F2ECE3"/>
<path d="M11.0405 10.92C10.8405 10.92 10.6405 10.84 10.5605 10.68C10.4805 10.56 10.4805 10.4 10.5605 10.24C10.6405 10.12 10.7605 9.99997 10.8805 9.91997C11.0005 9.83997 11.1605 9.83997 11.2805 9.83997C11.4805 9.83997 11.6805 9.91997 11.7605 10.08C11.9205 10.32 11.7605 10.68 11.4405 10.84C11.2805 10.88 11.1605 10.92 11.0405 10.92Z" fill="#F2ECE3"/>
<path d="M7.80016 11.4C7.44016 11.4 7.20016 11.2 7.16016 10.96C7.16016 10.8 7.20016 10.68 7.36016 10.56C7.48016 10.48 7.64016 10.4 7.80016 10.4H7.88016C8.24016 10.4 8.48016 10.6 8.52016 10.84C8.56016 11.12 8.28016 11.36 7.92016 11.4H7.80016Z" fill="#F2ECE3"/>
<path d="M6.48011 11.52C6.32011 11.52 6.20011 11.48 6.12011 11.36C6.04011 11.28 6.00011 11.12 6.04011 11C6.08011 10.88 6.12011 10.76 6.24011 10.72C6.36011 10.64 6.48011 10.6 6.60011 10.6C6.76011 10.6 6.88011 10.64 6.96011 10.76C7.12011 10.96 7.08011 11.24 6.84011 11.4C6.72011 11.48 6.60011 11.52 6.48011 11.52Z" fill="#F2ECE3"/>
<path d="M12.2801 9.43998C12.1601 9.31998 11.9201 9.31998 11.7601 9.43998C11.6801 9.51998 11.6401 9.59998 11.6001 9.67998C11.5201 9.63998 11.4001 9.59998 11.2801 9.59998C11.1201 9.59998 10.9201 9.63998 10.7601 9.71998C10.6401 9.79998 10.5601 9.87998 10.4801 9.95998C10.2801 9.79998 10.0001 9.67998 9.64014 9.67998H9.48014C9.20014 9.71998 8.92014 9.79998 8.72013 9.91998C8.56013 10.04 8.48013 10.16 8.44013 10.28C8.28013 10.16 8.08013 10.12 7.88013 10.12H7.76013C7.56013 10.16 7.36013 10.24 7.20013 10.36C7.12013 10.4 7.08013 10.48 7.04013 10.56C6.92013 10.44 6.76013 10.36 6.56013 10.36C6.40013 10.36 6.20013 10.4 6.08013 10.52C6.00013 10.56 5.96013 10.64 5.92013 10.68C5.92013 10.64 5.88013 10.64 5.88013 10.6C5.76013 10.48 5.52013 10.48 5.36013 10.6L5.28013 10.68C5.28013 10.64 5.24013 10.6 5.24013 10.56C5.12013 10.44 4.92013 10.44 4.76012 10.56C4.60012 10.68 4.56012 10.88 4.68013 11C4.80013 11.12 5.00013 11.12 5.16013 11C5.20013 11 5.20013 10.96 5.20013 10.96C5.20013 10.96 5.24013 11.08 5.24013 11.12C5.36013 11.24 5.60013 11.24 5.76013 11.12C5.76013 11.28 5.80013 11.4 5.92013 11.52C6.04013 11.68 6.24013 11.76 6.44013 11.76C6.60013 11.76 6.80013 11.72 6.92013 11.6C7.00013 11.56 7.08013 11.48 7.12013 11.4C7.28013 11.56 7.52013 11.64 7.80013 11.64H7.92013C8.24013 11.6 8.52013 11.44 8.64013 11.2C8.84013 11.36 9.16014 11.48 9.48014 11.48H9.64014C9.92014 11.44 10.2001 11.36 10.4001 11.24C10.4801 11.2 10.5201 11.12 10.5601 11.08C10.6801 11.16 10.8401 11.2 11.0001 11.2C11.1601 11.2 11.3601 11.16 11.5201 11.08C11.9601 10.88 12.1201 10.44 11.9601 10.12C12.0401 10.12 12.1201 10.08 12.1601 10.04C12.3601 9.79998 12.4001 9.59998 12.2801 9.43998ZM6.68013 11.24C6.60013 11.28 6.56013 11.32 6.48013 11.32C6.40013 11.32 6.36013 11.28 6.28013 11.24C6.20013 11.16 6.24013 11 6.36013 10.88C6.44013 10.84 6.48013 10.8 6.56013 10.8C6.64013 10.8 6.68013 10.84 6.76013 10.88C6.84013 11 6.80013 11.16 6.68013 11.24ZM7.88013 11.2H7.80013C7.60013 11.2 7.40013 11.08 7.40013 10.96C7.36013 10.8 7.56013 10.64 7.80013 10.6H7.88013C8.08013 10.6 8.28013 10.72 8.28013 10.84C8.32013 11 8.12013 11.16 7.88013 11.2ZM9.64014 11H9.52014C9.16014 11 8.84013 10.84 8.84013 10.6C8.80013 10.36 9.12014 10.12 9.56014 10.08H9.68014C10.0401 10.08 10.3601 10.24 10.3601 10.48C10.3601 10.76 10.0401 10.96 9.64014 11ZM11.3201 10.64C11.2401 10.68 11.1201 10.72 11.0401 10.72C10.9201 10.72 10.8001 10.68 10.7601 10.6C10.6801 10.44 10.8001 10.24 11.0001 10.12C11.0801 10.08 11.2001 10.04 11.2801 10.04C11.4001 10.04 11.5201 10.08 11.5601 10.16C11.6401 10.28 11.5201 10.52 11.3201 10.64Z" fill="white"/>
<path opacity="0.3" d="M7.20002 0C3.24001 0 0 1.52 0 3.36001C0 5.20001 3.24001 6.72002 7.20002 6.72002C11.16 6.72002 14.4 5.20001 14.4 3.36001C14.4 1.52 11.16 0 7.20002 0ZM7.20002 5.84001C3.56001 5.84001 0.600001 4.64001 0.600001 3.16001C0.600001 1.68 3.56001 0.280001 7.20002 0.280001C10.84 0.280001 13.8 1.68 13.8 3.16001C13.8 4.64001 10.84 5.84001 7.20002 5.84001Z" fill="#555E63"/>
</svg>
