<svg width="31" height="31" viewBox="0 0 31 31" fill="none" xmlns="http://www.w3.org/2000/svg">
<path d="M24 28.0029H2V6.00293H15.22L17.22 4.00293H2C1.46957 4.00293 0.960859 4.21364 0.585786 4.58872C0.210714 4.96379 0 5.4725 0 6.00293V28.0029C0 28.5334 0.210714 29.0421 0.585786 29.4171C0.960859 29.7922 1.46957 30.0029 2 30.0029H24C24.5304 30.0029 25.0391 29.7922 25.4142 29.4171C25.7893 29.0421 26 28.5334 26 28.0029V13.0029L24 15.0029V28.0029Z" fill="black"/>
<path d="M29.5295 3.84312L26.1595 0.473118C26.0099 0.323149 25.8322 0.204162 25.6366 0.122976C25.441 0.04179 25.2313 0 25.0195 0C24.8077 0 24.598 0.04179 24.4023 0.122976C24.2067 0.204162 24.029 0.323149 23.8795 0.473118L10.1695 14.2631L9.05947 19.0731C9.01218 19.3063 9.01715 19.547 9.07403 19.778C9.1309 20.009 9.23826 20.2246 9.38839 20.4091C9.53852 20.5937 9.72769 20.7427 9.94228 20.8454C10.1569 20.9481 10.3916 21.002 10.6295 21.0031C10.7524 21.0167 10.8765 21.0167 10.9995 21.0031L15.8495 19.9331L29.5295 6.12312C29.6794 5.97356 29.7984 5.79588 29.8796 5.60026C29.9608 5.40464 30.0026 5.19492 30.0026 4.98312C30.0026 4.77132 29.9608 4.5616 29.8796 4.36598C29.7984 4.17036 29.6794 3.99268 29.5295 3.84312V3.84312ZM14.8095 18.0831L11.1495 18.8931L11.9995 15.2631L22.3195 4.87312L25.1395 7.69312L14.8095 18.0831ZM26.2695 6.56312L23.4495 3.74312L24.9995 2.16312L27.8395 5.00312L26.2695 6.56312Z" fill="black"/>
</svg>
