<svg width="20" height="24" viewBox="0 0 20 24" fill="none" xmlns="http://www.w3.org/2000/svg">
<path d="M9.99089 23.4118C10.748 23.4118 11.474 23.111 12.0094 22.5757C12.5447 22.0404 12.8454 21.3143 12.8454 20.5573H7.13635C7.13635 21.3143 7.4371 22.0404 7.97243 22.5757C8.50776 23.111 9.23382 23.4118 9.99089 23.4118ZM11.411 2.14404C11.4309 1.94558 11.409 1.74515 11.3468 1.55568C11.2845 1.3662 11.1831 1.19189 11.0493 1.04398C10.9155 0.89607 10.7522 0.777847 10.5699 0.696935C10.3876 0.616023 10.1903 0.574219 9.99089 0.574219C9.79144 0.574219 9.5942 0.616023 9.41189 0.696935C9.22959 0.777847 9.06627 0.89607 8.93246 1.04398C8.79865 1.19189 8.69733 1.3662 8.63503 1.55568C8.57273 1.74515 8.55084 1.94558 8.57076 2.14404C6.95754 2.47217 5.5073 3.34774 4.46559 4.62249C3.42389 5.89725 2.85475 7.49284 2.85454 9.13909C2.85454 10.7062 2.14091 17.7027 0 19.13H19.9818C17.8409 17.7027 17.1272 10.7062 17.1272 9.13909C17.1272 5.6851 14.6723 2.80201 11.411 2.14404Z" fill="#F7A491"/>
<path d="M9.99089 23.4118C10.748 23.4118 11.474 23.111 12.0094 22.5757C12.5447 22.0404 12.8454 21.3143 12.8454 20.5573H7.13635C7.13635 21.3143 7.4371 22.0404 7.97243 22.5757C8.50776 23.111 9.23382 23.4118 9.99089 23.4118ZM11.411 2.14404C11.4309 1.94558 11.409 1.74515 11.3468 1.55568C11.2845 1.3662 11.1831 1.19189 11.0493 1.04398C10.9155 0.89607 10.7522 0.777847 10.5699 0.696935C10.3876 0.616023 10.1903 0.574219 9.99089 0.574219C9.79144 0.574219 9.5942 0.616023 9.41189 0.696935C9.22959 0.777847 9.06627 0.89607 8.93246 1.04398C8.79865 1.19189 8.69733 1.3662 8.63503 1.55568C8.57273 1.74515 8.55084 1.94558 8.57076 2.14404C6.95754 2.47217 5.5073 3.34774 4.46559 4.62249C3.42389 5.89725 2.85475 7.49284 2.85454 9.13909C2.85454 10.7062 2.14091 17.7027 0 19.13H19.9818C17.8409 17.7027 17.1272 10.7062 17.1272 9.13909C17.1272 5.6851 14.6723 2.80201 11.411 2.14404Z" fill="#F7A491"/>
<path d="M9.99089 23.4118C10.748 23.4118 11.474 23.111 12.0094 22.5757C12.5447 22.0404 12.8454 21.3143 12.8454 20.5573H7.13635C7.13635 21.3143 7.4371 22.0404 7.97243 22.5757C8.50776 23.111 9.23382 23.4118 9.99089 23.4118ZM11.411 2.14404C11.4309 1.94558 11.409 1.74515 11.3468 1.55568C11.2845 1.3662 11.1831 1.19189 11.0493 1.04398C10.9155 0.89607 10.7522 0.777847 10.5699 0.696935C10.3876 0.616023 10.1903 0.574219 9.99089 0.574219C9.79144 0.574219 9.5942 0.616023 9.41189 0.696935C9.22959 0.777847 9.06627 0.89607 8.93246 1.04398C8.79865 1.19189 8.69733 1.3662 8.63503 1.55568C8.57273 1.74515 8.55084 1.94558 8.57076 2.14404C6.95754 2.47217 5.5073 3.34774 4.46559 4.62249C3.42389 5.89725 2.85475 7.49284 2.85454 9.13909C2.85454 10.7062 2.14091 17.7027 0 19.13H19.9818C17.8409 17.7027 17.1272 10.7062 17.1272 9.13909C17.1272 5.6851 14.6723 2.80201 11.411 2.14404Z" fill="#F7A491"/>
<path d="M9.99089 23.4118C10.748 23.4118 11.474 23.111 12.0094 22.5757C12.5447 22.0404 12.8454 21.3143 12.8454 20.5573H7.13635C7.13635 21.3143 7.4371 22.0404 7.97243 22.5757C8.50776 23.111 9.23382 23.4118 9.99089 23.4118ZM11.411 2.14404C11.4309 1.94558 11.409 1.74515 11.3468 1.55568C11.2845 1.3662 11.1831 1.19189 11.0493 1.04398C10.9155 0.89607 10.7522 0.777847 10.5699 0.696935C10.3876 0.616023 10.1903 0.574219 9.99089 0.574219C9.79144 0.574219 9.5942 0.616023 9.41189 0.696935C9.22959 0.777847 9.06627 0.89607 8.93246 1.04398C8.79865 1.19189 8.69733 1.3662 8.63503 1.55568C8.57273 1.74515 8.55084 1.94558 8.57076 2.14404C6.95754 2.47217 5.5073 3.34774 4.46559 4.62249C3.42389 5.89725 2.85475 7.49284 2.85454 9.13909C2.85454 10.7062 2.14091 17.7027 0 19.13H19.9818C17.8409 17.7027 17.1272 10.7062 17.1272 9.13909C17.1272 5.6851 14.6723 2.80201 11.411 2.14404Z" fill="#F7A491"/>
</svg>
