<svg width="59" height="46" viewBox="0 0 59 46" fill="none" xmlns="http://www.w3.org/2000/svg">
<path d="M46.9908 16.8419C42.9463 22.2246 38.9225 27.5868 34.878 32.9696C34.9712 33.0415 35.0541 33.1083 35.1369 33.175C37.2188 34.7159 39.3057 36.2516 41.3824 37.7925C42.2524 38.4397 42.4129 39.5388 41.7656 40.4017C41.139 41.2389 40.5072 42.0761 39.8754 42.9133C39.2229 43.7711 38.1198 43.9303 37.2395 43.2883C36.8511 43.0058 36.4678 42.7182 36.1002 42.4511C35.4062 43.3756 34.7071 44.2744 34.0546 45.2041C33.4125 46.1132 32.2214 46.2519 31.3773 45.5996C30.181 44.6751 28.9485 43.7916 27.7315 42.8928C27.6746 42.8517 27.6228 42.8106 27.5399 42.7541C27.4778 42.826 27.4208 42.8928 27.3638 42.9647C26.8667 43.6221 26.3747 44.2847 25.8828 44.9421C25.5772 45.353 25.251 45.3993 24.847 45.0962C23.5317 44.1255 22.2163 43.1547 20.9061 42.1788C20.4711 41.8604 20.4297 41.5625 20.7559 41.1311C21.2945 40.412 21.8383 39.6878 22.3924 38.9482C22.3147 38.8865 22.2422 38.8352 22.1697 38.7787C21.859 38.5424 21.7916 38.188 21.9988 37.9004C22.2059 37.6127 22.5736 37.5614 22.8895 37.7925C23.889 38.5219 24.8833 39.2615 25.8828 39.996C27.9749 41.5368 30.0619 43.0828 32.1541 44.6237C32.5062 44.8805 32.7807 44.8394 33.0396 44.4953C33.6144 43.7351 34.1841 42.975 34.7537 42.2097C35.0075 41.8707 34.9712 41.6036 34.6294 41.3519C34.153 40.9975 33.6714 40.6483 33.2001 40.2939C32.8687 40.0422 32.8325 39.6313 33.1121 39.3539C33.34 39.1279 33.6662 39.1177 33.9562 39.3282C34.5103 39.734 35.0644 40.1449 35.6186 40.5507C36.4005 41.1259 37.1825 41.7063 37.9645 42.2816C38.3322 42.5487 38.6429 42.5024 38.9225 42.1326C39.5284 41.3314 40.1291 40.5301 40.7299 39.7237C41.0406 39.3077 40.9991 39.0149 40.5693 38.7016C39.1245 37.6333 37.6796 36.565 36.2296 35.4966C33.7335 33.6527 31.2323 31.8088 28.7362 29.9598C28.6585 29.9033 28.586 29.8468 28.5187 29.78C28.3012 29.554 28.2856 29.1996 28.4876 28.9633C28.6792 28.7322 29.0262 28.6757 29.2851 28.8452C29.4353 28.9428 29.5751 29.0558 29.7356 29.1688C33.775 23.8014 37.8039 18.4341 41.8433 13.0565C41.7708 12.9948 41.719 12.9435 41.6568 12.9024C39.575 11.3615 37.5036 9.80523 35.4062 8.29004C34.531 7.65829 34.2825 6.45641 34.9919 5.56271C35.6237 4.76146 36.2193 3.92939 36.8355 3.11786C37.5088 2.23443 38.617 2.09062 39.5077 2.75319C39.8806 3.03055 40.2534 3.30277 40.6211 3.57499C40.9266 3.15382 41.227 2.74292 41.5325 2.33202C41.9261 1.80299 42.3249 1.27396 42.7236 0.744928C43.3606 -0.0922765 44.417 -0.2515 45.2611 0.369984C46.4419 1.23287 47.6122 2.10603 48.7878 2.97919C48.9121 3.07164 49.0364 3.15895 49.1762 3.25654C49.2435 3.17436 49.3005 3.11273 49.3523 3.04596C49.8494 2.38852 50.3414 1.72595 50.8385 1.06851C51.1492 0.657612 51.4599 0.60625 51.8742 0.909287C53.2051 1.89031 54.5309 2.87133 55.8566 3.85234C56.2243 4.12456 56.2709 4.46355 56.0016 4.82823C55.52 5.47539 55.0332 6.11742 54.5464 6.76458C54.4791 6.8519 54.4169 6.94435 54.3341 7.05221C54.448 7.13953 54.5516 7.22684 54.6603 7.30389C55.8721 8.19759 57.0839 9.09129 58.2905 9.99013C58.9793 10.5038 59.1864 11.3872 58.8136 12.1525C58.7463 12.2912 58.6582 12.4196 58.565 12.5428C57.9902 13.3133 57.4154 14.0837 56.8302 14.849C56.7214 14.9928 56.592 15.1161 56.4573 15.265C56.8664 15.5681 57.2652 15.866 57.6639 16.1587C58.0213 16.4258 58.2543 16.7751 58.3527 17.2117C58.4666 17.7304 58.3941 18.2235 58.0782 18.6549C57.4205 19.5486 56.7629 20.4321 56.0845 21.3104C55.4527 22.1219 54.3548 22.2657 53.5262 21.6545C51.4599 20.1342 49.3989 18.6087 47.3378 17.0884C47.2342 17.0216 47.1254 16.9394 46.9908 16.8419ZM52.5837 13.6266C52.5837 13.4365 52.6562 13.2773 52.8064 13.154C53.0394 12.964 53.3346 12.9691 53.6143 13.1746C54.0803 13.5136 54.5412 13.8628 55.0073 14.2018C55.3646 14.4638 55.6236 14.4278 55.8877 14.0734C56.4573 13.3184 57.0218 12.5634 57.5914 11.8084C57.8711 11.4334 57.8297 11.1817 57.4464 10.8941C55.6805 9.58951 53.9146 8.29004 52.1539 6.98544C49.6474 5.14154 47.141 3.28736 44.6397 1.43832C44.2047 1.11474 43.9665 1.15583 43.6454 1.577C43.1068 2.29607 42.5631 3.02028 42.0193 3.73935C41.7034 4.15538 41.7397 4.39678 42.1592 4.71009C44.821 6.67727 47.4879 8.64444 50.1498 10.6116C50.476 10.853 50.8023 11.0893 51.1233 11.3358C51.403 11.5567 51.4444 11.9162 51.2424 12.1833C51.0457 12.4504 50.6883 12.5017 50.388 12.3117C50.3362 12.2809 50.2896 12.2398 50.243 12.2038C48.1197 10.6322 45.9965 9.06561 43.8681 7.49393C42.1747 6.24069 40.4813 4.98745 38.7827 3.73421C38.3839 3.44145 38.0836 3.48767 37.7884 3.88316C37.1929 4.67928 36.5921 5.47539 35.9966 6.27151C35.6859 6.68754 35.7325 6.9803 36.152 7.29361C39.5543 9.81036 42.9618 12.322 46.3642 14.8387C48.9742 16.7648 51.5791 18.696 54.1891 20.6221C54.5723 20.9046 54.8882 20.8687 55.1678 20.4988C55.7893 19.6771 56.4107 18.8553 57.0218 18.0283C57.2755 17.6842 57.2289 17.376 56.8871 17.1141C56.6748 16.9497 56.4573 16.7956 56.245 16.6364C55.1212 15.8095 54.0026 14.9825 52.8789 14.1556C52.7028 14.0272 52.5837 13.8628 52.5837 13.6266ZM33.8837 32.2454C37.923 26.8626 41.9572 21.4953 46.0017 16.1074C44.9349 15.3215 43.894 14.5511 42.8427 13.7755C38.7982 19.1634 34.7693 24.5256 30.7248 29.9084C31.7812 30.6943 32.8221 31.4647 33.8837 32.2454ZM50.1808 4.00643C51.2476 4.79227 52.2833 5.56271 53.3398 6.34341C53.8007 5.72707 54.246 5.14154 54.7018 4.53546C53.6505 3.75476 52.6044 2.98432 51.5428 2.19848C51.0871 2.79942 50.6469 3.38495 50.1808 4.00643ZM25.1836 43.8224C25.6445 43.2061 26.0847 42.6206 26.5456 42.0145C25.484 41.2338 24.4483 40.4633 23.3867 39.6826C22.9258 40.299 22.4804 40.8897 22.0299 41.4906C23.0915 42.2764 24.1272 43.0417 25.1836 43.8224Z" fill="#106EE8"/>
<path d="M29.048 21.9422C29.048 23.7347 28.7321 25.481 28.2039 27.1914C27.4323 29.6927 26.2826 32.0091 24.6306 34.0585C23.4758 35.4915 22.1294 36.7037 20.4515 37.51C20.1201 37.6693 19.7731 37.8079 19.4261 37.9261C18.7995 38.1418 18.1677 38.0956 17.5411 37.9209C17.1009 37.8028 16.6608 37.6744 16.2309 37.5203C15.3557 37.207 14.4909 37.2327 13.6261 37.546C13.2532 37.6795 12.87 37.7874 12.492 37.9004C11.622 38.1623 10.783 38.0904 9.94409 37.7258C8.74265 37.207 7.68103 36.4879 6.73334 35.5994C4.94154 33.9198 3.65724 31.9013 2.66295 29.6824C1.86026 27.8848 1.30615 26.0152 1.03686 24.0583C0.757218 22.0141 0.82454 19.9955 1.47705 18.0232C1.92241 16.6673 2.61634 15.4551 3.63653 14.4433C4.781 13.3082 6.1637 12.5994 7.73282 12.2142C9.00676 11.906 10.2652 11.9882 11.5287 12.2347C11.8654 12.3015 12.2123 12.3323 12.5541 12.3837C12.8907 12.4299 13.103 12.6507 13.1186 12.9538C13.1289 13.226 12.9477 13.4879 12.6784 13.5444C12.5541 13.5701 12.4195 13.565 12.2952 13.5444C11.8498 13.4828 11.4045 13.4417 10.9643 13.339C7.90371 12.6405 3.94207 14.2635 2.62152 18.3314C2.17616 19.7079 1.99491 21.1204 2.09848 22.5585C2.39366 26.7188 3.85921 30.4272 6.52102 33.6579C7.54639 34.9008 8.78408 35.9024 10.2703 36.5855C10.9902 36.9142 11.6893 36.9605 12.4246 36.6985C12.6525 36.6163 12.8804 36.5444 13.1134 36.4777C13.5173 36.3647 13.9264 36.2465 14.3407 36.1643C15.0243 36.0308 15.6975 36.1387 16.3552 36.3338C16.8524 36.4828 17.3443 36.6369 17.8363 36.7858C18.3801 36.9502 18.8979 36.8988 19.4261 36.6831C20.5913 36.2054 21.6063 35.5018 22.5022 34.6389C24.3148 32.8874 25.568 30.7765 26.495 28.4652C27.1319 26.8832 27.5721 25.255 27.7637 23.5601C27.9864 21.6237 27.8932 19.7079 27.1475 17.8794C26.0703 15.2291 24.0921 13.6882 21.2438 13.2465C20.5085 13.1335 19.7835 13.2106 19.0585 13.3339C18.4992 13.4263 17.9347 13.5136 17.3702 13.5701C16.9611 13.6112 16.7074 13.3082 16.7488 12.9075C16.7747 12.6507 16.9508 12.4658 17.2356 12.4196C17.8984 12.3117 18.5613 12.209 19.2293 12.1166C21.8187 11.7519 24.0765 12.4915 26.0185 14.1916C27.3494 15.3575 28.1521 16.8624 28.6182 18.5471C28.9289 19.6514 29.048 20.6119 29.048 21.9422Z" fill="#106EE8"/>
<path d="M15.0341 8.54209C15.3189 7.76139 15.5726 6.99095 15.8833 6.24107C16.2407 5.37305 16.7326 4.58207 17.3748 3.88354C17.4162 3.83732 17.4576 3.79623 17.4991 3.75514C17.7735 3.49319 18.0946 3.47264 18.3743 3.72946C18.9439 4.23794 19.5084 4.7567 20.0677 5.27546C20.4302 5.61445 20.3318 6.06644 19.8864 6.29757C19.5705 6.46192 19.2702 6.66737 18.9802 6.87796C18.7109 7.07313 18.3898 7.08341 18.1619 6.85741C17.9444 6.64169 17.9237 6.27702 18.1412 6.04589C18.2862 5.8918 18.4571 5.75826 18.6487 5.58877C18.4364 5.39359 18.2293 5.19841 18.0014 4.98783C17.6337 5.43468 17.3541 5.91235 17.1107 6.41056C16.5255 7.61244 16.1837 8.89136 15.9455 10.2011C15.728 11.3978 15.5985 12.6048 15.5726 13.8221C15.5623 14.2433 15.3189 14.5052 14.9564 14.495C14.5939 14.4847 14.3712 14.2073 14.3815 13.7862C14.4074 12.6203 14.5214 11.4646 14.7233 10.3192C14.7596 10.124 14.7441 9.9751 14.5939 9.83128C14.3764 9.62584 14.1744 9.41011 13.9724 9.20467C13.6306 9.35362 13.3355 9.49229 13.0351 9.61556C12.2169 9.95969 11.3572 10.0521 10.4769 10.0367C8.64882 10.0059 6.88809 9.60015 5.15325 9.07626C3.59449 8.60886 2.07715 8.02333 0.585708 7.3659C0.523565 7.34022 0.456243 7.31454 0.399278 7.28372C0.0419531 7.09368 -0.0719765 6.82146 0.0782034 6.45165C0.145525 6.28729 0.233562 6.12293 0.347492 5.98426C1.41429 4.62316 2.72966 3.5651 4.36092 2.93848C6.42719 2.1475 8.38989 2.40431 10.2335 3.59591C11.5178 4.42285 12.5224 5.53741 13.4131 6.75983C13.6773 7.11936 13.9103 7.49944 14.1692 7.86411C14.2469 7.97197 14.3505 8.06442 14.4592 8.1466C14.6508 8.28528 14.8476 8.41369 15.0341 8.54209ZM1.54893 6.5287C1.63179 6.57492 1.66804 6.59547 1.70947 6.61087C3.51163 7.39158 5.35004 8.0747 7.27648 8.50614C8.61774 8.80918 9.97454 8.99408 11.3521 8.82972C11.9528 8.75781 12.5328 8.60373 13.0714 8.28015C13.0351 8.21338 13.0092 8.15174 12.9678 8.09524C12.7244 7.74598 12.4862 7.38644 12.2272 7.04232C11.5178 6.10753 10.7203 5.26005 9.73115 4.60775C8.37435 3.71918 6.9088 3.3956 5.32414 3.84759C3.86377 4.26362 2.69858 5.14705 1.68358 6.23593C1.61107 6.31297 1.59554 6.42083 1.54893 6.5287Z" fill="#106EE8"/>
<path d="M5.79102 22.491C5.81173 21.0426 6.21048 19.738 7.17888 18.6337C7.26174 18.5361 7.34978 18.4437 7.44817 18.3564C7.67603 18.1612 8.01782 18.1663 8.23014 18.3564C8.458 18.5567 8.49425 18.8957 8.313 19.1474C8.28711 19.1833 8.26121 19.2141 8.23014 19.2449C7.35496 20.1335 7.00281 21.2224 6.99763 22.4397C6.99245 23.6672 7.30317 24.8229 7.76925 25.9477C7.94014 26.3638 8.15764 26.7644 8.35443 27.1753C8.46836 27.4167 8.43211 27.694 8.25604 27.8635C8.07478 28.0433 7.78478 28.0998 7.56728 27.9714C7.46371 27.9098 7.36014 27.8122 7.29799 27.7043C6.61959 26.4922 6.14834 25.203 5.92566 23.8316C5.86352 23.395 5.83762 22.943 5.79102 22.491Z" fill="#106EE8"/>
<path d="M15.1792 17.0374C13.8535 17.0169 12.5744 16.6522 11.3677 16.0051C11.0311 15.8253 10.9224 15.4812 11.0881 15.1781C11.2486 14.8854 11.606 14.7929 11.9426 14.9727C12.709 15.3836 13.5169 15.6661 14.3765 15.7945C15.6349 15.9845 16.8156 15.7842 17.8773 15.0548C17.9756 14.9881 18.0844 14.9213 18.1983 14.9008C18.4883 14.8391 18.7524 14.9778 18.8612 15.2243C18.9751 15.476 18.9078 15.7945 18.654 15.9537C18.2346 16.2054 17.8099 16.457 17.3646 16.6522C16.6914 16.9398 15.9663 17.0323 15.1792 17.0374Z" fill="#106EE8"/>
<path d="M26.5199 33.9561C26.6494 34.0126 26.7996 34.0485 26.9083 34.1307C28.4257 35.2452 29.9378 36.3649 31.45 37.4846C31.7452 37.7055 31.8022 38.065 31.595 38.3475C31.393 38.6249 30.9995 38.6762 30.6991 38.4554C29.6116 37.6541 28.5293 36.8529 27.4469 36.0516C27.0275 35.7383 26.608 35.425 26.1833 35.1168C26.0073 34.9884 25.9037 34.8189 25.8985 34.5981C25.8933 34.2591 26.1626 33.9971 26.5199 33.9561Z" fill="#106EE8"/>
</svg>
