<svg width="23" height="23" viewBox="0 0 23 23" fill="none" xmlns="http://www.w3.org/2000/svg">
<path d="M22.9952 11.8372C23.1829 5.27464 17.8708 -0.0938914 11.3288 0.00124526C5.03226 0.0928129 -0.0478418 5.29287 0.000339917 11.5899C0.0349148 16.102 2.66824 19.9952 6.47727 21.8475C6.6976 21.9546 6.95267 21.788 6.94347 21.5432C6.9157 20.8033 6.93962 20.0123 7.08768 19.3764C7.2334 18.7504 7.80516 16.3292 8.18108 14.7387C8.36405 13.9644 8.38613 13.1604 8.2388 12.3785C8.19045 12.1219 8.15543 11.8205 8.15543 11.4855C8.15543 9.78582 9.14059 8.51681 10.3673 8.51681C11.4101 8.51681 11.9139 9.29982 11.9139 10.2387C11.9139 11.2875 11.2461 12.8555 10.9015 14.3087C10.6135 15.5254 11.5117 16.5176 12.7117 16.5176C14.8843 16.5176 16.5543 14.2267 16.5543 10.9199C16.5543 7.99317 14.4513 5.94678 11.4483 5.94678C7.97029 5.94678 5.92875 8.55557 5.92875 11.2516C5.92875 12.3022 6.3335 13.4288 6.83846 14.0413C6.93828 14.1623 6.95301 14.2684 6.92328 14.3919C6.83049 14.778 6.62427 15.6083 6.58378 15.7781C6.53041 16.0019 6.40661 16.0493 6.17502 15.9417C4.6482 15.231 3.69377 12.9989 3.69377 11.2061C3.69377 7.35002 6.49539 3.80889 11.7705 3.80889C16.0109 3.80889 19.3064 6.83051 19.3064 10.8688C19.3064 15.0816 16.6501 18.4721 12.9632 18.4721C11.9889 18.4721 11.0604 18.0739 10.5146 17.534C10.3467 17.368 10.063 17.4437 10.0031 17.672C9.81084 18.4044 9.50011 19.589 9.40001 19.9743C9.21978 20.6674 8.83995 21.4746 8.45919 22.1777C8.35803 22.3645 8.46036 22.5952 8.6663 22.6474C9.60635 22.8858 10.5923 23.0089 11.6087 22.9995C17.6431 22.9435 22.8226 17.8694 22.9952 11.8372Z" fill="white"/>
</svg>
