<svg width="34" height="34" viewBox="0 0 34 34" fill="none" xmlns="http://www.w3.org/2000/svg">
<path d="M13 24.1426V11.8556C13.0003 11.7019 13.0446 11.5511 13.1282 11.419C13.2119 11.2868 13.3318 11.1783 13.4755 11.1047C13.6191 11.031 13.7812 10.9951 13.9448 11.0005C14.1083 11.006 14.2673 11.0527 14.4051 11.1357L24.5798 17.2775C24.7087 17.355 24.8147 17.4618 24.8881 17.5879C24.9615 17.714 25 17.8554 25 17.9991C25 18.1429 24.9615 18.2843 24.8881 18.4104C24.8147 18.5365 24.7087 18.6433 24.5798 18.7208L14.4051 24.8643C14.2673 24.9473 14.1083 24.994 13.9448 24.9995C13.7812 25.0049 13.6191 24.969 13.4755 24.8953C13.3318 24.8217 13.2119 24.7132 13.1282 24.581C13.0446 24.4489 13.0003 24.2981 13 24.1444V24.1426Z" fill="white"/>
<path fill-rule="evenodd" clip-rule="evenodd" d="M17 2.31818C13.1061 2.31818 9.37176 3.86501 6.61839 6.61839C3.86501 9.37176 2.31818 13.1061 2.31818 17C2.31818 20.8939 3.86501 24.6282 6.61839 27.3816C9.37176 30.135 13.1061 31.6818 17 31.6818C20.8939 31.6818 24.6282 30.135 27.3816 27.3816C30.135 24.6282 31.6818 20.8939 31.6818 17C31.6818 13.1061 30.135 9.37176 27.3816 6.61839C24.6282 3.86501 20.8939 2.31818 17 2.31818V2.31818ZM0 17C0 7.61136 7.61136 0 17 0C26.3886 0 34 7.61136 34 17C34 26.3886 26.3886 34 17 34C7.61136 34 0 26.3886 0 17Z" fill="white"/>
</svg>
