<svg width="34" height="34" viewBox="0 0 34 34" fill="none" xmlns="http://www.w3.org/2000/svg">
<path d="M31.5834 14.9163H19.0834V2.41634C19.0834 1.86381 18.8639 1.3339 18.4732 0.943202C18.0825 0.552502 17.5526 0.333008 17 0.333008C16.4475 0.333008 15.9176 0.552502 15.5269 0.943202C15.1362 1.3339 14.9167 1.86381 14.9167 2.41634V14.9163H2.41671C1.86417 14.9163 1.33427 15.1358 0.943569 15.5265C0.552868 15.9172 0.333374 16.4471 0.333374 16.9997C0.333374 17.5522 0.552868 18.0821 0.943569 18.4728C1.33427 18.8635 1.86417 19.083 2.41671 19.083H14.9167V31.583C14.9167 32.1355 15.1362 32.6654 15.5269 33.0561C15.9176 33.4468 16.4475 33.6663 17 33.6663C17.5526 33.6663 18.0825 33.4468 18.4732 33.0561C18.8639 32.6654 19.0834 32.1355 19.0834 31.583V19.083H31.5834C32.1359 19.083 32.6658 18.8635 33.0565 18.4728C33.4472 18.0821 33.6667 17.5522 33.6667 16.9997C33.6667 16.4471 33.4472 15.9172 33.0565 15.5265C32.6658 15.1358 32.1359 14.9163 31.5834 14.9163Z" fill="#3283EB"/>
</svg>
