<svg width="49" height="44" viewBox="0 0 49 44" fill="none" xmlns="http://www.w3.org/2000/svg">
<path d="M0 28.197C0.913352 28.088 1.73972 27.9946 2.59218 27.8934C2.83574 28.5318 3.0706 29.139 3.30547 29.7539C3.50553 30.2833 3.7056 30.8049 3.91437 31.3264C4.08834 31.7546 4.3319 32.1516 4.71464 32.463C5.88895 33.4049 7.64606 33.2414 8.56812 32.0971C8.85517 31.739 9.09003 31.3498 9.31619 30.9606C9.95989 29.8318 10.5862 28.6952 11.2212 27.5587C11.2821 27.4575 11.343 27.3563 11.43 27.2084C11.4908 27.3407 11.5343 27.4264 11.5691 27.512C12.6391 30.3534 13.709 33.1947 14.7789 36.0361C14.8746 36.2774 14.979 36.5265 15.1182 36.7445C16.0315 38.2313 18.3453 38.3792 19.4849 37.0247C19.6936 36.7756 19.8589 36.5032 20.0155 36.2229C21.3811 33.7941 22.7381 31.3653 24.0951 28.9366C24.1647 28.812 24.243 28.6797 24.3126 28.5551C24.4778 28.2671 24.7562 28.1581 25.1041 28.1737C25.8348 28.2048 26.5046 28.3294 27.1222 28.7497C27.8181 29.2246 28.601 29.1156 29.323 28.7342C30.3233 28.2048 30.7147 27.0916 30.245 26.1653C29.7753 25.2311 28.5836 24.7173 27.5571 25.0209C27.3136 25.091 27.07 25.2 26.8787 25.3479C26.3828 25.7371 25.8261 25.8383 25.1824 25.7838C23.6776 25.6437 22.6946 26.1263 22.0074 27.3407C21.5725 28.1114 21.1985 28.9132 20.7635 29.6917C19.7458 31.5055 18.7107 33.3115 17.6842 35.1253C17.606 35.2576 17.519 35.3822 17.3885 35.5768C17.1188 34.8684 16.8753 34.2379 16.6404 33.6073C15.5705 30.7426 14.5006 27.8701 13.4132 25.0054C13.3088 24.7251 13.1697 24.4449 12.987 24.2035C12.3607 23.3706 11.082 23.2927 10.3339 24.0479C10.1165 24.2658 9.95119 24.5305 9.80332 24.7952C8.83777 26.5078 7.88963 28.2204 6.93278 29.933C6.8023 30.1743 6.64573 30.4078 6.46306 30.7114C6.15861 29.9096 5.87155 29.1779 5.5932 28.4461C5.27135 27.6054 4.9495 26.7569 4.62765 25.9161C4.54937 25.7215 4.46238 25.5269 4.3493 25.3479C3.99265 24.803 3.47074 24.5461 2.74876 24.6395C2.19205 24.7095 1.63534 24.7796 1.06993 24.8419C0.887257 24.8652 0.695888 24.8652 0.43493 24.8808C0.521916 24.5461 0.582806 24.2503 0.669792 23.9544C1.18301 22.2652 2.01807 20.7083 3.17499 19.2993C6.73271 14.971 10.2904 10.6428 13.8482 6.3146C15.2138 4.65649 16.3186 2.88161 16.8057 0.834267C16.8318 0.733067 16.8753 0.639653 16.9362 0.546238C17.1623 0.188148 17.6147 0.149225 17.893 0.483961C17.9974 0.608514 18.0583 0.756421 18.1105 0.904328C18.7281 2.94389 19.798 4.78104 21.1898 6.47029C21.6073 6.97629 21.6856 7.45894 21.5464 8.06613C20.433 12.8926 21.7552 17.1274 25.5478 20.6927C27.7485 22.7634 30.4973 24.0167 33.6375 24.5694C33.8462 24.6083 34.0637 24.6239 34.2812 24.6628C34.7422 24.7407 34.9336 24.9197 34.9944 25.3323C36.1601 32.9223 32.0978 39.2044 25.339 42.4895C23.1644 43.5482 20.807 44.0153 18.3279 43.9997C14.3353 43.9763 10.6384 43.0344 7.33292 41.0182C4.36669 39.2122 2.43561 36.6978 1.2265 33.7085C0.652395 32.2917 0.269656 30.836 0.0956845 29.3414C0.0695888 28.9833 0.043493 28.6174 0 28.197Z" fill="white"/>
<path d="M36.5254 0.00178413C43.0841 -0.1072 49.0774 4.7893 48.9992 11.2583C48.9209 17.4704 43.0841 22.3279 36.4384 22.2579C29.7057 22.1878 23.982 17.2524 24.0864 10.9158C24.1907 4.77373 29.9144 -0.0760616 36.5254 0.00178413ZM36.4732 20.1483C42.0577 20.1327 46.6679 16.326 46.6766 11.087C46.6853 5.92584 42.0229 2.08805 36.4906 2.09583C31.1148 2.10362 26.348 5.92584 26.3741 11.0948C26.4002 16.4117 31.2018 20.1716 36.4732 20.1483Z" fill="white"/>
<path d="M36.5341 13.1341C35.238 13.1341 34.1072 12.2622 34.1942 10.8921C34.2724 9.62325 35.499 8.7436 36.8733 8.93821C37.3518 9.00049 37.7867 8.93043 38.2042 8.71246C39.3176 8.12083 40.4485 7.54477 41.5706 6.94536C41.8924 6.7741 42.223 6.75074 42.5709 6.78967C43.1102 6.84416 43.3538 7.23339 43.0928 7.66154C42.971 7.87172 42.7623 8.05077 42.5622 8.21424C41.6141 8.95378 40.6572 9.68553 39.6917 10.4095C39.2915 10.7131 39.0306 11.0712 38.8914 11.5305C38.587 12.5425 37.6823 13.1419 36.5341 13.1341Z" fill="white"/>
</svg>
