<svg width="29" height="27" viewBox="0 0 29 27" fill="none" xmlns="http://www.w3.org/2000/svg">
<path d="M22.5 0.99707V8.49707H24C25.1935 8.49707 26.3381 8.97118 27.182 9.81509C28.0259 10.659 28.5 11.8036 28.5 12.9971V20.4971H22.5V26.4971H6V20.4971H0V12.9971C0 10.5131 2.0145 8.49707 4.5 8.49707H6V0.99707H22.5ZM24 14.4971C23.6022 14.4971 23.2206 14.339 22.9393 14.0577C22.658 13.7764 22.5 13.3949 22.5 12.9971C22.5 12.5992 22.658 12.2177 22.9393 11.9364C23.2206 11.6551 23.6022 11.4971 24 11.4971C24.3978 11.4971 24.7794 11.6551 25.0607 11.9364C25.342 12.2177 25.5 12.5992 25.5 12.9971C25.5 13.3949 25.342 13.7764 25.0607 14.0577C24.7794 14.339 24.3978 14.4971 24 14.4971ZM1.5 13.0001V19.0001H6V16.0001H22.5V19.0001H27V13.0001C27 12.2044 26.6839 11.4414 26.1213 10.8788C25.5587 10.3161 24.7956 10.0001 24 10.0001H4.5C3.70435 10.0001 2.94129 10.3161 2.37868 10.8788C1.81607 11.4414 1.5 12.2044 1.5 13.0001ZM21 25.0001V17.5001H7.5V25.0001H21ZM7.5 2.50007V8.50007H21V2.50007H7.5Z" fill="#0FC1A1"/>
</svg>
