<svg width="13" height="13" viewBox="0 0 13 13" fill="none" xmlns="http://www.w3.org/2000/svg">
<path d="M6.32048 12.9229C6.51652 13.0261 6.76256 13.0255 6.95859 12.9223C12.3008 10.0931 12.6802 4.56549 12.6755 2.99378C12.675 2.86746 12.6371 2.74403 12.5665 2.6386C12.496 2.53317 12.3957 2.45032 12.2781 2.4002L6.91058 0.056124C6.82516 0.0190037 6.73282 -0.000112698 6.63947 4.99796e-07C6.54612 0.000113697 6.45382 0.0194539 6.36849 0.0567813L1.0383 2.40086C0.922417 2.45101 0.823594 2.53294 0.75361 2.6369C0.683626 2.74085 0.645431 2.86245 0.643574 2.98721C0.620904 4.55102 0.940289 10.0904 6.32048 12.9229ZM4.44418 5.38913L5.9731 6.89642L8.83556 4.07445L9.77837 5.00393L5.9731 8.75538L3.50137 6.31862L4.44418 5.38913Z" fill="#0FC1A1"/>
</svg>
