<svg width="42" height="30" viewBox="0 0 42 30" fill="none" xmlns="http://www.w3.org/2000/svg">
<path d="M41.9999 4.13593C40.112 9.27944 38.2489 14.3417 36.3859 19.4202C29.7864 19.4202 23.2284 19.4202 16.5876 19.4202C16.894 20.3384 17.1838 21.2078 17.4819 22.1016C23.6093 22.1016 29.7036 22.1016 35.8311 22.1016C35.8311 22.516 35.8311 22.8898 35.8311 23.2961C29.4304 23.2961 23.0214 23.2961 16.5545 23.2961C14.0953 15.9668 11.6277 8.61314 9.14362 1.22697C7.50412 1.22697 5.88118 1.22697 4.2334 1.22697C4.2334 0.804435 4.2334 0.414406 4.2334 0C6.15443 0 8.08374 0 10.0296 0C10.4933 1.3651 10.957 2.73833 11.4373 4.14406C21.6138 4.13593 31.7654 4.13593 41.9999 4.13593ZM16.1488 18.1363C22.6323 18.1363 29.0661 18.1363 35.5247 18.1363C37.0814 13.8867 38.6381 9.65322 40.2031 5.37915C30.7387 5.37915 21.3322 5.37915 11.8678 5.37915C13.3003 9.65322 14.7246 13.9029 16.1488 18.1363Z" fill="#878787"/>
<path d="M-3.01172 8.81641C0.838627 8.81641 4.63101 8.81641 8.44823 8.81641C8.44823 9.20643 8.44823 9.57209 8.44823 9.97837C4.63929 9.97837 0.846907 9.97837 -3.01172 9.97837C-3.01172 9.78335 -3.01172 9.59646 -3.01172 9.4177C-3.01172 9.23081 -3.01172 9.04392 -3.01172 8.81641Z" fill="#878787"/>
<path d="M19.0803 29.9995C17.7886 29.9995 16.7701 29.0082 16.7784 27.7406C16.7867 26.4811 17.8134 25.4654 19.0969 25.4816C20.3555 25.4898 21.3822 26.5055 21.3905 27.7324C21.3905 28.9919 20.372 29.9995 19.0803 29.9995ZM20.1153 27.7649C20.1236 27.188 19.6682 26.7249 19.0886 26.7249C18.509 26.7249 18.0287 27.1718 18.0121 27.7324C18.0039 28.2768 18.4924 28.7725 19.0555 28.7888C19.6185 28.7969 20.1071 28.3256 20.1153 27.7649Z" fill="#878787"/>
<path d="M35.0614 27.7245C35.0696 29.0003 34.076 29.9997 32.776 29.9997C31.4925 30.0078 30.4575 29.0003 30.4492 27.7489C30.4492 26.522 31.476 25.4981 32.7263 25.4819C34.018 25.4575 35.0531 26.4651 35.0614 27.7245ZM31.7244 27.7489C31.7244 28.3096 32.2046 28.789 32.776 28.7809C33.3391 28.7727 33.8359 28.2852 33.8276 27.7408C33.8276 27.1801 33.3391 26.717 32.7677 26.717C32.1798 26.7251 31.7244 27.172 31.7244 27.7489Z" fill="#878787"/>
<path d="M10.1289 14.9276C6.94925 14.9276 3.81101 14.9276 0.639648 14.9276C0.639648 14.5457 0.639648 14.1719 0.639648 13.7656C3.78617 13.7656 6.92441 13.7656 10.0792 13.7656C10.0958 13.8063 10.1289 13.855 10.1289 13.9038C10.1289 14.2288 10.1289 14.5538 10.1289 14.9276Z" fill="#878787"/>
<path d="M11.7604 19.8758C9.26799 19.8758 6.80046 19.8758 4.2998 19.8758C4.2998 19.4776 4.2998 19.0794 4.2998 18.665C6.7839 18.665 9.25971 18.665 11.7604 18.665C11.7604 19.0632 11.7604 19.4532 11.7604 19.8758Z" fill="#878787"/>
</svg>
