<svg width="31" height="31" viewBox="0 0 31 31" fill="none" xmlns="http://www.w3.org/2000/svg"> <circle cx="15.5" cy="15.5" r="14.5" stroke="black" stroke-width="2"/> <path d="M14.472 18.696H16.872C16.872 15.552 21.12 15.288 21.12 11.28C21.12 8.616 18.888 7.008 15.432 7.008C12.624 7.008 10.536 7.992 9.216 9.696L10.968 10.944C11.928 9.72 13.32 9.048 15.264 9.048C17.424 9.048 18.696 10.104 18.696 11.64C18.696 14.4 14.472 14.928 14.472 18.696ZM15.696 24.144C16.584 24.144 17.232 23.448 17.232 22.608C17.232 21.744 16.584 21.072 15.696 21.072C14.784 21.072 14.136 21.744 14.136 22.608C14.136 23.448 14.784 24.144 15.696 24.144Z" fill="black"/> </svg>