<svg width="27" height="29" viewBox="0 0 27 29" fill="none" xmlns="http://www.w3.org/2000/svg">
<mask id="mask0" mask-type="alpha" maskUnits="userSpaceOnUse" x="0" y="0" width="27" height="29">
<rect width="27" height="29" fill="#C4C4C4"/>
</mask>
<g mask="url(#mask0)">
<path d="M12.6025 27.2365C9.74799 27.0585 7.04344 25.8646 4.95524 23.8605C2.86704 21.8564 1.52608 19.1678 1.16356 16.2584C0.80105 13.3489 1.43971 10.4008 2.96943 7.92256C4.49914 5.44429 6.82403 3.59113 9.54321 2.68262" stroke="#106EE8" stroke-width="2" stroke-linecap="round" stroke-linejoin="round"/>
<path d="M9.73794 4.7185L12.2459 2.4185C12.2819 2.38532 12.3088 2.34301 12.3239 2.29579C12.339 2.24858 12.3417 2.19814 12.3318 2.14951C12.3218 2.10089 12.2996 2.0558 12.2673 2.01876C12.235 1.98172 12.1938 1.95404 12.1478 1.9385L8.95198 0.860722C8.90597 0.845285 8.85682 0.84252 8.80944 0.852703C8.76206 0.862886 8.71812 0.88566 8.68202 0.918744C8.64592 0.951827 8.61894 0.994059 8.60376 1.04121C8.58859 1.08836 8.58576 1.13877 8.59557 1.18739L9.28348 4.56517C9.29335 4.61394 9.31557 4.65919 9.34792 4.69635C9.38027 4.7335 9.4216 4.76125 9.46775 4.7768C9.51389 4.79235 9.56321 4.79515 9.61074 4.78491C9.65828 4.77468 9.70234 4.75177 9.73848 4.7185H9.73794Z" fill="#106EE8"/>
<path d="M14.3965 2.0918C17.251 2.26977 19.9556 3.46373 22.0438 5.4678C24.132 7.47188 25.473 10.1605 25.8355 13.0699C26.198 15.9794 25.5593 18.9275 24.0296 21.4057C22.4999 23.884 20.175 25.7372 17.4558 26.6457" stroke="#106EE8" stroke-width="2" stroke-linecap="round" stroke-linejoin="round"/>
<path d="M17.2618 24.6096L14.7539 26.9096C14.7178 26.9427 14.6909 26.9851 14.6758 27.0323C14.6608 27.0795 14.658 27.1299 14.668 27.1786C14.6779 27.2272 14.7001 27.2723 14.7324 27.3093C14.7647 27.3463 14.8059 27.374 14.8519 27.3896L18.0478 28.4673C18.0938 28.4828 18.1429 28.4856 18.1903 28.4754C18.2377 28.4652 18.2816 28.4424 18.3177 28.4093C18.3538 28.3762 18.3808 28.334 18.396 28.2869C18.4111 28.2397 18.414 28.1893 18.4042 28.1407L17.7163 24.7629C17.7064 24.7141 17.6842 24.6689 17.6518 24.6317C17.6195 24.5946 17.5781 24.5668 17.532 24.5513C17.4858 24.5357 17.4365 24.5329 17.389 24.5432C17.3415 24.5534 17.2974 24.5763 17.2613 24.6096H17.2618Z" fill="#106EE8"/>
</g>
</svg>
