<svg width="28" height="28" viewBox="0 0 28 28" fill="none" xmlns="http://www.w3.org/2000/svg">
<path d="M0.876678 0.885425C2.14933 2.12826 3.38976 3.40496 4.65715 4.65306C4.71867 4.72513 4.78957 4.64369 4.8382 4.60326C6.27439 3.19818 8.03625 2.12586 9.94881 1.50716C12.1519 0.794664 14.5454 0.68275 16.806 1.17963C20.8296 2.0392 24.3535 4.93308 25.9724 8.71531C25.9706 8.71613 25.9687 8.71678 25.9669 8.7176C26.1017 8.98344 26.1782 9.28396 26.1782 9.60236C26.1782 10.6849 25.3006 11.5624 24.2181 11.5624C23.2905 11.5624 22.514 10.9177 22.3106 10.0522C21.153 7.59254 18.8634 5.69023 16.2188 5.0409C13.1602 4.26922 9.69322 5.11882 7.4649 7.38705C8.75572 8.66615 10.0659 9.9265 11.3514 11.2109C7.86392 11.1921 4.37525 11.2026 0.887166 11.2056C0.857929 7.76615 0.879022 4.32552 0.876678 0.885425Z" fill="#DAD7D7"/>
<path d="M3.71026 16.4316C4.5669 16.4316 5.29469 16.9814 5.56129 17.7472C5.56182 17.747 5.56241 17.7468 5.56288 17.7465C6.6826 20.242 8.93612 22.2125 11.5887 22.9133C14.6824 23.7519 18.2361 22.9309 20.5054 20.6252C19.221 19.3502 17.9057 18.1051 16.6271 16.8243C20.1252 16.8271 23.6238 16.826 27.1219 16.8249C27.1301 20.2585 27.1312 23.6914 27.1212 27.125C25.8368 25.8412 24.5577 24.5521 23.2663 23.2754C22.4396 24.0834 21.5226 24.803 20.5171 25.3771C17.3098 27.2504 13.2867 27.639 9.77694 26.4254C6.40914 25.2948 3.56172 22.7236 2.08873 19.4928C1.87516 19.1789 1.7503 18.7999 1.7503 18.3916C1.75024 17.3092 2.6278 16.4316 3.71026 16.4316Z" fill="#DAD7D7"/>
</svg>
