<svg width="27" height="27" viewBox="0 0 27 27" fill="none" xmlns="http://www.w3.org/2000/svg">
<path d="M27 13.4585C27 6.48 21.6831 0.664615 14.8708 0V2.74154C20.1877 3.40615 24.3415 7.97539 24.3415 13.4585C24.3415 16.6154 22.9292 19.44 20.7692 21.4338L17.5292 18.1938V26.3354H25.6708L22.68 23.3446C25.2554 20.8523 27 17.3631 27 13.4585ZM2.65846 13.4585C2.65846 10.3015 4.07077 7.47692 6.23077 5.48308L9.47077 8.72308V0.664615H1.32923L4.32 3.65538C1.66154 6.14769 0 9.63692 0 13.5415C0 20.52 5.31692 26.3354 12.1292 27V24.2585C6.81231 23.5108 2.65846 18.9415 2.65846 13.4585Z" fill="#106EE8"/>
</svg>
