<svg width="39" height="40" viewBox="0 0 39 40" fill="none" xmlns="http://www.w3.org/2000/svg">
<path d="M18.9373 15.0846C19.6107 15.0846 20.1566 14.7431 20.1566 14.3219C20.1566 13.9006 19.6107 13.5591 18.9373 13.5591C18.2639 13.5591 17.718 13.9006 17.718 14.3219C17.718 14.7431 18.2639 15.0846 18.9373 15.0846Z" fill="white"/>
<path d="M18.603 32.2365C15.7485 32.0585 13.0439 30.8646 10.9557 28.8605C8.86753 26.8564 7.52656 24.1678 7.16405 21.2584C6.80154 18.3489 7.4402 15.4008 8.96992 12.9226C10.4996 10.4443 12.8245 8.59113 15.5437 7.68262" stroke="#0FC1A1" stroke-width="2" stroke-linecap="round" stroke-linejoin="round"/>
<path d="M15.7387 9.71899L18.2466 7.41899C18.2826 7.38581 18.3096 7.3435 18.3246 7.29628C18.3397 7.24907 18.3424 7.19862 18.3325 7.15C18.3226 7.10137 18.3003 7.05628 18.2681 7.01925C18.2358 6.98221 18.1946 6.95453 18.1486 6.93899L14.9527 5.86121C14.9067 5.84577 14.8575 5.84301 14.8102 5.85319C14.7628 5.86337 14.7188 5.88615 14.6828 5.91923C14.6467 5.95232 14.6197 5.99455 14.6045 6.0417C14.5893 6.08884 14.5865 6.13925 14.5963 6.18788L15.2842 9.56565C15.2941 9.61443 15.3163 9.65968 15.3487 9.69683C15.381 9.73399 15.4223 9.76174 15.4685 9.77729C15.5146 9.79284 15.5639 9.79564 15.6115 9.7854C15.659 9.77517 15.7031 9.75226 15.7392 9.71899H15.7387Z" fill="#0FC1A1"/>
<path d="M20.397 7.09229C23.2515 7.27026 25.9561 8.46422 28.0443 10.4683C30.1325 12.4724 31.4734 15.1609 31.836 18.0704C32.1985 20.9799 31.5598 23.928 30.0301 26.4062C28.5004 28.8845 26.1755 30.7377 23.4563 31.6462" stroke="#0FC1A1" stroke-width="2" stroke-linecap="round" stroke-linejoin="round"/>
<path d="M23.2613 29.6101L20.7534 31.9101C20.7173 31.9432 20.6904 31.9856 20.6753 32.0328C20.6603 32.08 20.6576 32.1304 20.6675 32.179C20.6774 32.2277 20.6996 32.2728 20.7319 32.3098C20.7642 32.3468 20.8054 32.3745 20.8514 32.3901L24.0473 33.4678C24.0933 33.4833 24.1424 33.486 24.1898 33.4759C24.2372 33.4657 24.2811 33.4429 24.3172 33.4098C24.3533 33.3767 24.3803 33.3345 24.3955 33.2874C24.4107 33.2402 24.4135 33.1898 24.4037 33.1412L23.7158 29.7634C23.7059 29.7146 23.6837 29.6694 23.6513 29.6322C23.619 29.5951 23.5776 29.5673 23.5315 29.5518C23.4854 29.5362 23.436 29.5334 23.3885 29.5436C23.341 29.5539 23.2969 29.5768 23.2608 29.6101H23.2613Z" fill="#0FC1A1"/>
</svg>
