<svg width="15" height="16" viewBox="0 0 15 16" fill="none" xmlns="http://www.w3.org/2000/svg">
<mask id="mask0" mask-type="alpha" maskUnits="userSpaceOnUse" x="0" y="0" width="15" height="16">
<rect width="15" height="16" fill="#C4C4C4"/>
</mask>
<g mask="url(#mask0)">
<path d="M7.01653 14.7302C5.47946 14.6323 4.02317 13.9757 2.89875 12.8734C1.77434 11.7712 1.05228 10.2925 0.857078 8.69224C0.661878 7.09202 1.00577 5.4706 1.82947 4.10755C2.65316 2.7445 3.90502 1.72527 5.3692 1.22559" stroke="#DAD7D7" stroke-linecap="round" stroke-linejoin="round"/>
<path d="M5.47441 2.34532L6.82483 1.08032C6.84424 1.06207 6.85873 1.0388 6.86685 1.01283C6.87497 0.986867 6.87643 0.959121 6.87108 0.932377C6.86573 0.905634 6.85377 0.880834 6.83638 0.860464C6.819 0.840094 6.79681 0.824871 6.77203 0.816321L5.0512 0.223544C5.02642 0.215053 4.99996 0.213532 4.97444 0.219133C4.94893 0.224734 4.92527 0.237259 4.90583 0.255456C4.8864 0.273652 4.87187 0.296879 4.8637 0.322811C4.85553 0.348743 4.854 0.376468 4.85928 0.40321L5.2297 2.26099C5.23501 2.28781 5.24698 2.3127 5.2644 2.33314C5.28182 2.35357 5.30407 2.36883 5.32892 2.37739C5.35376 2.38594 5.38032 2.38748 5.40592 2.38185C5.43151 2.37622 5.45524 2.36362 5.4747 2.34532H5.47441Z" fill="#DAD7D7"/>
<path d="M7.98315 0.900391C9.52022 0.998275 10.9765 1.65495 12.1009 2.75719C13.2254 3.85943 13.9474 5.33815 14.1426 6.93837C14.3378 8.53859 13.9939 10.16 13.1702 11.5231C12.3465 12.8861 11.0947 13.9053 9.63049 14.405" stroke="#DAD7D7" stroke-linecap="round" stroke-linejoin="round"/>
<path d="M9.52581 13.2859L8.17539 14.5509C8.15598 14.5692 8.14148 14.5925 8.13337 14.6184C8.12525 14.6444 8.12379 14.6721 8.12914 14.6989C8.13449 14.7256 8.14645 14.7504 8.16383 14.7708C8.18122 14.7912 8.20341 14.8064 8.22818 14.8149L9.94901 15.4077C9.97379 15.4162 10.0003 15.4177 10.0258 15.4121C10.0513 15.4065 10.0749 15.394 10.0944 15.3758C10.1138 15.3576 10.1283 15.3344 10.1365 15.3085C10.1447 15.2825 10.1462 15.2548 10.1409 15.2281L9.77051 13.3703C9.7652 13.3435 9.75323 13.3186 9.73582 13.2981C9.7184 13.2777 9.69614 13.2624 9.6713 13.2539C9.64645 13.2453 9.61989 13.2438 9.5943 13.2494C9.5687 13.255 9.54498 13.2676 9.52551 13.2859H9.52581Z" fill="#DAD7D7"/>
</g>
</svg>
