<svg width="15" height="15" viewBox="0 0 15 15" fill="none" xmlns="http://www.w3.org/2000/svg">
<path d="M15 7.47692C15 3.6 12.0462 0.369231 8.26154 0V1.52308C11.2154 1.89231 13.5231 4.43077 13.5231 7.47692C13.5231 9.23077 12.7385 10.8 11.5385 11.9077L9.73846 10.1077V14.6308H14.2615L12.6 12.9692C14.0308 11.5846 15 9.64615 15 7.47692ZM1.47692 7.47692C1.47692 5.72308 2.26154 4.15385 3.46154 3.04615L5.26154 4.84615V0.369231H0.738461L2.4 2.03077C0.923077 3.41538 0 5.35385 0 7.52308C0 11.4 2.95385 14.6308 6.73846 15V13.4769C3.78462 13.0615 1.47692 10.5231 1.47692 7.47692Z" fill="#DAD7D7"/>
</svg>
