<svg width="24" height="47" viewBox="0 0 24 47" fill="none" xmlns="http://www.w3.org/2000/svg">
<path d="M14.2879 12.0342H9.68503L8.28125 39.0608C12.0788 39.0608 11.9164 39.0608 15.7108 39.0608L14.2879 12.0342Z" fill="#FFB10F"/>
<path d="M15.7132 39.0609L14.2904 12.0342H9.68752L9.51562 15.3119C10.5056 15.8961 11.8139 17.1359 12.3964 19.7139C13.3864 24.1091 10.3337 26.6497 10.3337 26.6497C10.3337 26.6497 12.4155 29.7644 11.9507 39.0642C12.9089 39.0609 13.7906 39.0609 15.7132 39.0609Z" fill="#ED980E"/>
<path d="M23.0111 0.998535C21.7888 0.998535 2.19002 0.998535 0.967683 0.998535C0.432911 0.998535 0 1.46047 0 2.0311V2.59833C1.33375 2.59833 22.645 2.59833 23.9756 2.59833V2.0311C23.9788 1.46047 23.5459 0.998535 23.0111 0.998535Z" fill="#FFEC03"/>
<path d="M0.578125 2.59814C0.578125 8.44368 4.63666 13.5759 9.95573 14.0039C10.968 14.0854 13.002 14.0752 14.0175 14.0039C19.3429 13.6371 23.3951 8.44368 23.3951 2.59814C22.1313 2.59814 1.84502 2.59814 0.578125 2.59814Z" fill="#FFCF03"/>
<path d="M19.455 2.59814C19.5536 4.88745 19.1526 10.4239 13.1587 11.4632C9.49166 12.0984 5.39811 10.8043 2.67969 9.53398C4.37631 12.0373 6.96741 13.7627 9.95959 14.0039C10.9718 14.0854 13.0059 14.0752 14.0213 14.0039C19.3467 13.6371 23.3989 8.44368 23.3989 2.59814C23.0806 2.59814 21.5654 2.59814 19.455 2.59814Z" fill="#FFB303"/>
<path d="M15.6727 39.061C13.2121 39.061 10.7547 39.061 8.30685 39.061C7.48559 39.061 6.82031 39.7709 6.82031 40.6472V40.7559C7.96625 40.7559 15.8669 40.7559 17.156 40.7559V40.6472C17.1592 39.7709 16.4939 39.061 15.6727 39.061Z" fill="#FFEC03"/>
<path d="M6.375 40.7554V45.9386C7.61962 45.9386 16.3574 45.9386 17.602 45.9386V40.7554C16.211 40.7554 7.75331 40.7554 6.375 40.7554Z" fill="#893003"/>
<path d="M17.6057 45.9386V40.7554C17.0169 40.7554 15.1547 40.7554 13.1016 40.7554C13.1016 40.7554 15.4762 41.2852 15.7722 43.0277C15.9091 43.8259 15.89 44.9535 15.8263 45.9386C16.6826 45.9386 17.3288 45.9386 17.6057 45.9386Z" fill="#7A2B03"/>
<path d="M17.8514 45.939C16.5495 45.939 7.42652 45.939 6.12461 45.939C5.87632 45.939 5.67578 46.1527 5.67578 46.4173V46.4818C7.12731 46.4818 16.8455 46.4818 18.297 46.4818V46.4173C18.3002 46.1527 18.0997 45.939 17.8514 45.939Z" fill="#FFEC03"/>
<path d="M15.7252 23.3346C15.7061 23.4875 15.5056 23.5996 15.4705 23.7456C15.4355 23.8951 15.566 24.0955 15.5183 24.2347C15.4674 24.3774 15.2477 24.4385 15.1841 24.5744C15.1204 24.7103 15.2032 24.9378 15.1268 25.0635C15.0504 25.1892 14.8212 25.1994 14.7289 25.3149C14.6397 25.4303 14.6716 25.6715 14.5697 25.7768C14.4679 25.8821 14.2418 25.8345 14.1304 25.9296C14.019 26.0214 14.0031 26.2659 13.8821 26.344C13.7612 26.4221 13.5511 26.3236 13.4238 26.3882C13.2964 26.4527 13.2296 26.6837 13.0927 26.7312C12.959 26.7788 12.7744 26.6327 12.6343 26.6633C12.4975 26.6939 12.3829 26.9045 12.2396 26.9214C12.0996 26.935 11.95 26.7516 11.8067 26.7482C11.6667 26.7448 11.5107 26.9248 11.3706 26.9045C11.2274 26.8841 11.1223 26.6701 10.9855 26.6327C10.8454 26.5954 10.6576 26.7346 10.5271 26.6837C10.3934 26.6293 10.3361 26.395 10.2088 26.327C10.0814 26.2591 9.86818 26.3474 9.7504 26.2659C9.63262 26.1844 9.62307 25.9398 9.51485 25.8413C9.40662 25.7462 9.18062 25.7802 9.08194 25.6715C8.98326 25.5628 9.02782 25.3217 8.94188 25.2028C8.85593 25.0839 8.62674 25.0669 8.55353 24.9378C8.48032 24.8088 8.57263 24.5846 8.51215 24.4487C8.45167 24.3129 8.23522 24.2415 8.19065 24.0955C8.14609 23.9528 8.28296 23.7558 8.25431 23.6064C8.22567 23.4603 8.02831 23.338 8.01239 23.1852C7.99966 23.0357 8.17155 22.8761 8.17474 22.7233C8.17792 22.5738 8.00921 22.4074 8.02831 22.2579C8.04741 22.1051 8.24795 21.993 8.28296 21.8469C8.31798 21.6975 8.18747 21.4971 8.23521 21.3578C8.28614 21.2152 8.50578 21.1506 8.56945 21.0182C8.63311 20.8823 8.55035 20.6547 8.62674 20.5291C8.70314 20.4034 8.93233 20.3932 9.02464 20.2777C9.11377 20.1622 9.07875 19.9211 9.1838 19.8158C9.28566 19.7105 9.51166 19.758 9.62308 19.6629C9.73449 19.5712 9.7504 19.3267 9.87136 19.2485C9.99232 19.1704 10.2024 19.2689 10.3297 19.2044C10.4571 19.1399 10.5239 18.9089 10.6608 18.8613C10.7945 18.8138 10.9791 18.9598 11.1192 18.9293C11.256 18.8987 11.3706 18.6881 11.5139 18.6711C11.6539 18.6575 11.8035 18.841 11.9468 18.8444C12.0868 18.8478 12.2428 18.6677 12.3829 18.6881C12.5261 18.7085 12.6312 18.9225 12.768 18.9598C12.9081 18.9972 13.0959 18.8579 13.2264 18.9089C13.3601 18.9632 13.4206 19.1976 13.5447 19.2655C13.6721 19.3335 13.8853 19.2452 14.0031 19.3267C14.1209 19.4082 14.1304 19.6527 14.2387 19.7512C14.3469 19.8463 14.5729 19.8124 14.6716 19.9211C14.7703 20.0298 14.7257 20.2709 14.8116 20.3898C14.8976 20.5087 15.1268 20.5257 15.2 20.6547C15.2732 20.7838 15.1809 21.008 15.2414 21.1438C15.3018 21.2797 15.5183 21.351 15.5629 21.4971C15.6074 21.6398 15.4705 21.8368 15.4992 21.9862C15.5278 22.1323 15.7252 22.2545 15.7411 22.4074C15.7538 22.5568 15.582 22.7165 15.5788 22.8693C15.5756 23.0188 15.7443 23.1818 15.7252 23.3346Z" fill="#D67205"/>
<path d="M15.7606 22.7977C15.7606 22.9505 15.5727 23.0898 15.5568 23.2392C15.5409 23.3921 15.6937 23.5721 15.6619 23.7181C15.63 23.8676 15.42 23.9593 15.3722 24.102C15.3245 24.2446 15.4359 24.4586 15.3754 24.5945C15.3149 24.7303 15.0889 24.7711 15.0125 24.9002C14.9361 25.0292 14.9998 25.2636 14.9138 25.3791C14.8247 25.498 14.5955 25.4844 14.4968 25.5897C14.3982 25.695 14.4109 25.9395 14.2995 26.0346C14.1881 26.1297 13.9684 26.0618 13.8507 26.1399C13.7297 26.2214 13.6947 26.4626 13.5642 26.5271C13.4368 26.5917 13.2363 26.4728 13.1026 26.5237C12.9689 26.5747 12.883 26.7989 12.7429 26.8328C12.606 26.8668 12.4373 26.7038 12.2941 26.7207C12.154 26.7377 12.0235 26.9381 11.8803 26.9381C11.737 26.9381 11.6065 26.7377 11.4665 26.7207C11.3232 26.7038 11.1545 26.8668 11.0176 26.8328C10.8776 26.7989 10.7916 26.5747 10.6579 26.5237C10.5242 26.4728 10.3237 26.5917 10.1964 26.5271C10.0691 26.4626 10.0309 26.2214 9.9099 26.1399C9.78894 26.0584 9.5693 26.1263 9.46107 26.0346C9.34966 25.9395 9.36239 25.695 9.26371 25.5897C9.16504 25.4844 8.93585 25.498 8.84672 25.3791C8.75759 25.2602 8.82126 25.0258 8.74804 24.9002C8.67165 24.7711 8.44564 24.7337 8.38516 24.5945C8.32468 24.4586 8.43609 24.2446 8.38834 24.102C8.3406 23.9593 8.13051 23.8676 8.09868 23.7181C8.06685 23.5721 8.21964 23.3921 8.20372 23.2392C8.18781 23.0898 8 22.9505 8 22.7977C8 22.6448 8.18781 22.5056 8.20372 22.3561C8.21964 22.2033 8.06685 22.0232 8.09868 21.8772C8.13051 21.7277 8.3406 21.636 8.38834 21.4934C8.43609 21.3507 8.32468 21.1367 8.38516 21.0009C8.44564 20.865 8.67165 20.8243 8.74804 20.6952C8.82444 20.5661 8.76078 20.3317 8.84672 20.2163C8.93585 20.0974 9.16504 20.111 9.26371 20.0057C9.36239 19.9004 9.34966 19.6558 9.46107 19.5607C9.57248 19.4656 9.79212 19.5335 9.9099 19.4554C10.0309 19.3739 10.0659 19.1328 10.1964 19.0682C10.3237 19.0037 10.5242 19.1226 10.6579 19.0716C10.7916 19.0207 10.8776 18.7965 11.0176 18.7625C11.1545 18.7286 11.3232 18.8916 11.4665 18.8746C11.6065 18.8576 11.737 18.6572 11.8803 18.6572C12.0235 18.6572 12.154 18.8576 12.2941 18.8746C12.4373 18.8916 12.606 18.7286 12.7429 18.7625C12.883 18.7965 12.9689 19.0207 13.1026 19.0716C13.2363 19.1226 13.4368 19.0037 13.5642 19.0682C13.6915 19.1328 13.7297 19.3739 13.8507 19.4554C13.9716 19.5369 14.1913 19.469 14.2995 19.5607C14.4109 19.6558 14.3982 19.9004 14.4968 20.0057C14.5955 20.111 14.8247 20.0974 14.9138 20.2163C15.003 20.3351 14.9393 20.5695 15.0125 20.6952C15.0889 20.8243 15.3149 20.8616 15.3754 21.0009C15.4359 21.1367 15.3245 21.3507 15.3722 21.4934C15.42 21.636 15.63 21.7277 15.6619 21.8772C15.6937 22.0232 15.5409 22.2033 15.5568 22.3561C15.5727 22.5056 15.7606 22.6448 15.7606 22.7977Z" fill="#FF8B00"/>
<path d="M11.88 26.6464C9.89048 26.6464 8.27344 24.9209 8.27344 22.798C8.27344 20.6752 9.89048 18.9497 11.88 18.9497C13.8694 18.9497 15.4865 20.6752 15.4865 22.798C15.4865 24.9209 13.8694 26.6464 11.88 26.6464Z" fill="#FFB10F"/>
<path d="M15.2797 22.798C15.2797 24.802 13.7582 26.4255 11.8801 26.4255C10.002 26.4255 8.48047 24.802 8.48047 22.798C8.48047 20.794 10.002 19.1704 11.8801 19.1704C13.7582 19.1704 15.2797 20.794 15.2797 22.798Z" fill="#FFDC01"/>
<path d="M14.8087 22.7977C14.8087 24.5266 13.4972 25.926 11.877 25.926C10.2568 25.926 8.94531 24.5266 8.94531 22.7977C8.94531 21.0688 10.2568 19.6694 11.877 19.6694C13.4972 19.6694 14.8087 21.0688 14.8087 22.7977Z" fill="#FFDC01"/>
<path d="M18.535 1.73105H7.60404C7.50536 1.73105 7.42578 1.64623 7.42578 1.54106C7.42578 1.43589 7.50536 1.35107 7.60404 1.35107H18.535C18.6337 1.35107 18.7133 1.43589 18.7133 1.54106C18.7133 1.64623 18.6337 1.73105 18.535 1.73105Z" fill="#FFED78"/>
<path d="M6.59632 1.73105H3.98295C3.88427 1.73105 3.80469 1.64623 3.80469 1.54106C3.80469 1.43589 3.88427 1.35107 3.98295 1.35107H6.59632C6.695 1.35107 6.77458 1.43589 6.77458 1.54106C6.77458 1.64623 6.695 1.73105 6.59632 1.73105Z" fill="#FFED78"/>
<path d="M2.76496 1.73105H0.756383C0.657705 1.73105 0.578125 1.64623 0.578125 1.54106C0.578125 1.43589 0.657705 1.35107 0.756383 1.35107H2.76496C2.86364 1.35107 2.94322 1.43589 2.94322 1.54106C2.94322 1.64623 2.86364 1.73105 2.76496 1.73105Z" fill="#FFED78"/>
<path d="M11.8897 25.6169L9.41004 21.609C9.37503 21.5512 9.38776 21.4731 9.44506 21.4323C9.49917 21.395 9.57238 21.4086 9.61058 21.4697L12.0903 25.4777C12.1253 25.5354 12.1126 25.6135 12.0553 25.6543C12.0011 25.6917 11.9279 25.6747 11.8897 25.6169Z" fill="#FFED78"/>
<path d="M12.8223 25.3825L9.9702 20.865C9.932 20.8073 9.94792 20.7291 10.002 20.6884C10.0561 20.651 10.1294 20.6646 10.1676 20.7223L13.0197 25.2398C13.0579 25.2975 13.042 25.3757 12.9878 25.4164C12.9337 25.4572 12.8605 25.4402 12.8223 25.3825Z" fill="#FFED78"/>
<path d="M13.6108 24.9885L11.147 21.2319C11.1088 21.1741 11.1216 21.096 11.1757 21.0552C11.2298 21.0145 11.303 21.0281 11.3412 21.0858L13.805 24.8424C13.8432 24.9002 13.8304 24.9783 13.7763 25.0191C13.7222 25.0598 13.649 25.0462 13.6108 24.9885Z" fill="#FFED78"/>
<path d="M12.8276 22.2814L11.5066 20.3453C11.4684 20.2876 11.4811 20.2095 11.5321 20.1687C11.5862 20.128 11.6594 20.1415 11.6976 20.1959L13.0186 22.1286C13.0568 22.1863 13.0441 22.2644 12.9931 22.3052C12.9422 22.3493 12.8658 22.3357 12.8276 22.2814Z" fill="#FFED78"/>
<path d="M14.1691 39.5728H7.755C7.67542 39.5728 7.67542 39.4478 7.755 39.4478H14.1691C14.2009 39.4478 14.2295 39.4748 14.2295 39.512C14.2295 39.5492 14.2009 39.5728 14.1691 39.5728Z" fill="#FFED78"/>
<path d="M16.7248 46.272C5.57095 46.2413 6.12164 46.3332 6.12164 46.2073C6.12164 46.1733 6.1471 46.1427 6.18211 46.1427C17.3359 46.1733 16.7852 46.0815 16.7852 46.2073C16.7821 46.2447 16.7566 46.272 16.7248 46.272Z" fill="#FFED78"/>
</svg>
