<svg width="65" height="79" viewBox="0 0 65 79" fill="none" xmlns="http://www.w3.org/2000/svg">
<path d="M36.6688 53.8119C36.916 53.8227 37.131 53.8442 37.3353 53.8442C39.2702 53.8442 41.2051 53.8442 43.14 53.8442C44.2042 53.8442 44.6772 54.3171 44.6772 55.3813C44.6772 56.7035 44.6664 58.0365 44.6557 59.3587C44.6557 59.7456 44.4084 60.1541 44.9351 60.6056C45.2576 60.6056 45.7736 60.6378 46.2788 60.5948C47.2033 60.5196 47.7945 61.3043 47.7837 62.089C47.7407 64.4002 47.773 66.7113 47.773 69.0224C47.773 70.1941 48.246 70.7424 49.3962 70.9896C49.6542 71.0433 49.9336 71.0863 50.1701 71.2153C50.5464 71.4196 50.7936 71.7528 50.7936 72.2043C50.7936 73.8705 50.8044 75.5366 50.7936 77.2028C50.7829 77.9123 50.2776 78.4067 49.5682 78.4497C49.4392 78.4605 49.3209 78.4497 49.1919 78.4497C37.776 78.4497 26.3708 78.4497 14.9548 78.4497C14.6968 78.4497 14.4174 78.4175 14.1701 78.3422C13.6434 78.1595 13.3747 77.751 13.3747 77.192C13.3639 75.5474 13.3639 73.892 13.3747 72.2473C13.3747 71.6668 13.7079 71.2691 14.2669 71.1186C14.4604 71.0648 14.6538 71.0218 14.8366 70.9788C15.8793 70.7746 16.3845 70.1834 16.3845 69.1192C16.3953 67.2595 16.3845 65.3891 16.3845 63.5294C16.3845 63.0672 16.4168 62.5942 16.3738 62.132C16.2985 61.2721 16.9757 60.5196 17.8894 60.5948C18.4377 60.6378 18.9966 60.5948 19.5556 60.5841C19.6094 60.5841 19.6524 60.5518 19.7598 60.5196C19.7706 60.3261 19.7921 60.1219 19.8028 59.9176C19.8028 58.3805 19.8028 56.8325 19.8028 55.2953C19.8028 54.3386 20.2973 53.8442 21.254 53.8442C23.1029 53.8442 24.9411 53.8442 26.79 53.8442C27.005 53.8442 27.2092 53.8442 27.478 53.8442C27.478 49.0606 27.478 44.3416 27.478 39.5581C27.177 39.3754 26.8545 39.1604 26.5213 38.9669C23.8554 37.4835 21.5443 35.5593 19.5341 33.2697C19.2009 32.8934 18.8139 32.6354 18.3517 32.4849C16.234 31.7755 14.2884 30.722 12.4717 29.4536C10.999 28.4324 9.63383 27.2822 8.39764 25.9708C6.36599 23.8101 4.64608 21.413 3.36689 18.7364C2.71117 17.3497 2.11995 15.9307 1.59322 14.4903C1.22774 13.4906 1.0235 12.4264 0.76551 11.3945C0.410778 9.98627 0.163541 8.56734 0.0990445 7.11616C0.088295 6.81517 -0.0407007 6.50344 0.0130467 6.22395C0.163539 5.48224 0.625769 5.149 1.38898 5.149C3.30239 5.149 5.22655 5.149 7.13996 5.149C8.05366 5.149 8.96737 5.149 9.88107 5.149C10.0746 5.149 10.2681 5.13825 10.5153 5.1275C10.6013 4.63303 10.698 4.16005 10.7625 3.69782C10.8915 2.79487 10.9775 1.89191 11.1173 0.988953C11.2033 0.462228 11.6977 0.0644969 12.2567 0.0107495C12.3965 0 12.5469 0 12.6867 0C25.6076 0 38.5177 0 51.4386 0.0107495C51.7718 0.0107495 52.1373 0.0537474 52.4168 0.21499C52.6748 0.354733 52.9328 0.655719 52.9972 0.924456C53.18 1.68767 53.266 2.47238 53.3735 3.24634C53.4595 3.84832 53.5132 4.45029 53.5885 5.09526C53.8572 5.11675 54.0829 5.149 54.3087 5.149C57.125 5.149 59.9307 5.149 62.747 5.149C63.4995 5.149 63.9295 5.46074 64.1337 6.15945C64.166 6.2562 64.1875 6.37444 64.1767 6.47119C64.037 7.42789 63.8972 8.37385 63.736 9.3198C63.5855 10.212 63.4242 11.1042 63.2523 11.9964C63.1878 12.3297 63.134 12.6629 63.0158 12.9746C62.403 14.6515 61.8333 16.3392 61.1346 17.9731C60.1779 20.1983 58.845 22.1977 57.34 24.1111C55.3836 26.605 53.051 28.6474 50.3636 30.3135C48.8265 31.2702 47.1818 32.0012 45.4941 32.6354C45.1931 32.7429 44.9029 32.9687 44.6879 33.2159C42.7745 35.3873 40.5601 37.2147 38.0877 38.7304C37.7652 38.9239 37.432 39.0851 37.0988 39.2679C36.7978 39.4291 36.615 39.6333 36.615 40.0203C36.6258 44.4599 36.6258 48.9101 36.6258 53.3497C36.6258 53.4894 36.6473 53.6077 36.6688 53.8119ZM13.4177 2.50463C13.3639 2.67662 13.2994 2.78412 13.2887 2.91311C13.1704 4.2138 13.0092 5.50374 12.9662 6.81517C12.8909 8.78233 12.9877 10.7387 13.2242 12.7059C13.4284 14.3183 13.6971 15.92 14.0841 17.5002C14.5356 19.3168 15.1591 21.0797 15.8793 22.8104C16.5673 24.4658 17.395 26.046 18.3302 27.5617C19.7383 29.8406 21.426 31.8722 23.3932 33.6996C25.0916 35.2691 26.9728 36.5482 29.0152 37.5802C29.6064 37.8812 29.8859 38.2789 29.9074 38.9024C29.9181 39.1389 29.9181 39.3646 29.9181 39.6011C29.9181 44.0944 29.9181 48.5877 29.9181 53.0917C29.9181 53.3282 29.9611 53.5754 29.9719 53.7904C30.7781 53.9302 33.7664 53.8872 34.1857 53.7259C34.1964 53.5539 34.2179 53.3604 34.2179 53.1669C34.2179 49.5444 34.2286 45.9325 34.2179 42.31C34.2179 41.1813 34.1319 40.0633 34.1104 38.9346C34.0997 38.3649 34.3684 37.9457 34.8844 37.6984C37.002 36.6665 38.9262 35.3658 40.6676 33.7749C42.8282 31.797 44.6449 29.5396 46.1498 27.0242C47.1925 25.272 48.0847 23.4446 48.7835 21.5312C49.2672 20.209 49.7187 18.8653 50.0626 17.5109C50.3851 16.2317 50.5679 14.9203 50.7936 13.6196C51.0731 12.0287 51.1913 10.427 51.1913 8.81458C51.1913 7.49239 51.1376 6.1702 51.0731 4.84802C51.0408 4.1708 50.9226 3.50433 50.8366 2.82711C50.8259 2.73037 50.7506 2.64437 50.6969 2.53688C38.2812 2.50463 25.8763 2.50463 13.4177 2.50463ZM45.2899 63.1317C44.9996 63.121 44.8061 63.0995 44.6127 63.0995C43.9892 63.0995 43.355 63.1102 42.7315 63.0887C42.2908 63.078 41.8608 62.9597 41.4308 62.9705C40.8181 62.9812 40.2161 63.0887 39.6034 63.0887C32.9602 63.0995 26.3063 63.0995 19.6631 63.0995C19.4159 63.0995 19.1794 63.1317 18.8999 63.1425C18.8891 63.4112 18.8676 63.6154 18.8676 63.8304C18.8676 65.5719 18.8784 67.3025 18.8676 69.0439C18.8569 70.9358 17.9969 72.3118 16.277 73.1395C16.1158 73.2147 15.89 73.3867 15.89 73.5265C15.8578 74.3219 15.8685 75.1174 15.8685 75.9344C26.7148 75.9344 37.4857 75.9344 48.3212 75.9344C48.3212 75.1819 48.3105 74.4832 48.3212 73.7952C48.332 73.4297 48.16 73.2577 47.8483 73.1072C46.1928 72.3225 45.3221 71.0003 45.3006 69.1622C45.2791 67.3885 45.3006 65.6149 45.3006 63.8412C45.2899 63.6262 45.2899 63.4112 45.2899 63.1317ZM48.0417 28.8301C51.9653 26.7017 55.0182 23.6704 57.3615 19.8973C59.6942 16.1457 61.0271 12.0824 61.5538 7.68588C58.8772 7.68588 56.3081 7.68588 53.7067 7.68588C53.6422 15.2535 51.9868 22.3482 48.0417 28.8301ZM16.1158 28.8301C12.1492 22.3374 10.5045 15.232 10.4508 7.68588C7.80642 7.68588 5.24805 7.68588 2.67892 7.68588C2.97991 13.1359 6.59173 23.7134 16.1158 28.8301ZM22.329 60.5733C28.9722 60.5733 35.5401 60.5733 42.1295 60.5733C42.1295 59.1437 42.1295 57.7677 42.1295 56.381C35.4971 56.381 28.9399 56.381 22.329 56.381C22.329 57.7892 22.329 59.1544 22.329 60.5733Z" fill="white"/>
<path d="M21.039 9.20156C21.1788 11.3192 21.297 13.4476 21.4798 15.5653C21.5658 16.5542 21.8023 17.5324 21.9312 18.5214C21.9742 18.8976 21.9742 19.3168 21.8668 19.6716C21.727 20.1123 21.1143 20.4455 20.7166 20.4025C20.2221 20.3595 19.7061 19.9403 19.5986 19.3813C19.4266 18.4354 19.2761 17.4787 19.1686 16.5327C18.9859 14.8665 18.8569 13.1896 18.6957 11.5235C18.6742 11.3407 18.6527 11.1687 18.6527 10.986C18.6419 9.45955 18.6419 7.94387 18.6419 6.41745C18.6419 5.65423 19.1901 5.05226 19.8673 5.05226C20.5661 5.04151 21.1143 5.65423 21.1143 6.4497C21.1143 7.3634 21.1143 8.27711 21.1143 9.19081C21.0928 9.19081 21.0605 9.19081 21.039 9.20156Z" fill="white"/>
</svg>
