<svg width="23" height="23" viewBox="0 0 23 23" fill="none" xmlns="http://www.w3.org/2000/svg">
<path d="M22.1122 5.41908L17.5809 0.887828C17.4963 0.803835 17.3958 0.737384 17.2854 0.692285C17.175 0.647186 17.0568 0.624326 16.9375 0.625015H2.4375C1.9568 0.625015 1.49578 0.815974 1.15587 1.15588C0.815959 1.49579 0.625 1.95681 0.625 2.43752V20.5625C0.625 21.0432 0.815959 21.5042 1.15587 21.8441C1.49578 22.1841 1.9568 22.375 2.4375 22.375H20.5625C21.0432 22.375 21.5042 22.1841 21.8441 21.8441C22.184 21.5042 22.375 21.0432 22.375 20.5625V6.06252C22.3757 5.94325 22.3528 5.82502 22.3077 5.7146C22.2626 5.60418 22.1962 5.50376 22.1122 5.41908ZM7.875 2.43752H15.125V6.06252H7.875V2.43752ZM15.125 20.5625H7.875V13.3125H15.125V20.5625ZM16.9375 20.5625V13.3125C16.9375 12.8318 16.7465 12.3708 16.4066 12.0309C16.0667 11.691 15.6057 11.5 15.125 11.5H7.875C7.3943 11.5 6.93328 11.691 6.59337 12.0309C6.25346 12.3708 6.0625 12.8318 6.0625 13.3125V20.5625H2.4375V2.43752H6.0625V6.06252C6.0625 6.54322 6.25346 7.00424 6.59337 7.34415C6.93328 7.68406 7.3943 7.87502 7.875 7.87502H15.125C15.6057 7.87502 16.0667 7.68406 16.4066 7.34415C16.7465 7.00424 16.9375 6.54322 16.9375 6.06252V2.80908L20.5625 6.43408V20.5625H16.9375Z" fill="black"/>
</svg>
