<svg width="40" height="40" viewBox="0 0 40 40" fill="none" xmlns="http://www.w3.org/2000/svg">
<path fill-rule="evenodd" clip-rule="evenodd" d="M28.6502 25.7969L39.4097 36.5567C39.7878 36.9352 40.0002 37.4483 40 37.9834C39.9998 38.5184 39.7871 39.0314 39.4087 39.4096C39.0302 39.7878 38.517 40.0002 37.982 40C37.447 39.9998 36.934 39.7871 36.5558 39.4086L25.7963 28.6489C22.5799 31.1402 18.5352 32.3125 14.4851 31.9275C10.435 31.5425 6.68364 29.6289 3.99427 26.5761C1.30489 23.5234 -0.120525 19.5607 0.00799228 15.4942C0.136509 11.4278 1.80931 7.56305 4.68608 4.6862C7.56286 1.80935 11.4275 0.136512 15.4939 0.00799248C19.5602 -0.120528 23.5228 1.30493 26.5755 3.99437C29.6282 6.68381 31.5417 10.4352 31.9267 14.4854C32.3117 18.5356 31.1394 22.5804 28.6482 25.7969H28.6502ZM16.0007 27.9989C19.1832 27.9989 22.2353 26.7346 24.4856 24.4842C26.736 22.2339 28.0002 19.1817 28.0002 15.9991C28.0002 12.8166 26.736 9.76443 24.4856 7.51405C22.2353 5.26366 19.1832 3.9994 16.0007 3.9994C12.8183 3.9994 9.76619 5.26366 7.51586 7.51405C5.26553 9.76443 4.0013 12.8166 4.0013 15.9991C4.0013 19.1817 5.26553 22.2339 7.51586 24.4842C9.76619 26.7346 12.8183 27.9989 16.0007 27.9989Z" fill="#0FBC9D"/>
</svg>
