<svg width="47" height="68" viewBox="0 0 47 68" fill="none" xmlns="http://www.w3.org/2000/svg">
<path d="M16.2162 32.8312H29.8003L46.7844 0H33.2003L16.2162 32.8312Z" fill="#006CA2"/>
<path d="M24.7059 16.4154L17.9165 29.5479L19.6165 32.831H29.8006L31.5006 29.5479L24.7059 16.4154Z" fill="#2F2F2F"/>
<path d="M30.8894 40.7573H17.3V32.8311H30.8841V40.7573H30.8894ZM30.8894 29.4364H17.3C15.4247 29.4364 13.9054 30.9558 13.9054 32.8311V40.7573C13.9054 42.6326 15.4247 44.152 17.3 44.152H30.8841C32.7594 44.152 34.2788 42.6326 34.2788 40.7573V32.8311C34.2799 32.3854 34.193 31.9439 34.0232 31.5319C33.8533 31.1199 33.6038 30.7454 33.2889 30.43C32.974 30.1147 32.6 29.8645 32.1882 29.694C31.7764 29.5235 31.3351 29.436 30.8894 29.4364" fill="#CECED2"/>
<path d="M41.0788 50.9472C41.0788 60.3291 33.4767 67.9313 24.0948 67.9313C14.7182 67.9313 7.11071 60.3291 7.11071 50.9472C7.11071 41.5654 14.7129 33.9632 24.0948 33.9632C33.4767 33.9632 41.0788 41.5707 41.0788 50.9472Z" fill="#CECED2"/>
<path d="M12.7101 46.814C12.487 46.814 12.2638 46.7715 12.0513 46.6759C11.2332 46.3253 10.8401 45.3744 11.1588 44.5456C11.1641 44.535 11.1694 44.519 11.1694 44.5084C11.1748 44.4819 11.1748 44.4872 11.1907 44.4659C11.9336 42.6998 13.0854 41.1354 14.5511 39.9015C16.0169 38.6675 17.7547 37.7994 19.6216 37.3684C19.8076 37.3259 20.0041 37.4162 20.0891 37.5915C20.1741 37.7669 20.1263 37.974 19.9723 38.0962C17.4913 40.0672 15.5098 42.7234 14.2454 45.7781C14.2454 45.7834 14.2401 45.7887 14.2401 45.7887C14.2401 45.794 14.2401 45.794 14.2348 45.7994C14.0594 46.2084 13.7354 46.5219 13.321 46.6865C13.1298 46.7769 12.9173 46.814 12.7101 46.814" fill="white"/>
<path d="M30.9373 32.8312H17.3479L0.369141 0H13.9532L30.9373 32.8312Z" fill="#006CA2"/>
<path d="M29.131 55.1868H23.4307C24.3285 54.6396 25.8957 53.5505 27.6807 51.7655C29.3541 50.0974 29.9119 47.0534 27.9144 45.0505C26.7563 43.8977 25.4388 43.308 23.9991 43.308C20.8169 43.308 18.1607 46.1237 18.0491 46.2405C17.98 46.3149 17.9641 46.4318 18.0225 46.5221L19.4569 48.8649C19.4941 48.9234 19.5578 48.9659 19.6269 48.9712C19.696 48.9818 19.765 48.9605 19.8182 48.9074C19.8341 48.8915 21.566 47.2871 23.0853 47.2871C23.6963 47.2871 24.1744 47.5421 24.5463 48.0734C24.8491 48.5037 24.9394 48.9818 24.8225 49.5237C24.2435 52.1162 19.1275 55.0487 19.0744 55.0805C19.0393 55.1014 19.0101 55.1309 18.9897 55.1663C18.9692 55.2016 18.9582 55.2416 18.9575 55.2824V58.3477C18.9575 58.4805 19.0638 58.5815 19.1913 58.5815H29.1363C29.2638 58.5815 29.37 58.4752 29.37 58.3477V55.4152C29.3672 55.3537 29.3407 55.2957 29.2962 55.2532C29.2517 55.2106 29.1925 55.1869 29.131 55.1868Z" fill="#77A2AD"/>
</svg>
