<svg width="37" height="37" viewBox="0 0 37 37" fill="none" xmlns="http://www.w3.org/2000/svg">
<path d="M18.6152 10.4062C14.1059 10.4062 10.5215 13.9906 10.5215 18.5C10.5215 23.0094 14.1059 26.5938 18.6152 26.5938C23.1246 26.5938 26.709 23.0094 26.709 18.5C26.709 13.9906 23.1246 10.4062 18.6152 10.4062ZM18.6152 24.2812C15.3777 24.2812 12.834 21.7375 12.834 18.5C12.834 15.2625 15.3777 12.7188 18.6152 12.7188C21.8527 12.7188 24.3965 15.2625 24.3965 18.5C24.3965 21.7375 21.8527 24.2812 18.6152 24.2812Z" fill="black"/>
<path d="M35.6125 14.6844L32.375 13.6438L31.6812 11.9094L33.3 8.90312C33.6469 8.20937 33.5312 7.28438 32.9531 6.70625L30.1781 3.93125C29.6 3.35313 28.675 3.2375 27.9813 3.58437L24.975 5.20312L23.2406 4.50938L22.2 1.27187C21.9688 0.578125 21.275 0 20.4656 0H16.5344C15.725 0 15.0312 0.578125 14.9156 1.3875L13.875 4.625C13.1812 4.74062 12.6031 4.97187 12.025 5.31875L9.01875 3.7C8.325 3.35312 7.4 3.46875 6.82188 4.04688L4.04688 6.82188C3.46875 7.4 3.35312 8.325 3.7 9.01875L5.20312 11.9094C4.97188 12.4875 4.74062 13.1812 4.50938 13.7594L1.27187 14.8C0.578125 15.0312 0 15.725 0 16.5344V20.4656C0 21.275 0.578125 21.9688 1.3875 22.2L4.625 23.2406L5.31875 24.975L3.7 27.9813C3.35312 28.675 3.46875 29.6 4.04688 30.1781L6.82188 32.9531C7.4 33.5312 8.325 33.6469 9.01875 33.3L12.025 31.6812L13.7594 32.375L14.8 35.7281C15.0312 36.4219 15.725 37 16.5344 37H20.4656C21.275 37 21.9688 36.4219 22.2 35.7281L23.2406 32.375L24.975 31.6812L27.9813 33.3C28.675 33.6469 29.6 33.5312 30.1781 32.9531L32.9531 30.1781C33.5312 29.6 33.6469 28.675 33.3 27.9813L31.6812 24.975L32.375 23.2406L35.7281 22.2C36.4219 21.9688 37 21.275 37 20.4656V16.5344C37 15.725 36.4219 14.9156 35.6125 14.6844ZM34.6875 20.1187L30.525 21.3906L30.4094 21.9688L29.3687 24.3969L29.0219 24.975L31.1031 28.7906L28.7906 31.1031L24.975 29.0219L24.3969 29.3687C23.5875 29.8312 22.7781 30.1781 21.9688 30.4094L21.3906 30.525L20.1187 34.6875H16.8813L15.6094 30.525L15.0312 30.4094L12.6031 29.3687L12.025 29.0219L8.20938 31.1031L5.89687 28.7906L7.97812 24.975L7.63125 24.3969C7.16875 23.5875 6.82187 22.7781 6.59062 21.9688L6.475 21.3906L2.3125 20.1187V16.8813L6.24375 15.725L6.475 15.1469C6.70625 14.2219 7.05312 13.4125 7.51562 12.6031L7.8625 12.025L5.89687 8.20938L8.20938 5.89687L11.9094 7.97812L12.4875 7.63125C13.2969 7.16875 14.1062 6.82187 15.0312 6.59062L15.6094 6.35938L16.8813 2.3125H20.1187L21.3906 6.35938L21.9688 6.59062C22.7781 6.82187 23.5875 7.16875 24.3969 7.63125L24.975 7.97812L28.7906 5.89687L31.1031 8.20938L29.0219 12.025L29.3687 12.6031C29.8312 13.4125 30.1781 14.2219 30.4094 15.0312L30.525 15.6094L34.6875 16.8813V20.1187Z" fill="black"/>
</svg>
