<svg width="22" height="21" viewBox="0 0 22 21" fill="none" xmlns="http://www.w3.org/2000/svg">
  <path fill-rule="evenodd" clip-rule="evenodd" d="M16.281 4.98392L6.40441 9.92286L5.81641 8.74817L15.693 3.81055L16.281 4.98392ZM15.693 17.1902L5.81641 12.2525L6.40572 11.0779L16.2823 16.0168L15.6943 17.1902H15.693Z" fill="black"/>
  <path fill-rule="evenodd" clip-rule="evenodd" d="M18.2188 6.5625C19.089 6.5625 19.9236 6.2168 20.5389 5.60144C21.1543 4.98609 21.5 4.15149 21.5 3.28125C21.5 2.41101 21.1543 1.57641 20.5389 0.961056C19.9236 0.345702 19.089 0 18.2188 0C17.3485 0 16.5139 0.345702 15.8986 0.961056C15.2832 1.57641 14.9375 2.41101 14.9375 3.28125C14.9375 4.15149 15.2832 4.98609 15.8986 5.60144C16.5139 6.2168 17.3485 6.5625 18.2188 6.5625ZM18.2188 21C19.089 21 19.9236 20.6543 20.5389 20.0389C21.1543 19.4236 21.5 18.589 21.5 17.7188C21.5 16.8485 21.1543 16.0139 20.5389 15.3986C19.9236 14.7832 19.089 14.4375 18.2188 14.4375C17.3485 14.4375 16.5139 14.7832 15.8986 15.3986C15.2832 16.0139 14.9375 16.8485 14.9375 17.7188C14.9375 18.589 15.2832 19.4236 15.8986 20.0389C16.5139 20.6543 17.3485 21 18.2188 21ZM3.78125 13.7812C4.65149 13.7812 5.48609 13.4355 6.10144 12.8202C6.7168 12.2048 7.0625 11.3702 7.0625 10.5C7.0625 9.62976 6.7168 8.79516 6.10144 8.17981C5.48609 7.56445 4.65149 7.21875 3.78125 7.21875C2.91101 7.21875 2.07641 7.56445 1.46106 8.17981C0.845702 8.79516 0.5 9.62976 0.5 10.5C0.5 11.3702 0.845702 12.2048 1.46106 12.8202C2.07641 13.4355 2.91101 13.7812 3.78125 13.7812Z" fill="black"/>
</svg>
