<svg width="67" height="68" viewBox="0 0 67 68" fill="none" xmlns="http://www.w3.org/2000/svg">
<path d="M45.0655 29.4735C45.5397 27.8921 46.5896 26.8379 48.1361 26.3222C50.044 25.6805 52.0873 26.3451 53.25 28.0067C56.9754 33.3354 60.7459 38.6296 64.381 44.004C70.6238 53.2403 65.126 66.1092 54.2548 67.7937C50.6197 68.3552 47.2217 67.6562 44.0608 65.7769C43.9479 65.7081 43.835 65.6394 43.7222 65.5821C43.6883 65.5706 43.6544 65.5706 43.5867 65.5706C43.4964 65.6737 43.4061 65.7883 43.3158 65.9144C42.232 67.3124 40.7983 68 39.0598 68C27.8273 68 16.5948 68 5.36226 68C2.33682 68 0 65.6508 0 62.5912C0 43.5342 0 24.4658 0 5.40883C0 2.34917 2.33682 0 5.35097 0C16.5835 0 27.816 0 39.0485 0C42.0965 0 44.4108 2.34917 44.4108 5.44321C44.4108 13.2012 44.4108 20.9478 44.3995 28.7058C44.3995 29.1985 44.535 29.4621 45.0655 29.4735ZM30.7173 48.7139C30.3786 49.3785 30.0625 49.9285 29.7916 50.513C29.2836 51.6016 28.8659 52.7246 28.8094 53.9508C28.7643 55.0051 29.1594 55.7155 30.1302 56.1854C33.8669 57.9845 37.581 59.818 41.3063 61.6515C42.3562 62.1672 43.3609 62.7172 44.3092 63.4162C47.1992 65.5362 50.473 66.3384 53.9838 65.7196C63.5907 64.0465 68.0725 52.9538 62.4506 44.8635C61.6942 43.7749 60.9265 42.6862 60.1702 41.5861C57.3705 37.5639 54.5821 33.5302 51.7599 29.5308C51.4438 29.0839 50.9922 28.6714 50.5181 28.4193C49.5811 27.9265 48.4635 28.213 47.6733 29.0152C47.0072 29.6913 46.8944 30.459 47.3911 31.5477C47.662 32.1321 48.012 32.6707 48.3619 33.2208C48.757 33.8625 48.7119 34.4928 48.2152 34.848C47.7072 35.2032 47.0976 35.0543 46.6573 34.4584C46.0928 33.6906 45.5397 32.9228 44.9639 32.1665C44.1173 31.0664 42.5594 30.8487 41.4757 31.6623C40.358 32.4988 40.1548 33.9771 41.0015 35.1689C41.5885 36.0054 42.2094 36.819 42.7965 37.667C43.1238 38.1368 43.0222 38.8015 42.6271 39.1109C42.1981 39.4432 41.5208 39.363 41.1483 38.9275C40.9225 38.6525 40.7193 38.3546 40.5048 38.0566C39.8162 37.1055 39.1388 36.1314 38.4276 35.2032C37.8067 34.3896 36.9939 33.9771 35.9553 34.1719C34.9393 34.3667 34.2733 34.997 33.9911 36.0054C33.754 36.8305 33.9685 37.5868 34.4652 38.2629C35.3457 39.4776 36.2263 40.6923 37.0955 41.907C37.389 42.3195 37.4229 42.755 37.1407 43.1904C36.881 43.5915 36.4634 43.729 36.0569 43.58C35.7634 43.4769 35.4812 43.2248 35.2893 42.9612C32.9976 39.7411 30.7173 36.5211 28.4482 33.2895C26.5968 30.6424 24.7567 27.9838 22.9166 25.3367C21.8103 23.7553 19.6992 23.7438 18.6945 25.3023C18.0962 26.2305 18.1752 27.2963 18.9429 28.3849C22.2618 33.1062 25.5695 37.8504 28.911 42.5487C31.1124 45.6427 33.3589 48.7024 35.5828 51.785C36.057 52.4382 36.0344 53.0684 35.5151 53.4466C34.9845 53.8362 34.4088 53.6987 33.9233 53.0455C33.6411 52.6673 33.3589 52.2777 33.0767 51.8996C32.3203 50.8797 31.5527 49.8483 30.7173 48.7139ZM5.64448 54.3977C5.64448 53.3664 5.64448 52.4038 5.64448 51.4297C5.64448 48.1409 7.90228 45.849 11.1535 45.8375C16.7077 45.8375 22.2505 45.8375 27.8047 45.8375C28.0418 45.8375 28.2789 45.8375 28.6288 45.8375C28.4595 45.5625 28.3579 45.3906 28.245 45.2187C27.6918 44.428 27.0935 43.6603 26.5855 42.8352C26.2694 42.331 25.9082 42.182 25.3437 42.2049C23.8423 42.2393 22.3296 42.2278 20.8281 42.2164C18.7623 42.2049 17.1479 40.6808 16.956 38.5723C16.7754 36.6357 18.1639 34.848 20.1282 34.4698C20.2637 34.4469 20.3992 34.3896 20.5685 34.3438C20.4217 34.1146 20.3088 33.9427 20.1847 33.7708C19.1348 32.2811 18.0623 30.8028 17.0463 29.2902C15.3191 26.7233 16.4819 23.2511 19.3719 22.277C21.2797 21.6353 23.3569 22.3229 24.5648 24.0418C26.879 27.3421 29.1707 30.6539 31.4736 33.9542C31.9026 34.573 32.2413 34.5844 32.6815 33.9771C33.6298 32.6593 34.9168 32.0061 36.5085 32.0748C37.1858 32.0977 37.8632 32.2925 38.5744 32.4186C39.0824 30.8028 40.1323 29.6569 41.8256 29.2329C42.2433 29.1298 42.3562 28.9579 42.3562 28.5453C42.3336 20.8332 42.3336 13.1095 42.3336 5.39737C42.3336 3.51803 40.9451 2.11999 39.0824 2.10853C38.0325 2.09707 36.9714 2.11999 35.9215 2.09707C35.5602 2.08561 35.3345 2.21166 35.12 2.49815C34.2507 3.70138 33.3589 4.87024 32.4896 6.07347C31.6204 7.27671 30.4576 7.82676 29.0013 7.82676C24.4632 7.8153 19.9363 7.8153 15.3981 7.82676C13.9419 7.82676 12.7791 7.27671 11.9099 6.07347C11.0519 4.8817 10.1601 3.70138 9.29082 2.50961C9.07633 2.22312 8.86184 2.09707 8.50059 2.10853C7.51845 2.13145 6.5476 2.11999 5.56546 2.11999C3.40927 2.11999 2.08846 3.46073 2.08846 5.64948C2.08846 21.6926 2.08846 37.7243 2.08846 53.7674C2.08846 53.9737 2.08846 54.18 2.08846 54.4092C3.28509 54.3977 4.42527 54.3977 5.64448 54.3977ZM41.8821 64.2986C41.7014 64.1955 41.5885 64.1382 41.4757 64.0809C37.4116 62.087 33.3476 60.1159 29.3062 58.0991C28.7078 57.8011 28.1773 57.3542 27.6918 56.8959C27.4322 56.6552 27.2177 56.5406 26.8677 56.5406C18.8187 56.5521 10.7697 56.5406 2.72064 56.5521C2.51744 56.5521 2.32553 56.575 2.07717 56.5864C2.07717 56.85 2.07717 57.0563 2.07717 57.2626C2.07717 58.9471 2.07717 60.6202 2.07717 62.3047C2.07717 64.5851 3.3754 65.9029 5.59933 65.9029C16.3577 65.9029 27.1161 65.9029 37.8745 65.9029C38.3486 65.9029 38.8115 65.9144 39.2856 65.9029C40.3919 65.8342 41.2273 65.2841 41.8821 64.2986ZM28.7417 47.969C28.5385 47.9575 28.4482 47.9461 28.3466 47.9461C22.5215 47.9461 16.6851 47.9346 10.86 47.9461C9.36984 47.9461 8.02645 48.9889 7.82325 50.5015C7.65392 51.7621 7.78939 53.0684 7.78939 54.3862C14.0999 54.3862 20.3992 54.3862 26.7323 54.3862C26.7323 52.0371 27.6354 50.0202 28.7417 47.969ZM32.8057 2.16582C25.6824 2.16582 18.7058 2.16582 11.6163 2.16582C12.4066 3.22009 13.0839 4.23997 13.8854 5.14526C14.1677 5.46613 14.7321 5.70677 15.1724 5.70677C19.8573 5.74115 24.5309 5.74115 29.2158 5.70677C29.611 5.70677 30.1415 5.54634 30.3899 5.27132C31.2253 4.30873 31.9703 3.26593 32.8057 2.16582ZM24.5648 40.0849C24.4406 39.8787 24.3616 39.7297 24.2713 39.6036C23.7858 38.9046 23.1988 38.2514 22.8263 37.4951C22.3296 36.5096 21.5845 36.3836 20.6475 36.4867C19.7783 36.5898 19.0671 37.3003 19.0106 38.1712C18.9542 39.0765 19.5751 40.0047 20.4556 40.062C21.799 40.1422 23.1424 40.0849 24.5648 40.0849Z" fill="white"/>
<path d="M61.2528 53.9739C60.8803 56.5981 59.5934 58.8556 57.313 60.5057C56.8276 60.861 56.1841 60.7005 55.868 60.2307C55.5858 59.7952 55.6761 59.142 56.1277 58.7983C57.8774 57.4804 58.9047 55.7386 59.2321 53.5499C59.3337 52.9196 59.7966 52.5758 60.3949 52.656C60.9593 52.7248 61.2867 53.1488 61.2528 53.9739Z" fill="white"/>
<path d="M58.8616 46.5254C59.1213 46.7202 59.4599 46.8577 59.618 47.1098C59.9905 47.6713 60.3179 48.2787 60.6001 48.8975C60.9049 49.5621 60.6904 50.158 60.1373 50.3987C59.5616 50.6622 59.0084 50.3872 58.6923 49.7111C58.4439 49.1954 58.1504 48.7141 57.8795 48.2099C57.4618 47.4307 57.9359 46.6056 58.8616 46.5254Z" fill="white"/>
<path d="M27.8388 19.2982C25.5471 19.2982 23.2442 19.2982 20.9525 19.2982C18.6722 19.2982 16.9449 17.6251 16.9336 15.3905C16.9224 13.1789 18.6496 11.46 20.9187 11.46C25.5471 11.46 30.1756 11.46 34.8041 11.46C37.0393 11.46 38.7552 13.1559 38.7665 15.3562C38.7778 17.5564 37.0619 19.2753 34.8379 19.2867C34.8154 19.2867 34.8041 19.2867 34.7815 19.2867C32.4673 19.2982 30.153 19.2982 27.8388 19.2982ZM27.7936 17.1897C30.1079 17.1897 32.4221 17.1897 34.7363 17.1897C35.8991 17.1897 36.7006 16.4333 36.7006 15.3676C36.7006 14.3019 35.8991 13.5685 34.7251 13.5685C30.153 13.5685 25.581 13.5685 21.0203 13.5685C20.7832 13.5685 20.5235 13.5799 20.2978 13.6487C19.4398 13.9123 18.9205 14.7603 19.0447 15.6426C19.1689 16.5135 19.9026 17.1782 20.8171 17.1782C23.1313 17.2011 25.4568 17.1897 27.7936 17.1897Z" fill="white"/>
<path d="M13.3668 15.3784C13.3668 16.2722 13.3668 17.1775 13.3668 18.0713C13.3556 18.9078 12.9717 19.2975 12.1476 19.2975C10.3978 19.2975 8.64805 19.2975 6.89826 19.2975C6.0403 19.2975 5.65647 18.9078 5.64519 18.0484C5.6339 16.2722 5.6339 14.496 5.64519 12.7198C5.64519 11.8489 6.02901 11.4707 6.89826 11.4707C8.64805 11.4707 10.3978 11.4707 12.1476 11.4707C12.9717 11.4707 13.3556 11.8603 13.3668 12.6969C13.3668 13.5792 13.3668 14.4845 13.3668 15.3784ZM11.2445 17.1546C11.2445 15.9284 11.2445 14.771 11.2445 13.6136C10.0479 13.6136 8.9077 13.6136 7.75622 13.6136C7.75622 14.8168 7.75622 15.9742 7.75622 17.1546C8.94156 17.1546 10.0818 17.1546 11.2445 17.1546Z" fill="white"/>
<path d="M9.50644 30.757C8.6259 30.757 7.73407 30.7684 6.85353 30.757C6.06331 30.7455 5.6569 30.3559 5.6569 29.5652C5.64562 27.7546 5.64562 25.9326 5.6569 24.122C5.6569 23.3198 6.05202 22.9302 6.84224 22.9188C8.6259 22.9073 10.4208 22.9073 12.2045 22.9188C12.9609 22.9188 13.3673 23.3198 13.3673 24.0762C13.3785 25.9097 13.3785 27.7432 13.3673 29.5767C13.3673 30.3444 12.9721 30.7341 12.2158 30.7455C11.3127 30.7684 10.4096 30.757 9.50644 30.757ZM11.2562 28.6141C11.2562 27.3879 11.2562 26.242 11.2562 25.0731C10.0709 25.0731 8.91941 25.0731 7.76794 25.0731C7.76794 26.2764 7.76794 27.4338 7.76794 28.6141C8.94199 28.6141 10.0709 28.6141 11.2562 28.6141Z" fill="white"/>
<path d="M13.3673 38.2636C13.3673 39.1803 13.3786 40.0971 13.3673 41.0139C13.356 41.816 12.9721 42.2056 12.1819 42.2056C10.4096 42.2171 8.64848 42.2056 6.87611 42.2056C6.05202 42.2056 5.6569 41.816 5.6569 40.9795C5.64562 39.1803 5.64562 37.3927 5.6569 35.5936C5.6569 34.757 6.05202 34.3674 6.87611 34.3674C8.64848 34.3674 10.4096 34.3559 12.1819 34.3674C12.9721 34.3674 13.3673 34.7685 13.3673 35.5592C13.3786 36.4759 13.3673 37.3698 13.3673 38.2636ZM7.76794 36.5218C7.76794 37.7479 7.76794 38.9053 7.76794 40.0627C8.96457 40.0627 10.116 40.0627 11.2449 40.0627C11.2449 38.8595 11.2449 37.7021 11.2449 36.5218C10.0709 36.5218 8.9307 36.5218 7.76794 36.5218Z" fill="white"/>
<path d="M34.2285 25.027C33.0996 25.027 31.9707 25.0384 30.8418 25.027C30.0742 25.0155 29.6452 24.6144 29.6565 23.9612C29.6678 23.3195 30.0967 22.9299 30.8305 22.9299C33.0883 22.9184 35.3461 22.9299 37.6039 22.9299C38.3151 22.9299 38.7667 23.3424 38.7667 23.9727C38.7779 24.6144 38.3151 25.027 37.5587 25.027C36.4524 25.027 35.3348 25.027 34.2285 25.027Z" fill="white"/>
<path d="M22.2167 60.1618C23.0973 60.1618 23.9891 60.1504 24.8696 60.1618C25.626 60.1733 26.0663 60.5629 26.055 61.2276C26.0437 61.8693 25.626 62.2589 24.8922 62.2589C23.1086 62.2704 21.3249 62.2704 19.53 62.2589C18.8187 62.2589 18.3785 61.8464 18.3672 61.2161C18.3672 60.5858 18.7962 60.1619 19.5074 60.1504C20.4105 60.1504 21.3136 60.1618 22.2167 60.1618Z" fill="white"/>
</svg>
