<svg width="45" height="37" viewBox="0 0 45 37" fill="none" xmlns="http://www.w3.org/2000/svg">
<path d="M28.4 7.6V2.7H26.4V7.6H28.4ZM35.6 6.6H27.5V8.6H35.6V6.6ZM34.6 2.7V7.6H36.6V2.7H34.6V2.7ZM28.4 2.7C28.4 2.1 28 1.7 27.4 1.7C26.8 1.7 26.4 2.1 26.4 2.7H28.4ZM27.4 7.6H26.4C26.4 8.2 26.8 8.6 27.4 8.6V7.6ZM35.6 7.6V8.6C36.2 8.6 36.6 8.2 36.6 7.6H35.6ZM36.6 2.7C36.6 2.1 36.2 1.7 35.6 1.7C35 1.7 34.6 2.1 34.6 2.7H36.6Z" fill="#878787"/>
<path d="M28.5 15.3H33.4V13.3H28.5V15.3ZM33.3 15.3C33.9 15.3 34.3 14.9 34.3 14.3C34.3 13.7 33.9 13.3 33.3 13.3V15.3ZM28.5 13.3C27.9 13.3 27.5 13.7 27.5 14.3C27.5 14.9 27.9 15.3 28.5 15.3V13.3Z" fill="#878787"/>
<path d="M28.5 20.2H36.6V18.2H28.5V20.2ZM36.6 20.2C37.2 20.2 37.6 19.8 37.6 19.2C37.6 18.6 37.2 18.2 36.6 18.2V20.2ZM28.5 18.2C27.9 18.2 27.5 18.6 27.5 19.2C27.5 19.8 27.9 20.2 28.5 20.2V18.2Z" fill="#878787"/>
<path d="M28.5 25.1H38.3V23.1H28.5V25.1V25.1ZM38.2 25.1C38.8 25.1 39.2 24.7 39.2 24.1C39.2 23.5 38.8 23.1 38.2 23.1V25.1ZM28.5 23.1C27.9 23.1 27.5 23.5 27.5 24.1C27.5 24.7 27.9 25.1 28.5 25.1V23.1Z" fill="#878787"/>
<path fill-rule="evenodd" clip-rule="evenodd" d="M20.1 0.399994C19.3 0.399994 18.6 1.09999 18.6 1.89999V16.1H21.6V3.39999H31.5H41.4V29.6H25.9V32.6H42.9C43.7 32.6 44.4 31.9 44.4 31.1V1.89999C44.4 1.09999 43.7 0.399994 42.9 0.399994H31.5H20.1Z" fill="#878787"/>
<path d="M25.3 17.4C25 16.9 24.6 16.5 24.1 16.2C23.6 15.9 23 15.8 22.5 15.8V16.4V15.8H4.99999L4.09999 13.8L3.89999 13.5H3.49999H0.999994H0.399994V14V15.2V15.8H0.999994H2.29999L6.59999 25L5.79999 26.4C5.49999 26.8 5.39999 27.3 5.39999 27.8C5.39999 28.3 5.59999 28.8 5.79999 29.3C6.09999 29.7 6.49999 30.1 6.99999 30.3C7.39999 30.5 7.89999 30.6 8.29999 30.6C7.59999 30.6 6.79999 30.9 6.29999 31.4C5.69999 31.9 5.39999 32.7 5.39999 33.5C5.39999 34.3 5.69999 35 6.29999 35.6C6.89999 36.1 7.69999 36.4 8.49999 36.4C9.29999 36.4 10.1 36.1 10.7 35.6C11.3 35.1 11.6 34.3 11.6 33.5C11.6 32.7 11.3 32 10.7 31.4C10.2 31 9.59999 30.7 8.99999 30.6H19.4C18.8 30.7 18.1 31 17.7 31.4C17.1 31.9 16.8 32.7 16.8 33.5C16.8 34.3 17.1 35 17.7 35.6C18.3 36.1 19.1 36.4 19.9 36.4C20.7 36.4 21.5 36.1 22.1 35.6C22.7 35.1 23 34.3 23 33.5C23 32.7 22.7 32 22.1 31.4C21.6 31 21 30.7 20.4 30.6H22.5H23.1V30V28.8V28.2H22.5H8.59999C8.39999 28.2 8.19999 28.1 8.09999 28C7.99999 27.9 7.89999 27.8 7.89999 27.7L7.99999 27.4L8.79999 26H18.7C19.2 26 19.7 25.9 20.1 25.7C20.5 25.5 20.9 25.2 21.2 24.8L24.9 20.3C25.3 19.9 25.5 19.4 25.6 18.8C25.6 18.4 25.5 17.9 25.3 17.4ZM20.8 34.5C20.6 34.7 20.2 34.8 19.9 34.8C19.6 34.8 19.2 34.7 19 34.5C18.8 34.3 18.6 34 18.6 33.7C18.6 33.4 18.7 33.1 19 32.9C19.2 32.7 19.6 32.6 19.9 32.6C20.2 32.6 20.6 32.7 20.8 32.9C21 33.1 21.2 33.4 21.2 33.7C21.2 34 21.1 34.3 20.8 34.5ZM9.49999 34.5C9.29999 34.7 8.89999 34.8 8.59999 34.8C8.29999 34.8 7.89999 34.7 7.69999 34.5C7.49999 34.3 7.29999 34 7.29999 33.7C7.29999 33.4 7.39999 33.1 7.69999 32.9C7.89999 32.7 8.29999 32.6 8.59999 32.6C8.89999 32.6 9.29999 32.7 9.49999 32.9C9.69999 33.1 9.89999 33.4 9.89999 33.7C9.79999 34 9.69999 34.3 9.49999 34.5ZM19.2 23.6C19.1 23.7 19.1 23.7 19 23.8C18.9 23.8 18.8 23.9 18.7 23.9H8.79999L6.09999 18.2H22.5C22.6 18.2 22.8 18.2 22.9 18.3C23 18.4 23.1 18.4 23.1 18.5C23.1 18.6 23.2 18.7 23.2 18.8C23.2 18.9 23.2 19 23.1 19.1L19.2 23.6L19.7 24L19.2 23.6Z" fill="#7C7C7C"/>
</svg>
