<?xml version="1.0" encoding="utf-8"?>
<!-- Generator: Adobe Illustrator 24.3.0, SVG Export Plug-In . SVG Version: 6.00 Build 0)  -->
<svg version="1.1" id="Слой_1" xmlns="http://www.w3.org/2000/svg" xmlns:xlink="http://www.w3.org/1999/xlink" x="0px" y="0px"
	 viewBox="0 0 59 68" style="enable-background:new 0 0 59 68;" xml:space="preserve">
<style type="text/css">
	.st0{fill:#FFFFFF;}
	.st1{fill:#878787;}
	.st2{fill-rule:evenodd;clip-rule:evenodd;fill:#878787;}
	.st3{fill:#7C7C7C;}
</style>
<rect class="st0" width="59" height="68"/>
<path class="st1" d="M31.4,24.6v-4.9h-2v4.9H31.4z M38.6,23.6h-8.1v2h8.1V23.6z M37.6,19.7v4.9h2v-4.9H37.6z M31.4,19.7
	c0-0.6-0.4-1-1-1c-0.6,0-1,0.4-1,1H31.4z M30.4,24.6h-1c0,0.6,0.4,1,1,1V24.6z M38.6,24.6v1c0.6,0,1-0.4,1-1H38.6z M39.6,19.7
	c0-0.6-0.4-1-1-1c-0.6,0-1,0.4-1,1H39.6z"/>
<path class="st1" d="M31.5,32.3h4.9v-2h-4.9V32.3z M36.3,32.3c0.6,0,1-0.4,1-1c0-0.6-0.4-1-1-1V32.3z M31.5,30.3c-0.6,0-1,0.4-1,1
	c0,0.6,0.4,1,1,1V30.3z"/>
<path class="st1" d="M31.5,37.2h8.1v-2h-8.1V37.2z M39.6,37.2c0.6,0,1-0.4,1-1s-0.4-1-1-1V37.2z M31.5,35.2c-0.6,0-1,0.4-1,1
	s0.4,1,1,1V35.2z"/>
<path class="st1" d="M31.5,42.1h9.8v-2h-9.8V42.1z M41.2,42.1c0.6,0,1-0.4,1-1s-0.4-1-1-1V42.1z M31.5,40.1c-0.6,0-1,0.4-1,1
	s0.4,1,1,1V40.1z"/>
<path class="st2" d="M23.1,17.4c-0.8,0-1.5,0.7-1.5,1.5v14.2h3V20.4h9.9h9.9v26.2H28.9v3h17c0.8,0,1.5-0.7,1.5-1.5V18.9
	c0-0.8-0.7-1.5-1.5-1.5H34.5H23.1z"/>
<path class="st3" d="M28.3,34.4c-0.3-0.5-0.7-0.9-1.2-1.2c-0.5-0.3-1.1-0.4-1.6-0.4l0,0.6l0,0l0-0.6h0H8l-0.9-2l-0.2-0.3H6.5H4H3.4
	V31v1.2v0.6H4h1.3L9.6,42l-0.8,1.4l0,0c-0.3,0.4-0.4,0.9-0.4,1.4c0,0.5,0.2,1,0.4,1.5c0.3,0.4,0.7,0.8,1.2,1
	c0.4,0.2,0.9,0.3,1.3,0.3c-0.7,0-1.5,0.3-2,0.8c-0.6,0.5-0.9,1.3-0.9,2.1s0.3,1.5,0.9,2.1c0.6,0.5,1.4,0.8,2.2,0.8s1.6-0.3,2.2-0.8
	c0.6-0.5,0.9-1.3,0.9-2.1s-0.3-1.5-0.9-2.1c-0.5-0.4-1.1-0.7-1.7-0.8h10.4c-0.6,0.1-1.3,0.4-1.7,0.8c-0.6,0.5-0.9,1.3-0.9,2.1
	s0.3,1.5,0.9,2.1c0.6,0.5,1.4,0.8,2.2,0.8s1.6-0.3,2.2-0.8c0.6-0.5,0.9-1.3,0.9-2.1s-0.3-1.5-0.9-2.1c-0.5-0.4-1.1-0.7-1.7-0.8h2.1
	h0.6v-0.6v-1.2v-0.6h-0.6H11.6c-0.2,0-0.4-0.1-0.5-0.2c-0.1-0.1-0.2-0.2-0.2-0.3l0.1-0.3l0.8-1.4h9.9c0.5,0,1-0.1,1.4-0.3
	c0.4-0.2,0.8-0.5,1.1-0.9l0,0l3.7-4.5l0,0c0.4-0.4,0.6-0.9,0.7-1.5C28.6,35.4,28.5,34.9,28.3,34.4z M23.8,51.5
	c-0.2,0.2-0.6,0.3-0.9,0.3s-0.7-0.1-0.9-0.3c-0.2-0.2-0.4-0.5-0.4-0.8c0-0.3,0.1-0.6,0.4-0.8c0.2-0.2,0.6-0.3,0.9-0.3
	s0.7,0.1,0.9,0.3c0.2,0.2,0.4,0.5,0.4,0.8C24.2,51,24.1,51.3,23.8,51.5z M12.5,51.5c-0.2,0.2-0.6,0.3-0.9,0.3s-0.7-0.1-0.9-0.3
	c-0.2-0.2-0.4-0.5-0.4-0.8c0-0.3,0.1-0.6,0.4-0.8c0.2-0.2,0.6-0.3,0.9-0.3s0.7,0.1,0.9,0.3c0.2,0.2,0.4,0.5,0.4,0.8
	C12.8,51,12.7,51.3,12.5,51.5z M25.5,34.5L25.5,34.5L25.5,34.5L25.5,34.5z M22.2,40.6c-0.1,0.1-0.1,0.1-0.2,0.2
	c-0.1,0-0.2,0.1-0.3,0.1h0h-9.9l-2.7-5.7h16.4c0.1,0,0.3,0,0.4,0.1c0.1,0.1,0.2,0.1,0.2,0.2c0,0.1,0.1,0.2,0.1,0.3
	c0,0.1,0,0.2-0.1,0.3L22.2,40.6L22.2,40.6l0.5,0.4l0,0L22.2,40.6z"/>
</svg>
