<svg width="42" height="46" viewBox="0 0 42 46" fill="none" xmlns="http://www.w3.org/2000/svg">
<path d="M35.4115 27.5211C36.0981 27.375 36.6825 27.2289 37.2814 27.1413C37.6905 27.0828 38.1141 27.0682 38.5085 27.1413C39.5312 27.3166 40.0571 27.9447 40.1155 28.9965C40.2032 30.3112 39.7211 31.4652 39.1513 32.6046C38.976 32.9698 38.7569 33.3204 38.5816 33.6418C39.2682 34.1676 39.9548 34.6351 40.5538 35.1902C42.5405 37.1038 42.4675 39.3388 40.3785 41.1794C38.976 42.421 37.3106 43.1953 35.5576 43.8234C32.5482 44.8898 29.4219 45.4303 26.2372 45.737C23.1548 46.0292 20.0724 46.0876 16.9899 45.8539C12.8849 45.5471 8.83828 44.9044 5.02541 43.2683C3.85671 42.7716 2.76106 42.1581 1.78228 41.3401C1.59237 41.1794 1.41706 41.0187 1.24176 40.8434C-0.423634 39.0759 -0.438242 37.0162 1.32941 35.3217C2.04524 34.6497 2.92176 34.153 3.72524 33.5687C3.84211 33.4811 3.95898 33.4226 4.10506 33.335C3.8275 32.6192 3.53532 31.9326 3.28698 31.2169C2.87793 30.019 2.6588 28.7774 2.62958 27.5065C2.62958 27.2435 2.49811 26.9514 2.33741 26.7323C1.88454 26.1041 1.37324 25.5052 0.905758 24.8917C0.146106 23.9129 0.219149 23.2994 1.18332 22.5544C1.37324 22.4083 1.56315 22.2477 1.76767 22.1162C2.49811 21.6049 3.19932 21.7072 3.73985 22.4083C4.17811 22.9927 4.61637 23.577 4.98158 24.2051C5.33219 24.8186 5.81428 25.0524 6.55932 24.9501C6.55932 16.6529 6.55932 8.34102 6.55932 -0.0146484C16.2011 -0.0146484 25.7698 -0.0146484 35.4261 -0.0146484C35.4115 9.15906 35.4115 18.3182 35.4115 27.5211ZM14.7402 18.026C16.128 17.8799 17.4136 17.9676 18.6261 18.5665C20.2038 19.3261 21.095 20.67 21.7085 22.3353C22.5705 21.4734 23.4616 20.8015 24.7325 20.7869C24.7325 21.1959 24.7325 21.5465 24.7325 21.8825C22.7604 22.3791 21.6647 23.986 22.103 25.6367C23.3739 25.4176 24.6303 25.14 25.9012 24.9647C28.4578 24.6287 30.4738 25.7681 31.584 28.1054C31.7009 28.3391 31.8032 28.5728 31.9346 28.865C32.7381 28.5436 33.4978 28.2515 34.2428 27.9593C34.2428 18.9901 34.2428 10.094 34.2428 1.15398C25.3899 1.16858 16.5955 1.16858 7.75724 1.16858C7.75724 9.2321 7.75724 17.2372 7.75724 25.213C9.08663 25.8996 10.3868 26.5862 11.7162 27.2727C12.6219 25.9288 13.8491 25.0962 15.456 24.9939C16.3179 24.9355 17.1945 25.0085 18.0564 25.1254C18.9621 25.2423 19.8532 25.4906 20.8028 25.7097C20.8028 25.2715 20.8028 24.8917 20.8028 24.4388C19.0498 24.5411 17.4136 24.2051 16.1718 22.8466C14.9447 21.5173 14.6379 19.8666 14.7402 18.026ZM21.2118 42.9177C22.2345 42.8155 23.0087 42.7862 23.783 42.6548C26.7193 42.1435 28.9545 40.6535 30.2838 37.9365C31.2919 35.8768 31.584 33.671 31.2626 31.4068C31.1165 30.4134 30.839 29.4055 30.4445 28.4852C29.8456 27.0975 28.7353 26.221 27.1868 26.1626C26.2519 26.1187 25.2731 26.1479 24.3819 26.4109C22.4244 26.9806 20.5398 27.0536 18.5969 26.4109C17.8957 26.1772 17.1214 26.1479 16.3618 26.1041C14.375 26.0019 12.8557 27.0536 12.1252 29.1133C11.2195 31.6551 11.2487 34.2115 12.1106 36.7532C13.104 39.7186 15.12 41.6468 18.144 42.421C19.2251 42.7132 20.3499 42.7862 21.2118 42.9177ZM4.76245 34.4014C3.50611 34.9272 2.27898 35.8329 1.69463 36.6656C0.99341 37.6735 0.978801 38.5938 1.70924 39.5579C2.04524 39.9961 2.45428 40.4052 2.89254 40.7411C4.51411 41.9828 6.41324 42.684 8.35619 43.2391C11.5409 44.1448 14.8132 44.583 18.1148 44.7437C22.775 44.9774 27.3913 44.6999 31.9346 43.6773C34.1844 43.166 36.3757 42.4649 38.3771 41.2524C39.1659 40.7704 39.8818 40.1861 40.4077 39.3972C40.9044 38.6376 40.9774 37.8634 40.5245 37.06C39.911 35.9498 38.9176 35.2924 37.8804 34.7081C37.7781 34.7812 37.7343 34.8104 37.7051 34.8542C35.7329 37.3229 33.264 39.1051 30.3861 40.3467C30.1085 40.4636 29.8602 40.6827 29.6411 40.9018C28.7792 41.7783 27.8004 42.4795 26.6901 42.9907C24.528 43.9695 22.2345 44.1594 19.9117 43.9549C17.3698 43.7357 15.1054 42.8447 13.2793 40.9895C13.0602 40.7704 12.768 40.6243 12.4905 40.5074C10.8835 39.8793 9.36419 39.0759 8.00558 37.9803C6.73463 36.9577 5.6828 35.7745 4.76245 34.4014ZM3.85671 26.7907C3.65219 29.5077 4.44106 31.8596 5.87271 34.0069C7.30437 36.1689 9.24732 37.7319 11.7308 38.8713C10.0362 35.3363 9.91932 31.8742 11.1318 28.3099C9.15967 27.2581 7.3628 25.8704 4.93776 26.1187C4.20732 25.067 3.46228 24.0006 2.67341 22.8904C2.24976 23.2264 1.89915 23.5039 1.51932 23.8107C2.33741 24.8625 3.09706 25.8266 3.85671 26.7907ZM32.2268 30.019C32.8258 32.9844 32.5482 35.7891 31.2772 38.5646C34.2866 37.2499 37.4859 33.9339 38.5962 31.027C38.7423 30.6472 38.8738 30.2381 38.9322 29.8437C39.1513 28.456 38.7277 28.0616 37.3252 28.3099C35.5576 28.6167 33.9506 29.3471 32.2268 30.019ZM20.6713 23.1972C20.4084 20.6992 17.8518 18.8002 15.9381 19.2531C16.1134 21.9847 18.0564 23.6062 20.6713 23.1972Z" fill="#106EE8"/>
<path d="M30.0647 6.28125C30.0647 6.64645 30.0647 6.99703 30.0647 7.37684C26.5001 7.37684 22.9648 7.37684 19.3711 7.37684C19.3711 7.01164 19.3711 6.66105 19.3711 6.28125C22.9502 6.28125 26.4855 6.28125 30.0647 6.28125Z" fill="#106EE8"/>
<path d="M19.3711 13.7607C19.3711 13.4101 19.3711 13.0595 19.3711 12.6797C22.9502 12.6797 26.4855 12.6797 30.0647 12.6797C30.0647 13.0449 30.0647 13.3663 30.0647 13.7607C26.5147 13.7607 22.9648 13.7607 19.3711 13.7607Z" fill="#106EE8"/>
<path d="M13.8783 8.39898C13.2648 7.77085 12.5782 7.08428 11.877 6.3685C12.0669 6.19321 12.3298 5.94487 12.6074 5.66732C13.0164 6.06174 13.4255 6.45615 13.9222 6.9236C14.8279 5.94487 15.7044 5.00997 16.6102 4.03125C16.9462 4.39645 17.1945 4.64478 17.3844 4.86389C16.2157 6.06174 15.0324 7.23036 13.8783 8.39898Z" fill="#106EE8"/>
<path d="M16.5948 10.415C16.9892 10.7948 17.2376 11.0286 17.4275 11.2039C16.2004 12.4309 15.0317 13.5995 13.9068 14.7243C13.3224 14.14 12.6358 13.4535 11.9492 12.7669C12.1099 12.6208 12.3729 12.3871 12.6797 12.1095C13.0303 12.4455 13.4393 12.8399 13.9068 13.2782C14.7979 12.3433 15.6598 11.4084 16.5948 10.415Z" fill="#106EE8"/>
<path d="M26.6016 28.4272C26.6016 28.0182 26.6016 27.7114 26.6016 27.3462C27.5219 27.2294 28.2962 27.5069 28.8659 28.1935C29.1873 28.5733 29.4356 29.0407 29.6109 29.5082C30.1515 30.8813 30.2829 32.3275 30.1515 33.8759C29.7716 33.8321 29.421 33.8029 29.0996 33.7737C29.0266 32.8972 28.9682 32.05 28.8805 31.2027C28.8367 30.8229 28.7198 30.4431 28.6029 30.0779C28.2962 29.143 27.7849 28.4126 26.6016 28.4272Z" fill="#106EE8"/>
</svg>
