<svg width="30" height="30" viewBox="0 0 30 30" fill="none" xmlns="http://www.w3.org/2000/svg">
<path d="M22.0389 0.361039C20.4651 0.590839 19.1556 1.27994 18.0414 2.47454C15.8991 4.76054 15.6349 8.17214 17.3983 10.8199C17.7658 11.377 18.5986 12.2098 19.1614 12.589C21.6139 14.2315 24.6981 14.1571 27.0528 12.388C27.2424 12.2443 27.6156 11.8942 27.8799 11.6125C30.0798 9.26354 30.3094 5.77154 28.4371 3.11234C27.0361 1.12484 24.4455 0.010639 22.0389 0.361039ZM23.2684 4.05974C23.3602 4.10564 23.4522 4.18604 23.4807 4.24364C23.5095 4.30094 23.5441 4.81214 23.5612 5.38094L23.5899 6.41474L24.6238 6.44354C25.1923 6.46064 25.7035 6.49514 25.7611 6.52394C25.8991 6.59294 26.0311 6.85694 26.0311 7.08104C26.0311 7.20734 25.9738 7.31654 25.8358 7.45424L25.6404 7.64954H24.6009H23.5614V8.67764C23.5614 9.61964 23.5501 9.71144 23.4466 9.84944C23.2744 10.0678 22.9873 10.1482 22.7401 10.039C22.3954 9.90134 22.3552 9.74024 22.3552 8.62604V7.64954H21.3787C20.2645 7.64954 20.1037 7.60934 19.9657 7.26464C19.8508 7.00034 19.9083 6.77084 20.1264 6.58694C20.2929 6.44324 20.3104 6.44324 21.3268 6.44324H22.3549V5.40374V4.36424L22.5502 4.16894C22.7686 3.95054 22.9924 3.91634 23.2684 4.05974Z" fill="#555E63"/>
<path d="M0.592727 2.8475C0.414527 2.9453 0.305627 3.152 0.299927 3.3875C0.299927 3.5369 0.351527 3.63441 0.495227 3.77811L0.690527 3.9734H2.39063C3.32693 3.9734 4.09073 3.9791 4.09073 3.9905C4.09073 4.1285 7.15193 19.2509 7.22093 19.4519C7.65743 20.7326 8.69123 21.7205 10.0925 22.1915L10.4945 22.3235L18.0644 22.3406L25.64 22.352L25.8353 22.1567C25.9733 22.019 26.0306 21.9098 26.0306 21.7835C26.0306 21.5594 25.8986 21.2954 25.7606 21.2264C25.7033 21.1976 22.2974 21.1631 18.1907 21.146L10.7243 21.1172L10.3166 20.9678C9.12773 20.5313 8.49023 19.7216 8.19743 18.2798C8.11703 17.8892 8.05373 17.5448 8.05373 17.5217C8.05373 17.4929 11.873 17.4641 16.5425 17.4584L25.0256 17.4413L25.4045 17.315C26.4269 16.9649 27.191 16.1321 27.4493 15.0866C27.5528 14.6558 27.5183 14.3801 27.3287 14.2022C27.1046 13.9955 26.8463 13.9898 26.4557 14.1851C24.0089 15.4199 20.8157 15.2132 18.4838 13.6739C16.3874 12.2954 15.1355 10.1129 15.0263 7.649C15.0092 7.2527 14.969 6.85641 14.9345 6.77031C14.8082 6.43131 14.9519 6.443 10.1903 6.443H5.83073L5.49773 4.76031C5.18753 3.23241 5.14733 3.0716 5.00393 2.9225L4.84883 2.7674H2.78693C1.19003 2.7728 0.701927 2.7899 0.592727 2.8475Z" fill="#555E63"/>
<path d="M10.1959 23.616C8.46703 23.9262 7.33573 25.6377 7.73773 27.3378C8.00203 28.4406 8.91523 29.3538 10.018 29.6181C11.9191 30.066 13.7512 28.6302 13.7569 26.6889C13.7626 25.3161 12.9988 24.225 11.7007 23.754C11.2813 23.5989 10.6267 23.5416 10.1959 23.616Z" fill="#555E63"/>
<path d="M22.5847 23.5931C21.3211 23.8172 20.3851 24.6269 20.0173 25.8101C19.8679 26.2925 19.891 27.1082 20.0689 27.6134C20.4307 28.6358 21.2119 29.348 22.2688 29.618C23.854 30.02 25.5598 28.9631 25.9447 27.3377C26.3008 25.8215 25.4449 24.2651 23.9689 23.7539C23.6014 23.6276 22.8718 23.5415 22.5847 23.5931Z" fill="#555E63"/>
</svg>
