<svg width="64" height="64" viewBox="0 0 64 64" fill="none" xmlns="http://www.w3.org/2000/svg">
<path d="M50.5268 50.5263C52.3136 50.5263 54.0271 51.2361 55.2905 52.4995C56.5539 53.7629 57.2637 55.4764 57.2637 57.2632C57.2637 59.0499 56.5539 60.7634 55.2905 62.0268C54.0271 63.2902 52.3136 64 50.5268 64C48.7401 64 47.0265 63.2902 45.7631 62.0268C44.4997 60.7634 43.7899 59.0499 43.7899 57.2632C43.7899 55.4764 44.4997 53.7629 45.7631 52.4995C47.0265 51.2361 48.7401 50.5263 50.5268 50.5263ZM50.5268 53.8947C49.6334 53.8947 48.7767 54.2496 48.145 54.8813C47.5133 55.513 47.1584 56.3698 47.1584 57.2632C47.1584 58.1565 47.5133 59.0133 48.145 59.645C48.7767 60.2767 49.6334 60.6316 50.5268 60.6316C51.4202 60.6316 52.277 60.2767 52.9087 59.645C53.5404 59.0133 53.8953 58.1565 53.8953 57.2632C53.8953 56.3698 53.5404 55.513 52.9087 54.8813C52.277 54.2496 51.4202 53.8947 50.5268 53.8947ZM20.2107 50.5263C21.9975 50.5263 23.711 51.2361 24.9744 52.4995C26.2379 53.7629 26.9476 55.4764 26.9476 57.2632C26.9476 59.0499 26.2379 60.7634 24.9744 62.0268C23.711 63.2902 21.9975 64 20.2107 64C18.424 64 16.7104 63.2902 15.447 62.0268C14.1836 60.7634 13.4738 59.0499 13.4738 57.2632C13.4738 55.4764 14.1836 53.7629 15.447 52.4995C16.7104 51.2361 18.424 50.5263 20.2107 50.5263ZM20.2107 53.8947C19.3174 53.8947 18.4606 54.2496 17.8289 54.8813C17.1972 55.513 16.8423 56.3698 16.8423 57.2632C16.8423 58.1565 17.1972 59.0133 17.8289 59.645C18.4606 60.2767 19.3174 60.6316 20.2107 60.6316C21.1041 60.6316 21.9609 60.2767 22.5926 59.645C23.2243 59.0133 23.5792 58.1565 23.5792 57.2632C23.5792 56.3698 23.2243 55.513 22.5926 54.8813C21.9609 54.2496 21.1041 53.8947 20.2107 53.8947ZM57.2637 10.1053H11.025L19.6044 30.3158H47.1584C47.6821 30.3166 48.1988 30.1945 48.6668 29.9593C49.1349 29.7241 49.5412 29.3824 49.8531 28.9617L59.9585 15.488H59.9619C60.3354 14.9873 60.5624 14.3926 60.6174 13.7703C60.6724 13.148 60.5533 12.5227 60.2734 11.9643C59.9935 11.4058 59.5637 10.9362 59.0322 10.6079C58.5007 10.2796 57.8884 10.1056 57.2637 10.1053ZM47.1584 33.6842H19.7594L17.1791 38.9389L16.8423 40.4211C16.8423 41.3144 17.1972 42.1712 17.8289 42.8029C18.4606 43.4346 19.3174 43.7895 20.2107 43.7895H57.2637V47.1579H20.2107C19.0377 47.1585 17.8849 46.8528 16.8663 46.271C15.8477 45.6893 14.9987 44.8517 14.4032 43.841C13.8077 42.8304 13.4864 41.6819 13.4711 40.509C13.4558 39.3361 13.747 38.1795 14.3159 37.1537L16.7412 32.1886L4.50699 3.36842H0V0H6.73691L9.59673 6.73684H57.2637C58.5366 6.73696 59.7834 7.09767 60.8596 7.77719C61.9359 8.45671 62.7977 9.42723 63.3451 10.5763C63.8925 11.7255 64.1032 13.0061 63.9528 14.2701C63.8023 15.534 63.2968 16.7294 62.4949 17.7179L52.6793 30.8076C52.0587 31.6962 51.2326 32.4218 50.2714 32.9226C49.3102 33.4234 48.2422 33.6847 47.1584 33.6842Z" fill="white"/>
</svg>
