<svg width="33" height="28" viewBox="0 0 33 28" fill="none" xmlns="http://www.w3.org/2000/svg">
<path d="M0.0507812 15.0367C0.0507812 13.1677 0.0507812 11.4177 0.0507812 9.61676C1.1558 9.0221 2.22734 8.42744 3.31562 7.84977C7.70223 5.5051 12.0888 3.14345 16.4754 0.781801C18.7357 -0.441501 20.6779 -0.237618 22.6703 1.42743C25.8012 4.02695 28.9488 6.60947 32.0797 9.192C32.3141 9.39588 32.5318 9.59977 32.7327 9.78666C32.7327 11.5537 32.7327 13.2697 32.7327 15.0537C32.3978 15.1046 32.0964 15.1896 31.8118 15.1896C28.3293 15.2066 24.8468 15.1896 21.3643 15.1896C17.1284 15.1896 12.8925 15.2066 8.65657 15.2236C6.09492 15.2236 3.53328 15.2066 0.971634 15.1896C0.687007 15.1896 0.419122 15.1046 0.0507812 15.0367ZM30.8072 9.5488C30.6901 9.39588 30.6733 9.32792 30.6231 9.31093C27.7936 6.96627 24.9138 4.67258 22.1345 2.29394C20.5104 0.900733 18.719 0.679859 16.7433 1.76724C12.7585 3.95899 8.69005 6.09976 4.65504 8.25753C3.9351 8.64831 3.21516 9.05608 2.31106 9.53181C11.9214 9.5488 21.3141 9.5488 30.8072 9.5488ZM1.02186 14.1022C11.3019 14.1022 21.5318 14.1022 31.8118 14.1022C31.8118 12.9129 31.8118 11.8085 31.8118 10.7041C30.6063 10.4833 1.59112 10.5682 1.02186 10.7721C1.02186 11.8765 1.02186 12.9638 1.02186 14.1022Z" fill="#90E0AB"/>
<path d="M0.117412 22.4609C10.9667 22.4609 21.8328 22.4609 32.6821 22.4609C33.1509 25.0944 31.9789 27.2352 29.7186 27.8299C29.1661 27.9828 28.5634 27.9828 27.9774 27.9828C20.0915 27.9828 12.1889 27.9318 4.3031 27.9998C1.8754 28.0338 -0.569041 25.808 0.117412 22.4609ZM1.17221 24.4998C1.18895 24.6697 1.17221 24.7716 1.18895 24.8396C1.70798 26.2498 2.87997 27.0313 4.52076 27.0313C11.8039 27.0313 19.0702 27.0313 26.3533 27.0313C27.1068 27.0313 27.8602 27.0483 28.6136 27.0313C30.1874 26.9634 31.3762 25.9779 31.6608 24.5677C28.2285 26.7595 25.2985 26.3857 22.6867 23.4294C22.2179 23.4294 21.7491 23.4294 21.297 23.4294C20.125 25.2473 18.4173 25.927 16.4249 25.927C14.399 25.927 12.6577 25.2304 11.536 23.4294C11.017 23.4294 10.5482 23.4294 10.0961 23.4294C8.35485 26.3517 3.76734 26.6745 1.17221 24.4998ZM1.67449 23.4124C3.09763 25.5022 7.75212 25.2473 8.77342 23.4124C6.42944 23.4124 4.10219 23.4124 1.67449 23.4124ZM19.9911 23.4294C17.5466 23.4294 15.2194 23.4294 12.8419 23.4294C14.2985 25.4172 18.5679 25.3153 19.9911 23.4294ZM23.9256 23.4124C25.2483 24.7716 26.7552 24.9925 28.3625 24.8566C29.6014 24.7546 30.7232 24.16 31.058 23.4124C28.7308 23.4124 26.4203 23.4124 23.9256 23.4124Z" fill="#90E0AB"/>
<path d="M16.592 18.7404C20.5433 18.7404 24.4946 18.7404 28.4626 18.7404C29.4337 18.7404 30.4215 18.7234 31.3926 18.7404C32.0958 18.7574 32.6316 19.1142 32.8827 19.7938C33.1171 20.4225 33.0669 21.0681 32.5814 21.5268C32.28 21.8157 31.8279 21.9686 31.4261 22.1215C31.175 22.2064 30.8736 22.1555 30.589 22.1555C21.2298 22.1555 11.8538 22.1555 2.49462 22.1555C2.19325 22.1555 1.87514 22.1555 1.59052 22.0875C0.686406 21.8836 0.200866 21.221 0.267837 20.3035C0.318065 19.42 0.920805 18.7914 1.84166 18.7574C2.94668 18.7064 4.06844 18.7234 5.19021 18.7234C9.00756 18.7234 12.8249 18.7234 16.6423 18.7234C16.592 18.7234 16.592 18.7404 16.592 18.7404ZM16.6088 19.7598C16.6088 19.7768 16.6088 19.7938 16.6088 19.8108C14.2983 19.8108 11.9878 19.8108 9.66053 19.8108C8.37133 19.8108 7.09888 19.7768 5.80969 19.7768C4.5205 19.7768 3.24805 19.7768 1.95886 19.7768C1.47332 19.7768 1.13846 20.0657 1.13846 20.4394C1.13846 20.8132 1.45657 21.0851 1.94211 21.1191C2.10954 21.136 2.27697 21.1191 2.4444 21.1191C11.8371 21.1191 21.2465 21.1191 30.6392 21.1191C30.8401 21.1191 31.0243 21.136 31.2252 21.1191C31.7107 21.0681 32.0289 20.7623 31.9786 20.3885C31.9284 19.9467 31.6103 19.7768 31.2085 19.7768C30.7062 19.7768 30.2039 19.7938 29.7016 19.7938C27.2739 19.7768 24.8462 19.7768 22.4353 19.7598C20.5098 19.7598 18.5677 19.7598 16.6088 19.7598Z" fill="#90E0AB"/>
<path d="M0.519531 16.0728C1.03856 15.3252 1.23947 15.2742 1.59107 15.784C2.04312 16.4126 2.51192 16.9903 3.21512 17.3471C3.78437 17.2621 4.25317 17.0073 4.60477 16.5145C4.82242 16.2257 5.09031 15.9709 5.39168 15.767C6.01116 15.3252 6.66413 15.3932 7.1999 15.9369C7.51801 16.2597 7.76915 16.6335 8.08726 16.9563C8.62303 17.5 8.97463 17.483 9.5104 16.9393C9.76154 16.6844 9.9792 16.3786 10.2471 16.1408C11.2851 15.2063 12.6246 15.3252 13.4784 16.4296C13.7128 16.7354 13.9472 17.0582 14.1481 17.2961C14.8346 17.517 15.2699 17.2961 15.6048 16.7864C15.7052 16.6505 15.8057 16.5145 15.9061 16.3786C16.8605 15.2912 18.0157 15.2912 18.9868 16.3786C19.2045 16.6335 19.4054 16.9053 19.6398 17.1602C20.1086 17.6869 20.4937 17.6869 20.9792 17.1772C21.2136 16.9393 21.4145 16.6675 21.5987 16.3786C22.2014 15.4442 23.7585 15.4102 24.3947 16.1238C24.6793 16.4466 24.9807 16.7184 25.2821 17.0243C26.0523 17.7888 26.5545 17.7548 27.174 16.8713C27.7433 16.0558 28.4297 15.5291 29.4845 15.682C30.2714 15.8009 30.7905 16.2597 31.2258 16.8713C31.4937 17.2451 31.795 17.6189 32.1131 18.0437C32.0629 18.6383 31.6778 18.8592 31.1923 18.4684C30.9244 18.2476 30.7235 17.9077 30.5226 17.6189C29.7524 16.4466 28.865 16.3956 27.9777 17.483C27.8605 17.6359 27.7433 17.8058 27.6093 17.9417C26.8726 18.7573 26.0523 18.8762 25.1649 18.2306C24.6961 17.8908 24.311 17.432 23.8589 17.0582C23.1055 16.4296 22.8376 16.4976 22.2014 17.2281C21.8163 17.6699 21.4145 18.1116 20.929 18.4005C20.2258 18.7912 19.5226 18.5874 18.9701 17.9757C18.7022 17.6869 18.4845 17.3471 18.2334 17.0582C17.7813 16.5315 17.3125 16.4806 16.7768 16.9393C16.5256 17.1602 16.3414 17.449 16.1238 17.7039C15.2699 18.7233 14.1481 18.7743 13.244 17.8058C13.0264 17.5849 12.8422 17.3301 12.658 17.0922C12.1223 16.4296 11.5865 16.3786 10.9503 16.9393C10.6322 17.2111 10.3308 17.517 10.0462 17.8058C9.34297 18.5194 8.28818 18.7063 7.48452 17.7888C7.26687 17.534 7.01573 17.2961 6.79807 17.0582C6.19533 16.4126 5.92745 16.3956 5.44191 17.1432C4.88939 17.9927 4.10248 18.3155 3.18163 18.2985C2.84678 18.2985 2.42821 18.1796 2.19381 17.9587C1.60781 17.3641 1.08879 16.7184 0.519531 16.0728Z" fill="#90E0AB"/>
<path d="M23.858 7.56086C23.5064 8.1895 23.3389 8.25746 22.9036 7.81572C21.6479 6.55844 20.2583 5.48805 18.7347 4.60455C18.584 4.5196 18.4836 4.33271 18.3496 4.1798C18.517 3.73805 18.7347 3.48319 19.17 3.73805C20.9112 4.70649 22.5018 5.87882 23.8077 7.40795C23.8412 7.44193 23.8412 7.50989 23.858 7.56086Z" fill="#90E0AB"/>
<path d="M15.3359 5.64069C15.5201 5.11399 15.8215 5.04603 16.2233 5.24991C17.4288 5.91253 18.4836 6.77903 19.3542 7.79845C19.0863 8.46107 18.8854 8.56301 18.4668 8.25719C17.479 7.49262 16.4912 6.71107 15.5201 5.94651C15.4364 5.89554 15.4029 5.75962 15.3359 5.64069Z" fill="#90E0AB"/>
<path d="M14.6328 9.24344C13.8291 8.49587 13.0589 7.78228 12.3223 7.08568C12.5399 6.49102 12.858 6.3381 13.2599 6.67791C13.8626 7.18762 14.4653 7.69733 15.0011 8.258C15.3694 8.66577 15.2857 8.85267 14.6328 9.24344Z" fill="#90E0AB"/>
</svg>
