<svg width="68" height="67" viewBox="0 0 68 67" fill="none" xmlns="http://www.w3.org/2000/svg">
<path d="M40.3869 43.9914C41.2635 41.8915 42.3216 39.9867 43.5761 38.2018C46.3722 34.2271 49.9695 31.1223 54.1713 28.6775C56.2571 27.4626 58.3127 26.1877 60.0962 24.5528C60.6252 24.0578 61.1088 23.5179 61.6227 22.9929C62.1366 22.468 62.7563 22.393 63.2249 22.8129C63.6632 23.2029 63.7085 23.8029 63.2551 24.3578C62.2122 25.6477 60.9728 26.7726 59.5974 27.6876C57.6023 29.0225 55.5467 30.2974 53.5365 31.6173C48.6092 34.857 44.8608 39.0717 42.5029 44.4863C41.8379 46.0012 41.7321 47.3211 42.4727 48.926C44.4678 53.2157 46.1002 57.6403 47.1733 62.26C47.4303 63.3699 47.5965 64.5098 47.7628 65.6497C47.8686 66.4147 47.5209 66.8796 46.8861 66.9696C46.2362 67.0596 45.7979 66.7147 45.677 65.9347C44.7701 59.5752 42.3367 53.7106 39.737 47.9211C38.1651 44.4413 36.3816 41.0516 34.719 37.6018C34.3109 36.7619 33.7668 36.042 33.1017 35.367C28.8848 31.1073 24.4714 27.0726 19.5441 23.6079C15.7654 20.9531 11.8054 18.6432 7.39202 17.1884C5.3818 16.5284 3.32623 16.0184 1.17998 16.1384C0.741656 16.1684 0.378908 16.0184 0.152191 15.6285C-0.104755 15.1935 -0.014068 14.7735 0.257992 14.3686C1.7241 12.1937 3.55295 10.4089 5.85035 9.10396C10.1126 6.67414 14.4807 6.71914 18.8941 8.624C19.8161 9.01397 20.723 9.47893 21.5694 10.0039C23.4587 11.1588 25.3178 12.3287 27.1617 13.5436C30.623 15.8535 32.7541 19.1682 34.1295 22.9929C35.0666 25.5877 35.6259 28.2725 35.8072 31.0323C35.8979 32.3222 35.8979 33.6271 35.9584 34.917C35.9735 35.187 36.0037 35.472 36.1246 35.697C37.4698 38.3818 38.8301 41.0516 40.1904 43.7214C40.2206 43.8114 40.2811 43.8564 40.3869 43.9914ZM6.12241 14.3686C6.13752 14.4286 6.15264 14.5036 6.16775 14.5636C6.22821 14.5936 6.28867 14.6385 6.36424 14.6685C9.00927 15.3435 11.5032 16.3934 13.9215 17.6533C19.6952 20.6681 24.7585 24.6278 29.5498 28.9775C30.9555 30.2524 32.3158 31.5723 33.6912 32.8772C33.7365 32.8172 33.7819 32.7722 33.7819 32.7422C33.7365 32.0972 33.6912 31.4523 33.6307 30.7923C33.2982 27.5076 32.5727 24.3428 31.0915 21.373C28.4767 16.1084 24.2144 13.2587 18.3198 12.7637C16.0677 12.5687 13.8308 12.7037 11.6241 13.1237C9.78011 13.4686 7.96637 13.9486 6.12241 14.3686ZM4.70165 12.6587C9.05461 11.2938 13.332 10.4239 17.7757 10.5589C13.2867 8.45901 8.28378 9.25395 4.70165 12.6587Z" fill="white"/>
<path d="M65.794 17.8637C64.5999 18.3437 63.4361 18.7937 62.2874 19.2886C59.2192 20.6085 56.1358 21.8834 53.0978 23.2933C50.4074 24.5382 47.8833 26.0981 45.6464 28.078C43.5757 29.9228 42.0491 32.0977 41.3539 34.7975C40.9458 36.3873 41.0062 38.0072 41.2934 39.6271C41.4294 40.452 41.0062 41.022 40.2505 40.992C39.7366 40.977 39.3588 40.722 39.253 40.2271C38.8298 38.1272 38.7844 36.0274 39.3436 33.9275C40.2959 30.3578 42.5781 27.718 45.4045 25.4982C48.6088 22.9783 52.2363 21.1935 55.9545 19.5886C59.4006 18.1187 62.8618 16.6938 66.3079 15.2539C67.2903 14.849 68.0007 15.2689 67.9856 16.3038C67.9705 19.4536 68.0914 22.6034 67.6833 25.7381C67.1089 30.1628 66.1114 34.4375 63.7686 38.3072C61.4712 42.0869 58.267 44.6067 53.8535 45.5367C50.8911 46.1666 47.9438 45.9416 45.0267 45.2817C44.3314 45.1317 43.9838 44.6067 44.1047 44.0368C44.2407 43.3918 44.8 43.1068 45.5557 43.2118C47.052 43.4218 48.5332 43.7218 50.0296 43.7518C55.3952 43.8568 59.4006 41.517 62.0758 36.9123C63.7233 34.0775 64.6151 31.0027 65.2045 27.823C65.794 24.6432 65.8847 21.4185 65.8242 18.1937C65.8393 18.1037 65.8091 18.0137 65.794 17.8637Z" fill="white"/>
<path d="M41.6117 19.3037C40.5688 21.8085 39.8433 24.3433 39.5713 26.9981C39.5108 27.6131 39.4806 28.243 39.4504 28.858C39.405 29.5329 39.0574 29.9079 38.4528 29.9379C37.8029 29.9529 37.3797 29.5629 37.3646 28.873C37.3343 27.1631 37.5157 25.4682 37.9389 23.8333C38.3772 22.1685 38.9818 20.5486 39.4655 18.8987C40.9165 13.9341 44.4986 10.6493 48.519 7.75454C53.1592 4.42479 58.3283 2.08496 63.6788 0.120108C64.1776 -0.0598788 64.6311 -0.0598788 65.0089 0.315093C65.3868 0.705064 65.3414 1.17003 65.1601 1.63499C64.0869 4.31979 62.636 6.79461 60.8676 9.08944C57.5877 13.3041 53.4917 16.4239 48.3528 18.0888C46.3425 18.7487 44.2568 19.1237 42.1407 19.2437C41.9745 19.2587 41.8233 19.2737 41.6117 19.3037ZM42.4581 17.1138C47.5215 16.6339 51.8744 14.864 55.6077 11.6542C58.3888 9.25443 60.535 6.38964 62.243 2.99989C61.9105 3.10488 61.7291 3.14988 61.5779 3.22488C58.6457 4.43979 55.774 5.75969 53.0534 7.37957C49.8945 9.23943 46.9471 11.3543 44.5288 14.1291C43.7429 14.999 43.0476 15.9289 42.4581 17.1138Z" fill="white"/>
</svg>
