<svg width="24" height="22" viewBox="0 0 24 22" fill="none" xmlns="http://www.w3.org/2000/svg">
<path d="M23.0058 7.96584L16.0143 7.02897L12.8889 1.18681C12.8035 1.02685 12.6631 0.897366 12.4896 0.818659C12.0546 0.620619 11.5259 0.785652 11.3083 1.18681L8.18292 7.02897L1.19141 7.96584C0.998651 7.99123 0.822417 8.07502 0.687488 8.20197C0.524367 8.35655 0.434479 8.56453 0.437578 8.7802C0.440676 8.99586 0.536505 9.20157 0.70401 9.35212L5.76246 13.8994L4.56738 20.3204C4.53936 20.4698 4.55728 20.6234 4.61913 20.7639C4.68097 20.9043 4.78426 21.026 4.91728 21.1151C5.0503 21.2042 5.20773 21.2571 5.37172 21.2679C5.53571 21.2787 5.69969 21.2469 5.84507 21.1761L12.0986 18.1446L18.3521 21.1761C18.5229 21.2599 18.7211 21.2878 18.9111 21.2573C19.3903 21.1812 19.7125 20.7622 19.6298 20.3204L18.4348 13.8994L23.4932 9.35212C23.6309 9.22771 23.7218 9.06521 23.7493 8.88749C23.8237 8.44317 23.4877 8.03186 23.0058 7.96584Z" fill="#FEA250"/>
</svg>
