<svg width="63" height="61" viewBox="0 0 63 61" fill="none" xmlns="http://www.w3.org/2000/svg">
<path d="M60.4728 21.8508L41.7938 19.1361L33.4438 2.20798C33.2157 1.7445 32.8405 1.3693 32.3771 1.14124C31.2147 0.567407 29.8022 1.0456 29.221 2.20798L20.8709 19.1361L2.19192 21.8508C1.67694 21.9243 1.20611 22.1671 0.845621 22.5349C0.409814 22.9829 0.169665 23.5855 0.177941 24.2104C0.186218 24.8353 0.442244 25.4314 0.889762 25.8676L14.4043 39.0437L11.2114 57.6492C11.1365 58.082 11.1844 58.5271 11.3497 58.9341C11.5149 59.341 11.7908 59.6936 12.1462 59.9517C12.5016 60.2098 12.9222 60.3632 13.3603 60.3944C13.7985 60.4256 14.2366 60.3335 14.625 60.1284L31.3324 51.3443L48.0398 60.1284C48.4959 60.3712 49.0256 60.4521 49.5332 60.3638C50.8133 60.1431 51.6741 58.9292 51.4533 57.6492L48.2605 39.0437L61.775 25.8676C62.1428 25.5071 62.3856 25.0363 62.4592 24.5213C62.6578 23.2338 61.7603 22.042 60.4728 21.8508Z" fill="#dcdcdc"/>
</svg>
