<svg width="21" height="21" viewBox="0 0 21 21" fill="none" xmlns="http://www.w3.org/2000/svg">
<path d="M20.0336 7.56783L13.8733 6.67254L11.1195 1.08969C11.0443 0.936837 10.9206 0.813097 10.7677 0.737882C10.3844 0.548633 9.91851 0.706341 9.72683 1.08969L6.97301 6.67254L0.812713 7.56783C0.642874 7.5921 0.487592 7.67216 0.368705 7.79348C0.224977 7.94121 0.145776 8.13995 0.148506 8.34604C0.151235 8.55213 0.235672 8.74871 0.383263 8.89258L4.84032 13.238L3.78732 19.3741C3.76263 19.5168 3.77842 19.6636 3.83292 19.7978C3.88741 19.932 3.97842 20.0483 4.09562 20.1334C4.21283 20.2186 4.35154 20.2691 4.49603 20.2794C4.64052 20.2897 4.78501 20.2594 4.91311 20.1917L10.4232 17.2948L15.9332 20.1917C16.0837 20.2718 16.2584 20.2985 16.4258 20.2694C16.8479 20.1966 17.1318 19.7962 17.059 19.3741L16.006 13.238L20.4631 8.89258C20.5844 8.77369 20.6645 8.61841 20.6887 8.44857C20.7542 8.02397 20.4582 7.63092 20.0336 7.56783Z" fill="#FEA250"/>
</svg>
