<svg width="71" height="70" viewBox="0 0 71 70" fill="none" xmlns="http://www.w3.org/2000/svg">
<path d="M35.5 69.1897C15.9206 69.1897 0 53.7499 0 34.6431C0 15.5363 15.9206 0 35.5 0C55.0794 0 71 15.5363 71 34.6431C70.9011 53.7499 55.0794 69.1897 35.5 69.1897Z" fill="#29A9E1"/>
<path d="M50.6898 18.338C50.238 18.3699 49.7945 18.4726 49.3766 18.6422H49.371C48.9698 18.7963 47.0626 19.5737 44.163 20.7521L33.7726 24.9923C26.3168 28.0338 18.9877 31.0288 18.9877 31.0288L19.075 30.9961C19.075 30.9961 18.5697 31.157 18.0418 31.5075C17.7157 31.7086 17.4351 31.9717 17.217 32.2808C16.958 32.6491 16.7497 33.2124 16.8271 33.7947C16.9538 34.7794 17.6125 35.37 18.0855 35.696C18.564 36.026 19.0201 36.1801 19.0201 36.1801H19.0313L25.9044 38.4237C26.2126 39.3825 27.9988 45.0726 28.4281 46.3832C28.6815 47.1661 28.9278 47.6557 29.236 48.0294C29.3852 48.2204 29.5598 48.3799 29.7695 48.5081C29.8785 48.5696 29.9948 48.6181 30.1158 48.6527L30.0454 48.6363C30.0665 48.6418 30.0834 48.6582 30.0989 48.6636C30.1552 48.6786 30.1932 48.6841 30.2649 48.695C31.353 49.0141 32.2271 48.3595 32.2271 48.3595L32.2763 48.3213L36.3343 44.7411L43.1355 49.797L43.2904 49.8611C44.7078 50.4639 46.1435 50.1284 46.9021 49.5365C47.6664 48.9405 47.9634 48.1781 47.9634 48.1781L48.0127 48.0553L53.2685 21.9659C53.4176 21.3222 53.4557 20.7193 53.291 20.1342C53.1211 19.5421 52.729 19.0328 52.1917 18.7063C51.7405 18.4405 51.2172 18.3122 50.6898 18.338V18.338ZM50.5477 21.134C50.542 21.2199 50.5589 21.2103 50.5195 21.3754V21.3904L45.313 47.2084C45.2905 47.2452 45.2525 47.3257 45.1483 47.4061C45.0385 47.4907 44.9513 47.5439 44.4938 47.3679L36.1752 41.1883L31.1503 45.6263L32.206 39.0934L45.7972 26.8186C46.3574 26.3139 46.1702 26.2075 46.1702 26.2075C46.2096 25.5883 45.3243 26.0261 45.3243 26.0261L28.186 36.3138L28.1804 36.2865L19.9659 33.6065V33.6011L19.9448 33.597C19.9592 33.5923 19.9733 33.5869 19.9871 33.5806L20.0321 33.5588L20.0757 33.5438C20.0757 33.5438 27.4104 30.5487 34.8662 27.5073C38.599 25.9839 42.36 24.4495 45.2525 23.2657C48.145 22.0887 50.283 21.2253 50.4041 21.179C50.5195 21.1353 50.4646 21.1353 50.5477 21.1353V21.134Z" fill="white"/>
</svg>
