<svg width="72" height="72" viewBox="0 0 72 72" fill="none" xmlns="http://www.w3.org/2000/svg">
<g clip-path="url(#clip0)">
<path d="M35.9 71.7C16.1 71.7 0 55.7 0 35.9C0 16.1 16.1 0 35.9 0C55.7 0 71.8 16.1 71.8 35.9C71.7 55.7 55.7 71.7 35.9 71.7Z" fill="#29A9E1"/>
<path d="M51.2608 19.0034C50.8039 19.0364 50.3554 19.1428 49.9328 19.3186H49.9271C49.5214 19.4783 47.5927 20.2839 44.6605 21.505L34.1529 25.8991C26.6131 29.0509 19.2015 32.1546 19.2015 32.1546L19.2897 32.1207C19.2897 32.1207 18.7787 32.2875 18.245 32.6507C17.9152 32.859 17.6314 33.1317 17.4108 33.4521C17.1489 33.8337 16.9383 34.4174 17.0166 35.0209C17.1447 36.0413 17.8108 36.6533 18.2891 36.9911C18.773 37.3331 19.2342 37.4928 19.2342 37.4928H19.2456L26.1961 39.8178C26.5078 40.8114 28.3141 46.7079 28.7482 48.0661C29.0045 48.8774 29.2536 49.3848 29.5653 49.772C29.7162 49.9699 29.8927 50.1352 30.1048 50.2681C30.215 50.3318 30.3326 50.3821 30.4549 50.4179L30.3837 50.401C30.4051 50.4066 30.4222 50.4236 30.4378 50.4292C30.4948 50.4448 30.5332 50.4504 30.6058 50.4617C31.7061 50.7925 32.59 50.114 32.59 50.114L32.6398 50.0745L36.7435 46.3644L43.6214 51.6037L43.778 51.6701C45.2113 52.2948 46.6632 51.9472 47.4304 51.3338C48.2033 50.7161 48.5037 49.9261 48.5037 49.9261L48.5535 49.7989L53.8685 22.7629C54.0194 22.0958 54.0578 21.4711 53.8913 20.8648C53.7195 20.2511 53.323 19.7233 52.7796 19.385C52.3233 19.1095 51.7941 18.9766 51.2608 19.0034ZM51.117 21.9007C51.1114 21.9898 51.1284 21.9799 51.0886 22.1509V22.1665L45.8234 48.9212C45.8006 48.9593 45.7622 49.0427 45.6569 49.1261C45.5458 49.2137 45.4576 49.2689 44.995 49.0865L36.5827 42.6826L31.5011 47.2817L32.5687 40.5117L46.3131 27.7916C46.8796 27.2687 46.6903 27.1584 46.6903 27.1584C46.7301 26.5167 45.8348 26.9704 45.8348 26.9704L28.5034 37.6313L28.4977 37.6031L20.1907 34.8258V34.8202L20.1694 34.8159C20.184 34.8111 20.1982 34.8055 20.2121 34.799L20.2576 34.7764L20.3018 34.7608C20.3018 34.7608 27.7191 31.6571 35.2589 28.5053C39.0338 26.9266 42.8371 25.3366 45.7622 24.1098C48.6873 22.8901 50.8494 21.9954 50.9719 21.9474C51.0886 21.9022 51.0331 21.9022 51.117 21.9022V21.9007Z" fill="white"/>
</g>
<defs>
<clipPath id="clip0">
<rect width="71.7" height="71.7" fill="white"/>
</clipPath>
</defs>
</svg>
