<svg width="49" height="72" viewBox="0 0 49 72" fill="none" xmlns="http://www.w3.org/2000/svg">
<path d="M16.6375 34.4619H30.8958L48.7201 0H34.4618L16.6375 34.4619Z" fill="#006CA2"/>
<path d="M25.5469 17.2281L18.4206 31.0184L20.2035 34.4618H30.8959L32.6789 31.0184L25.5469 17.2281Z" fill="#2F2F2F"/>
<path d="M32.0325 42.7802H17.7742V34.4614H32.0325V42.7802ZM32.0325 30.8954H17.7742C16.8284 30.8954 15.9214 31.2711 15.2527 31.9399C14.5839 32.6086 14.2082 33.5157 14.2082 34.4614V42.7802C14.2082 44.7526 15.8018 46.3462 17.7742 46.3462H32.0325C34.005 46.3462 35.5985 44.7526 35.5985 42.7802V34.4614C35.5985 32.489 34.005 30.8954 32.0325 30.8954Z" fill="#F79329"/>
<path d="M42.7305 53.4733C42.7305 63.3187 34.7516 71.2976 24.9061 71.2976C15.0607 71.2976 7.08179 63.3187 7.08179 53.4733C7.08179 43.6278 15.0607 35.6489 24.9061 35.6489C34.7516 35.6489 42.7305 43.6334 42.7305 53.4733Z" fill="#F79329"/>
<path d="M12.9546 49.1384C12.7206 49.1384 12.4865 49.0938 12.2637 48.9935C11.4056 48.6257 10.9933 47.6284 11.3276 46.7592C11.3332 46.7425 11.3387 46.7313 11.3443 46.7202C11.3499 46.6923 11.3499 46.6979 11.3666 46.6756C12.1467 44.8223 13.3556 43.1806 14.8938 41.8856C16.432 40.5905 18.2556 39.679 20.2147 39.226C20.4097 39.1815 20.6159 39.2762 20.705 39.4601C20.7942 39.6439 20.744 39.8668 20.5824 39.995C17.9804 42.0621 15.9021 44.8536 14.5704 48.0574C14.5704 48.063 14.5648 48.0686 14.5648 48.0686C14.5648 48.0741 14.5648 48.0741 14.5593 48.0797C14.3754 48.5087 14.0355 48.843 13.6009 49.0102C13.3948 49.0993 13.1719 49.1384 12.9546 49.1384" fill="white"/>
<path d="M32.0827 34.4619H17.8243L0 0H14.2583L32.0827 34.4619Z" fill="#006CA2"/>
<path d="M24.7502 62.3209H24.8394C25.8479 62.3042 27.759 62.0813 29.2188 60.7719C30.4335 59.6798 30.9962 58.1866 30.7678 56.671C30.5505 55.2613 29.6646 54.0634 28.3106 53.3223C29.6088 52.3473 30.3889 51.127 30.5226 49.8567C30.6564 48.6253 30.1716 47.3995 29.1297 46.3074C28.0822 45.2097 26.6669 44.6303 25.0455 44.6303C22.5438 44.6303 20.2426 45.9508 19.5461 46.9091C19.4848 46.9872 19.4848 47.0986 19.5405 47.1877L21.0951 49.4332C21.1341 49.4889 21.1898 49.5279 21.2567 49.5335C21.3179 49.5446 21.3904 49.5279 21.4405 49.4833C21.4572 49.4722 23.1455 48.0848 24.5886 48.0848C25.2461 48.0848 25.7308 48.3745 26.0763 48.9652C26.3605 49.461 26.4162 49.9124 26.2435 50.347C25.7698 51.5171 23.764 52.1132 23.7473 52.1188C23.647 52.1467 23.5745 52.2414 23.5745 52.3473V54.3253C23.5745 54.4367 23.647 54.5314 23.7584 54.5537C23.7807 54.5593 25.6863 55.0329 26.1209 56.125C26.2936 56.554 26.2045 57.0388 25.8646 57.5681C25.5024 58.1253 24.9564 58.4094 24.2376 58.4094C22.8446 58.4094 21.1396 57.3508 20.393 56.6877C20.3681 56.6656 20.339 56.6488 20.3074 56.6383C20.2758 56.6278 20.2423 56.6237 20.2091 56.6264C20.1367 56.632 20.081 56.671 20.042 56.7267L18.4874 58.9722C18.4262 59.0613 18.4317 59.1783 18.5042 59.2619C18.5989 59.3901 21.1396 62.3209 24.7502 62.3209" fill="#AE3D09"/>
</svg>
