<svg width="61" height="57" viewBox="0 0 61 57" fill="none" xmlns="http://www.w3.org/2000/svg">
<path d="M30.2971 27.0805C35.7721 27.0805 40.0305 22.6194 40.0305 17.1444C40.0305 11.6694 35.5694 7.41107 30.0944 7.41107C24.6194 7.41107 20.361 11.8722 20.361 17.1444C20.361 22.6194 24.8221 27.0805 30.2971 27.0805ZM30.0944 11.4666C30.2971 11.4666 30.2971 11.4666 30.0944 11.4666C33.3388 11.4666 35.9749 14.1027 35.9749 17.3472C35.9749 20.5916 33.3388 23.025 30.0944 23.025C26.8499 23.025 24.4166 20.3889 24.4166 17.3472C24.4166 14.1027 27.0527 11.4666 30.0944 11.4666V11.4666Z" fill="#0FC1A1"/>
<path d="M60.3082 25.8639C56.4554 22.4167 51.386 20.5917 46.1138 20.7945H44.4915C44.086 22.4167 43.4777 23.8362 42.6665 25.0528C43.8832 24.8501 44.8971 24.8501 46.1138 24.8501C49.9665 24.6473 53.8193 25.8639 56.861 28.0945V42.6945H60.9165V26.4723L60.3082 25.8639Z" fill="#0FC1A1"/>
<path d="M41.4499 7.81664C42.4638 5.38331 45.3027 4.16664 47.9388 5.18053C50.3721 6.19442 51.5888 9.03331 50.5749 11.6694C49.7638 13.4944 47.9388 14.7111 46.1138 14.7111C45.7082 14.7111 45.0999 14.7111 44.6944 14.5083C44.8971 15.5222 44.8971 16.5361 44.8971 17.3472V18.5639C45.3027 18.5639 45.7082 18.7666 46.1138 18.7666C51.1832 18.7666 55.2388 14.7111 55.2388 9.84442C55.2388 4.77498 51.1832 0.719421 46.3166 0.719421C43.0721 0.719421 40.2332 2.34164 38.611 5.18053C39.6249 5.78887 40.6388 6.59998 41.4499 7.81664V7.81664Z" fill="#0FC1A1"/>
<path d="M18.3335 25.2556C17.5223 24.0389 16.914 22.6194 16.5085 20.9972H14.8862C9.61402 20.7944 4.54457 22.6194 0.691795 25.8639L0.0834618 26.4722V42.6944H4.13902V28.0944C7.38346 25.8639 11.0335 24.6472 14.8862 24.85C16.1029 24.85 17.3196 25.0528 18.3335 25.2556Z" fill="#0FC1A1"/>
<path d="M14.886 18.5639C15.2915 18.5639 15.6971 18.5639 16.1026 18.3611V17.1444C16.1026 16.1305 16.1026 15.1166 16.3054 14.3055C15.8998 14.5083 15.2915 14.5083 14.886 14.5083C12.2498 14.5083 10.0193 12.2778 10.0193 9.64165C10.0193 7.00554 12.2498 4.77498 14.886 4.77498C16.9137 4.77498 18.7387 5.99165 19.5498 7.81665C20.361 6.80276 21.5776 5.78887 22.5915 4.97776C19.9554 0.719429 14.4804 -0.700015 10.2221 1.9361C5.96374 4.57221 4.54429 10.0472 7.1804 14.3055C8.80263 16.9416 11.6415 18.5639 14.886 18.5639V18.5639Z" fill="#0FC1A1"/>
<path d="M46.9252 38.0305L46.5196 37.4222C42.4641 32.9611 36.7863 30.325 30.7029 30.5278C24.6196 30.325 18.7391 32.9611 14.6835 37.4222L14.2779 38.0305V53.4416C14.2779 55.2666 15.6974 56.8889 17.7252 56.8889H43.6807C45.5057 56.8889 47.1279 55.2666 47.1279 53.4416V38.0305H46.9252ZM42.8696 52.8333H18.3335V39.45C21.5779 36.2055 26.0391 34.5833 30.7029 34.5833C35.1641 34.3805 39.6252 36.2055 42.8696 39.45V52.8333Z" fill="#0FC1A1"/>
</svg>
