<svg width="42" height="34" viewBox="0 0 42 34" fill="none" xmlns="http://www.w3.org/2000/svg">
<path fill-rule="evenodd" clip-rule="evenodd" d="M34.8502 1.84945C35.5499 1.15581 36.4946 0.765428 37.4798 0.76271C38.4651 0.759991 39.4119 1.14515 40.1155 1.83492C40.819 2.52469 41.2229 3.46365 41.2396 4.44879C41.2564 5.43393 40.8848 6.3861 40.2052 7.09945L20.2452 32.0495C19.9021 32.4189 19.4881 32.7155 19.0278 32.9213C18.5676 33.1271 18.0705 33.238 17.5664 33.2473C17.0623 33.2567 16.5615 33.1643 16.094 32.9756C15.6264 32.787 15.2017 32.506 14.8452 32.1495L1.62018 18.9194C1.25174 18.5761 0.956233 18.1621 0.751273 17.7021C0.546313 17.2421 0.436103 16.7456 0.427219 16.2421C0.418335 15.7385 0.51096 15.2384 0.699565 14.7715C0.88817 14.3045 1.16889 13.8804 1.52499 13.5243C1.88108 13.1682 2.30525 12.8874 2.77219 12.6988C3.23913 12.5102 3.73928 12.4176 4.24279 12.4265C4.74631 12.4354 5.24287 12.5456 5.70287 12.7505C6.16287 12.9555 6.57687 13.251 6.92018 13.6194L17.3902 24.0844L34.7552 1.95945C34.7862 1.92072 34.8196 1.88398 34.8552 1.84945H34.8502Z" fill="white"/>
</svg>
