<svg width="21" height="22" viewBox="0 0 21 22" fill="none" xmlns="http://www.w3.org/2000/svg">
<path d="M15.8322 20.7783H5.16883C4.94436 20.7727 4.72314 20.7209 4.51779 20.6257C4.31245 20.5306 4.12701 20.394 3.97208 20.2237C3.81715 20.0535 3.69576 19.8529 3.61484 19.6335C3.53393 19.4141 3.49507 19.1801 3.5005 18.9449V6.86328H4.66717V18.9449C4.6616 19.0196 4.67018 19.0947 4.69241 19.1659C4.71464 19.2371 4.75008 19.303 4.7967 19.3598C4.84332 19.4166 4.9002 19.4632 4.96407 19.4968C5.02793 19.5305 5.09752 19.5506 5.16883 19.5561H15.8322C15.9035 19.5506 15.9731 19.5305 16.0369 19.4968C16.1008 19.4632 16.1577 19.4166 16.2043 19.3598C16.2509 19.303 16.2864 19.2371 16.3086 19.1659C16.3308 19.0947 16.3394 19.0196 16.3338 18.9449V6.86328H17.5005V18.9449C17.5059 19.1801 17.4671 19.4141 17.3862 19.6335C17.3052 19.8529 17.1838 20.0535 17.0289 20.2237C16.874 20.394 16.6886 20.5306 16.4832 20.6257C16.2779 20.7209 16.0566 20.7727 15.8322 20.7783Z" fill="white"/>
<path d="M17.9557 5.49957H2.91732C2.76261 5.49957 2.61424 5.43518 2.50484 5.32058C2.39544 5.20597 2.33398 5.05053 2.33398 4.88845C2.33398 4.72638 2.39544 4.57094 2.50484 4.45633C2.61424 4.34173 2.76261 4.27734 2.91732 4.27734H17.9557C18.1104 4.27734 18.2587 4.34173 18.3681 4.45633C18.4775 4.57094 18.539 4.72638 18.539 4.88845C18.539 5.05053 18.4775 5.20597 18.3681 5.32058C18.2587 5.43518 18.1104 5.49957 17.9557 5.49957Z" fill="white"/>
<path d="M12.25 7.94434H13.4167V17.111H12.25V7.94434Z" fill="white"/>
<path d="M7.58398 7.94434H8.75065V17.111H7.58398V7.94434Z" fill="white"/>
<path d="M13.4173 3.58155H12.309V2.44488H8.69232V3.58155H7.58399V2.44488C7.58361 2.13104 7.69849 1.82908 7.90482 1.60154C8.11115 1.37401 8.39312 1.23835 8.69232 1.22266H12.309C12.6082 1.23835 12.8902 1.37401 13.0965 1.60154C13.3028 1.82908 13.4177 2.13104 13.4173 2.44488V3.58155Z" fill="white"/>
</svg>
