<svg width="26" height="31" viewBox="0 0 26 31" fill="none" xmlns="http://www.w3.org/2000/svg">
<path d="M21.1246 30.1674H4.87569C4.53363 30.1591 4.19653 30.0813 3.88362 29.9386C3.57072 29.7959 3.28815 29.591 3.05207 29.3356C2.81598 29.0802 2.631 28.7794 2.5077 28.4502C2.3844 28.1211 2.32519 27.7702 2.33346 27.4174V9.29492H4.11124V27.4174C4.10276 27.5294 4.11583 27.6421 4.1497 27.7489C4.18358 27.8557 4.23759 27.9545 4.30863 28.0397C4.37967 28.1249 4.46634 28.1947 4.56366 28.2453C4.66098 28.2958 4.76702 28.326 4.87569 28.3341H21.1246C21.2332 28.326 21.3393 28.2958 21.4366 28.2453C21.5339 28.1947 21.6206 28.1249 21.6916 28.0397C21.7627 27.9545 21.8167 27.8557 21.8506 27.7489C21.8844 27.6421 21.8975 27.5294 21.889 27.4174V9.29492H23.6668V27.4174C23.6751 27.7702 23.6159 28.1211 23.4926 28.4502C23.3693 28.7794 23.1843 29.0802 22.9482 29.3356C22.7121 29.591 22.4295 29.7959 22.1166 29.9386C21.8037 30.0813 21.4666 30.1591 21.1246 30.1674V30.1674Z" fill="#FF3D00"/>
<path d="M24.36 7.24935H1.44443C1.20868 7.24935 0.982591 7.15277 0.815892 6.98086C0.649193 6.80895 0.555542 6.5758 0.555542 6.33268C0.555542 6.08957 0.649193 5.85641 0.815892 5.6845C0.982591 5.51259 1.20868 5.41602 1.44443 5.41602H24.36C24.5957 5.41602 24.8218 5.51259 24.9885 5.6845C25.1552 5.85641 25.2489 6.08957 25.2489 6.33268C25.2489 6.5758 25.1552 6.80895 24.9885 6.98086C24.8218 7.15277 24.5957 7.24935 24.36 7.24935Z" fill="#FF3D00"/>
<path d="M15.6667 10.916H17.4445V24.666H15.6667V10.916Z" fill="#FF3D00"/>
<path d="M8.55554 10.916H10.3333V24.666H8.55554V10.916Z" fill="#FF3D00"/>
<path d="M17.4444 4.37232H15.7555V2.66732H10.2444V4.37232H8.55554V2.66732C8.55497 2.19656 8.73002 1.74362 9.04443 1.40232C9.35884 1.06102 9.78851 0.857522 10.2444 0.833984H15.7555C16.2115 0.857522 16.6411 1.06102 16.9555 1.40232C17.27 1.74362 17.445 2.19656 17.4444 2.66732V4.37232Z" fill="#FF3D00"/>
</svg>
