<svg width="72" height="72" viewBox="0 0 72 72" fill="none" xmlns="http://www.w3.org/2000/svg">
<path d="M35.9 71.7C16.1 71.7 0 55.7 0 35.9C0 16.1 16.1 0 35.9 0C55.7 0 71.8 16.1 71.8 35.9C71.7 55.7 55.7 71.7 35.9 71.7Z" fill="#29A9E1"/>
<path d="M16.8008 47.8998C20.3008 50.0998 24.4008 51.3998 28.8008 51.3998C43.4008 51.3998 51.6008 39.0998 51.1008 28.0998C52.6008 26.9998 54.0008 25.5998 55.0008 23.9998C53.6008 24.5998 52.1008 24.9998 50.5008 25.1998C52.1008 24.1998 53.4008 22.6998 53.9008 20.8998C52.4008 21.7998 50.7008 22.4998 48.9008 22.7998C47.5008 21.2998 45.4008 20.2998 43.2008 20.2998C38.1008 20.2998 34.4008 24.9998 35.6008 29.8998C29.1008 29.5998 23.3008 26.4998 19.4008 21.6998C17.3008 25.1998 18.3008 29.7998 21.8008 32.1998C20.5008 32.1998 19.3008 31.7998 18.2008 31.1998C18.1008 34.7998 20.7008 38.1998 24.5008 38.9998C23.4008 39.2998 22.2008 39.3998 21.0008 39.0998C22.0008 42.1998 24.9008 44.4998 28.3008 44.4998C25.1008 47.1998 20.9008 48.3998 16.8008 47.8998Z" fill="white"/>
</svg>
