<svg width="30" height="32" viewBox="0 0 30 32" fill="none" xmlns="http://www.w3.org/2000/svg">
<path d="M28.823 26.1146C28.0705 24.3183 26.9784 22.6866 25.6076 21.3106C24.241 19.9305 22.6221 18.8302 20.8404 18.0704C20.8244 18.0623 20.8085 18.0583 20.7925 18.0503C23.2779 16.2412 24.8936 13.2945 24.8936 9.96985C24.8936 4.46231 20.4654 0 15 0C9.53461 0 5.10645 4.46231 5.10645 9.96985C5.10645 13.2945 6.72213 16.2412 9.20749 18.0543C9.19153 18.0623 9.17557 18.0663 9.15961 18.0744C7.37239 18.8342 5.76868 19.9236 4.39236 21.3146C3.02286 22.6917 1.93096 24.3231 1.17695 26.1186C0.436223 27.8764 0.0367296 29.761 9.97573e-05 31.6704C-0.000965016 31.7133 0.00650313 31.7559 0.0220644 31.7959C0.0376256 31.8358 0.0609649 31.8723 0.0907071 31.903C0.120449 31.9337 0.155993 31.9581 0.195243 31.9748C0.234493 31.9914 0.276656 32 0.319247 32H2.71285C2.88838 32 3.02801 31.8593 3.03199 31.6864C3.11178 28.5829 4.34847 25.6764 6.53463 23.4734C8.79658 21.194 11.8006 19.9397 15 19.9397C18.1994 19.9397 21.2034 21.194 23.4654 23.4734C25.6515 25.6764 26.8882 28.5829 26.968 31.6864C26.972 31.8633 27.1116 32 27.2872 32H29.6808C29.7233 32 29.7655 31.9914 29.8048 31.9748C29.844 31.9581 29.8796 31.9337 29.9093 31.903C29.939 31.8723 29.9624 31.8358 29.9779 31.7959C29.9935 31.7559 30.001 31.7133 29.9999 31.6704C29.96 29.7487 29.5651 27.8794 28.823 26.1146ZM15 16.8844C13.1689 16.8844 11.4455 16.1648 10.149 14.8583C8.85243 13.5518 8.13834 11.8151 8.13834 9.96985C8.13834 8.12462 8.85243 6.38794 10.149 5.08141C11.4455 3.77487 13.1689 3.05528 15 3.05528C16.8311 3.05528 18.5545 3.77487 19.851 5.08141C21.1476 6.38794 21.8617 8.12462 21.8617 9.96985C21.8617 11.8151 21.1476 13.5518 19.851 14.8583C18.5545 16.1648 16.8311 16.8844 15 16.8844Z" fill="white"/>
</svg>
