<svg width="34" height="34" viewBox="0 0 34 34" fill="none" xmlns="http://www.w3.org/2000/svg">
<path d="M13.0794 0C8.03731 0 3.92383 4.06872 3.92383 9.05597C3.92383 12.1738 5.5326 14.9424 7.97061 16.5763C3.30517 18.5557 0 23.1354 0 28.4616H2.61589C2.61589 22.7305 7.28525 18.1119 13.0794 18.1119C15.885 18.1119 18.3936 19.2491 20.2731 21.0228L14.1009 27.1278L14.0198 27.5314L13.12 32.1008L12.7119 34L14.6333 33.5964L19.2503 32.7063L19.6597 32.6261L32.8621 19.5674C34.3793 18.0667 34.3793 15.5698 32.8621 14.0691C32.1299 13.3507 31.1425 12.9443 30.1112 12.9368C29.08 12.9293 28.0867 13.3213 27.3439 14.029L22.154 19.1637C21.0009 18.0714 19.6573 17.1947 18.1883 16.5763C19.4328 15.7453 20.4524 14.6253 21.1579 13.3143C21.8633 12.0032 22.2332 10.5411 22.235 9.05597C22.235 4.06872 18.1216 0 13.0794 0ZM13.0794 2.58742C16.7064 2.58742 19.6192 5.46851 19.6192 9.05597C19.6192 12.6434 16.7064 15.5245 13.0794 15.5245C9.45251 15.5245 6.53972 12.6434 6.53972 9.05597C6.53972 5.46851 9.45251 2.58742 13.0794 2.58742ZM30.0827 15.5245C30.4149 15.5245 30.7628 15.6306 31.0231 15.8881C31.1466 16.0059 31.2448 16.1472 31.3119 16.3035C31.379 16.4597 31.4136 16.6278 31.4136 16.7975C31.4136 16.9673 31.379 17.1353 31.3119 17.2916C31.2448 17.4478 31.1466 17.5891 31.0231 17.707L18.3518 30.2405L16.0223 30.7256L16.5128 28.4215L29.1842 15.8881C29.4444 15.6306 29.7505 15.5245 30.0827 15.5245Z" fill="#0FC1A1"/>
</svg>
