<svg width="29" height="26" viewBox="0 0 29 26" fill="none" xmlns="http://www.w3.org/2000/svg">
<path d="M29 6.78017C29 6.57471 28.9764 6.36458 28.9292 6.14978C28.882 5.93499 28.7923 5.68283 28.6602 5.39332C28.528 5.10381 28.3014 4.83764 27.9805 4.59483C27.6595 4.35201 27.263 4.16523 26.791 4.03448L6.31543 0C5.82454 0 5.37142 0.121408 4.95605 0.364224C4.54069 0.60704 4.21029 0.933908 3.96484 1.34483C3.7194 1.75575 3.59668 2.20402 3.59668 2.68966V6.27586H2.69043C1.9541 6.29454 1.32161 6.56537 0.792969 7.08836C0.264323 7.61135 0 8.23707 0 8.96552V23.3103C0 24.0575 0.264323 24.6925 0.792969 25.2155C1.32161 25.7385 1.96354 26 2.71875 26H26.2812C27.0365 26 27.6784 25.7385 28.207 25.2155C28.7357 24.6925 29 24.0575 29 23.3103V6.78017ZM5.40918 2.68966C5.40918 2.44684 5.48942 2.24138 5.6499 2.07328C5.81038 1.90517 6.01335 1.81178 6.25879 1.7931L26.2529 5.79957L26.1821 5.92565L25.8989 6.1778L25.375 6.27586H5.40918V2.68966ZM27.1875 23.3103C27.1875 23.5532 27.0978 23.7633 26.9185 23.9407C26.7391 24.1182 26.5267 24.2069 26.2812 24.2069H2.71875C2.47331 24.2069 2.26091 24.1182 2.08154 23.9407C1.90218 23.7633 1.8125 23.5532 1.8125 23.3103V8.96552C1.8125 8.7227 1.90218 8.51257 2.08154 8.33513C2.26091 8.15769 2.47331 8.06897 2.71875 8.06897H25.375C25.8659 8.06897 26.2907 7.98958 26.6494 7.83082C27.0081 7.67205 27.1875 7.45259 27.1875 7.17241V23.3103ZM5.42334 14.3448C4.92301 14.3448 4.49821 14.5223 4.14893 14.8772C3.79964 15.232 3.625 15.657 3.625 16.1519C3.625 16.6469 3.79964 17.0672 4.14893 17.4127C4.49821 17.7583 4.92301 17.931 5.42334 17.931C5.92367 17.931 6.35319 17.7583 6.71191 17.4127C7.07064 17.0672 7.25 16.6469 7.25 16.1519C7.25 15.657 7.07064 15.232 6.71191 14.8772C6.35319 14.5223 5.92367 14.3448 5.42334 14.3448Z" fill="black"/>
</svg>
