<svg width="38" height="33" viewBox="0 0 38 33" fill="none" xmlns="http://www.w3.org/2000/svg">
<path d="M16.1493 3.4327L2.03264 26.9994C1.74158 27.5034 1.58758 28.0749 1.58595 28.6569C1.58432 29.2389 1.73512 29.8112 2.02335 30.3169C2.31157 30.8226 2.72718 31.2439 3.22882 31.5391C3.73045 31.8343 4.30063 31.993 4.88264 31.9994H33.116C33.698 31.993 34.2682 31.8343 34.7698 31.5391C35.2714 31.2439 35.687 30.8226 35.9753 30.3169C36.2635 29.8112 36.4143 29.2389 36.4127 28.6569C36.411 28.0749 36.257 27.5034 35.966 26.9994L21.8493 3.4327C21.5522 2.94288 21.1338 2.5379 20.6346 2.25684C20.1354 1.97578 19.5722 1.82812 18.9993 1.82812C18.4264 1.82813 17.8632 1.97578 17.364 2.25684C16.8648 2.5379 16.4464 2.94288 16.1493 3.4327V3.4327Z" stroke="#FEA250" stroke-width="2" stroke-linecap="round" stroke-linejoin="round"/>
<path d="M19 12V18.6667" stroke="#FEA250" stroke-width="2" stroke-linecap="round" stroke-linejoin="round"/>
<path d="M19 25.334H19.0167" stroke="#FEA250" stroke-width="2" stroke-linecap="round" stroke-linejoin="round"/>
</svg>
