<svg width="28" height="54" viewBox="0 0 28 54" fill="none" xmlns="http://www.w3.org/2000/svg">
<path d="M18.9356 6.38736L14.9311 0.232149C14.8848 0.16097 14.8211 0.1024 14.7457 0.0618318C14.6704 0.0212632 14.5859 0 14.5 0C14.4141 0 14.3296 0.0212632 14.2543 0.0618318C14.1789 0.1024 14.1152 0.16097 14.0689 0.232149L10.0643 6.38742C9.37006 7.31423 8.99694 8.43611 9.00002 9.58752C9.00002 12.5719 11.4673 15 14.5 15C17.5327 15 20 12.572 20 9.58752C20.0031 8.43608 19.6299 7.31416 18.9356 6.38736ZM14.5 13.9924C12.0319 13.9924 10.0239 12.0164 10.0239 9.58752C10.0212 8.64587 10.3279 7.72858 10.898 6.97234C10.9048 6.96327 10.9113 6.95399 10.9175 6.94451L14.5 1.4381L18.0824 6.94454C18.0886 6.95405 18.095 6.96332 18.1019 6.97237C18.6721 7.72859 18.9787 8.64586 18.9761 9.58752C18.9761 12.0164 16.9681 13.9924 14.5 13.9924Z" fill="black"/>
<path d="M22.5764 52.5278H6.08333L0.805555 17.8056H27.1944L22.5764 52.5278Z" stroke="black" stroke-miterlimit="10" stroke-linecap="round" stroke-linejoin="round"/>
<path d="M3.19093 32.7221H25.0034" stroke="black" stroke-miterlimit="10"/>
</svg>
