<svg width="27" height="53" viewBox="0 0 27 53" fill="none" xmlns="http://www.w3.org/2000/svg">
<path d="M18.1309 6.38736L14.1264 0.232149C14.0801 0.16097 14.0164 0.1024 13.941 0.0618318C13.8657 0.0212632 13.7812 0 13.6953 0C13.6094 0 13.5249 0.0212632 13.4496 0.0618318C13.3742 0.1024 13.3105 0.16097 13.2642 0.232149L9.25962 6.38742C8.56537 7.31423 8.19226 8.43611 8.19533 9.58752C8.19533 12.5719 10.6626 15 13.6953 15C16.728 15 19.1953 12.572 19.1953 9.58752C19.1984 8.43608 18.8252 7.31416 18.1309 6.38736ZM13.6953 13.9924C11.2272 13.9924 9.21918 12.0164 9.21918 9.58752C9.21656 8.64587 9.52317 7.72858 10.0933 6.97234C10.1001 6.96327 10.1066 6.95399 10.1128 6.94451L13.6953 1.4381L17.2777 6.94454C17.2839 6.95405 17.2904 6.96332 17.2972 6.97237C17.8674 7.72859 18.174 8.64586 18.1714 9.58752C18.1714 12.0164 16.1634 13.9924 13.6953 13.9924Z" fill="black"/>
<path fill-rule="evenodd" clip-rule="evenodd" d="M5.27778 52.5279H21.7708L26.3889 17.8057H0L5.27778 52.5279ZM6.19531 51.5H21.1953L25.1953 19H1.19531L6.19531 51.5Z" fill="black"/>
<rect x="3" y="32" width="21" height="1" fill="black"/>
</svg>
