<svg width="23" height="31" viewBox="0 0 23 31" fill="none" xmlns="http://www.w3.org/2000/svg">
<path d="M11.6712 31.0006C10.0459 31.0006 8.61839 30.7592 7.24389 30.2496C6.02372 29.7981 4.92412 29.1678 3.93544 28.3677C3.07216 27.6659 2.32944 26.8657 1.73141 25.9583C0.911534 24.7201 0.366556 23.3836 0.135061 21.9442C-0.0144464 21.0099 -0.0433832 20.0757 0.0675415 19.137C0.144707 18.4441 0.221872 17.7468 0.361733 17.0584C0.728267 15.2257 1.38899 13.4779 2.21852 11.7882C3.13485 9.92861 4.2441 8.17187 5.48356 6.48218C6.3999 5.23056 7.37893 4.01917 8.43995 2.87483C9.26947 1.97634 10.152 1.11809 11.0153 0.246422C11.1938 0.0676184 11.4012 -0.0620139 11.6761 0.0363278C11.7773 0.0720885 11.8738 0.13467 11.951 0.210661C12.5393 0.782831 13.1325 1.35053 13.7016 1.93611C14.1887 2.44123 14.6662 2.95082 15.1147 3.48723C15.8333 4.34548 16.5326 5.21715 17.2271 6.09329C17.5985 6.56264 17.9505 7.04541 18.2785 7.53712C18.7174 8.19422 19.137 8.86473 19.5517 9.53525C20.2848 10.7198 20.9069 11.9536 21.4423 13.2231C21.939 14.4032 22.3345 15.6101 22.6094 16.8528C22.9084 18.2027 23.0627 19.5616 22.9904 20.9339C22.9663 21.4167 22.8746 21.895 22.7926 22.3688C22.6769 23.0706 22.4406 23.7412 22.1464 24.3983C21.6496 25.5158 20.9648 26.526 20.0967 27.429C19.4215 28.1352 18.6547 28.7432 17.8059 29.2617C16.7014 29.9322 15.5102 30.4105 14.2225 30.7011C13.3351 30.9022 12.4332 30.9782 11.6712 31.0006ZM11.4928 1.18067C11.1986 1.47122 10.9189 1.73943 10.6488 2.0121C9.71317 2.96423 8.82095 3.94765 7.97214 4.9713C7.13779 5.97259 6.34685 7.00518 5.61378 8.07353C4.71674 9.37432 3.91133 10.7198 3.22166 12.1234C2.62846 13.3303 2.12206 14.5686 1.74588 15.847C1.31665 17.3132 1.06586 18.7973 1.06586 20.3215C1.06586 21.4972 1.26842 22.6326 1.71694 23.7322C2.12688 24.7425 2.69598 25.6722 3.44351 26.5037C4.36467 27.5273 5.45945 28.3543 6.74232 28.9622C8.14576 29.6283 9.63118 29.9814 11.2034 30.0261C12.4863 30.0619 13.7306 29.8786 14.9411 29.4897C15.7128 29.2394 16.441 28.9175 17.121 28.5063C18.1724 27.8805 19.0743 27.1071 19.8314 26.1863C20.3861 25.5113 20.8249 24.7782 21.1818 24.0049C21.3989 23.5311 21.5773 23.0438 21.6738 22.5387C21.7606 22.0693 21.8763 21.6045 21.9101 21.1306C21.9969 19.9371 21.9052 18.7526 21.6786 17.5724C21.4181 16.227 21.0034 14.9217 20.4777 13.6477C19.8748 12.1905 19.1321 10.7958 18.293 9.45031C17.3188 7.89026 16.224 6.40172 15.0327 4.97577C14.0826 3.8359 13.0795 2.7452 12.0281 1.69026C11.8641 1.52039 11.6905 1.36394 11.4928 1.18067Z" fill="#878787"/>
<path d="M11.1165 29.0552C9.47677 28.9926 7.92865 28.5546 6.51074 27.7321C5.45455 27.1197 4.56715 26.3419 3.84373 25.4076C3.63634 25.1439 3.6267 24.8757 3.81479 24.6969C4.05111 24.4644 4.408 24.4913 4.62985 24.7505C4.82758 24.983 5.02532 25.2199 5.22787 25.4479C5.70533 25.9798 6.2696 26.4179 6.88692 26.7978C7.73574 27.3253 8.66654 27.6829 9.66004 27.8975C10.1954 28.0137 10.7355 28.0673 11.2853 28.0718C11.3914 28.0718 11.4927 28.0763 11.5988 28.0942C11.8641 28.1389 12.0522 28.3668 12.0329 28.6082C12.0136 28.8362 11.7965 29.0329 11.5409 29.0463C11.4107 29.0597 11.2805 29.0552 11.1165 29.0552Z" fill="#878787"/>
<path d="M3.01423 23.24C2.78756 23.24 2.55606 23.088 2.49337 22.8779C2.24258 22.0598 2.08343 21.2239 2.0979 20.3702C2.10272 19.9678 2.48854 19.7399 2.86472 19.9142C3.06728 20.0081 3.14927 20.1735 3.14927 20.3702C3.14445 20.8619 3.20714 21.3491 3.30842 21.8319C3.36629 22.1001 3.44346 22.3683 3.5158 22.632C3.60261 22.9539 3.37112 23.24 3.01423 23.24Z" fill="#878787"/>
</svg>
