<svg width="35" height="35" viewBox="0 0 35 35" fill="none" xmlns="http://www.w3.org/2000/svg">
<g clip-path="url(#clip0)">
<path d="M17.4161 34.986C13.111 34.986 8.80591 34.9721 4.48682 35C3.24281 35.014 2.19449 34.6088 1.32788 33.7844C0.47524 32.9741 0 31.9681 0 30.7525C0.0139776 26.98 0.0139776 23.2076 0.0139776 19.4351C0.0139776 14.4331 0.0139776 9.43114 0 4.41517C0 3.92615 0.0419329 3.4511 0.195687 2.97605C0.754792 1.31337 2.55791 0 4.31909 0C13.097 0.0279441 21.875 0.0279441 30.653 0C32.5819 0 34.4688 1.43912 34.9301 3.52096C35 3.82834 34.972 4.16367 34.972 4.499C34.972 8.38323 34.972 12.2675 34.972 16.1657C34.972 20.9162 34.9581 25.6667 34.986 30.4032C34.986 31.5768 34.6925 32.5968 33.9097 33.477C33.0851 34.4132 32.0787 34.986 30.8207 34.986C27.4661 35 24.1114 34.986 20.7568 34.986C19.6526 34.986 18.5343 34.986 17.4161 34.986ZM33.8399 17.493C33.8399 16.6128 33.8399 15.7186 33.8399 14.8383C33.8399 11.3733 33.8538 7.89421 33.8259 4.42914C33.8119 3.05988 33.1689 2.03992 31.9109 1.43912C31.4217 1.21557 30.8906 1.14571 30.3454 1.14571C21.7772 1.14571 13.1949 1.14571 4.6266 1.14571C4.48682 1.14571 4.34704 1.13174 4.20727 1.14571C3.1869 1.25749 2.34824 1.6487 1.7472 2.52894C1.32788 3.14371 1.14617 3.81437 1.14617 4.55489C1.14617 13.1756 1.14617 21.7824 1.14617 30.4032C1.14617 30.4451 1.14617 30.501 1.14617 30.5429C1.16014 32.3872 2.58586 33.8124 4.41693 33.8124C13.125 33.8124 21.847 33.8124 30.5551 33.8124C32.4002 33.8124 33.8259 32.3872 33.8259 30.5429C33.8399 26.2116 33.8399 21.8523 33.8399 17.493Z" fill="black"/>
<path d="M17.4999 12.0721C15.9624 12.0721 14.4248 12.0442 12.8873 12.0861C12.2443 12.1 11.839 11.8485 11.5314 11.3176C10.4691 9.48727 9.37889 7.67091 8.31659 5.85454C7.9392 5.2258 8.16284 4.52719 8.86172 4.16392C9.29503 3.94037 9.74231 3.73079 10.1896 3.56312C11.811 2.93438 13.5023 2.48727 15.2215 2.29166C16.158 2.17989 17.1225 2.11003 18.073 2.15194C20.6588 2.29166 23.1748 2.79466 25.537 3.91242C25.7467 4.01023 25.9703 4.09406 26.166 4.19186C26.7391 4.48528 27.0466 5.23977 26.6273 5.91043C25.551 7.65693 24.5167 9.41741 23.5103 11.1919C23.1469 11.8346 22.6856 12.114 21.9448 12.0861C20.4771 12.0302 18.9815 12.0721 17.4999 12.0721ZM25.6489 5.23977C24.4608 4.70883 23.3146 4.19186 22.0426 3.95434C21.9448 4.28967 21.8469 4.59705 21.7491 4.91841C21.3298 4.96033 20.9803 4.84855 20.6309 4.63897C20.7008 4.31761 20.7567 4.0242 20.8126 3.70284C20.6728 3.64695 20.547 3.56312 20.4212 3.54915C19.8062 3.47929 19.1772 3.4234 18.5482 3.38148C18.3945 3.36751 18.2407 3.4234 18.1009 3.43737C18.073 3.80065 18.045 4.122 18.0171 4.45733C17.6257 4.48528 17.2902 4.55514 16.9408 4.40144C16.9128 4.06612 16.8989 3.74476 16.8709 3.39546C15.9204 3.35354 15.0538 3.46532 14.1732 3.6749C14.2431 4.03817 14.299 4.35953 14.3549 4.7228C13.9496 4.80663 13.6141 4.87649 13.2507 4.94635C13.1249 4.56911 13.0271 4.26172 12.9432 3.96831C11.825 4.122 9.88209 4.87649 9.39287 5.33757C10.4831 7.18188 11.5874 9.04017 12.6636 10.8705C15.9204 10.8705 19.1213 10.8705 22.3082 10.8705C23.4264 8.99825 24.5027 7.16791 25.6489 5.23977Z" fill="black"/>
<path d="M17.5698 5.64453C17.9193 7.04174 18.2687 8.42497 18.6181 9.82218C18.101 9.98984 17.0387 10.0038 16.3538 9.85012C16.7032 8.45291 17.0526 7.05571 17.4021 5.6585C17.458 5.6585 17.5139 5.64453 17.5698 5.64453Z" fill="black"/>
</g>
<defs>
<clipPath id="clip0">
<rect width="35" height="35" fill="white"/>
</clipPath>
</defs>
</svg>
