<svg width="72" height="72" viewBox="0 0 72 72" fill="none" xmlns="http://www.w3.org/2000/svg">
<path d="M35.9 71.7C16.1 71.7 0 55.7 0 35.9C0 16.1 16.1 0 35.9 0C55.7 0 71.8 16.1 71.8 35.9C71.7 55.7 55.7 71.7 35.9 71.7Z" fill="#57F676"/>
<path fill-rule="evenodd" clip-rule="evenodd" d="M55.4992 34.9002C55.1992 24.5002 46.6992 16.2002 36.1992 16.2002C25.7992 16.2002 17.3992 24.3002 16.8992 34.5002C16.8992 34.8002 16.8992 35.1002 16.8992 35.3002C16.8992 38.9002 17.8992 42.3002 19.6992 45.2002L16.1992 55.5002L26.8992 52.1002C29.6992 53.6002 32.7992 54.5002 36.1992 54.5002C46.8992 54.5002 55.4992 45.9002 55.4992 35.3002C55.4992 35.2002 55.4992 35.0002 55.4992 34.9002ZM36.1992 51.5002C32.8992 51.5002 29.7992 50.5002 27.2992 48.8002L21.0992 50.8002L23.0992 44.8002C21.1992 42.1002 19.9992 38.9002 19.9992 35.4002C19.9992 34.9002 19.9992 34.4002 20.0992 33.8002C20.8992 25.6002 27.7992 19.3002 36.2992 19.3002C44.7992 19.3002 51.7992 25.9002 52.4992 34.2002C52.4992 34.6002 52.5992 35.0002 52.5992 35.5002C52.4992 44.2002 45.1992 51.5002 36.1992 51.5002Z" fill="white"/>
<path fill-rule="evenodd" clip-rule="evenodd" d="M45.0988 39.2C44.5988 39 42.2988 37.8 41.8988 37.7C41.4988 37.5 41.0988 37.5 40.7988 37.9C40.4988 38.4 39.5988 39.4 39.2988 39.7C38.9988 40 38.6988 40.1 38.2988 39.8C37.7988 39.6 36.2988 39.1 34.4988 37.5C33.0988 36.3 32.0988 34.7 31.8988 34.3C31.5988 33.8 31.8988 33.6 32.0988 33.3C32.2988 33.1 32.5988 32.7 32.7988 32.5C32.8988 32.4 32.8988 32.3 32.9988 32.3C33.0988 32.1 33.1988 32 33.2988 31.7C33.4988 31.4 33.3988 31.1 33.2988 30.9C33.1988 30.7 32.1988 28.4 31.7988 27.4C31.3988 26.5 30.9988 26.6 30.6988 26.6C30.3988 26.6 30.0988 26.6 29.7988 26.6C29.4988 26.6 28.9988 26.7 28.4988 27.2C28.0988 27.7 26.7988 28.8 26.7988 31.1C26.7988 31.6 26.8988 32.2 26.9988 32.7C27.4988 34.4 28.4988 35.7 28.6988 36C28.8988 36.3 31.9988 41.2 36.7988 43.1C41.5988 45 41.5988 44.3 42.4988 44.3C43.3988 44.2 45.2988 43.2 45.6988 42.1C46.0988 41 46.0988 40.1 45.9988 39.9C45.8988 39.6 45.4988 39.5 45.0988 39.2Z" fill="white"/>
</svg>
