<svg width="81" height="66" viewBox="0 0 81 66" fill="none" xmlns="http://www.w3.org/2000/svg">
<mask id="mask0" mask-type="alpha" maskUnits="userSpaceOnUse" x="0" y="0" width="81" height="66">
<rect width="81" height="66" fill="#C4C4C4"/>
</mask>
<g mask="url(#mask0)">
<mask id="path-2-outside-1" maskUnits="userSpaceOnUse" x="39.5144" y="-0.479439" width="42" height="42" fill="black">
<rect fill="white" x="39.5144" y="-0.479439" width="42" height="42"/>
<path d="M62.0767 40.4783H58.9076C58.1947 40.478 57.511 40.1951 57.0064 39.6915C56.5018 39.1879 56.2175 38.5048 56.2158 37.7919V34.3121C55.252 34.012 54.3218 33.6128 53.4402 33.121L51.2289 35.3183C50.1958 36.332 48.4457 36.3224 47.4277 35.3065L45.1874 33.0522C44.6863 32.5462 44.4063 31.862 44.4089 31.1498C44.4116 30.4376 44.6965 29.7555 45.2014 29.2532L47.5395 26.9312C47.1956 26.2372 46.907 25.5173 46.6763 24.7779H43.2019C42.4888 24.7745 41.8061 24.4893 41.3026 23.9844C40.7991 23.4795 40.5158 22.7959 40.5144 22.0829V18.9127C40.5149 18.1999 40.7982 17.5165 41.302 17.0123C41.8058 16.508 42.4891 16.2242 43.2019 16.2231H46.6816C46.9813 15.2608 47.3805 14.3323 47.8727 13.4528L45.282 10.8363C45.0322 10.5857 44.8347 10.288 44.7009 9.96039C44.5671 9.63283 44.4997 9.28196 44.5026 8.92814C44.5038 8.57526 44.575 8.22613 44.7121 7.90098C44.8492 7.57583 45.0495 7.28114 45.3013 7.03399L47.5492 4.79691C48.579 3.78641 50.3409 3.79716 51.3514 4.80981L54.0647 7.54784C54.7527 7.20384 55.4762 6.91359 56.2244 6.68461V3.20806C56.2244 1.72564 57.4306 0.520561 58.9119 0.520561H62.0853C62.7976 0.521699 63.4804 0.805245 63.984 1.30903C64.4876 1.81282 64.7709 2.49574 64.7717 3.20806V6.68891C65.5481 6.92944 66.3026 7.23548 67.0271 7.60374L69.7662 4.89044C70.7993 3.87564 72.5537 3.89069 73.5674 4.90334L75.8034 7.15654C76.3054 7.65856 76.5828 8.33474 76.5828 9.05929C76.5828 9.41258 76.5125 9.76235 76.3761 10.0883C76.2398 10.4142 76.04 10.7097 75.7884 10.9577L73.1815 13.5485C73.6491 14.402 74.0297 15.3007 74.3156 16.2295H77.7986C78.5109 16.2307 79.1937 16.5142 79.6973 17.018C80.2009 17.5218 80.4842 18.2047 80.485 18.917V22.0818C80.4847 22.7946 80.2018 23.4782 79.6981 23.9826C79.1945 24.4871 78.5114 24.7711 77.7986 24.7726H74.3156C74.0762 25.5503 73.7694 26.3057 73.3986 27.0301L75.7196 29.3671C76.2205 29.8627 76.4979 30.5399 76.4979 31.2699C76.4979 31.9858 76.2151 32.6588 75.7034 33.1662L73.4556 35.4043C72.4225 36.418 70.6574 36.3987 69.6555 35.3893L67.4614 33.178C66.6046 33.6488 65.7091 34.0305 64.7879 34.3153V37.7973C64.7758 38.5098 64.4854 39.1892 63.9787 39.6903C63.472 40.1914 62.7893 40.4742 62.0767 40.4783V40.4783ZM53.2778 31.8418L53.6186 32.0428C54.6352 32.6472 55.7267 33.1156 56.8651 33.436L57.2381 33.5403V37.7897C57.2381 38.7078 57.9874 39.4549 58.9076 39.4549H62.0767C62.5196 39.4525 62.944 39.2771 63.2595 38.9663C63.575 38.6554 63.7566 38.2336 63.7655 37.7908V33.5467L64.1386 33.4424C65.2425 33.1331 66.3017 32.6818 67.2894 32.0998L67.6302 31.8987L70.3789 34.6679C70.9992 35.2936 72.0946 35.3043 72.7364 34.6755L74.9821 32.4384C75.2992 32.1245 75.4745 31.7085 75.4745 31.2677C75.4745 30.813 75.3046 30.3948 74.9961 30.0895L72.1398 27.2117L72.3215 26.8785C72.8052 25.9884 73.1804 25.0607 73.4384 24.1233L73.5427 23.7481H77.7986C78.7166 23.7481 79.4638 22.9999 79.4638 22.0797V18.9149C79.4638 17.9968 78.7166 17.2486 77.7986 17.2486H73.5437L73.4395 16.8745C73.132 15.7686 72.6829 14.707 72.1033 13.7162L71.9033 13.3743L75.067 10.23C75.3852 9.91391 75.5604 9.49681 75.5604 9.05606C75.5604 8.60456 75.3895 8.18531 75.0789 7.87571L72.8428 5.62251C72.5266 5.31632 72.104 5.14458 71.6638 5.14338C71.2236 5.14218 70.8001 5.3116 70.4821 5.61606L67.2109 8.85719L66.8777 8.67766C66.0039 8.20355 65.0797 7.8289 64.1224 7.56074L63.7483 7.45646V3.20806C63.7483 2.29001 63.0012 1.54181 62.0832 1.54181H58.9098C57.9917 1.54181 57.2446 2.28894 57.2446 3.20806V7.45539L56.8705 7.55966C55.9352 7.81874 55.0398 8.17779 54.2066 8.62499L53.8702 8.80559L50.6247 5.53114C50.0002 4.90764 48.9026 4.89796 48.2651 5.52469L46.0194 7.75961C45.8631 7.91259 45.7387 8.09518 45.6536 8.29673C45.5685 8.49827 45.5244 8.71474 45.5239 8.93351C45.522 9.15301 45.5638 9.37069 45.6469 9.57389C45.7299 9.77708 45.8525 9.96173 46.0076 10.1171L49.1498 13.2916L48.9488 13.6302C48.3446 14.6453 47.8762 15.7354 47.5556 16.8724L47.4513 17.2454H43.2019C42.2838 17.2454 41.5367 17.9936 41.5367 18.9127V22.0829C41.5367 23.002 42.2838 23.7524 43.204 23.7556H47.4492L47.5535 24.1297C47.8029 25.0284 48.1608 25.9228 48.6199 26.7903L48.7972 27.1247L45.9227 29.9766C45.6099 30.2877 45.4333 30.7101 45.4314 31.1512C45.4296 31.5923 45.6028 32.0162 45.913 32.3298L48.1522 34.583C48.7843 35.2119 49.8712 35.2183 50.5119 34.5895L53.2778 31.8418V31.8418Z"/>
</mask>
<path d="M62.0767 40.4783H58.9076C58.1947 40.478 57.511 40.1951 57.0064 39.6915C56.5018 39.1879 56.2175 38.5048 56.2158 37.7919V34.3121C55.252 34.012 54.3218 33.6128 53.4402 33.121L51.2289 35.3183C50.1958 36.332 48.4457 36.3224 47.4277 35.3065L45.1874 33.0522C44.6863 32.5462 44.4063 31.862 44.4089 31.1498C44.4116 30.4376 44.6965 29.7555 45.2014 29.2532L47.5395 26.9312C47.1956 26.2372 46.907 25.5173 46.6763 24.7779H43.2019C42.4888 24.7745 41.8061 24.4893 41.3026 23.9844C40.7991 23.4795 40.5158 22.7959 40.5144 22.0829V18.9127C40.5149 18.1999 40.7982 17.5165 41.302 17.0123C41.8058 16.508 42.4891 16.2242 43.2019 16.2231H46.6816C46.9813 15.2608 47.3805 14.3323 47.8727 13.4528L45.282 10.8363C45.0322 10.5857 44.8347 10.288 44.7009 9.96039C44.5671 9.63283 44.4997 9.28196 44.5026 8.92814C44.5038 8.57526 44.575 8.22613 44.7121 7.90098C44.8492 7.57583 45.0495 7.28114 45.3013 7.03399L47.5492 4.79691C48.579 3.78641 50.3409 3.79716 51.3514 4.80981L54.0647 7.54784C54.7527 7.20384 55.4762 6.91359 56.2244 6.68461V3.20806C56.2244 1.72564 57.4306 0.520561 58.9119 0.520561H62.0853C62.7976 0.521699 63.4804 0.805245 63.984 1.30903C64.4876 1.81282 64.7709 2.49574 64.7717 3.20806V6.68891C65.5481 6.92944 66.3026 7.23548 67.0271 7.60374L69.7662 4.89044C70.7993 3.87564 72.5537 3.89069 73.5674 4.90334L75.8034 7.15654C76.3054 7.65856 76.5828 8.33474 76.5828 9.05929C76.5828 9.41258 76.5125 9.76235 76.3761 10.0883C76.2398 10.4142 76.04 10.7097 75.7884 10.9577L73.1815 13.5485C73.6491 14.402 74.0297 15.3007 74.3156 16.2295H77.7986C78.5109 16.2307 79.1937 16.5142 79.6973 17.018C80.2009 17.5218 80.4842 18.2047 80.485 18.917V22.0818C80.4847 22.7946 80.2018 23.4782 79.6981 23.9826C79.1945 24.4871 78.5114 24.7711 77.7986 24.7726H74.3156C74.0762 25.5503 73.7694 26.3057 73.3986 27.0301L75.7196 29.3671C76.2205 29.8627 76.4979 30.5399 76.4979 31.2699C76.4979 31.9858 76.2151 32.6588 75.7034 33.1662L73.4556 35.4043C72.4225 36.418 70.6574 36.3987 69.6555 35.3893L67.4614 33.178C66.6046 33.6488 65.7091 34.0305 64.7879 34.3153V37.7973C64.7758 38.5098 64.4854 39.1892 63.9787 39.6903C63.472 40.1914 62.7893 40.4742 62.0767 40.4783V40.4783ZM53.2778 31.8418L53.6186 32.0428C54.6352 32.6472 55.7267 33.1156 56.8651 33.436L57.2381 33.5403V37.7897C57.2381 38.7078 57.9874 39.4549 58.9076 39.4549H62.0767C62.5196 39.4525 62.944 39.2771 63.2595 38.9663C63.575 38.6554 63.7566 38.2336 63.7655 37.7908V33.5467L64.1386 33.4424C65.2425 33.1331 66.3017 32.6818 67.2894 32.0998L67.6302 31.8987L70.3789 34.6679C70.9992 35.2936 72.0946 35.3043 72.7364 34.6755L74.9821 32.4384C75.2992 32.1245 75.4745 31.7085 75.4745 31.2677C75.4745 30.813 75.3046 30.3948 74.9961 30.0895L72.1398 27.2117L72.3215 26.8785C72.8052 25.9884 73.1804 25.0607 73.4384 24.1233L73.5427 23.7481H77.7986C78.7166 23.7481 79.4638 22.9999 79.4638 22.0797V18.9149C79.4638 17.9968 78.7166 17.2486 77.7986 17.2486H73.5437L73.4395 16.8745C73.132 15.7686 72.6829 14.707 72.1033 13.7162L71.9033 13.3743L75.067 10.23C75.3852 9.91391 75.5604 9.49681 75.5604 9.05606C75.5604 8.60456 75.3895 8.18531 75.0789 7.87571L72.8428 5.62251C72.5266 5.31632 72.104 5.14458 71.6638 5.14338C71.2236 5.14218 70.8001 5.3116 70.4821 5.61606L67.2109 8.85719L66.8777 8.67766C66.0039 8.20355 65.0797 7.8289 64.1224 7.56074L63.7483 7.45646V3.20806C63.7483 2.29001 63.0012 1.54181 62.0832 1.54181H58.9098C57.9917 1.54181 57.2446 2.28894 57.2446 3.20806V7.45539L56.8705 7.55966C55.9352 7.81874 55.0398 8.17779 54.2066 8.62499L53.8702 8.80559L50.6247 5.53114C50.0002 4.90764 48.9026 4.89796 48.2651 5.52469L46.0194 7.75961C45.8631 7.91259 45.7387 8.09518 45.6536 8.29673C45.5685 8.49827 45.5244 8.71474 45.5239 8.93351C45.522 9.15301 45.5638 9.37069 45.6469 9.57389C45.7299 9.77708 45.8525 9.96173 46.0076 10.1171L49.1498 13.2916L48.9488 13.6302C48.3446 14.6453 47.8762 15.7354 47.5556 16.8724L47.4513 17.2454H43.2019C42.2838 17.2454 41.5367 17.9936 41.5367 18.9127V22.0829C41.5367 23.002 42.2838 23.7524 43.204 23.7556H47.4492L47.5535 24.1297C47.8029 25.0284 48.1608 25.9228 48.6199 26.7903L48.7972 27.1247L45.9227 29.9766C45.6099 30.2877 45.4333 30.7101 45.4314 31.1512C45.4296 31.5923 45.6028 32.0162 45.913 32.3298L48.1522 34.583C48.7843 35.2119 49.8712 35.2183 50.5119 34.5895L53.2778 31.8418V31.8418Z" fill="#878787"/>
<path d="M62.0767 40.4783H58.9076C58.1947 40.478 57.511 40.1951 57.0064 39.6915C56.5018 39.1879 56.2175 38.5048 56.2158 37.7919V34.3121C55.252 34.012 54.3218 33.6128 53.4402 33.121L51.2289 35.3183C50.1958 36.332 48.4457 36.3224 47.4277 35.3065L45.1874 33.0522C44.6863 32.5462 44.4063 31.862 44.4089 31.1498C44.4116 30.4376 44.6965 29.7555 45.2014 29.2532L47.5395 26.9312C47.1956 26.2372 46.907 25.5173 46.6763 24.7779H43.2019C42.4888 24.7745 41.8061 24.4893 41.3026 23.9844C40.7991 23.4795 40.5158 22.7959 40.5144 22.0829V18.9127C40.5149 18.1999 40.7982 17.5165 41.302 17.0123C41.8058 16.508 42.4891 16.2242 43.2019 16.2231H46.6816C46.9813 15.2608 47.3805 14.3323 47.8727 13.4528L45.282 10.8363C45.0322 10.5857 44.8347 10.288 44.7009 9.96039C44.5671 9.63283 44.4997 9.28196 44.5026 8.92814C44.5038 8.57526 44.575 8.22613 44.7121 7.90098C44.8492 7.57583 45.0495 7.28114 45.3013 7.03399L47.5492 4.79691C48.579 3.78641 50.3409 3.79716 51.3514 4.80981L54.0647 7.54784C54.7527 7.20384 55.4762 6.91359 56.2244 6.68461V3.20806C56.2244 1.72564 57.4306 0.520561 58.9119 0.520561H62.0853C62.7976 0.521699 63.4804 0.805245 63.984 1.30903C64.4876 1.81282 64.7709 2.49574 64.7717 3.20806V6.68891C65.5481 6.92944 66.3026 7.23548 67.0271 7.60374L69.7662 4.89044C70.7993 3.87564 72.5537 3.89069 73.5674 4.90334L75.8034 7.15654C76.3054 7.65856 76.5828 8.33474 76.5828 9.05929C76.5828 9.41258 76.5125 9.76235 76.3761 10.0883C76.2398 10.4142 76.04 10.7097 75.7884 10.9577L73.1815 13.5485C73.6491 14.402 74.0297 15.3007 74.3156 16.2295H77.7986C78.5109 16.2307 79.1937 16.5142 79.6973 17.018C80.2009 17.5218 80.4842 18.2047 80.485 18.917V22.0818C80.4847 22.7946 80.2018 23.4782 79.6981 23.9826C79.1945 24.4871 78.5114 24.7711 77.7986 24.7726H74.3156C74.0762 25.5503 73.7694 26.3057 73.3986 27.0301L75.7196 29.3671C76.2205 29.8627 76.4979 30.5399 76.4979 31.2699C76.4979 31.9858 76.2151 32.6588 75.7034 33.1662L73.4556 35.4043C72.4225 36.418 70.6574 36.3987 69.6555 35.3893L67.4614 33.178C66.6046 33.6488 65.7091 34.0305 64.7879 34.3153V37.7973C64.7758 38.5098 64.4854 39.1892 63.9787 39.6903C63.472 40.1914 62.7893 40.4742 62.0767 40.4783V40.4783ZM53.2778 31.8418L53.6186 32.0428C54.6352 32.6472 55.7267 33.1156 56.8651 33.436L57.2381 33.5403V37.7897C57.2381 38.7078 57.9874 39.4549 58.9076 39.4549H62.0767C62.5196 39.4525 62.944 39.2771 63.2595 38.9663C63.575 38.6554 63.7566 38.2336 63.7655 37.7908V33.5467L64.1386 33.4424C65.2425 33.1331 66.3017 32.6818 67.2894 32.0998L67.6302 31.8987L70.3789 34.6679C70.9992 35.2936 72.0946 35.3043 72.7364 34.6755L74.9821 32.4384C75.2992 32.1245 75.4745 31.7085 75.4745 31.2677C75.4745 30.813 75.3046 30.3948 74.9961 30.0895L72.1398 27.2117L72.3215 26.8785C72.8052 25.9884 73.1804 25.0607 73.4384 24.1233L73.5427 23.7481H77.7986C78.7166 23.7481 79.4638 22.9999 79.4638 22.0797V18.9149C79.4638 17.9968 78.7166 17.2486 77.7986 17.2486H73.5437L73.4395 16.8745C73.132 15.7686 72.6829 14.707 72.1033 13.7162L71.9033 13.3743L75.067 10.23C75.3852 9.91391 75.5604 9.49681 75.5604 9.05606C75.5604 8.60456 75.3895 8.18531 75.0789 7.87571L72.8428 5.62251C72.5266 5.31632 72.104 5.14458 71.6638 5.14338C71.2236 5.14218 70.8001 5.3116 70.4821 5.61606L67.2109 8.85719L66.8777 8.67766C66.0039 8.20355 65.0797 7.8289 64.1224 7.56074L63.7483 7.45646V3.20806C63.7483 2.29001 63.0012 1.54181 62.0832 1.54181H58.9098C57.9917 1.54181 57.2446 2.28894 57.2446 3.20806V7.45539L56.8705 7.55966C55.9352 7.81874 55.0398 8.17779 54.2066 8.62499L53.8702 8.80559L50.6247 5.53114C50.0002 4.90764 48.9026 4.89796 48.2651 5.52469L46.0194 7.75961C45.8631 7.91259 45.7387 8.09518 45.6536 8.29673C45.5685 8.49827 45.5244 8.71474 45.5239 8.93351C45.522 9.15301 45.5638 9.37069 45.6469 9.57389C45.7299 9.77708 45.8525 9.96173 46.0076 10.1171L49.1498 13.2916L48.9488 13.6302C48.3446 14.6453 47.8762 15.7354 47.5556 16.8724L47.4513 17.2454H43.2019C42.2838 17.2454 41.5367 17.9936 41.5367 18.9127V22.0829C41.5367 23.002 42.2838 23.7524 43.204 23.7556H47.4492L47.5535 24.1297C47.8029 25.0284 48.1608 25.9228 48.6199 26.7903L48.7972 27.1247L45.9227 29.9766C45.6099 30.2877 45.4333 30.7101 45.4314 31.1512C45.4296 31.5923 45.6028 32.0162 45.913 32.3298L48.1522 34.583C48.7843 35.2119 49.8712 35.2183 50.5119 34.5895L53.2778 31.8418V31.8418Z" stroke="#878787" stroke-width="0.2" mask="url(#path-2-outside-1)"/>
<path d="M55.7088 15.7083C56.9795 14.4374 58.7025 13.7224 60.4997 13.7201C62.2969 13.7227 64.0198 14.4377 65.2907 15.7086C66.5615 16.9794 67.2766 18.7023 67.2792 20.4996C67.2769 22.2968 66.5619 24.0198 65.2909 25.2905C64.02 26.5612 62.2969 27.276 60.4997 27.278C58.7027 27.2757 56.9799 26.5608 55.7092 25.2901C54.4385 24.0194 53.7236 22.2966 53.7213 20.4996C53.7233 18.7023 54.438 16.9793 55.7088 15.7083ZM52.6 20.4996C52.6 24.8551 56.1431 28.3992 60.4997 28.3992C64.8563 28.3992 68.4004 24.8562 68.4015 20.4996C68.4015 16.1429 64.8563 12.5978 60.4997 12.5978C56.1441 12.5978 52.6 16.1419 52.6 20.4996Z" fill="#878787" stroke="#878787" stroke-width="0.1"/>
<mask id="path-4-outside-2" maskUnits="userSpaceOnUse" x="0" y="19" width="79" height="47" fill="black">
<rect fill="white" y="19" width="79" height="47"/>
<path d="M25.0895 48.727C25.0895 48.9835 25.0895 49.1817 25.0895 49.3915C25.0895 52.446 25.0895 55.4888 25.0895 58.5433C25.0895 60.0356 24.3966 61.0965 23.0568 61.7144C22.6988 61.8776 22.283 61.9709 21.8903 61.9709C20.3311 62.0058 18.772 62.0058 17.2128 61.9825C15.3418 61.9476 13.9674 60.5602 13.875 58.6599C13.8634 58.4267 13.875 58.2052 13.875 57.9371C13.6786 57.9138 13.5401 57.8788 13.3899 57.8788C13.0665 57.8671 12.7316 57.8788 12.4082 57.8671C10.4217 57.8438 8.98955 56.4448 8.93181 54.4279C8.92026 53.8683 8.93181 53.2971 8.93181 52.6792C8.82786 52.5976 8.68927 52.4927 8.55067 52.3994C7.60362 51.7932 6.66811 51.1986 5.7095 50.604C4.543 49.8928 3.98863 48.8553 4.00018 47.4679C4.02328 44.6349 4.02328 41.7903 4.00018 38.9573C3.98863 37.5234 4.5661 36.4625 5.76725 35.7163C6.70276 35.1334 7.62672 34.5388 8.55067 33.9559C8.67772 33.8743 8.79321 33.781 8.96646 33.6528C8.96646 32.9533 8.90871 32.2305 8.97801 31.5193C9.1397 29.8055 10.5372 28.5464 12.2465 28.5115C12.7662 28.4998 13.2744 28.5115 13.875 28.5115C13.875 28.2317 13.875 28.0102 13.875 27.777C13.8865 27.1358 13.8519 26.4946 13.9443 25.8534C14.1753 24.2096 15.5381 23.0321 17.1781 23.0087C18.7027 22.9971 20.2157 22.9971 21.7402 23.0087C23.6343 23.0204 25.0664 24.4544 25.0895 26.3547C25.1011 27.5555 25.0895 28.768 25.0895 29.9688C25.0895 32.3004 25.0895 34.6321 25.0895 36.9638C25.0895 37.1736 25.0895 37.3835 25.0895 37.5817C25.5746 37.7099 53.097 37.7449 53.8824 37.6166C53.894 37.4068 53.9055 37.1853 53.9055 36.9638C53.9055 33.4663 53.9171 29.9688 53.9055 26.4713C53.9055 25.5503 54.1827 24.7458 54.8064 24.0813C55.4531 23.3818 56.2616 23.0087 57.2202 23.0087C58.7216 23.0087 60.2231 22.9971 61.7245 23.0087C63.6533 23.0204 65.0739 24.4311 65.1316 26.378C65.1547 27.0542 65.1316 27.7304 65.1316 28.4882C65.5243 28.4882 65.8823 28.4882 66.2404 28.4998C66.6792 28.5231 67.1297 28.5115 67.557 28.6164C68.9083 28.9545 69.9015 30.1203 70.017 31.5193C70.0748 32.2305 70.0286 32.9533 70.0286 33.6761C70.6985 34.1075 71.3337 34.5039 71.9689 34.9119C72.454 35.2267 72.9506 35.5181 73.4357 35.8446C74.4289 36.5091 74.9949 37.4418 74.9949 38.6659C74.9949 41.697 75.0064 44.7282 74.9949 47.7594C74.9949 48.9135 74.4751 49.8229 73.5396 50.4524C72.6965 51.0237 71.8188 51.5483 70.9525 52.0963C70.6638 52.2828 70.3751 52.4693 70.0517 52.6908C70.0517 53.3903 70.0979 54.0898 70.0401 54.7893C69.89 56.5731 68.4925 57.8322 66.7139 57.8671C66.2173 57.8788 65.7206 57.8671 65.1663 57.8671C65.1547 58.1469 65.1432 58.3801 65.1432 58.6016C65.0739 60.5835 63.6533 61.9825 61.6899 61.9825C60.2462 61.9825 58.8025 61.9476 57.3588 61.9942C55.5571 62.0525 53.894 60.5136 53.9171 58.5433C53.9517 55.4888 53.9286 52.446 53.9286 49.3915C53.9286 49.1817 53.9286 48.9718 53.9286 48.727C44.2963 48.727 34.7449 48.727 25.0895 48.727ZM15.2263 42.4781C15.2263 47.7244 15.2263 52.9706 15.2263 58.2169C15.2263 58.3918 15.2263 58.5666 15.2263 58.7415C15.284 59.8257 16.1502 60.6651 17.2243 60.6768C18.6911 60.6885 20.1464 60.6885 21.6131 60.6768C22.9298 60.6651 23.7613 59.8257 23.7729 58.485C23.7844 57.2959 23.7729 56.1184 23.7729 54.9292C23.7729 46.9666 23.7729 38.9923 23.7729 31.0297C23.7729 29.4908 23.7844 27.9635 23.7613 26.4246C23.7498 25.2238 22.9067 24.3611 21.7171 24.3495C20.2388 24.3261 18.7489 24.3378 17.2705 24.3495C16.67 24.3495 16.1502 24.571 15.7345 25.0256C15.3187 25.4803 15.2147 26.0283 15.2147 26.6345C15.2263 31.9157 15.2263 37.1969 15.2263 42.4781ZM63.7688 42.5015C63.7688 38.7941 63.7688 35.0751 63.7688 31.3678C63.7688 29.7123 63.7457 28.0685 63.7803 26.413C63.7919 25.4337 63.0527 24.3728 61.8516 24.3378C60.2924 24.3028 58.7332 24.3028 57.174 24.3378C56.0768 24.3611 55.2683 25.2238 55.2221 26.3197C55.2106 26.4946 55.2221 26.6695 55.2221 26.8443C55.2221 35.4132 55.2221 43.9821 55.2221 52.5509C55.2221 54.5562 55.2106 56.5497 55.2337 58.555C55.2452 59.7208 56.0191 60.6185 57.1278 60.6535C58.7216 60.7001 60.327 60.7001 61.9208 60.6535C62.7871 60.6302 63.3876 60.1055 63.6764 59.2778C63.7688 58.998 63.7803 58.6716 63.7803 58.3568C63.7803 53.0756 63.7688 47.7943 63.7688 42.5015ZM25.1357 39.0389C25.1357 41.8253 25.1357 44.565 25.1357 47.3047C25.898 47.4329 53.4782 47.398 53.8824 47.2697C53.8824 44.5417 53.8824 41.8136 53.8824 39.0389C44.2848 39.0389 34.7218 39.0389 25.1357 39.0389ZM13.8403 29.8522C13.1243 29.8405 12.4313 29.7473 11.7614 29.9338C11.0569 30.1203 10.5834 30.5867 10.3755 31.2862C10.2946 31.5776 10.2831 31.904 10.2831 32.2072C10.2831 39.5519 10.2831 46.8967 10.2831 54.2297C10.2831 54.3463 10.2831 54.4629 10.2831 54.5795C10.3293 55.3373 10.6642 55.9202 11.3341 56.2699C11.5766 56.3982 11.8769 56.4915 12.1541 56.5031C12.72 56.5381 13.286 56.5497 13.8519 56.4915C13.8403 47.5728 13.8403 38.7358 13.8403 29.8522ZM65.1547 56.5148C65.7322 56.5148 66.2635 56.5264 66.7947 56.5148C67.6956 56.4798 68.4232 55.9085 68.6427 55.0342C68.7119 54.7544 68.7119 54.4629 68.7119 54.1714C68.7119 46.9433 68.7119 39.7151 68.7119 32.4986C68.7119 32.2421 68.7119 31.9973 68.7004 31.7408C68.6427 30.9014 68.0767 30.1786 67.2798 29.9571C66.5868 29.7589 65.8823 29.8638 65.1432 29.8755C65.1547 38.7358 65.1547 47.5728 65.1547 56.5148ZM8.93181 51.1053C8.92026 45.7775 8.93181 40.6012 8.92026 35.4365C8.80476 35.4365 8.75857 35.4249 8.72392 35.4365C7.86925 35.9728 7.01459 36.4858 6.18303 37.0454C5.59401 37.4301 5.31682 38.013 5.31682 38.7242C5.31682 39.4003 5.31682 40.0882 5.31682 40.7644C5.31682 43.0377 5.32837 45.3111 5.31682 47.5845C5.31682 48.2257 5.50161 48.8086 6.00979 49.1817C6.9222 49.8346 7.89235 50.4291 8.93181 51.1053ZM70.0979 35.3083C70.0979 40.6245 70.0979 45.8124 70.0979 51.0703C71.068 50.4408 71.992 49.8812 72.8813 49.275C73.4241 48.9019 73.6782 48.3423 73.6782 47.6778C73.6782 44.6816 73.6782 41.697 73.6782 38.7009C73.6782 38.013 73.401 37.4418 72.8351 37.057C71.9805 36.4741 71.0911 35.9378 70.0979 35.3083Z"/>
</mask>
<path d="M25.0895 48.727C25.0895 48.9835 25.0895 49.1817 25.0895 49.3915C25.0895 52.446 25.0895 55.4888 25.0895 58.5433C25.0895 60.0356 24.3966 61.0965 23.0568 61.7144C22.6988 61.8776 22.283 61.9709 21.8903 61.9709C20.3311 62.0058 18.772 62.0058 17.2128 61.9825C15.3418 61.9476 13.9674 60.5602 13.875 58.6599C13.8634 58.4267 13.875 58.2052 13.875 57.9371C13.6786 57.9138 13.5401 57.8788 13.3899 57.8788C13.0665 57.8671 12.7316 57.8788 12.4082 57.8671C10.4217 57.8438 8.98955 56.4448 8.93181 54.4279C8.92026 53.8683 8.93181 53.2971 8.93181 52.6792C8.82786 52.5976 8.68927 52.4927 8.55067 52.3994C7.60362 51.7932 6.66811 51.1986 5.7095 50.604C4.543 49.8928 3.98863 48.8553 4.00018 47.4679C4.02328 44.6349 4.02328 41.7903 4.00018 38.9573C3.98863 37.5234 4.5661 36.4625 5.76725 35.7163C6.70276 35.1334 7.62672 34.5388 8.55067 33.9559C8.67772 33.8743 8.79321 33.781 8.96646 33.6528C8.96646 32.9533 8.90871 32.2305 8.97801 31.5193C9.1397 29.8055 10.5372 28.5464 12.2465 28.5115C12.7662 28.4998 13.2744 28.5115 13.875 28.5115C13.875 28.2317 13.875 28.0102 13.875 27.777C13.8865 27.1358 13.8519 26.4946 13.9443 25.8534C14.1753 24.2096 15.5381 23.0321 17.1781 23.0087C18.7027 22.9971 20.2157 22.9971 21.7402 23.0087C23.6343 23.0204 25.0664 24.4544 25.0895 26.3547C25.1011 27.5555 25.0895 28.768 25.0895 29.9688C25.0895 32.3004 25.0895 34.6321 25.0895 36.9638C25.0895 37.1736 25.0895 37.3835 25.0895 37.5817C25.5746 37.7099 53.097 37.7449 53.8824 37.6166C53.894 37.4068 53.9055 37.1853 53.9055 36.9638C53.9055 33.4663 53.9171 29.9688 53.9055 26.4713C53.9055 25.5503 54.1827 24.7458 54.8064 24.0813C55.4531 23.3818 56.2616 23.0087 57.2202 23.0087C58.7216 23.0087 60.2231 22.9971 61.7245 23.0087C63.6533 23.0204 65.0739 24.4311 65.1316 26.378C65.1547 27.0542 65.1316 27.7304 65.1316 28.4882C65.5243 28.4882 65.8823 28.4882 66.2404 28.4998C66.6792 28.5231 67.1297 28.5115 67.557 28.6164C68.9083 28.9545 69.9015 30.1203 70.017 31.5193C70.0748 32.2305 70.0286 32.9533 70.0286 33.6761C70.6985 34.1075 71.3337 34.5039 71.9689 34.9119C72.454 35.2267 72.9506 35.5181 73.4357 35.8446C74.4289 36.5091 74.9949 37.4418 74.9949 38.6659C74.9949 41.697 75.0064 44.7282 74.9949 47.7594C74.9949 48.9135 74.4751 49.8229 73.5396 50.4524C72.6965 51.0237 71.8188 51.5483 70.9525 52.0963C70.6638 52.2828 70.3751 52.4693 70.0517 52.6908C70.0517 53.3903 70.0979 54.0898 70.0401 54.7893C69.89 56.5731 68.4925 57.8322 66.7139 57.8671C66.2173 57.8788 65.7206 57.8671 65.1663 57.8671C65.1547 58.1469 65.1432 58.3801 65.1432 58.6016C65.0739 60.5835 63.6533 61.9825 61.6899 61.9825C60.2462 61.9825 58.8025 61.9476 57.3588 61.9942C55.5571 62.0525 53.894 60.5136 53.9171 58.5433C53.9517 55.4888 53.9286 52.446 53.9286 49.3915C53.9286 49.1817 53.9286 48.9718 53.9286 48.727C44.2963 48.727 34.7449 48.727 25.0895 48.727ZM15.2263 42.4781C15.2263 47.7244 15.2263 52.9706 15.2263 58.2169C15.2263 58.3918 15.2263 58.5666 15.2263 58.7415C15.284 59.8257 16.1502 60.6651 17.2243 60.6768C18.6911 60.6885 20.1464 60.6885 21.6131 60.6768C22.9298 60.6651 23.7613 59.8257 23.7729 58.485C23.7844 57.2959 23.7729 56.1184 23.7729 54.9292C23.7729 46.9666 23.7729 38.9923 23.7729 31.0297C23.7729 29.4908 23.7844 27.9635 23.7613 26.4246C23.7498 25.2238 22.9067 24.3611 21.7171 24.3495C20.2388 24.3261 18.7489 24.3378 17.2705 24.3495C16.67 24.3495 16.1502 24.571 15.7345 25.0256C15.3187 25.4803 15.2147 26.0283 15.2147 26.6345C15.2263 31.9157 15.2263 37.1969 15.2263 42.4781ZM63.7688 42.5015C63.7688 38.7941 63.7688 35.0751 63.7688 31.3678C63.7688 29.7123 63.7457 28.0685 63.7803 26.413C63.7919 25.4337 63.0527 24.3728 61.8516 24.3378C60.2924 24.3028 58.7332 24.3028 57.174 24.3378C56.0768 24.3611 55.2683 25.2238 55.2221 26.3197C55.2106 26.4946 55.2221 26.6695 55.2221 26.8443C55.2221 35.4132 55.2221 43.9821 55.2221 52.5509C55.2221 54.5562 55.2106 56.5497 55.2337 58.555C55.2452 59.7208 56.0191 60.6185 57.1278 60.6535C58.7216 60.7001 60.327 60.7001 61.9208 60.6535C62.7871 60.6302 63.3876 60.1055 63.6764 59.2778C63.7688 58.998 63.7803 58.6716 63.7803 58.3568C63.7803 53.0756 63.7688 47.7943 63.7688 42.5015ZM25.1357 39.0389C25.1357 41.8253 25.1357 44.565 25.1357 47.3047C25.898 47.4329 53.4782 47.398 53.8824 47.2697C53.8824 44.5417 53.8824 41.8136 53.8824 39.0389C44.2848 39.0389 34.7218 39.0389 25.1357 39.0389ZM13.8403 29.8522C13.1243 29.8405 12.4313 29.7473 11.7614 29.9338C11.0569 30.1203 10.5834 30.5867 10.3755 31.2862C10.2946 31.5776 10.2831 31.904 10.2831 32.2072C10.2831 39.5519 10.2831 46.8967 10.2831 54.2297C10.2831 54.3463 10.2831 54.4629 10.2831 54.5795C10.3293 55.3373 10.6642 55.9202 11.3341 56.2699C11.5766 56.3982 11.8769 56.4915 12.1541 56.5031C12.72 56.5381 13.286 56.5497 13.8519 56.4915C13.8403 47.5728 13.8403 38.7358 13.8403 29.8522ZM65.1547 56.5148C65.7322 56.5148 66.2635 56.5264 66.7947 56.5148C67.6956 56.4798 68.4232 55.9085 68.6427 55.0342C68.7119 54.7544 68.7119 54.4629 68.7119 54.1714C68.7119 46.9433 68.7119 39.7151 68.7119 32.4986C68.7119 32.2421 68.7119 31.9973 68.7004 31.7408C68.6427 30.9014 68.0767 30.1786 67.2798 29.9571C66.5868 29.7589 65.8823 29.8638 65.1432 29.8755C65.1547 38.7358 65.1547 47.5728 65.1547 56.5148ZM8.93181 51.1053C8.92026 45.7775 8.93181 40.6012 8.92026 35.4365C8.80476 35.4365 8.75857 35.4249 8.72392 35.4365C7.86925 35.9728 7.01459 36.4858 6.18303 37.0454C5.59401 37.4301 5.31682 38.013 5.31682 38.7242C5.31682 39.4003 5.31682 40.0882 5.31682 40.7644C5.31682 43.0377 5.32837 45.3111 5.31682 47.5845C5.31682 48.2257 5.50161 48.8086 6.00979 49.1817C6.9222 49.8346 7.89235 50.4291 8.93181 51.1053ZM70.0979 35.3083C70.0979 40.6245 70.0979 45.8124 70.0979 51.0703C71.068 50.4408 71.992 49.8812 72.8813 49.275C73.4241 48.9019 73.6782 48.3423 73.6782 47.6778C73.6782 44.6816 73.6782 41.697 73.6782 38.7009C73.6782 38.013 73.401 37.4418 72.8351 37.057C71.9805 36.4741 71.0911 35.9378 70.0979 35.3083Z" fill="black"/>
<path d="M25.0895 48.727C25.0895 48.9835 25.0895 49.1817 25.0895 49.3915C25.0895 52.446 25.0895 55.4888 25.0895 58.5433C25.0895 60.0356 24.3966 61.0965 23.0568 61.7144C22.6988 61.8776 22.283 61.9709 21.8903 61.9709C20.3311 62.0058 18.772 62.0058 17.2128 61.9825C15.3418 61.9476 13.9674 60.5602 13.875 58.6599C13.8634 58.4267 13.875 58.2052 13.875 57.9371C13.6786 57.9138 13.5401 57.8788 13.3899 57.8788C13.0665 57.8671 12.7316 57.8788 12.4082 57.8671C10.4217 57.8438 8.98955 56.4448 8.93181 54.4279C8.92026 53.8683 8.93181 53.2971 8.93181 52.6792C8.82786 52.5976 8.68927 52.4927 8.55067 52.3994C7.60362 51.7932 6.66811 51.1986 5.7095 50.604C4.543 49.8928 3.98863 48.8553 4.00018 47.4679C4.02328 44.6349 4.02328 41.7903 4.00018 38.9573C3.98863 37.5234 4.5661 36.4625 5.76725 35.7163C6.70276 35.1334 7.62672 34.5388 8.55067 33.9559C8.67772 33.8743 8.79321 33.781 8.96646 33.6528C8.96646 32.9533 8.90871 32.2305 8.97801 31.5193C9.1397 29.8055 10.5372 28.5464 12.2465 28.5115C12.7662 28.4998 13.2744 28.5115 13.875 28.5115C13.875 28.2317 13.875 28.0102 13.875 27.777C13.8865 27.1358 13.8519 26.4946 13.9443 25.8534C14.1753 24.2096 15.5381 23.0321 17.1781 23.0087C18.7027 22.9971 20.2157 22.9971 21.7402 23.0087C23.6343 23.0204 25.0664 24.4544 25.0895 26.3547C25.1011 27.5555 25.0895 28.768 25.0895 29.9688C25.0895 32.3004 25.0895 34.6321 25.0895 36.9638C25.0895 37.1736 25.0895 37.3835 25.0895 37.5817C25.5746 37.7099 53.097 37.7449 53.8824 37.6166C53.894 37.4068 53.9055 37.1853 53.9055 36.9638C53.9055 33.4663 53.9171 29.9688 53.9055 26.4713C53.9055 25.5503 54.1827 24.7458 54.8064 24.0813C55.4531 23.3818 56.2616 23.0087 57.2202 23.0087C58.7216 23.0087 60.2231 22.9971 61.7245 23.0087C63.6533 23.0204 65.0739 24.4311 65.1316 26.378C65.1547 27.0542 65.1316 27.7304 65.1316 28.4882C65.5243 28.4882 65.8823 28.4882 66.2404 28.4998C66.6792 28.5231 67.1297 28.5115 67.557 28.6164C68.9083 28.9545 69.9015 30.1203 70.017 31.5193C70.0748 32.2305 70.0286 32.9533 70.0286 33.6761C70.6985 34.1075 71.3337 34.5039 71.9689 34.9119C72.454 35.2267 72.9506 35.5181 73.4357 35.8446C74.4289 36.5091 74.9949 37.4418 74.9949 38.6659C74.9949 41.697 75.0064 44.7282 74.9949 47.7594C74.9949 48.9135 74.4751 49.8229 73.5396 50.4524C72.6965 51.0237 71.8188 51.5483 70.9525 52.0963C70.6638 52.2828 70.3751 52.4693 70.0517 52.6908C70.0517 53.3903 70.0979 54.0898 70.0401 54.7893C69.89 56.5731 68.4925 57.8322 66.7139 57.8671C66.2173 57.8788 65.7206 57.8671 65.1663 57.8671C65.1547 58.1469 65.1432 58.3801 65.1432 58.6016C65.0739 60.5835 63.6533 61.9825 61.6899 61.9825C60.2462 61.9825 58.8025 61.9476 57.3588 61.9942C55.5571 62.0525 53.894 60.5136 53.9171 58.5433C53.9517 55.4888 53.9286 52.446 53.9286 49.3915C53.9286 49.1817 53.9286 48.9718 53.9286 48.727C44.2963 48.727 34.7449 48.727 25.0895 48.727ZM15.2263 42.4781C15.2263 47.7244 15.2263 52.9706 15.2263 58.2169C15.2263 58.3918 15.2263 58.5666 15.2263 58.7415C15.284 59.8257 16.1502 60.6651 17.2243 60.6768C18.6911 60.6885 20.1464 60.6885 21.6131 60.6768C22.9298 60.6651 23.7613 59.8257 23.7729 58.485C23.7844 57.2959 23.7729 56.1184 23.7729 54.9292C23.7729 46.9666 23.7729 38.9923 23.7729 31.0297C23.7729 29.4908 23.7844 27.9635 23.7613 26.4246C23.7498 25.2238 22.9067 24.3611 21.7171 24.3495C20.2388 24.3261 18.7489 24.3378 17.2705 24.3495C16.67 24.3495 16.1502 24.571 15.7345 25.0256C15.3187 25.4803 15.2147 26.0283 15.2147 26.6345C15.2263 31.9157 15.2263 37.1969 15.2263 42.4781ZM63.7688 42.5015C63.7688 38.7941 63.7688 35.0751 63.7688 31.3678C63.7688 29.7123 63.7457 28.0685 63.7803 26.413C63.7919 25.4337 63.0527 24.3728 61.8516 24.3378C60.2924 24.3028 58.7332 24.3028 57.174 24.3378C56.0768 24.3611 55.2683 25.2238 55.2221 26.3197C55.2106 26.4946 55.2221 26.6695 55.2221 26.8443C55.2221 35.4132 55.2221 43.9821 55.2221 52.5509C55.2221 54.5562 55.2106 56.5497 55.2337 58.555C55.2452 59.7208 56.0191 60.6185 57.1278 60.6535C58.7216 60.7001 60.327 60.7001 61.9208 60.6535C62.7871 60.6302 63.3876 60.1055 63.6764 59.2778C63.7688 58.998 63.7803 58.6716 63.7803 58.3568C63.7803 53.0756 63.7688 47.7943 63.7688 42.5015ZM25.1357 39.0389C25.1357 41.8253 25.1357 44.565 25.1357 47.3047C25.898 47.4329 53.4782 47.398 53.8824 47.2697C53.8824 44.5417 53.8824 41.8136 53.8824 39.0389C44.2848 39.0389 34.7218 39.0389 25.1357 39.0389ZM13.8403 29.8522C13.1243 29.8405 12.4313 29.7473 11.7614 29.9338C11.0569 30.1203 10.5834 30.5867 10.3755 31.2862C10.2946 31.5776 10.2831 31.904 10.2831 32.2072C10.2831 39.5519 10.2831 46.8967 10.2831 54.2297C10.2831 54.3463 10.2831 54.4629 10.2831 54.5795C10.3293 55.3373 10.6642 55.9202 11.3341 56.2699C11.5766 56.3982 11.8769 56.4915 12.1541 56.5031C12.72 56.5381 13.286 56.5497 13.8519 56.4915C13.8403 47.5728 13.8403 38.7358 13.8403 29.8522ZM65.1547 56.5148C65.7322 56.5148 66.2635 56.5264 66.7947 56.5148C67.6956 56.4798 68.4232 55.9085 68.6427 55.0342C68.7119 54.7544 68.7119 54.4629 68.7119 54.1714C68.7119 46.9433 68.7119 39.7151 68.7119 32.4986C68.7119 32.2421 68.7119 31.9973 68.7004 31.7408C68.6427 30.9014 68.0767 30.1786 67.2798 29.9571C66.5868 29.7589 65.8823 29.8638 65.1432 29.8755C65.1547 38.7358 65.1547 47.5728 65.1547 56.5148ZM8.93181 51.1053C8.92026 45.7775 8.93181 40.6012 8.92026 35.4365C8.80476 35.4365 8.75857 35.4249 8.72392 35.4365C7.86925 35.9728 7.01459 36.4858 6.18303 37.0454C5.59401 37.4301 5.31682 38.013 5.31682 38.7242C5.31682 39.4003 5.31682 40.0882 5.31682 40.7644C5.31682 43.0377 5.32837 45.3111 5.31682 47.5845C5.31682 48.2257 5.50161 48.8086 6.00979 49.1817C6.9222 49.8346 7.89235 50.4291 8.93181 51.1053ZM70.0979 35.3083C70.0979 40.6245 70.0979 45.8124 70.0979 51.0703C71.068 50.4408 71.992 49.8812 72.8813 49.275C73.4241 48.9019 73.6782 48.3423 73.6782 47.6778C73.6782 44.6816 73.6782 41.697 73.6782 38.7009C73.6782 38.013 73.401 37.4418 72.8351 37.057C71.9805 36.4741 71.0911 35.9378 70.0979 35.3083Z" stroke="white" stroke-width="8" mask="url(#path-4-outside-2)"/>
</g>
</svg>
