<svg width="103" height="50" viewBox="0 0 103 50" fill="none" xmlns="http://www.w3.org/2000/svg">
<path d="M66.95 30H36.05V20H66.95V30ZM15.45 0V10H5.15V20C3.78414 20 2.47421 20.5268 1.5084 21.4645C0.542588 22.4021 0 23.6739 0 25C0 26.3261 0.542588 27.5979 1.5084 28.5355C2.47421 29.4732 3.78414 30 5.15 30V40H15.45V50H30.9V0H15.45ZM97.85 20V10H87.55V0H72.1V50H87.55V40H97.85V30C99.2159 30 100.526 29.4732 101.492 28.5355C102.457 27.5979 103 26.3261 103 25C103 23.6739 102.457 22.4021 101.492 21.4645C100.526 20.5268 99.2159 20 97.85 20Z" fill="white"/>
</svg>
